G75*
%MOIN*%
%OFA0B0*%
%FSLAX25Y25*%
%IPPOS*%
%LPD*%
%AMOC8*
5,1,8,0,0,1.08239X$1,22.5*
%
%ADD10C,0.00500*%
%ADD11C,0.01000*%
%ADD12C,0.00600*%
%ADD13C,0.00800*%
%ADD14C,0.00100*%
%ADD15C,0.00400*%
%ADD16R,0.00150X0.00015*%
%ADD17R,0.00585X0.00015*%
%ADD18R,0.00795X0.00015*%
%ADD19R,0.01095X0.00015*%
%ADD20R,0.01095X0.00015*%
%ADD21R,0.03225X0.00015*%
%ADD22R,0.01110X0.00015*%
%ADD23R,0.00945X0.00015*%
%ADD24R,0.01095X0.00015*%
%ADD25R,0.01095X0.00015*%
%ADD26R,0.03225X0.00015*%
%ADD27R,0.01110X0.00015*%
%ADD28R,0.01080X0.00015*%
%ADD29R,0.03240X0.00015*%
%ADD30R,0.01200X0.00015*%
%ADD31R,0.01305X0.00015*%
%ADD32R,0.01395X0.00015*%
%ADD33R,0.03255X0.00015*%
%ADD34R,0.01485X0.00015*%
%ADD35R,0.03255X0.00015*%
%ADD36R,0.01560X0.00015*%
%ADD37R,0.01650X0.00015*%
%ADD38R,0.03270X0.00015*%
%ADD39R,0.01710X0.00015*%
%ADD40R,0.01770X0.00015*%
%ADD41R,0.03270X0.00015*%
%ADD42R,0.01845X0.00015*%
%ADD43R,0.01905X0.00015*%
%ADD44R,0.03285X0.00015*%
%ADD45R,0.01965X0.00015*%
%ADD46R,0.02025X0.00015*%
%ADD47R,0.02085X0.00015*%
%ADD48R,0.03300X0.00015*%
%ADD49R,0.02115X0.00015*%
%ADD50R,0.03300X0.00015*%
%ADD51R,0.02175X0.00015*%
%ADD52R,0.02235X0.00015*%
%ADD53R,0.03315X0.00015*%
%ADD54R,0.02280X0.00015*%
%ADD55R,0.02325X0.00015*%
%ADD56R,0.03315X0.00015*%
%ADD57R,0.02370X0.00015*%
%ADD58R,0.03330X0.00015*%
%ADD59R,0.02400X0.00015*%
%ADD60R,0.02460X0.00015*%
%ADD61R,0.02490X0.00015*%
%ADD62R,0.02535X0.00015*%
%ADD63R,0.03345X0.00015*%
%ADD64R,0.02565X0.00015*%
%ADD65R,0.03345X0.00015*%
%ADD66R,0.02625X0.00015*%
%ADD67R,0.02655X0.00015*%
%ADD68R,0.03360X0.00015*%
%ADD69R,0.02685X0.00015*%
%ADD70R,0.02730X0.00015*%
%ADD71R,0.03360X0.00015*%
%ADD72R,0.02730X0.00015*%
%ADD73R,0.03375X0.00015*%
%ADD74R,0.02745X0.00015*%
%ADD75R,0.02760X0.00015*%
%ADD76R,0.03390X0.00015*%
%ADD77R,0.02775X0.00015*%
%ADD78R,0.03390X0.00015*%
%ADD79R,0.02790X0.00015*%
%ADD80R,0.02805X0.00015*%
%ADD81R,0.03405X0.00015*%
%ADD82R,0.02820X0.00015*%
%ADD83R,0.02835X0.00015*%
%ADD84R,0.03405X0.00015*%
%ADD85R,0.02835X0.00015*%
%ADD86R,0.03420X0.00015*%
%ADD87R,0.02850X0.00015*%
%ADD88R,0.02865X0.00015*%
%ADD89R,0.03435X0.00015*%
%ADD90R,0.02865X0.00015*%
%ADD91R,0.03435X0.00015*%
%ADD92R,0.02880X0.00015*%
%ADD93R,0.02895X0.00015*%
%ADD94R,0.03450X0.00015*%
%ADD95R,0.02895X0.00015*%
%ADD96R,0.02910X0.00015*%
%ADD97R,0.03465X0.00015*%
%ADD98R,0.02910X0.00015*%
%ADD99R,0.03465X0.00015*%
%ADD100R,0.02925X0.00015*%
%ADD101R,0.02940X0.00015*%
%ADD102R,0.03480X0.00015*%
%ADD103R,0.02925X0.00015*%
%ADD104R,0.03480X0.00015*%
%ADD105R,0.02940X0.00015*%
%ADD106R,0.01035X0.00015*%
%ADD107R,0.03495X0.00015*%
%ADD108R,0.01485X0.00015*%
%ADD109R,0.00945X0.00015*%
%ADD110R,0.01440X0.00015*%
%ADD111R,0.00885X0.00015*%
%ADD112R,0.01410X0.00015*%
%ADD113R,0.00825X0.00015*%
%ADD114R,0.01380X0.00015*%
%ADD115R,0.00780X0.00015*%
%ADD116R,0.01350X0.00015*%
%ADD117R,0.00735X0.00015*%
%ADD118R,0.01335X0.00015*%
%ADD119R,0.00705X0.00015*%
%ADD120R,0.00675X0.00015*%
%ADD121R,0.01305X0.00015*%
%ADD122R,0.00615X0.00015*%
%ADD123R,0.01605X0.00015*%
%ADD124R,0.01275X0.00015*%
%ADD125R,0.00585X0.00015*%
%ADD126R,0.01605X0.00015*%
%ADD127R,0.00570X0.00015*%
%ADD128R,0.01605X0.00015*%
%ADD129R,0.01260X0.00015*%
%ADD130R,0.00525X0.00015*%
%ADD131R,0.01245X0.00015*%
%ADD132R,0.00495X0.00015*%
%ADD133R,0.01230X0.00015*%
%ADD134R,0.00465X0.00015*%
%ADD135R,0.01590X0.00015*%
%ADD136R,0.01215X0.00015*%
%ADD137R,0.00435X0.00015*%
%ADD138R,0.01590X0.00015*%
%ADD139R,0.00405X0.00015*%
%ADD140R,0.00375X0.00015*%
%ADD141R,0.00360X0.00015*%
%ADD142R,0.01200X0.00015*%
%ADD143R,0.00315X0.00015*%
%ADD144R,0.01185X0.00015*%
%ADD145R,0.00300X0.00015*%
%ADD146R,0.00285X0.00015*%
%ADD147R,0.01185X0.00015*%
%ADD148R,0.00240X0.00015*%
%ADD149R,0.01170X0.00015*%
%ADD150R,0.00225X0.00015*%
%ADD151R,0.01185X0.00015*%
%ADD152R,0.00210X0.00015*%
%ADD153R,0.00180X0.00015*%
%ADD154R,0.00135X0.00015*%
%ADD155R,0.00120X0.00015*%
%ADD156R,0.01590X0.00015*%
%ADD157R,0.01155X0.00015*%
%ADD158R,0.00090X0.00015*%
%ADD159R,0.01590X0.00015*%
%ADD160R,0.01155X0.00015*%
%ADD161R,0.00075X0.00015*%
%ADD162R,0.00060X0.00015*%
%ADD163R,0.00045X0.00015*%
%ADD164R,0.00015X0.00015*%
%ADD165R,0.01140X0.00015*%
%ADD166R,0.01140X0.00015*%
%ADD167R,0.01575X0.00015*%
%ADD168R,0.01575X0.00015*%
%ADD169R,0.01125X0.00015*%
%ADD170R,0.01140X0.00015*%
%ADD171R,0.01140X0.00015*%
%ADD172R,0.01125X0.00015*%
%ADD173R,0.01560X0.00015*%
%ADD174R,0.01560X0.00015*%
%ADD175R,0.01545X0.00015*%
%ADD176R,0.01545X0.00015*%
%ADD177R,0.01545X0.00015*%
%ADD178R,0.01530X0.00015*%
%ADD179R,0.01530X0.00015*%
%ADD180R,0.01530X0.00015*%
%ADD181R,0.01515X0.00015*%
%ADD182R,0.01515X0.00015*%
%ADD183R,0.01110X0.00015*%
%ADD184R,0.01500X0.00015*%
%ADD185R,0.01110X0.00015*%
%ADD186R,0.01500X0.00015*%
%ADD187R,0.01485X0.00015*%
%ADD188R,0.01155X0.00015*%
%ADD189R,0.01470X0.00015*%
%ADD190R,0.01470X0.00015*%
%ADD191R,0.01455X0.00015*%
%ADD192R,0.01155X0.00015*%
%ADD193R,0.01455X0.00015*%
%ADD194R,0.01455X0.00015*%
%ADD195R,0.01170X0.00015*%
%ADD196R,0.01425X0.00015*%
%ADD197R,0.01410X0.00015*%
%ADD198R,0.01185X0.00015*%
%ADD199R,0.01395X0.00015*%
%ADD200R,0.01215X0.00015*%
%ADD201R,0.01380X0.00015*%
%ADD202R,0.01230X0.00015*%
%ADD203R,0.01230X0.00015*%
%ADD204R,0.01230X0.00015*%
%ADD205R,0.01365X0.00015*%
%ADD206R,0.01245X0.00015*%
%ADD207R,0.01365X0.00015*%
%ADD208R,0.00015X0.00015*%
%ADD209R,0.01260X0.00015*%
%ADD210R,0.00045X0.00015*%
%ADD211R,0.01290X0.00015*%
%ADD212R,0.01215X0.00015*%
%ADD213R,0.01290X0.00015*%
%ADD214R,0.01320X0.00015*%
%ADD215R,0.01305X0.00015*%
%ADD216R,0.01290X0.00015*%
%ADD217R,0.01335X0.00015*%
%ADD218R,0.00180X0.00015*%
%ADD219R,0.01320X0.00015*%
%ADD220R,0.00210X0.00015*%
%ADD221R,0.01365X0.00015*%
%ADD222R,0.00225X0.00015*%
%ADD223R,0.01380X0.00015*%
%ADD224R,0.01275X0.00015*%
%ADD225R,0.00270X0.00015*%
%ADD226R,0.00285X0.00015*%
%ADD227R,0.01410X0.00015*%
%ADD228R,0.00330X0.00015*%
%ADD229R,0.01440X0.00015*%
%ADD230R,0.00375X0.00015*%
%ADD231R,0.01485X0.00015*%
%ADD232R,0.00420X0.00015*%
%ADD233R,0.01515X0.00015*%
%ADD234R,0.00450X0.00015*%
%ADD235R,0.01320X0.00015*%
%ADD236R,0.01635X0.00015*%
%ADD237R,0.01335X0.00015*%
%ADD238R,0.00555X0.00015*%
%ADD239R,0.01695X0.00015*%
%ADD240R,0.01650X0.00015*%
%ADD241R,0.00600X0.00015*%
%ADD242R,0.03615X0.00015*%
%ADD243R,0.00630X0.00015*%
%ADD244R,0.01395X0.00015*%
%ADD245R,0.00690X0.00015*%
%ADD246R,0.00720X0.00015*%
%ADD247R,0.03600X0.00015*%
%ADD248R,0.00105X0.00015*%
%ADD249R,0.01440X0.00015*%
%ADD250R,0.00765X0.00015*%
%ADD251R,0.03600X0.00015*%
%ADD252R,0.00135X0.00015*%
%ADD253R,0.00825X0.00015*%
%ADD254R,0.00165X0.00015*%
%ADD255R,0.00885X0.00015*%
%ADD256R,0.03585X0.00015*%
%ADD257R,0.00195X0.00015*%
%ADD258R,0.00960X0.00015*%
%ADD259R,0.03570X0.00015*%
%ADD260R,0.00255X0.00015*%
%ADD261R,0.02835X0.00015*%
%ADD262R,0.03570X0.00015*%
%ADD263R,0.00285X0.00015*%
%ADD264R,0.03555X0.00015*%
%ADD265R,0.00315X0.00015*%
%ADD266R,0.02835X0.00015*%
%ADD267R,0.00345X0.00015*%
%ADD268R,0.03540X0.00015*%
%ADD269R,0.00405X0.00015*%
%ADD270R,0.02820X0.00015*%
%ADD271R,0.03525X0.00015*%
%ADD272R,0.00435X0.00015*%
%ADD273R,0.03525X0.00015*%
%ADD274R,0.00465X0.00015*%
%ADD275R,0.03510X0.00015*%
%ADD276R,0.02805X0.00015*%
%ADD277R,0.00555X0.00015*%
%ADD278R,0.02805X0.00015*%
%ADD279R,0.03495X0.00015*%
%ADD280R,0.00585X0.00015*%
%ADD281R,0.00615X0.00015*%
%ADD282R,0.00645X0.00015*%
%ADD283R,0.02775X0.00015*%
%ADD284R,0.00720X0.00015*%
%ADD285R,0.00735X0.00015*%
%ADD286R,0.00765X0.00015*%
%ADD287R,0.00795X0.00015*%
%ADD288R,0.02295X0.00015*%
%ADD289R,0.02265X0.00015*%
%ADD290R,0.00855X0.00015*%
%ADD291R,0.02250X0.00015*%
%ADD292R,0.00885X0.00015*%
%ADD293R,0.02715X0.00015*%
%ADD294R,0.02235X0.00015*%
%ADD295R,0.00930X0.00015*%
%ADD296R,0.02205X0.00015*%
%ADD297R,0.02700X0.00015*%
%ADD298R,0.00990X0.00015*%
%ADD299R,0.02160X0.00015*%
%ADD300R,0.01020X0.00015*%
%ADD301R,0.02685X0.00015*%
%ADD302R,0.02130X0.00015*%
%ADD303R,0.01050X0.00015*%
%ADD304R,0.02670X0.00015*%
%ADD305R,0.02100X0.00015*%
%ADD306R,0.02670X0.00015*%
%ADD307R,0.02070X0.00015*%
%ADD308R,0.02040X0.00015*%
%ADD309R,0.02010X0.00015*%
%ADD310R,0.02595X0.00015*%
%ADD311R,0.01980X0.00015*%
%ADD312R,0.01170X0.00015*%
%ADD313R,0.01950X0.00015*%
%ADD314R,0.02520X0.00015*%
%ADD315R,0.02475X0.00015*%
%ADD316R,0.01875X0.00015*%
%ADD317R,0.02430X0.00015*%
%ADD318R,0.02400X0.00015*%
%ADD319R,0.01800X0.00015*%
%ADD320R,0.01395X0.00015*%
%ADD321R,0.01215X0.00015*%
%ADD322R,0.02340X0.00015*%
%ADD323R,0.01755X0.00015*%
%ADD324R,0.02310X0.00015*%
%ADD325R,0.01725X0.00015*%
%ADD326R,0.02250X0.00015*%
%ADD327R,0.01665X0.00015*%
%ADD328R,0.02205X0.00015*%
%ADD329R,0.02145X0.00015*%
%ADD330R,0.02040X0.00015*%
%ADD331R,0.01980X0.00015*%
%ADD332R,0.01920X0.00015*%
%ADD333R,0.01845X0.00015*%
%ADD334R,0.01305X0.00015*%
%ADD335R,0.01665X0.00015*%
%ADD336R,0.01785X0.00015*%
%ADD337R,0.03315X0.00015*%
%ADD338R,0.01005X0.00015*%
%ADD339R,0.01470X0.00015*%
%ADD340R,0.00900X0.00015*%
%ADD341R,0.03285X0.00015*%
%ADD342R,0.03210X0.00015*%
%ADD343R,0.03195X0.00015*%
%ADD344R,0.03165X0.00015*%
%ADD345R,0.03150X0.00015*%
%ADD346R,0.00390X0.00015*%
%ADD347R,0.03120X0.00015*%
%ADD348R,0.03105X0.00015*%
%ADD349R,0.03060X0.00015*%
%ADD350R,0.03045X0.00015*%
%ADD351R,0.03015X0.00015*%
%ADD352R,0.03000X0.00015*%
%ADD353R,0.02970X0.00015*%
%ADD354R,0.02745X0.00015*%
%ADD355R,0.02625X0.00015*%
%ADD356R,0.02595X0.00015*%
%ADD357R,0.02535X0.00015*%
%ADD358R,0.02460X0.00015*%
%ADD359R,0.02385X0.00015*%
%ADD360R,0.02355X0.00015*%
%ADD361R,0.02325X0.00015*%
%ADD362R,0.02280X0.00015*%
%ADD363R,0.00135X0.00015*%
%ADD364R,0.00345X0.00015*%
%ADD365R,0.02115X0.00015*%
%ADD366R,0.02085X0.00015*%
%ADD367R,0.00435X0.00015*%
%ADD368R,0.00465X0.00015*%
%ADD369R,0.01995X0.00015*%
%ADD370R,0.00495X0.00015*%
%ADD371R,0.00540X0.00015*%
%ADD372R,0.01860X0.00015*%
%ADD373R,0.00480X0.00015*%
%ADD374R,0.01815X0.00015*%
%ADD375R,0.01695X0.00015*%
%ADD376R,0.00660X0.00015*%
%ADD377R,0.00615X0.00015*%
%ADD378R,0.00705X0.00015*%
%ADD379R,0.00750X0.00015*%
%ADD380R,0.00630X0.00015*%
%ADD381R,0.00645X0.00015*%
%ADD382R,0.00810X0.00015*%
%ADD383R,0.00855X0.00015*%
%ADD384R,0.01260X0.00015*%
%ADD385R,0.00915X0.00015*%
%ADD386R,0.00660X0.00015*%
%ADD387R,0.01005X0.00015*%
%ADD388R,0.01035X0.00015*%
%ADD389R,0.01050X0.00015*%
%ADD390R,0.01080X0.00015*%
%ADD391R,0.00390X0.00015*%
%ADD392R,0.00480X0.00015*%
%ADD393R,0.00510X0.00015*%
%ADD394R,0.00540X0.00015*%
%ADD395R,0.00675X0.00015*%
%ADD396R,0.00600X0.00015*%
%ADD397R,0.00660X0.00015*%
%ADD398R,0.00690X0.00015*%
%ADD399R,0.00750X0.00015*%
%ADD400R,0.00255X0.00015*%
%ADD401R,0.00690X0.00015*%
%ADD402R,0.00555X0.00015*%
%ADD403R,0.01080X0.00015*%
%ADD404R,0.00705X0.00015*%
%ADD405R,0.00690X0.00015*%
%ADD406R,0.00960X0.00015*%
%ADD407R,0.00705X0.00015*%
%ADD408R,0.00915X0.00015*%
%ADD409R,0.00720X0.00015*%
%ADD410R,0.00795X0.00015*%
%ADD411R,0.00795X0.00015*%
%ADD412R,0.00420X0.00015*%
%ADD413R,0.00150X0.00015*%
%ADD414R,0.00780X0.00015*%
%ADD415R,0.00765X0.00015*%
%ADD416R,0.00780X0.00015*%
%ADD417R,0.00780X0.00015*%
%ADD418R,0.00810X0.00015*%
%ADD419R,0.00765X0.00015*%
%ADD420R,0.00810X0.00015*%
%ADD421R,0.00840X0.00015*%
%ADD422R,0.00870X0.00015*%
%ADD423R,0.00870X0.00015*%
%ADD424R,0.00870X0.00015*%
%ADD425R,0.00915X0.00015*%
%ADD426R,0.00975X0.00015*%
%ADD427R,0.01020X0.00015*%
%ADD428R,0.00810X0.00015*%
%ADD429R,0.01065X0.00015*%
%ADD430R,0.01245X0.00015*%
%ADD431R,0.00315X0.00015*%
%ADD432R,0.02460X0.00015*%
%ADD433R,0.00840X0.00015*%
%ADD434R,0.04455X0.00015*%
%ADD435R,0.03090X0.00015*%
%ADD436R,0.04575X0.00015*%
%ADD437R,0.04635X0.00015*%
%ADD438R,0.01770X0.00015*%
%ADD439R,0.04665X0.00015*%
%ADD440R,0.03375X0.00015*%
%ADD441R,0.01815X0.00015*%
%ADD442R,0.04710X0.00015*%
%ADD443R,0.00855X0.00015*%
%ADD444R,0.03465X0.00015*%
%ADD445R,0.01890X0.00015*%
%ADD446R,0.04740X0.00015*%
%ADD447R,0.04770X0.00015*%
%ADD448R,0.04800X0.00015*%
%ADD449R,0.03630X0.00015*%
%ADD450R,0.04815X0.00015*%
%ADD451R,0.03675X0.00015*%
%ADD452R,0.02055X0.00015*%
%ADD453R,0.04815X0.00015*%
%ADD454R,0.03720X0.00015*%
%ADD455R,0.04845X0.00015*%
%ADD456R,0.03765X0.00015*%
%ADD457R,0.02130X0.00015*%
%ADD458R,0.04860X0.00015*%
%ADD459R,0.03810X0.00015*%
%ADD460R,0.02160X0.00015*%
%ADD461R,0.03840X0.00015*%
%ADD462R,0.03870X0.00015*%
%ADD463R,0.02220X0.00015*%
%ADD464R,0.04875X0.00015*%
%ADD465R,0.03900X0.00015*%
%ADD466R,0.02265X0.00015*%
%ADD467R,0.04875X0.00015*%
%ADD468R,0.03945X0.00015*%
%ADD469R,0.03975X0.00015*%
%ADD470R,0.02310X0.00015*%
%ADD471R,0.04890X0.00015*%
%ADD472R,0.04005X0.00015*%
%ADD473R,0.04035X0.00015*%
%ADD474R,0.02370X0.00015*%
%ADD475R,0.04890X0.00015*%
%ADD476R,0.00885X0.00015*%
%ADD477R,0.04050X0.00015*%
%ADD478R,0.04095X0.00015*%
%ADD479R,0.04110X0.00015*%
%ADD480R,0.00900X0.00015*%
%ADD481R,0.04140X0.00015*%
%ADD482R,0.04155X0.00015*%
%ADD483R,0.02520X0.00015*%
%ADD484R,0.04845X0.00015*%
%ADD485R,0.04185X0.00015*%
%ADD486R,0.04200X0.00015*%
%ADD487R,0.02550X0.00015*%
%ADD488R,0.04830X0.00015*%
%ADD489R,0.04230X0.00015*%
%ADD490R,0.02580X0.00015*%
%ADD491R,0.04830X0.00015*%
%ADD492R,0.04245X0.00015*%
%ADD493R,0.02595X0.00015*%
%ADD494R,0.04815X0.00015*%
%ADD495R,0.04275X0.00015*%
%ADD496R,0.04800X0.00015*%
%ADD497R,0.00930X0.00015*%
%ADD498R,0.04290X0.00015*%
%ADD499R,0.02640X0.00015*%
%ADD500R,0.04785X0.00015*%
%ADD501R,0.04305X0.00015*%
%ADD502R,0.04755X0.00015*%
%ADD503R,0.04335X0.00015*%
%ADD504R,0.04740X0.00015*%
%ADD505R,0.04350X0.00015*%
%ADD506R,0.04725X0.00015*%
%ADD507R,0.00930X0.00015*%
%ADD508R,0.04365X0.00015*%
%ADD509R,0.04695X0.00015*%
%ADD510R,0.00945X0.00015*%
%ADD511R,0.04380X0.00015*%
%ADD512R,0.04665X0.00015*%
%ADD513R,0.04410X0.00015*%
%ADD514R,0.04425X0.00015*%
%ADD515R,0.04605X0.00015*%
%ADD516R,0.04455X0.00015*%
%ADD517R,0.04530X0.00015*%
%ADD518R,0.04470X0.00015*%
%ADD519R,0.04485X0.00015*%
%ADD520R,0.04500X0.00015*%
%ADD521R,0.04530X0.00015*%
%ADD522R,0.04395X0.00015*%
%ADD523R,0.00975X0.00015*%
%ADD524R,0.04530X0.00015*%
%ADD525R,0.04545X0.00015*%
%ADD526R,0.02955X0.00015*%
%ADD527R,0.04440X0.00015*%
%ADD528R,0.04560X0.00015*%
%ADD529R,0.02970X0.00015*%
%ADD530R,0.04590X0.00015*%
%ADD531R,0.03000X0.00015*%
%ADD532R,0.04500X0.00015*%
%ADD533R,0.01005X0.00015*%
%ADD534R,0.00840X0.00015*%
%ADD535R,0.03030X0.00015*%
%ADD536R,0.00840X0.00015*%
%ADD537R,0.01020X0.00015*%
%ADD538R,0.04635X0.00015*%
%ADD539R,0.03090X0.00015*%
%ADD540R,0.04590X0.00015*%
%ADD541R,0.04650X0.00015*%
%ADD542R,0.04590X0.00015*%
%ADD543R,0.04620X0.00015*%
%ADD544R,0.04680X0.00015*%
%ADD545R,0.04695X0.00015*%
%ADD546R,0.03180X0.00015*%
%ADD547R,0.04665X0.00015*%
%ADD548R,0.01065X0.00015*%
%ADD549R,0.04710X0.00015*%
%ADD550R,0.03180X0.00015*%
%ADD551R,0.03210X0.00015*%
%ADD552R,0.04695X0.00015*%
%ADD553R,0.04740X0.00015*%
%ADD554R,0.03240X0.00015*%
%ADD555R,0.04755X0.00015*%
%ADD556R,0.04770X0.00015*%
%ADD557R,0.03315X0.00015*%
%ADD558R,0.04785X0.00015*%
%ADD559R,0.00870X0.00015*%
%ADD560R,0.04770X0.00015*%
%ADD561R,0.03330X0.00015*%
%ADD562R,0.04785X0.00015*%
%ADD563R,0.03360X0.00015*%
%ADD564R,0.04845X0.00015*%
%ADD565R,0.01380X0.00015*%
%ADD566R,0.02955X0.00015*%
%ADD567R,0.02370X0.00015*%
%ADD568R,0.04830X0.00015*%
%ADD569R,0.02070X0.00015*%
%ADD570R,0.01905X0.00015*%
%ADD571R,0.01860X0.00015*%
%ADD572R,0.04845X0.00015*%
%ADD573R,0.01845X0.00015*%
%ADD574R,0.01350X0.00015*%
%ADD575R,0.01800X0.00015*%
%ADD576R,0.01740X0.00015*%
%ADD577R,0.01695X0.00015*%
%ADD578R,0.00990X0.00015*%
%ADD579R,0.01635X0.00015*%
%ADD580R,0.04860X0.00015*%
%ADD581R,0.01620X0.00015*%
%ADD582R,0.04860X0.00015*%
%ADD583R,0.01605X0.00015*%
%ADD584R,0.01620X0.00015*%
%ADD585R,0.00915X0.00015*%
%ADD586R,0.01035X0.00015*%
%ADD587R,0.03390X0.00015*%
%ADD588R,0.03255X0.00015*%
%ADD589R,0.03240X0.00015*%
%ADD590R,0.03195X0.00015*%
%ADD591R,0.00945X0.00015*%
%ADD592R,0.03165X0.00015*%
%ADD593R,0.03105X0.00015*%
%ADD594R,0.03075X0.00015*%
%ADD595R,0.03045X0.00015*%
%ADD596R,0.03015X0.00015*%
%ADD597R,0.02985X0.00015*%
%ADD598R,0.02955X0.00015*%
%ADD599R,0.02895X0.00015*%
%ADD600R,0.02760X0.00015*%
%ADD601R,0.00990X0.00015*%
%ADD602R,0.02610X0.00015*%
%ADD603R,0.01260X0.00015*%
%ADD604R,0.02565X0.00015*%
%ADD605R,0.02505X0.00015*%
%ADD606R,0.02430X0.00015*%
%ADD607R,0.02280X0.00015*%
%ADD608R,0.04755X0.00015*%
%ADD609R,0.02205X0.00015*%
%ADD610R,0.02130X0.00015*%
%ADD611R,0.04710X0.00015*%
%ADD612R,0.01980X0.00015*%
%ADD613R,0.01065X0.00015*%
%ADD614R,0.01920X0.00015*%
%ADD615R,0.04665X0.00015*%
%ADD616R,0.01425X0.00015*%
%ADD617R,0.04620X0.00015*%
%ADD618R,0.04620X0.00015*%
%ADD619R,0.04605X0.00015*%
%ADD620R,0.04590X0.00015*%
%ADD621R,0.04560X0.00015*%
%ADD622R,0.04560X0.00015*%
%ADD623R,0.04530X0.00015*%
%ADD624R,0.04515X0.00015*%
%ADD625R,0.04515X0.00015*%
%ADD626R,0.01560X0.00015*%
%ADD627R,0.04470X0.00015*%
%ADD628R,0.04455X0.00015*%
%ADD629R,0.04425X0.00015*%
%ADD630R,0.01620X0.00015*%
%ADD631R,0.04395X0.00015*%
%ADD632R,0.04320X0.00015*%
%ADD633R,0.01665X0.00015*%
%ADD634R,0.01680X0.00015*%
%ADD635R,0.04305X0.00015*%
%ADD636R,0.01680X0.00015*%
%ADD637R,0.04290X0.00015*%
%ADD638R,0.01320X0.00015*%
%ADD639R,0.04260X0.00015*%
%ADD640R,0.01710X0.00015*%
%ADD641R,0.04245X0.00015*%
%ADD642R,0.04230X0.00015*%
%ADD643R,0.04200X0.00015*%
%ADD644R,0.01740X0.00015*%
%ADD645R,0.04185X0.00015*%
%ADD646R,0.04170X0.00015*%
%ADD647R,0.04140X0.00015*%
%ADD648R,0.04125X0.00015*%
%ADD649R,0.04110X0.00015*%
%ADD650R,0.01785X0.00015*%
%ADD651R,0.04080X0.00015*%
%ADD652R,0.04065X0.00015*%
%ADD653R,0.01815X0.00015*%
%ADD654R,0.04020X0.00015*%
%ADD655R,0.01845X0.00015*%
%ADD656R,0.04005X0.00015*%
%ADD657R,0.03990X0.00015*%
%ADD658R,0.03960X0.00015*%
%ADD659R,0.03945X0.00015*%
%ADD660R,0.03915X0.00015*%
%ADD661R,0.03885X0.00015*%
%ADD662R,0.01890X0.00015*%
%ADD663R,0.03870X0.00015*%
%ADD664R,0.01695X0.00015*%
%ADD665R,0.03855X0.00015*%
%ADD666R,0.01935X0.00015*%
%ADD667R,0.01755X0.00015*%
%ADD668R,0.03795X0.00015*%
%ADD669R,0.03780X0.00015*%
%ADD670R,0.01950X0.00015*%
%ADD671R,0.03750X0.00015*%
%ADD672R,0.03705X0.00015*%
%ADD673R,0.02055X0.00015*%
%ADD674R,0.03660X0.00015*%
%ADD675R,0.03645X0.00015*%
%ADD676R,0.02010X0.00015*%
%ADD677R,0.04020X0.00015*%
%ADD678R,0.03615X0.00015*%
%ADD679R,0.03585X0.00015*%
%ADD680R,0.03960X0.00015*%
%ADD681R,0.03540X0.00015*%
%ADD682R,0.02055X0.00015*%
%ADD683R,0.03930X0.00015*%
%ADD684R,0.03915X0.00015*%
%ADD685R,0.03480X0.00015*%
%ADD686R,0.03885X0.00015*%
%ADD687R,0.02085X0.00015*%
%ADD688R,0.03405X0.00015*%
%ADD689R,0.03345X0.00015*%
%ADD690R,0.02115X0.00015*%
%ADD691R,0.03780X0.00015*%
%ADD692R,0.03765X0.00015*%
%ADD693R,0.02145X0.00015*%
%ADD694R,0.03735X0.00015*%
%ADD695R,0.03690X0.00015*%
%ADD696R,0.03195X0.00015*%
%ADD697R,0.02175X0.00015*%
%ADD698R,0.03660X0.00015*%
%ADD699R,0.02190X0.00015*%
%ADD700R,0.03630X0.00015*%
%ADD701R,0.03120X0.00015*%
%ADD702R,0.03030X0.00015*%
%ADD703R,0.02235X0.00015*%
%ADD704R,0.02310X0.00015*%
%ADD705R,0.02715X0.00015*%
%ADD706R,0.02340X0.00015*%
%ADD707R,0.02415X0.00015*%
%ADD708R,0.02385X0.00015*%
%ADD709R,0.03045X0.00015*%
%ADD710R,0.02445X0.00015*%
%ADD711R,0.02220X0.00015*%
%ADD712R,0.02040X0.00015*%
%ADD713R,0.02505X0.00015*%
%ADD714R,0.03810X0.00015*%
%ADD715R,0.01860X0.00015*%
%ADD716R,0.01785X0.00015*%
%ADD717R,0.02580X0.00015*%
%ADD718R,0.01725X0.00015*%
%ADD719R,0.02580X0.00015*%
%ADD720R,0.02490X0.00015*%
%ADD721R,0.03780X0.00015*%
%ADD722R,0.02670X0.00015*%
%ADD723R,0.03735X0.00015*%
%ADD724R,0.02685X0.00015*%
%ADD725R,0.03705X0.00015*%
%ADD726R,0.03690X0.00015*%
%ADD727R,0.02760X0.00015*%
%ADD728R,0.03660X0.00015*%
%ADD729R,0.03660X0.00015*%
%ADD730R,0.02820X0.00015*%
%ADD731R,0.02025X0.00015*%
%ADD732R,0.02190X0.00015*%
%ADD733R,0.02955X0.00015*%
%ADD734R,0.03510X0.00015*%
%ADD735R,0.02415X0.00015*%
%ADD736R,0.02790X0.00015*%
%ADD737R,0.02535X0.00015*%
%ADD738R,0.02655X0.00015*%
%ADD739R,0.03345X0.00015*%
%ADD740R,0.02550X0.00015*%
%ADD741R,0.02880X0.00015*%
%ADD742R,0.03090X0.00015*%
%ADD743R,0.03060X0.00015*%
%ADD744R,0.03075X0.00015*%
%ADD745R,0.03030X0.00015*%
%ADD746R,0.01995X0.00015*%
%ADD747R,0.02910X0.00015*%
%ADD748R,0.03015X0.00015*%
%ADD749R,0.02985X0.00015*%
%ADD750R,0.02790X0.00015*%
%ADD751R,0.01830X0.00015*%
%ADD752R,0.02940X0.00015*%
%ADD753R,0.02685X0.00015*%
%ADD754R,0.02640X0.00015*%
%ADD755R,0.02505X0.00015*%
%ADD756R,0.02460X0.00015*%
%ADD757R,0.02355X0.00015*%
%ADD758R,0.01905X0.00015*%
%ADD759R,0.02190X0.00015*%
%ADD760R,0.01890X0.00015*%
%ADD761R,0.02745X0.00015*%
%ADD762R,0.01965X0.00015*%
%ADD763R,0.02670X0.00015*%
%ADD764R,0.01995X0.00015*%
%ADD765R,0.02580X0.00015*%
%ADD766R,0.02085X0.00015*%
%ADD767R,0.02520X0.00015*%
%ADD768R,0.02520X0.00015*%
%ADD769R,0.02160X0.00015*%
%ADD770R,0.02445X0.00015*%
%ADD771R,0.02430X0.00015*%
%ADD772R,0.02265X0.00015*%
%ADD773R,0.02355X0.00015*%
%ADD774R,0.02385X0.00015*%
%ADD775R,0.02505X0.00015*%
%ADD776R,0.02610X0.00015*%
%ADD777R,0.02145X0.00015*%
%ADD778R,0.02850X0.00015*%
%ADD779R,0.01965X0.00015*%
%ADD780R,0.03060X0.00015*%
%ADD781R,0.03195X0.00015*%
%ADD782R,0.01830X0.00015*%
%ADD783R,0.01770X0.00015*%
%ADD784R,0.03585X0.00015*%
%ADD785R,0.03645X0.00015*%
%ADD786R,0.03780X0.00015*%
%ADD787R,0.01620X0.00015*%
%ADD788R,0.03990X0.00015*%
%ADD789R,0.04080X0.00015*%
%ADD790R,0.04155X0.00015*%
%ADD791R,0.01470X0.00015*%
%ADD792R,0.04335X0.00015*%
%ADD793R,0.06105X0.00015*%
%ADD794R,0.06075X0.00015*%
%ADD795R,0.06060X0.00015*%
%ADD796R,0.06030X0.00015*%
%ADD797R,0.06015X0.00015*%
%ADD798R,0.05985X0.00015*%
%ADD799R,0.05970X0.00015*%
%ADD800R,0.05940X0.00015*%
%ADD801R,0.05925X0.00015*%
%ADD802R,0.05895X0.00015*%
%ADD803R,0.05865X0.00015*%
%ADD804R,0.05835X0.00015*%
%ADD805R,0.05820X0.00015*%
%ADD806R,0.05775X0.00015*%
%ADD807R,0.05760X0.00015*%
%ADD808R,0.05715X0.00015*%
%ADD809R,0.05700X0.00015*%
%ADD810R,0.05655X0.00015*%
%ADD811R,0.05640X0.00015*%
%ADD812R,0.05595X0.00015*%
%ADD813R,0.05580X0.00015*%
%ADD814R,0.05535X0.00015*%
%ADD815R,0.05505X0.00015*%
%ADD816R,0.05460X0.00015*%
%ADD817R,0.05445X0.00015*%
%ADD818R,0.05400X0.00015*%
%ADD819R,0.05370X0.00015*%
%ADD820R,0.05325X0.00015*%
%ADD821R,0.05340X0.00015*%
%ADD822R,0.05355X0.00015*%
%ADD823R,0.05355X0.00015*%
%ADD824R,0.05370X0.00015*%
%ADD825R,0.05385X0.00015*%
%ADD826R,0.05385X0.00015*%
%ADD827R,0.05415X0.00015*%
%ADD828R,0.05430X0.00015*%
%ADD829R,0.05430X0.00015*%
%ADD830R,0.05460X0.00015*%
%ADD831R,0.05460X0.00015*%
%ADD832R,0.05475X0.00015*%
%ADD833R,0.05490X0.00015*%
%ADD834R,0.04020X0.00015*%
%ADD835R,0.03870X0.00015*%
%ADD836R,0.03555X0.00015*%
%ADD837R,0.03450X0.00015*%
%ADD838R,0.01635X0.00015*%
%ADD839R,0.00960X0.00015*%
%ADD840R,0.00570X0.00015*%
%ADD841R,0.00525X0.00015*%
%ADD842R,0.00360X0.00015*%
%ADD843R,0.00240X0.00015*%
%ADD844R,0.00210X0.00015*%
%ADD845R,0.00165X0.00015*%
%ADD846R,0.00120X0.00015*%
%ADD847R,0.00075X0.00015*%
%ADD848R,0.00030X0.00015*%
%ADD849R,0.00030X0.00015*%
%ADD850R,0.00030X0.00015*%
%ADD851R,0.01335X0.00015*%
%ADD852R,0.01530X0.00015*%
%ADD853R,0.01740X0.00015*%
%ADD854R,0.01770X0.00015*%
%ADD855R,0.01875X0.00015*%
%ADD856R,0.01860X0.00015*%
%ADD857R,0.02070X0.00015*%
%ADD858R,0.02295X0.00015*%
%ADD859R,0.02340X0.00015*%
%ADD860R,0.02415X0.00015*%
%ADD861R,0.02475X0.00015*%
%ADD862R,0.02595X0.00015*%
%ADD863R,0.02640X0.00015*%
%ADD864R,0.02760X0.00015*%
%ADD865R,0.06000X0.00015*%
%ADD866R,0.05850X0.00015*%
%ADD867R,0.05790X0.00015*%
%ADD868R,0.05730X0.00015*%
%ADD869R,0.05700X0.00015*%
%ADD870R,0.05640X0.00015*%
%ADD871R,0.05535X0.00015*%
%ADD872R,0.05490X0.00015*%
%ADD873R,0.05430X0.00015*%
%ADD874R,0.05280X0.00015*%
%ADD875R,0.05220X0.00015*%
%ADD876R,0.05160X0.00015*%
%ADD877R,0.05115X0.00015*%
%ADD878R,0.05070X0.00015*%
%ADD879R,0.05010X0.00015*%
%ADD880R,0.04950X0.00015*%
%ADD881R,0.04920X0.00015*%
%ADD882R,0.04440X0.00015*%
%ADD883R,0.04380X0.00015*%
%ADD884R,0.04185X0.00015*%
%ADD885R,0.03930X0.00015*%
%ADD886R,0.03870X0.00015*%
%ADD887R,0.03720X0.00015*%
%ADD888R,0.03570X0.00015*%
%ADD889R,0.03405X0.00015*%
%ADD890R,0.03150X0.00015*%
%ADD891R,0.02880X0.00015*%
%ADD892R,0.02730X0.00015*%
%ADD893R,0.02370X0.00015*%
%ADD894R,0.02220X0.00015*%
%ADD895R,0.02100X0.00015*%
%ADD896C,0.00787*%
%ADD897R,0.03150X0.00787*%
%ADD898C,0.00200*%
D10*
X0037712Y0026621D02*
X0038163Y0026171D01*
X0039063Y0026171D01*
X0039514Y0026621D01*
X0039514Y0027071D01*
X0039063Y0027522D01*
X0038613Y0027522D01*
X0039063Y0027522D02*
X0039514Y0027972D01*
X0039514Y0028423D01*
X0039063Y0028873D01*
X0038163Y0028873D01*
X0037712Y0028423D01*
X0040659Y0028873D02*
X0040659Y0027071D01*
X0041559Y0026171D01*
X0042460Y0027071D01*
X0042460Y0028873D01*
X0043605Y0028423D02*
X0044056Y0028873D01*
X0044956Y0028873D01*
X0045407Y0028423D01*
X0045407Y0027972D01*
X0044956Y0027522D01*
X0045407Y0027071D01*
X0045407Y0026621D01*
X0044956Y0026171D01*
X0044056Y0026171D01*
X0043605Y0026621D01*
X0044506Y0027522D02*
X0044956Y0027522D01*
X0049027Y0028502D02*
X0050028Y0029503D01*
X0050028Y0026500D01*
X0049027Y0026500D02*
X0051029Y0026500D01*
X0052250Y0027000D02*
X0052750Y0026500D01*
X0053751Y0026500D01*
X0054252Y0027000D01*
X0054252Y0028001D01*
X0053751Y0028502D01*
X0053251Y0028502D01*
X0052250Y0028001D01*
X0052250Y0029503D01*
X0054252Y0029503D01*
X0058909Y0028522D02*
X0059910Y0029523D01*
X0059910Y0026521D01*
X0058909Y0026521D02*
X0060911Y0026521D01*
X0062132Y0027021D02*
X0062632Y0026521D01*
X0063633Y0026521D01*
X0064134Y0027021D01*
X0064134Y0027522D01*
X0063633Y0028022D01*
X0063133Y0028022D01*
X0063633Y0028022D02*
X0064134Y0028522D01*
X0064134Y0029023D01*
X0063633Y0029523D01*
X0062632Y0029523D01*
X0062132Y0029023D01*
X0068409Y0028522D02*
X0069410Y0029523D01*
X0069410Y0026521D01*
X0068409Y0026521D02*
X0070411Y0026521D01*
X0071632Y0026521D02*
X0073634Y0028522D01*
X0073634Y0029023D01*
X0073133Y0029523D01*
X0072132Y0029523D01*
X0071632Y0029023D01*
X0071632Y0026521D02*
X0073634Y0026521D01*
X0078909Y0026521D02*
X0080911Y0026521D01*
X0079910Y0026521D02*
X0079910Y0029523D01*
X0078909Y0028522D01*
X0082132Y0028022D02*
X0084134Y0028022D01*
X0083633Y0026521D02*
X0083633Y0029523D01*
X0082132Y0028022D01*
X0088909Y0028522D02*
X0089910Y0029523D01*
X0089910Y0026521D01*
X0088909Y0026521D02*
X0090911Y0026521D01*
X0092132Y0027021D02*
X0092132Y0028022D01*
X0093633Y0028022D01*
X0094134Y0027522D01*
X0094134Y0027021D01*
X0093633Y0026521D01*
X0092632Y0026521D01*
X0092132Y0027021D01*
X0092132Y0028022D02*
X0093133Y0029023D01*
X0094134Y0029523D01*
X0098909Y0028272D02*
X0098909Y0026271D01*
X0098909Y0027772D02*
X0100911Y0027772D01*
X0100911Y0028272D02*
X0099910Y0029273D01*
X0098909Y0028272D01*
X0100911Y0028272D02*
X0100911Y0026271D01*
X0102132Y0026771D02*
X0104134Y0028773D01*
X0104134Y0026771D01*
X0103633Y0026271D01*
X0102632Y0026271D01*
X0102132Y0026771D01*
X0102132Y0028773D01*
X0102632Y0029273D01*
X0103633Y0029273D01*
X0104134Y0028773D01*
X0107837Y0028873D02*
X0107837Y0026171D01*
X0107837Y0027071D02*
X0109188Y0027071D01*
X0109639Y0027522D01*
X0109639Y0028423D01*
X0109188Y0028873D01*
X0107837Y0028873D01*
X0108738Y0027071D02*
X0109639Y0026171D01*
X0110784Y0026621D02*
X0111234Y0026171D01*
X0112135Y0026171D01*
X0112585Y0026621D01*
X0112585Y0027071D01*
X0112135Y0027522D01*
X0111234Y0027522D01*
X0110784Y0027972D01*
X0110784Y0028423D01*
X0111234Y0028873D01*
X0112135Y0028873D01*
X0112585Y0028423D01*
X0113730Y0028873D02*
X0115532Y0028873D01*
X0114631Y0028873D02*
X0114631Y0026171D01*
X0118803Y0026152D02*
X0118803Y0024350D01*
X0119254Y0023900D01*
X0120155Y0023900D01*
X0120605Y0024350D01*
X0121750Y0023900D02*
X0123552Y0023900D01*
X0122651Y0023900D02*
X0122651Y0026602D01*
X0121750Y0025702D01*
X0120605Y0026152D02*
X0120155Y0026602D01*
X0119254Y0026602D01*
X0118803Y0026152D01*
X0123419Y0029669D02*
X0132081Y0029669D01*
X0132592Y0028882D02*
X0132594Y0028915D01*
X0132600Y0028947D01*
X0132609Y0028978D01*
X0132622Y0029008D01*
X0132639Y0029036D01*
X0132659Y0029062D01*
X0132682Y0029086D01*
X0132707Y0029106D01*
X0132735Y0029124D01*
X0132764Y0029138D01*
X0132795Y0029148D01*
X0132827Y0029155D01*
X0132860Y0029158D01*
X0132893Y0029157D01*
X0132925Y0029152D01*
X0132956Y0029143D01*
X0132987Y0029131D01*
X0133015Y0029115D01*
X0133042Y0029096D01*
X0133066Y0029074D01*
X0133087Y0029049D01*
X0133106Y0029022D01*
X0133121Y0028993D01*
X0133132Y0028963D01*
X0133140Y0028931D01*
X0133144Y0028898D01*
X0133144Y0028866D01*
X0133140Y0028833D01*
X0133132Y0028801D01*
X0133121Y0028771D01*
X0133106Y0028742D01*
X0133087Y0028715D01*
X0133066Y0028690D01*
X0133042Y0028668D01*
X0133015Y0028649D01*
X0132987Y0028633D01*
X0132956Y0028621D01*
X0132925Y0028612D01*
X0132893Y0028607D01*
X0132860Y0028606D01*
X0132827Y0028609D01*
X0132795Y0028616D01*
X0132764Y0028626D01*
X0132735Y0028640D01*
X0132707Y0028658D01*
X0132682Y0028678D01*
X0132659Y0028702D01*
X0132639Y0028728D01*
X0132622Y0028756D01*
X0132609Y0028786D01*
X0132600Y0028817D01*
X0132594Y0028849D01*
X0132592Y0028882D01*
X0132081Y0033606D02*
X0132081Y0034394D01*
X0132081Y0038331D02*
X0123419Y0038331D01*
X0123419Y0034394D02*
X0123419Y0033606D01*
X0113050Y0033888D02*
X0113050Y0038612D01*
X0112359Y0037037D02*
X0110391Y0037037D01*
X0111375Y0036053D01*
X0112359Y0037037D01*
X0109700Y0038612D02*
X0109700Y0033888D01*
X0107788Y0033735D02*
X0107788Y0035086D01*
X0107338Y0035536D01*
X0105536Y0035536D01*
X0105086Y0035086D01*
X0105086Y0033735D01*
X0107788Y0033735D01*
X0107788Y0036681D02*
X0107788Y0038483D01*
X0107788Y0037582D02*
X0105086Y0037582D01*
X0105986Y0036681D01*
X0095614Y0043114D02*
X0095614Y0070673D01*
X0117661Y0070673D01*
X0117661Y0043114D01*
X0123173Y0043114D01*
X0123173Y0070673D01*
X0117661Y0070673D01*
X0123722Y0074900D02*
X0123722Y0077602D01*
X0122821Y0077602D02*
X0124623Y0077602D01*
X0125768Y0077602D02*
X0126669Y0077602D01*
X0126218Y0077602D02*
X0126218Y0074900D01*
X0125768Y0074900D02*
X0126669Y0074900D01*
X0127732Y0075350D02*
X0128183Y0074900D01*
X0129083Y0074900D01*
X0129534Y0075350D01*
X0127732Y0075350D02*
X0127732Y0077152D01*
X0128183Y0077602D01*
X0129083Y0077602D01*
X0129534Y0077152D01*
X0114259Y0083521D02*
X0112257Y0086523D01*
X0111036Y0086523D02*
X0109034Y0086523D01*
X0110035Y0086523D02*
X0110035Y0083521D01*
X0112257Y0083521D02*
X0114259Y0086523D01*
X0104259Y0086523D02*
X0102257Y0083521D01*
X0101036Y0083521D02*
X0100035Y0084522D01*
X0100535Y0084522D02*
X0099034Y0084522D01*
X0099034Y0083521D02*
X0099034Y0086523D01*
X0100535Y0086523D01*
X0101036Y0086023D01*
X0101036Y0085022D01*
X0100535Y0084522D01*
X0102257Y0086523D02*
X0104259Y0083521D01*
X0100900Y0078552D02*
X0100449Y0078552D01*
X0099999Y0078101D01*
X0099999Y0076750D01*
X0100900Y0076750D01*
X0101350Y0077200D01*
X0101350Y0078101D01*
X0100900Y0078552D01*
X0099098Y0077651D02*
X0099999Y0076750D01*
X0099999Y0075605D02*
X0100449Y0075155D01*
X0100449Y0073803D01*
X0101350Y0073803D02*
X0098648Y0073803D01*
X0098648Y0075155D01*
X0099098Y0075605D01*
X0099999Y0075605D01*
X0100449Y0074704D02*
X0101350Y0075605D01*
X0099098Y0077651D02*
X0098648Y0078552D01*
X0092522Y0084021D02*
X0092022Y0083521D01*
X0091021Y0083521D01*
X0090521Y0084021D01*
X0090521Y0085022D02*
X0091521Y0085522D01*
X0092022Y0085522D01*
X0092522Y0085022D01*
X0092522Y0084021D01*
X0090521Y0085022D02*
X0090521Y0086523D01*
X0092522Y0086523D01*
X0082147Y0085022D02*
X0080146Y0085022D01*
X0081647Y0086523D01*
X0081647Y0083521D01*
X0072647Y0084146D02*
X0072147Y0083646D01*
X0071146Y0083646D01*
X0070646Y0084146D01*
X0072647Y0086148D01*
X0072647Y0084146D01*
X0070646Y0084146D02*
X0070646Y0086148D01*
X0071146Y0086648D01*
X0072147Y0086648D01*
X0072647Y0086148D01*
X0062522Y0086023D02*
X0062522Y0085522D01*
X0060521Y0083521D01*
X0062522Y0083521D01*
X0062522Y0086023D02*
X0062022Y0086523D01*
X0061021Y0086523D01*
X0060521Y0086023D01*
X0055282Y0086173D02*
X0055282Y0084371D01*
X0054831Y0083921D01*
X0053480Y0083921D01*
X0053480Y0086623D01*
X0054831Y0086623D01*
X0055282Y0086173D01*
X0052335Y0086623D02*
X0052335Y0083921D01*
X0050534Y0086623D01*
X0050534Y0083921D01*
X0049389Y0084371D02*
X0049389Y0085272D01*
X0048488Y0085272D01*
X0049389Y0086173D02*
X0048938Y0086623D01*
X0048037Y0086623D01*
X0047587Y0086173D01*
X0047587Y0084371D01*
X0048037Y0083921D01*
X0048938Y0083921D01*
X0049389Y0084371D01*
X0043808Y0084821D02*
X0042908Y0083921D01*
X0042007Y0084821D01*
X0042007Y0086623D01*
X0040862Y0086623D02*
X0039060Y0086623D01*
X0039060Y0085272D01*
X0039961Y0085722D01*
X0040412Y0085722D01*
X0040862Y0085272D01*
X0040862Y0084371D01*
X0040412Y0083921D01*
X0039511Y0083921D01*
X0039060Y0084371D01*
X0043808Y0084821D02*
X0043808Y0086623D01*
X0031751Y0083003D02*
X0031751Y0080000D01*
X0030750Y0080000D02*
X0032752Y0080000D01*
X0030750Y0082002D02*
X0031751Y0083003D01*
X0029529Y0082502D02*
X0029529Y0081501D01*
X0029029Y0081001D01*
X0027527Y0081001D01*
X0027527Y0080000D02*
X0027527Y0083003D01*
X0029029Y0083003D01*
X0029529Y0082502D01*
X0028528Y0081001D02*
X0029529Y0080000D01*
X0012479Y0075745D02*
X0010478Y0075745D01*
X0009477Y0074744D01*
X0010478Y0073743D01*
X0012479Y0073743D01*
X0011979Y0072522D02*
X0009977Y0072522D01*
X0009477Y0072022D01*
X0009477Y0070521D01*
X0012479Y0070521D01*
X0012479Y0072022D01*
X0011979Y0072522D01*
X0010978Y0073743D02*
X0010978Y0075745D01*
X0011478Y0069299D02*
X0011979Y0069299D01*
X0012479Y0068799D01*
X0012479Y0067798D01*
X0011979Y0067298D01*
X0010978Y0067798D02*
X0010978Y0068799D01*
X0011478Y0069299D01*
X0009977Y0069299D02*
X0009477Y0068799D01*
X0009477Y0067798D01*
X0009977Y0067298D01*
X0010478Y0067298D01*
X0010978Y0067798D01*
X0012479Y0065745D02*
X0012479Y0063743D01*
X0009477Y0063743D01*
X0009977Y0062522D02*
X0009477Y0062022D01*
X0009477Y0061021D01*
X0009977Y0060521D01*
X0011979Y0060521D01*
X0012479Y0061021D01*
X0012479Y0062022D01*
X0011979Y0062522D01*
X0011979Y0059299D02*
X0012479Y0058799D01*
X0012479Y0057798D01*
X0011979Y0057298D01*
X0010978Y0057798D02*
X0010978Y0058799D01*
X0011478Y0059299D01*
X0011979Y0059299D01*
X0010978Y0057798D02*
X0010478Y0057298D01*
X0009977Y0057298D01*
X0009477Y0057798D01*
X0009477Y0058799D01*
X0009977Y0059299D01*
X0009977Y0055745D02*
X0010478Y0055745D01*
X0010978Y0055245D01*
X0011478Y0055745D01*
X0011979Y0055745D01*
X0012479Y0055245D01*
X0012479Y0054244D01*
X0011979Y0053743D01*
X0011478Y0052522D02*
X0009477Y0052522D01*
X0009977Y0053743D02*
X0009477Y0054244D01*
X0009477Y0055245D01*
X0009977Y0055745D01*
X0010978Y0055245D02*
X0010978Y0054744D01*
X0011478Y0052522D02*
X0012479Y0051521D01*
X0011478Y0050521D01*
X0009477Y0050521D01*
X0009977Y0049299D02*
X0010478Y0049299D01*
X0010978Y0048799D01*
X0011478Y0049299D01*
X0011979Y0049299D01*
X0012479Y0048799D01*
X0012479Y0047798D01*
X0011979Y0047298D01*
X0010978Y0048299D02*
X0010978Y0048799D01*
X0009977Y0049299D02*
X0009477Y0048799D01*
X0009477Y0047798D01*
X0009977Y0047298D01*
X0009977Y0045745D02*
X0009477Y0045245D01*
X0009477Y0043743D01*
X0012479Y0043743D01*
X0012479Y0045245D01*
X0011979Y0045745D01*
X0009977Y0045745D01*
X0009477Y0042522D02*
X0012479Y0042522D01*
X0009477Y0040521D01*
X0012479Y0040521D01*
X0011979Y0039299D02*
X0010978Y0039299D01*
X0010978Y0038299D01*
X0009977Y0039299D02*
X0009477Y0038799D01*
X0009477Y0037798D01*
X0009977Y0037298D01*
X0011979Y0037298D01*
X0012479Y0037798D01*
X0012479Y0038799D01*
X0011979Y0039299D01*
X0032247Y0053777D02*
X0032247Y0055279D01*
X0032748Y0055779D01*
X0033749Y0055779D01*
X0034249Y0055279D01*
X0034249Y0053777D01*
X0035250Y0053777D02*
X0032247Y0053777D01*
X0034249Y0054778D02*
X0035250Y0055779D01*
X0035250Y0057000D02*
X0033248Y0059002D01*
X0032748Y0059002D01*
X0032247Y0058501D01*
X0032247Y0057500D01*
X0032748Y0057000D01*
X0035250Y0057000D02*
X0035250Y0059002D01*
X0039997Y0059362D02*
X0043000Y0059362D01*
X0043000Y0058361D02*
X0043000Y0060363D01*
X0040998Y0058361D02*
X0039997Y0059362D01*
X0039997Y0057140D02*
X0041999Y0055139D01*
X0041499Y0055639D02*
X0043000Y0057140D01*
X0043000Y0055139D02*
X0039997Y0055139D01*
X0040498Y0053918D02*
X0039997Y0053417D01*
X0039997Y0052416D01*
X0040498Y0051916D01*
X0042500Y0051916D01*
X0043000Y0052416D01*
X0043000Y0053417D01*
X0042500Y0053918D01*
X0040498Y0053918D01*
X0050748Y0052775D02*
X0052416Y0052775D01*
X0053250Y0051940D01*
X0052416Y0051106D01*
X0050748Y0051106D01*
X0050748Y0050012D02*
X0050748Y0048344D01*
X0050748Y0049178D02*
X0053250Y0049178D01*
X0053250Y0047250D02*
X0053250Y0045582D01*
X0050748Y0045582D01*
X0057747Y0043113D02*
X0057747Y0042112D01*
X0058248Y0041611D01*
X0057747Y0040390D02*
X0059749Y0038389D01*
X0059249Y0038889D02*
X0060750Y0040390D01*
X0060250Y0041611D02*
X0060750Y0042112D01*
X0060750Y0043113D01*
X0060250Y0043613D01*
X0059749Y0043613D01*
X0059249Y0043113D01*
X0059249Y0042612D01*
X0059249Y0043113D02*
X0058748Y0043613D01*
X0058248Y0043613D01*
X0057747Y0043113D01*
X0062277Y0046500D02*
X0062277Y0049503D01*
X0063779Y0049503D01*
X0064279Y0049002D01*
X0064279Y0048001D01*
X0063779Y0047501D01*
X0062277Y0047501D01*
X0063278Y0047501D02*
X0064279Y0046500D01*
X0065500Y0048001D02*
X0067502Y0048001D01*
X0067001Y0046500D02*
X0067001Y0049503D01*
X0065500Y0048001D01*
X0067500Y0050750D02*
X0071000Y0050750D01*
X0071000Y0053750D01*
X0072777Y0049753D02*
X0074279Y0049753D01*
X0074779Y0049252D01*
X0074779Y0048251D01*
X0074279Y0047751D01*
X0072777Y0047751D01*
X0072777Y0046750D02*
X0072777Y0049753D01*
X0073778Y0047751D02*
X0074779Y0046750D01*
X0076000Y0047250D02*
X0076500Y0046750D01*
X0077501Y0046750D01*
X0078002Y0047250D01*
X0078002Y0048251D01*
X0077501Y0048752D01*
X0077001Y0048752D01*
X0076000Y0048251D01*
X0076000Y0049753D01*
X0078002Y0049753D01*
X0082898Y0047682D02*
X0082898Y0046781D01*
X0083348Y0046330D01*
X0084249Y0047231D02*
X0084249Y0047682D01*
X0084699Y0048132D01*
X0085150Y0048132D01*
X0085600Y0047682D01*
X0085600Y0046781D01*
X0085150Y0046330D01*
X0084249Y0047682D02*
X0083798Y0048132D01*
X0083348Y0048132D01*
X0082898Y0047682D01*
X0082898Y0044285D02*
X0085600Y0044285D01*
X0085600Y0045185D02*
X0085600Y0043384D01*
X0085150Y0042239D02*
X0083348Y0042239D01*
X0082898Y0041789D01*
X0082898Y0040888D01*
X0083348Y0040437D01*
X0085150Y0040437D01*
X0085600Y0040888D01*
X0085600Y0041789D01*
X0085150Y0042239D01*
X0083798Y0043384D02*
X0082898Y0044285D01*
X0082898Y0039374D02*
X0082898Y0038473D01*
X0082898Y0038923D02*
X0085600Y0038923D01*
X0085600Y0038473D02*
X0085600Y0039374D01*
X0095614Y0043114D02*
X0117661Y0043114D01*
X0126432Y0049169D02*
X0126432Y0051171D01*
X0126432Y0050170D02*
X0129435Y0050170D01*
X0129435Y0052392D02*
X0129435Y0053393D01*
X0129435Y0052892D02*
X0126432Y0052892D01*
X0126432Y0052392D02*
X0126432Y0053393D01*
X0126432Y0054540D02*
X0129435Y0056542D01*
X0126432Y0056542D01*
X0126432Y0057763D02*
X0126432Y0059765D01*
X0126933Y0060986D02*
X0128935Y0060986D01*
X0129435Y0061486D01*
X0129435Y0062487D01*
X0128935Y0062988D01*
X0126933Y0062988D01*
X0126432Y0062487D01*
X0126432Y0061486D01*
X0126933Y0060986D01*
X0127934Y0058764D02*
X0127934Y0057763D01*
X0129435Y0057763D02*
X0126432Y0057763D01*
X0126432Y0054540D02*
X0129435Y0054540D01*
X0091250Y0054489D02*
X0090933Y0054172D01*
X0089665Y0054172D01*
X0089348Y0054489D01*
X0089348Y0055123D01*
X0089665Y0055440D01*
X0090299Y0056382D02*
X0090299Y0057649D01*
X0090616Y0058592D02*
X0090616Y0059542D01*
X0090299Y0059859D01*
X0089665Y0059859D01*
X0089348Y0059542D01*
X0089348Y0058592D01*
X0091250Y0058592D01*
X0090616Y0059225D02*
X0091250Y0059859D01*
X0091250Y0060801D02*
X0089348Y0062069D01*
X0089348Y0060801D02*
X0091250Y0062069D01*
X0085850Y0064946D02*
X0085850Y0065847D01*
X0085850Y0065397D02*
X0083148Y0065397D01*
X0083148Y0065847D02*
X0083148Y0064946D01*
X0083598Y0066911D02*
X0085400Y0066911D01*
X0085850Y0067361D01*
X0085850Y0068262D01*
X0085400Y0068712D01*
X0083598Y0068712D01*
X0083148Y0068262D01*
X0083148Y0067361D01*
X0083598Y0066911D01*
X0083598Y0069857D02*
X0083148Y0070308D01*
X0083148Y0071208D01*
X0083598Y0071659D01*
X0084048Y0071659D01*
X0084499Y0071208D01*
X0084949Y0071659D01*
X0085400Y0071659D01*
X0085850Y0071208D01*
X0085850Y0070308D01*
X0085400Y0069857D01*
X0084499Y0070758D02*
X0084499Y0071208D01*
X0072613Y0073750D02*
X0072113Y0073250D01*
X0071112Y0073250D01*
X0070611Y0073750D01*
X0072613Y0075752D01*
X0072613Y0073750D01*
X0070611Y0073750D02*
X0070611Y0075752D01*
X0071112Y0076253D01*
X0072113Y0076253D01*
X0072613Y0075752D01*
X0069390Y0075752D02*
X0069390Y0075252D01*
X0067389Y0073250D01*
X0069390Y0073250D01*
X0066168Y0073250D02*
X0064166Y0073250D01*
X0066168Y0075252D01*
X0066168Y0075752D01*
X0065667Y0076253D01*
X0064666Y0076253D01*
X0064166Y0075752D01*
X0067389Y0075752D02*
X0067889Y0076253D01*
X0068890Y0076253D01*
X0069390Y0075752D01*
X0061250Y0070751D02*
X0061250Y0069750D01*
X0060750Y0069250D01*
X0061250Y0068029D02*
X0060249Y0067028D01*
X0060249Y0067529D02*
X0060249Y0066027D01*
X0061250Y0066027D02*
X0058247Y0066027D01*
X0058247Y0067529D01*
X0058748Y0068029D01*
X0059749Y0068029D01*
X0060249Y0067529D01*
X0058748Y0069250D02*
X0058247Y0069750D01*
X0058247Y0070751D01*
X0058748Y0071252D01*
X0059248Y0071252D01*
X0059749Y0070751D01*
X0060249Y0071252D01*
X0060750Y0071252D01*
X0061250Y0070751D01*
X0059749Y0070751D02*
X0059749Y0070251D01*
X0053250Y0063407D02*
X0050748Y0063407D01*
X0051999Y0062156D01*
X0051999Y0063824D01*
X0053250Y0061062D02*
X0053250Y0059394D01*
X0053250Y0060228D02*
X0050748Y0060228D01*
X0051582Y0059394D01*
X0051582Y0058299D02*
X0051165Y0058299D01*
X0050748Y0057882D01*
X0050748Y0057048D01*
X0051165Y0056631D01*
X0051582Y0056631D01*
X0051999Y0057048D01*
X0051999Y0057882D01*
X0052416Y0058299D01*
X0052833Y0058299D01*
X0053250Y0057882D01*
X0053250Y0057048D01*
X0052833Y0056631D01*
X0052416Y0056631D01*
X0051999Y0057048D01*
X0051999Y0057882D02*
X0051582Y0058299D01*
X0051999Y0055537D02*
X0051999Y0053869D01*
X0057497Y0054028D02*
X0057497Y0055029D01*
X0057998Y0055529D01*
X0060000Y0055529D01*
X0060500Y0055029D01*
X0060500Y0054028D01*
X0060000Y0053527D01*
X0057998Y0053527D01*
X0057497Y0054028D01*
X0059499Y0054528D02*
X0060500Y0055529D01*
X0060500Y0056750D02*
X0058498Y0058752D01*
X0057998Y0058752D01*
X0057497Y0058251D01*
X0057497Y0057250D01*
X0057998Y0056750D01*
X0060500Y0056750D02*
X0060500Y0058752D01*
X0066000Y0057250D02*
X0066000Y0055750D01*
X0071000Y0059250D02*
X0071000Y0062250D01*
X0067500Y0062250D01*
X0089348Y0053332D02*
X0089348Y0052699D01*
X0089348Y0053015D02*
X0091250Y0053015D01*
X0091250Y0052699D02*
X0091250Y0053332D01*
X0091250Y0054489D02*
X0091250Y0055123D01*
X0090933Y0055440D01*
X0089348Y0051756D02*
X0089348Y0050489D01*
X0089348Y0051123D02*
X0091250Y0051123D01*
X0060750Y0038389D02*
X0057747Y0038389D01*
X0058248Y0037168D02*
X0058748Y0037168D01*
X0059249Y0036667D01*
X0059749Y0037168D01*
X0060250Y0037168D01*
X0060750Y0036667D01*
X0060750Y0035666D01*
X0060250Y0035166D01*
X0059249Y0036167D02*
X0059249Y0036667D01*
X0058248Y0037168D02*
X0057747Y0036667D01*
X0057747Y0035666D01*
X0058248Y0035166D01*
X0117423Y0010773D02*
X0117923Y0011273D01*
X0118924Y0011273D01*
X0119424Y0010773D01*
X0119424Y0010272D01*
X0118924Y0009772D01*
X0119424Y0009272D01*
X0119424Y0008771D01*
X0118924Y0008271D01*
X0117923Y0008271D01*
X0117423Y0008771D01*
X0118424Y0009772D02*
X0118924Y0009772D01*
X0120646Y0009272D02*
X0120646Y0011273D01*
X0122647Y0011273D02*
X0122647Y0009272D01*
X0121646Y0008271D01*
X0120646Y0009272D01*
X0123868Y0008771D02*
X0124369Y0008271D01*
X0125370Y0008271D01*
X0125870Y0008771D01*
X0125870Y0009272D01*
X0125370Y0009772D01*
X0124869Y0009772D01*
X0125370Y0009772D02*
X0125870Y0010272D01*
X0125870Y0010773D01*
X0125370Y0011273D01*
X0124369Y0011273D01*
X0123868Y0010773D01*
X0129034Y0011273D02*
X0129034Y0009772D01*
X0130035Y0010272D01*
X0130535Y0010272D01*
X0131036Y0009772D01*
X0131036Y0008771D01*
X0130535Y0008271D01*
X0129535Y0008271D01*
X0129034Y0008771D01*
X0129034Y0011273D02*
X0131036Y0011273D01*
X0132257Y0011273D02*
X0132257Y0009272D01*
X0133258Y0008271D01*
X0134259Y0009272D01*
X0134259Y0011273D01*
X0130370Y0101521D02*
X0128868Y0101521D01*
X0128868Y0104523D01*
X0130370Y0104523D01*
X0130870Y0104023D01*
X0130870Y0102021D01*
X0130370Y0101521D01*
X0127647Y0101521D02*
X0127647Y0104523D01*
X0125646Y0104523D02*
X0127647Y0101521D01*
X0125646Y0101521D02*
X0125646Y0104523D01*
X0124424Y0104023D02*
X0123924Y0104523D01*
X0122923Y0104523D01*
X0122423Y0104023D01*
X0122423Y0102021D01*
X0122923Y0101521D01*
X0123924Y0101521D01*
X0124424Y0102021D01*
X0124424Y0103022D01*
X0123424Y0103022D01*
D11*
X0131500Y0106500D02*
X0131640Y0106498D01*
X0131780Y0106492D01*
X0131920Y0106482D01*
X0132060Y0106469D01*
X0132199Y0106451D01*
X0132338Y0106429D01*
X0132475Y0106404D01*
X0132613Y0106375D01*
X0132749Y0106342D01*
X0132884Y0106305D01*
X0133018Y0106264D01*
X0133151Y0106219D01*
X0133283Y0106171D01*
X0133413Y0106119D01*
X0133542Y0106064D01*
X0133669Y0106005D01*
X0133795Y0105942D01*
X0133919Y0105876D01*
X0134040Y0105807D01*
X0134160Y0105734D01*
X0134278Y0105657D01*
X0134393Y0105578D01*
X0134507Y0105495D01*
X0134617Y0105409D01*
X0134726Y0105320D01*
X0134832Y0105228D01*
X0134935Y0105133D01*
X0135036Y0105036D01*
X0135133Y0104935D01*
X0135228Y0104832D01*
X0135320Y0104726D01*
X0135409Y0104617D01*
X0135495Y0104507D01*
X0135578Y0104393D01*
X0135657Y0104278D01*
X0135734Y0104160D01*
X0135807Y0104040D01*
X0135876Y0103919D01*
X0135942Y0103795D01*
X0136005Y0103669D01*
X0136064Y0103542D01*
X0136119Y0103413D01*
X0136171Y0103283D01*
X0136219Y0103151D01*
X0136264Y0103018D01*
X0136305Y0102884D01*
X0136342Y0102749D01*
X0136375Y0102613D01*
X0136404Y0102475D01*
X0136429Y0102338D01*
X0136451Y0102199D01*
X0136469Y0102060D01*
X0136482Y0101920D01*
X0136492Y0101780D01*
X0136498Y0101640D01*
X0136500Y0101500D01*
X0136500Y0090500D01*
X0136500Y0022000D01*
X0136500Y0011500D01*
X0136498Y0011360D01*
X0136492Y0011220D01*
X0136482Y0011080D01*
X0136469Y0010940D01*
X0136451Y0010801D01*
X0136429Y0010662D01*
X0136404Y0010525D01*
X0136375Y0010387D01*
X0136342Y0010251D01*
X0136305Y0010116D01*
X0136264Y0009982D01*
X0136219Y0009849D01*
X0136171Y0009717D01*
X0136119Y0009587D01*
X0136064Y0009458D01*
X0136005Y0009331D01*
X0135942Y0009205D01*
X0135876Y0009081D01*
X0135807Y0008960D01*
X0135734Y0008840D01*
X0135657Y0008722D01*
X0135578Y0008607D01*
X0135495Y0008493D01*
X0135409Y0008383D01*
X0135320Y0008274D01*
X0135228Y0008168D01*
X0135133Y0008065D01*
X0135036Y0007964D01*
X0134935Y0007867D01*
X0134832Y0007772D01*
X0134726Y0007680D01*
X0134617Y0007591D01*
X0134507Y0007505D01*
X0134393Y0007422D01*
X0134278Y0007343D01*
X0134160Y0007266D01*
X0134040Y0007193D01*
X0133919Y0007124D01*
X0133795Y0007058D01*
X0133669Y0006995D01*
X0133542Y0006936D01*
X0133413Y0006881D01*
X0133283Y0006829D01*
X0133151Y0006781D01*
X0133018Y0006736D01*
X0132884Y0006695D01*
X0132749Y0006658D01*
X0132613Y0006625D01*
X0132475Y0006596D01*
X0132338Y0006571D01*
X0132199Y0006549D01*
X0132060Y0006531D01*
X0131920Y0006518D01*
X0131780Y0006508D01*
X0131640Y0006502D01*
X0131500Y0006500D01*
X0039000Y0006500D01*
X0036500Y0009000D01*
X0031500Y0014000D01*
X0011500Y0014000D01*
X0011360Y0014002D01*
X0011220Y0014008D01*
X0011080Y0014018D01*
X0010940Y0014031D01*
X0010801Y0014049D01*
X0010662Y0014071D01*
X0010525Y0014096D01*
X0010387Y0014125D01*
X0010251Y0014158D01*
X0010116Y0014195D01*
X0009982Y0014236D01*
X0009849Y0014281D01*
X0009717Y0014329D01*
X0009587Y0014381D01*
X0009458Y0014436D01*
X0009331Y0014495D01*
X0009205Y0014558D01*
X0009081Y0014624D01*
X0008960Y0014693D01*
X0008840Y0014766D01*
X0008722Y0014843D01*
X0008607Y0014922D01*
X0008493Y0015005D01*
X0008383Y0015091D01*
X0008274Y0015180D01*
X0008168Y0015272D01*
X0008065Y0015367D01*
X0007964Y0015464D01*
X0007867Y0015565D01*
X0007772Y0015668D01*
X0007680Y0015774D01*
X0007591Y0015883D01*
X0007505Y0015993D01*
X0007422Y0016107D01*
X0007343Y0016222D01*
X0007266Y0016340D01*
X0007193Y0016460D01*
X0007124Y0016581D01*
X0007058Y0016705D01*
X0006995Y0016831D01*
X0006936Y0016958D01*
X0006881Y0017087D01*
X0006829Y0017217D01*
X0006781Y0017349D01*
X0006736Y0017482D01*
X0006695Y0017616D01*
X0006658Y0017751D01*
X0006625Y0017887D01*
X0006596Y0018025D01*
X0006571Y0018162D01*
X0006549Y0018301D01*
X0006531Y0018440D01*
X0006518Y0018580D01*
X0006508Y0018720D01*
X0006502Y0018860D01*
X0006500Y0019000D01*
X0006500Y0101500D01*
X0006502Y0101640D01*
X0006508Y0101780D01*
X0006518Y0101920D01*
X0006531Y0102060D01*
X0006549Y0102199D01*
X0006571Y0102338D01*
X0006596Y0102475D01*
X0006625Y0102613D01*
X0006658Y0102749D01*
X0006695Y0102884D01*
X0006736Y0103018D01*
X0006781Y0103151D01*
X0006829Y0103283D01*
X0006881Y0103413D01*
X0006936Y0103542D01*
X0006995Y0103669D01*
X0007058Y0103795D01*
X0007124Y0103919D01*
X0007193Y0104040D01*
X0007266Y0104160D01*
X0007343Y0104278D01*
X0007422Y0104393D01*
X0007505Y0104507D01*
X0007591Y0104617D01*
X0007680Y0104726D01*
X0007772Y0104832D01*
X0007867Y0104935D01*
X0007964Y0105036D01*
X0008065Y0105133D01*
X0008168Y0105228D01*
X0008274Y0105320D01*
X0008383Y0105409D01*
X0008493Y0105495D01*
X0008607Y0105578D01*
X0008722Y0105657D01*
X0008840Y0105734D01*
X0008960Y0105807D01*
X0009081Y0105876D01*
X0009205Y0105942D01*
X0009331Y0106005D01*
X0009458Y0106064D01*
X0009587Y0106119D01*
X0009717Y0106171D01*
X0009849Y0106219D01*
X0009982Y0106264D01*
X0010116Y0106305D01*
X0010251Y0106342D01*
X0010387Y0106375D01*
X0010525Y0106404D01*
X0010662Y0106429D01*
X0010801Y0106451D01*
X0010940Y0106469D01*
X0011080Y0106482D01*
X0011220Y0106492D01*
X0011360Y0106498D01*
X0011500Y0106500D01*
X0131500Y0106500D01*
X0109500Y0076500D02*
X0108500Y0076500D01*
X0069000Y0068500D02*
X0068000Y0068500D01*
X0064500Y0040250D02*
X0064500Y0039250D01*
X0075500Y0039250D02*
X0075500Y0040250D01*
X0028750Y0056250D02*
X0028750Y0057250D01*
X0020000Y0081500D02*
X0019000Y0081500D01*
D12*
X0019413Y0087300D02*
X0021681Y0087300D01*
X0020547Y0087300D02*
X0020547Y0090703D01*
X0019413Y0089569D01*
X0017998Y0088434D02*
X0017998Y0090703D01*
X0015729Y0090703D02*
X0015729Y0088434D01*
X0016864Y0087300D01*
X0017998Y0088434D01*
X0023096Y0087867D02*
X0023663Y0087867D01*
X0023663Y0087300D01*
X0023096Y0087300D01*
X0023096Y0087867D01*
X0024937Y0087300D02*
X0027206Y0087300D01*
X0026072Y0087300D02*
X0026072Y0090703D01*
X0024937Y0089569D01*
X0024673Y0093800D02*
X0023539Y0093800D01*
X0024106Y0093800D02*
X0024106Y0096069D01*
X0023539Y0096069D01*
X0024106Y0097203D02*
X0024106Y0097770D01*
X0022124Y0095501D02*
X0021557Y0096069D01*
X0020423Y0096069D01*
X0019856Y0095501D01*
X0019856Y0094367D01*
X0020423Y0093800D01*
X0021557Y0093800D01*
X0022124Y0094934D02*
X0019856Y0094934D01*
X0018535Y0093800D02*
X0017400Y0093800D01*
X0017967Y0093800D02*
X0017967Y0097203D01*
X0017400Y0097203D01*
X0015986Y0095501D02*
X0015986Y0094934D01*
X0013717Y0094934D01*
X0013717Y0094367D02*
X0013717Y0095501D01*
X0014284Y0096069D01*
X0015419Y0096069D01*
X0015986Y0095501D01*
X0015419Y0093800D02*
X0014284Y0093800D01*
X0013717Y0094367D01*
X0011168Y0093800D02*
X0011168Y0097203D01*
X0010034Y0097203D02*
X0012303Y0097203D01*
X0013717Y0099800D02*
X0014851Y0100934D01*
X0015986Y0099800D01*
X0015986Y0103203D01*
X0017400Y0101501D02*
X0017967Y0102069D01*
X0019102Y0102069D01*
X0019669Y0101501D01*
X0019669Y0100934D01*
X0017400Y0100934D01*
X0017400Y0100367D02*
X0017400Y0101501D01*
X0017400Y0100367D02*
X0017967Y0099800D01*
X0019102Y0099800D01*
X0021083Y0099800D02*
X0021083Y0103203D01*
X0022218Y0102069D01*
X0023352Y0103203D01*
X0023352Y0099800D01*
X0024767Y0100367D02*
X0024767Y0101501D01*
X0025334Y0102069D01*
X0026468Y0102069D01*
X0027035Y0101501D01*
X0027035Y0100367D01*
X0026468Y0099800D01*
X0025334Y0099800D01*
X0024767Y0100367D01*
X0028450Y0099800D02*
X0030151Y0099800D01*
X0030718Y0100367D01*
X0030151Y0100934D01*
X0029017Y0100934D01*
X0028450Y0101501D01*
X0029017Y0102069D01*
X0030718Y0102069D01*
X0030812Y0097203D02*
X0030245Y0096636D01*
X0030245Y0093800D01*
X0029677Y0095501D02*
X0030812Y0095501D01*
X0032133Y0095501D02*
X0032133Y0094367D01*
X0032700Y0093800D01*
X0033834Y0093800D01*
X0034401Y0094367D01*
X0034401Y0095501D01*
X0033834Y0096069D01*
X0032700Y0096069D01*
X0032133Y0095501D01*
X0028263Y0095501D02*
X0028263Y0093800D01*
X0028263Y0095501D02*
X0027696Y0096069D01*
X0025994Y0096069D01*
X0025994Y0093800D01*
X0022124Y0094934D02*
X0022124Y0095501D01*
X0013717Y0099800D02*
X0013717Y0103203D01*
X0014000Y0076500D02*
X0014000Y0046500D01*
X0024000Y0046500D01*
X0024000Y0076500D01*
X0014000Y0076500D01*
X0037386Y0069020D02*
X0037386Y0065020D01*
X0055614Y0065020D01*
X0055614Y0069020D02*
X0055614Y0043980D01*
X0037386Y0043980D01*
X0037386Y0065020D01*
X0037386Y0069020D02*
X0055614Y0069020D01*
X0080000Y0061500D02*
X0080000Y0051500D01*
X0080002Y0051417D01*
X0080008Y0051334D01*
X0080017Y0051251D01*
X0080031Y0051169D01*
X0080048Y0051088D01*
X0080069Y0051007D01*
X0080093Y0050928D01*
X0080122Y0050850D01*
X0080153Y0050773D01*
X0080189Y0050698D01*
X0080227Y0050624D01*
X0080270Y0050552D01*
X0080315Y0050483D01*
X0080364Y0050415D01*
X0080415Y0050350D01*
X0080470Y0050287D01*
X0080527Y0050227D01*
X0080587Y0050170D01*
X0080650Y0050115D01*
X0080715Y0050064D01*
X0080783Y0050015D01*
X0080852Y0049970D01*
X0080924Y0049927D01*
X0080998Y0049889D01*
X0081073Y0049853D01*
X0081150Y0049822D01*
X0081228Y0049793D01*
X0081307Y0049769D01*
X0081388Y0049748D01*
X0081469Y0049731D01*
X0081551Y0049717D01*
X0081634Y0049708D01*
X0081717Y0049702D01*
X0081800Y0049700D01*
X0086200Y0049700D01*
X0086283Y0049702D01*
X0086366Y0049708D01*
X0086449Y0049717D01*
X0086531Y0049731D01*
X0086612Y0049748D01*
X0086693Y0049769D01*
X0086772Y0049793D01*
X0086850Y0049822D01*
X0086927Y0049853D01*
X0087002Y0049889D01*
X0087076Y0049927D01*
X0087148Y0049970D01*
X0087217Y0050015D01*
X0087285Y0050064D01*
X0087350Y0050115D01*
X0087413Y0050170D01*
X0087473Y0050227D01*
X0087530Y0050287D01*
X0087585Y0050350D01*
X0087636Y0050415D01*
X0087685Y0050483D01*
X0087730Y0050552D01*
X0087773Y0050624D01*
X0087811Y0050698D01*
X0087847Y0050773D01*
X0087878Y0050850D01*
X0087907Y0050928D01*
X0087931Y0051007D01*
X0087952Y0051088D01*
X0087969Y0051169D01*
X0087983Y0051251D01*
X0087992Y0051334D01*
X0087998Y0051417D01*
X0088000Y0051500D01*
X0088000Y0061500D01*
X0087998Y0061583D01*
X0087992Y0061666D01*
X0087983Y0061749D01*
X0087969Y0061831D01*
X0087952Y0061912D01*
X0087931Y0061993D01*
X0087907Y0062072D01*
X0087878Y0062150D01*
X0087847Y0062227D01*
X0087811Y0062302D01*
X0087773Y0062376D01*
X0087730Y0062448D01*
X0087685Y0062517D01*
X0087636Y0062585D01*
X0087585Y0062650D01*
X0087530Y0062713D01*
X0087473Y0062773D01*
X0087413Y0062830D01*
X0087350Y0062885D01*
X0087285Y0062936D01*
X0087217Y0062985D01*
X0087148Y0063030D01*
X0087076Y0063073D01*
X0087002Y0063111D01*
X0086927Y0063147D01*
X0086850Y0063178D01*
X0086772Y0063207D01*
X0086693Y0063231D01*
X0086612Y0063252D01*
X0086531Y0063269D01*
X0086449Y0063283D01*
X0086366Y0063292D01*
X0086283Y0063298D01*
X0086200Y0063300D01*
X0081800Y0063300D01*
X0081717Y0063298D01*
X0081634Y0063292D01*
X0081551Y0063283D01*
X0081469Y0063269D01*
X0081388Y0063252D01*
X0081307Y0063231D01*
X0081228Y0063207D01*
X0081150Y0063178D01*
X0081073Y0063147D01*
X0080998Y0063111D01*
X0080924Y0063073D01*
X0080852Y0063030D01*
X0080783Y0062985D01*
X0080715Y0062936D01*
X0080650Y0062885D01*
X0080587Y0062830D01*
X0080527Y0062773D01*
X0080470Y0062713D01*
X0080415Y0062650D01*
X0080364Y0062585D01*
X0080315Y0062517D01*
X0080270Y0062448D01*
X0080227Y0062376D01*
X0080189Y0062302D01*
X0080153Y0062227D01*
X0080122Y0062150D01*
X0080093Y0062072D01*
X0080069Y0061993D01*
X0080048Y0061912D01*
X0080031Y0061831D01*
X0080017Y0061749D01*
X0080008Y0061666D01*
X0080002Y0061583D01*
X0080000Y0061500D01*
X0024000Y0046500D02*
X0024000Y0036500D01*
X0014000Y0036500D01*
X0014000Y0046500D01*
X0016000Y0014000D02*
X0016000Y0010000D01*
X0026500Y0010000D01*
X0026500Y0014000D01*
D13*
X0036500Y0009000D02*
X0036500Y0029000D01*
X0039000Y0031500D01*
X0044000Y0031500D01*
X0046500Y0029000D01*
X0046500Y0006500D01*
X0039000Y0006500D01*
X0046500Y0006500D02*
X0056500Y0006500D01*
X0056500Y0029000D01*
X0054000Y0031500D01*
X0049000Y0031500D01*
X0046500Y0029000D01*
X0056500Y0029000D02*
X0059000Y0031500D01*
X0064000Y0031500D01*
X0066500Y0029000D01*
X0066500Y0006500D01*
X0076500Y0006500D01*
X0076500Y0029000D01*
X0074000Y0031500D01*
X0069000Y0031500D01*
X0066500Y0029000D01*
X0076500Y0029000D02*
X0079000Y0031500D01*
X0084000Y0031500D01*
X0086500Y0029000D01*
X0086500Y0006500D01*
X0096500Y0006500D01*
X0096500Y0029000D01*
X0094000Y0031500D01*
X0089000Y0031500D01*
X0086500Y0029000D01*
X0096500Y0029000D02*
X0099000Y0031500D01*
X0104000Y0031500D01*
X0106500Y0029000D01*
X0106500Y0006500D01*
X0116500Y0006500D01*
X0116500Y0022000D01*
X0136500Y0022000D01*
X0128250Y0024250D02*
X0127250Y0024250D01*
X0127250Y0026250D02*
X0128250Y0026250D01*
X0116500Y0029000D02*
X0116500Y0022000D01*
X0116500Y0029000D02*
X0114000Y0031500D01*
X0109000Y0031500D01*
X0106500Y0029000D01*
X0106500Y0006500D02*
X0096500Y0006500D01*
X0086500Y0006500D02*
X0076500Y0006500D01*
X0066500Y0006500D02*
X0056500Y0006500D01*
X0054000Y0081500D02*
X0049000Y0081500D01*
X0046500Y0084000D01*
X0044000Y0081500D01*
X0039000Y0081500D01*
X0036500Y0084000D01*
X0036500Y0106500D01*
X0046500Y0106500D01*
X0056500Y0106500D01*
X0106500Y0106500D01*
X0106500Y0084000D01*
X0109000Y0081500D01*
X0114000Y0081500D01*
X0116500Y0084000D01*
X0116500Y0090500D01*
X0136500Y0090500D01*
X0116500Y0090500D02*
X0116500Y0106500D01*
X0106500Y0106500D01*
X0096500Y0106500D02*
X0096500Y0084000D01*
X0099000Y0081500D01*
X0104000Y0081500D01*
X0106500Y0084000D01*
X0096500Y0084000D02*
X0094000Y0081500D01*
X0089000Y0081500D01*
X0086500Y0084000D01*
X0086500Y0106500D01*
X0076500Y0106500D02*
X0076500Y0084000D01*
X0079000Y0081500D01*
X0084000Y0081500D01*
X0086500Y0084000D01*
X0076500Y0084000D02*
X0074000Y0081500D01*
X0069000Y0081500D01*
X0066500Y0084000D01*
X0066500Y0106500D01*
X0056500Y0106500D02*
X0056500Y0084000D01*
X0059000Y0081500D01*
X0064000Y0081500D01*
X0066500Y0084000D01*
X0056500Y0084000D02*
X0054000Y0081500D01*
X0046500Y0084000D02*
X0046500Y0106500D01*
D14*
X0031500Y0013500D02*
X0011500Y0013500D01*
X0011356Y0013501D01*
X0011212Y0013505D01*
X0011068Y0013513D01*
X0010925Y0013525D01*
X0010782Y0013541D01*
X0010639Y0013560D01*
X0010497Y0013584D01*
X0010356Y0013611D01*
X0010216Y0013642D01*
X0010076Y0013677D01*
X0009937Y0013716D01*
X0009800Y0013759D01*
X0009664Y0013805D01*
X0009529Y0013855D01*
X0009395Y0013908D01*
X0009263Y0013965D01*
X0009133Y0014026D01*
X0009004Y0014090D01*
X0008877Y0014158D01*
X0008752Y0014229D01*
X0008628Y0014303D01*
X0008507Y0014381D01*
X0008388Y0014462D01*
X0008272Y0014546D01*
X0008157Y0014633D01*
X0008045Y0014723D01*
X0007936Y0014817D01*
X0007829Y0014913D01*
X0007725Y0015012D01*
X0007623Y0015114D01*
X0007524Y0015219D01*
X0007428Y0015326D01*
X0007335Y0015436D01*
X0007245Y0015548D01*
X0007159Y0015663D01*
X0007075Y0015780D01*
X0006994Y0015899D01*
X0006917Y0016020D01*
X0006843Y0016144D01*
X0006773Y0016269D01*
X0006705Y0016397D01*
X0006642Y0016526D01*
X0006581Y0016656D01*
X0006525Y0016789D01*
X0006472Y0016922D01*
X0006422Y0017057D01*
X0006377Y0017194D01*
X0006335Y0017331D01*
X0006296Y0017470D01*
X0006262Y0017610D01*
X0006231Y0017750D01*
X0006204Y0017892D01*
X0006181Y0018034D01*
X0006162Y0018176D01*
X0006147Y0018320D01*
X0006136Y0018463D01*
X0006128Y0018607D01*
X0006124Y0018750D01*
X0006125Y0018750D02*
X0006125Y0101250D01*
X0006120Y0101396D01*
X0006119Y0101543D01*
X0006122Y0101690D01*
X0006129Y0101836D01*
X0006140Y0101982D01*
X0006155Y0102128D01*
X0006174Y0102273D01*
X0006196Y0102418D01*
X0006222Y0102563D01*
X0006253Y0102706D01*
X0006287Y0102849D01*
X0006324Y0102990D01*
X0006366Y0103131D01*
X0006411Y0103270D01*
X0006460Y0103408D01*
X0006513Y0103545D01*
X0006569Y0103680D01*
X0006629Y0103814D01*
X0006692Y0103946D01*
X0006759Y0104077D01*
X0006830Y0104206D01*
X0006903Y0104332D01*
X0006980Y0104457D01*
X0007061Y0104580D01*
X0007144Y0104700D01*
X0007231Y0104818D01*
X0007321Y0104934D01*
X0007414Y0105047D01*
X0007510Y0105158D01*
X0007609Y0105266D01*
X0007710Y0105372D01*
X0007815Y0105475D01*
X0007922Y0105575D01*
X0008032Y0105672D01*
X0008144Y0105766D01*
X0008259Y0105857D01*
X0008376Y0105945D01*
X0008496Y0106030D01*
X0008617Y0106112D01*
X0008741Y0106190D01*
X0008867Y0106265D01*
X0008995Y0106337D01*
X0009125Y0106405D01*
X0009256Y0106470D01*
X0009389Y0106532D01*
X0009524Y0106589D01*
X0009660Y0106643D01*
X0009798Y0106694D01*
X0009937Y0106741D01*
X0010077Y0106784D01*
X0010218Y0106823D01*
X0010360Y0106859D01*
X0010503Y0106891D01*
X0010647Y0106918D01*
X0010792Y0106943D01*
X0010937Y0106963D01*
X0011083Y0106979D01*
X0011229Y0106992D01*
X0011375Y0107000D01*
X0131375Y0107000D01*
X0131524Y0106999D01*
X0131672Y0106995D01*
X0131820Y0106987D01*
X0131967Y0106975D01*
X0132114Y0106959D01*
X0132261Y0106939D01*
X0132407Y0106915D01*
X0132553Y0106887D01*
X0132697Y0106856D01*
X0132841Y0106820D01*
X0132984Y0106781D01*
X0133126Y0106738D01*
X0133266Y0106691D01*
X0133405Y0106640D01*
X0133543Y0106586D01*
X0133680Y0106528D01*
X0133814Y0106467D01*
X0133947Y0106402D01*
X0134079Y0106333D01*
X0134208Y0106261D01*
X0134336Y0106186D01*
X0134461Y0106107D01*
X0134584Y0106025D01*
X0134705Y0105939D01*
X0134824Y0105851D01*
X0134940Y0105759D01*
X0135054Y0105664D01*
X0135165Y0105567D01*
X0135274Y0105466D01*
X0135380Y0105362D01*
X0135483Y0105256D01*
X0135583Y0105147D01*
X0135680Y0105035D01*
X0135775Y0104921D01*
X0135866Y0104805D01*
X0135954Y0104685D01*
X0136039Y0104564D01*
X0136120Y0104441D01*
X0136199Y0104315D01*
X0136274Y0104187D01*
X0136345Y0104057D01*
X0136413Y0103926D01*
X0136478Y0103792D01*
X0136539Y0103657D01*
X0136596Y0103521D01*
X0136650Y0103383D01*
X0136700Y0103243D01*
X0136746Y0103103D01*
X0136788Y0102961D01*
X0136827Y0102818D01*
X0136862Y0102674D01*
X0136893Y0102529D01*
X0136920Y0102384D01*
X0136943Y0102237D01*
X0136962Y0102090D01*
X0136978Y0101943D01*
X0136989Y0101795D01*
X0136997Y0101648D01*
X0137001Y0101500D01*
X0137000Y0101500D02*
X0137000Y0011500D01*
X0137001Y0011354D01*
X0136998Y0011209D01*
X0136992Y0011063D01*
X0136982Y0010918D01*
X0136967Y0010773D01*
X0136949Y0010629D01*
X0136927Y0010485D01*
X0136901Y0010342D01*
X0136871Y0010199D01*
X0136837Y0010058D01*
X0136799Y0009917D01*
X0136758Y0009777D01*
X0136713Y0009639D01*
X0136664Y0009502D01*
X0136612Y0009366D01*
X0136555Y0009232D01*
X0136495Y0009099D01*
X0136432Y0008968D01*
X0136365Y0008839D01*
X0136295Y0008711D01*
X0136221Y0008586D01*
X0136144Y0008462D01*
X0136063Y0008341D01*
X0135979Y0008222D01*
X0135892Y0008105D01*
X0135802Y0007991D01*
X0135709Y0007879D01*
X0135613Y0007770D01*
X0135514Y0007663D01*
X0135412Y0007559D01*
X0135307Y0007458D01*
X0135200Y0007360D01*
X0135090Y0007264D01*
X0134977Y0007172D01*
X0134862Y0007083D01*
X0134745Y0006997D01*
X0134625Y0006914D01*
X0134503Y0006834D01*
X0134379Y0006758D01*
X0134253Y0006685D01*
X0134125Y0006616D01*
X0133995Y0006550D01*
X0133864Y0006487D01*
X0133730Y0006428D01*
X0133596Y0006373D01*
X0133460Y0006322D01*
X0133322Y0006274D01*
X0133183Y0006230D01*
X0133043Y0006189D01*
X0132902Y0006153D01*
X0132761Y0006120D01*
X0132618Y0006091D01*
X0132474Y0006067D01*
X0132330Y0006045D01*
X0132186Y0006028D01*
X0132041Y0006015D01*
X0131895Y0006006D01*
X0131750Y0006000D01*
X0038750Y0006000D01*
X0031500Y0013500D01*
D15*
X0121695Y0039750D02*
X0122363Y0040417D01*
X0123030Y0039750D01*
X0123030Y0041752D01*
X0123905Y0041418D02*
X0123905Y0041084D01*
X0124239Y0040751D01*
X0124906Y0040751D01*
X0125240Y0040417D01*
X0125240Y0040084D01*
X0124906Y0039750D01*
X0124239Y0039750D01*
X0123905Y0040084D01*
X0123905Y0041418D02*
X0124239Y0041752D01*
X0124906Y0041752D01*
X0125240Y0041418D01*
X0126115Y0041418D02*
X0126449Y0041752D01*
X0127116Y0041752D01*
X0127450Y0041418D01*
X0127450Y0041084D01*
X0126115Y0039750D01*
X0127450Y0039750D01*
X0128325Y0040084D02*
X0128325Y0040417D01*
X0128659Y0040751D01*
X0129326Y0040751D01*
X0129659Y0040417D01*
X0129659Y0040084D01*
X0129326Y0039750D01*
X0128659Y0039750D01*
X0128325Y0040084D01*
X0128659Y0040751D02*
X0128325Y0041084D01*
X0128325Y0041418D01*
X0128659Y0041752D01*
X0129326Y0041752D01*
X0129659Y0041418D01*
X0129659Y0041084D01*
X0129326Y0040751D01*
X0130535Y0041084D02*
X0131202Y0041752D01*
X0131202Y0039750D01*
X0130535Y0039750D02*
X0131869Y0039750D01*
X0132745Y0039750D02*
X0134079Y0041084D01*
X0134079Y0041418D01*
X0133746Y0041752D01*
X0133078Y0041752D01*
X0132745Y0041418D01*
X0132745Y0039750D02*
X0134079Y0039750D01*
X0121695Y0039750D02*
X0121695Y0041752D01*
D16*
X0017163Y0016630D03*
X0016083Y0015370D03*
X0017058Y0018280D03*
D17*
X0016075Y0015385D03*
D18*
X0016075Y0015400D03*
X0031465Y0021700D03*
X0033115Y0022150D03*
X0033100Y0022225D03*
X0033085Y0022300D03*
X0033160Y0021325D03*
D19*
X0031975Y0024250D03*
X0025990Y0018850D03*
X0025990Y0018775D03*
X0018865Y0018925D03*
X0018865Y0019000D03*
X0018865Y0019075D03*
X0018865Y0019150D03*
X0018865Y0019225D03*
X0018865Y0019300D03*
X0018865Y0019375D03*
X0018865Y0019450D03*
X0018865Y0019525D03*
X0018865Y0019600D03*
X0018865Y0019675D03*
X0018865Y0019750D03*
X0018865Y0019825D03*
X0018865Y0019900D03*
X0018865Y0019975D03*
X0018865Y0020050D03*
X0018865Y0020125D03*
X0018865Y0020200D03*
X0018865Y0020275D03*
X0018865Y0020350D03*
X0018865Y0020425D03*
X0018865Y0020500D03*
X0018865Y0020575D03*
X0018865Y0020650D03*
X0018865Y0020725D03*
X0018865Y0020800D03*
X0018865Y0020875D03*
X0018865Y0020950D03*
X0018865Y0021025D03*
X0018865Y0017800D03*
X0018865Y0017725D03*
X0018865Y0017650D03*
X0018865Y0017575D03*
X0018865Y0017500D03*
X0018865Y0017425D03*
X0018865Y0017350D03*
X0018865Y0017275D03*
X0018865Y0017200D03*
X0018865Y0017125D03*
X0018865Y0017050D03*
X0018865Y0016975D03*
X0018865Y0016900D03*
X0018865Y0016825D03*
X0018865Y0016750D03*
X0018865Y0016675D03*
X0018865Y0016600D03*
X0018865Y0016525D03*
X0018865Y0016450D03*
X0018865Y0016375D03*
X0018865Y0016300D03*
X0018865Y0016225D03*
X0018865Y0016150D03*
X0018865Y0016075D03*
X0018865Y0016000D03*
X0018865Y0015925D03*
X0018865Y0015850D03*
X0018865Y0015775D03*
X0018865Y0015700D03*
X0018865Y0015625D03*
X0018865Y0015550D03*
X0018865Y0015475D03*
X0018865Y0015400D03*
D20*
X0021445Y0015400D03*
X0021445Y0015475D03*
X0021445Y0015550D03*
X0021445Y0015625D03*
X0021445Y0015700D03*
X0021445Y0015775D03*
X0021445Y0015850D03*
X0021445Y0015925D03*
X0021445Y0016000D03*
X0021445Y0016075D03*
X0021445Y0016150D03*
X0021445Y0016225D03*
X0021445Y0016300D03*
X0021445Y0016375D03*
X0021445Y0016450D03*
X0021445Y0016525D03*
X0021445Y0016600D03*
X0021445Y0016675D03*
X0021445Y0016750D03*
X0021445Y0016825D03*
X0021445Y0016900D03*
X0021445Y0016975D03*
X0021445Y0017050D03*
X0021445Y0017125D03*
X0021445Y0017200D03*
X0021445Y0017275D03*
X0021445Y0017350D03*
X0021445Y0017425D03*
X0021445Y0017500D03*
X0021445Y0017575D03*
X0021445Y0017650D03*
X0021445Y0017725D03*
X0021445Y0017800D03*
X0018805Y0023650D03*
X0024295Y0023650D03*
X0024295Y0023725D03*
X0024295Y0023800D03*
X0024295Y0023875D03*
X0024295Y0023950D03*
X0024295Y0024025D03*
X0024295Y0024100D03*
X0024295Y0024175D03*
X0024295Y0024250D03*
X0024295Y0024325D03*
X0024295Y0024400D03*
X0024295Y0024475D03*
X0024295Y0024550D03*
X0024295Y0024625D03*
X0024295Y0024700D03*
X0024295Y0024775D03*
X0024295Y0024850D03*
X0024295Y0024925D03*
X0024295Y0025000D03*
X0024295Y0025075D03*
X0024295Y0025150D03*
X0024295Y0025225D03*
X0024295Y0025300D03*
X0024295Y0023575D03*
D21*
X0024895Y0015400D03*
D22*
X0028202Y0015400D03*
X0028202Y0015475D03*
X0028202Y0015550D03*
X0028202Y0015625D03*
X0028202Y0015700D03*
X0028202Y0015775D03*
X0028202Y0015850D03*
X0028202Y0015925D03*
X0028202Y0016000D03*
X0028202Y0016075D03*
X0028202Y0016150D03*
X0028202Y0016225D03*
X0028202Y0016300D03*
X0028202Y0016375D03*
X0028202Y0016450D03*
X0028202Y0016525D03*
X0028202Y0016600D03*
X0028202Y0016675D03*
X0028202Y0016750D03*
X0028202Y0016825D03*
X0028202Y0016900D03*
X0028202Y0016975D03*
X0028202Y0017050D03*
X0028202Y0017125D03*
X0028202Y0017200D03*
X0028202Y0017275D03*
X0028202Y0017350D03*
X0028202Y0017425D03*
X0028202Y0017500D03*
X0028202Y0017575D03*
X0028202Y0017650D03*
X0028202Y0017725D03*
X0028202Y0017800D03*
X0028202Y0017875D03*
X0028202Y0017950D03*
X0028202Y0018025D03*
X0028202Y0018100D03*
X0028202Y0018175D03*
X0028202Y0018250D03*
X0028202Y0018325D03*
X0028202Y0018400D03*
X0028202Y0018475D03*
X0028202Y0018550D03*
X0028202Y0018625D03*
X0028202Y0018700D03*
X0028202Y0018775D03*
X0028202Y0018850D03*
X0028202Y0018925D03*
X0028202Y0019000D03*
X0028202Y0019075D03*
X0028202Y0019150D03*
X0028202Y0019225D03*
X0028202Y0019300D03*
X0028202Y0019375D03*
X0028202Y0019450D03*
X0025982Y0018925D03*
X0025982Y0018700D03*
X0029252Y0021925D03*
X0021452Y0025450D03*
X0021422Y0023500D03*
X0018872Y0017875D03*
D23*
X0016075Y0015415D03*
X0018925Y0023335D03*
X0030985Y0022615D03*
X0032485Y0023635D03*
X0032500Y0023620D03*
X0032515Y0023590D03*
D24*
X0031990Y0024235D03*
X0031960Y0024265D03*
X0025990Y0018910D03*
X0025990Y0018895D03*
X0025990Y0018880D03*
X0025990Y0018865D03*
X0025990Y0018835D03*
X0025990Y0018820D03*
X0025990Y0018805D03*
X0025990Y0018790D03*
X0025990Y0018760D03*
X0025990Y0018745D03*
X0025990Y0018730D03*
X0025990Y0018715D03*
X0020560Y0019345D03*
X0018865Y0019345D03*
X0018865Y0019360D03*
X0018865Y0019390D03*
X0018865Y0019405D03*
X0018865Y0019420D03*
X0018865Y0019435D03*
X0018865Y0019465D03*
X0018865Y0019480D03*
X0018865Y0019495D03*
X0018865Y0019510D03*
X0018865Y0019540D03*
X0018865Y0019555D03*
X0018865Y0019570D03*
X0018865Y0019585D03*
X0018865Y0019615D03*
X0018865Y0019630D03*
X0018865Y0019645D03*
X0018865Y0019660D03*
X0018865Y0019690D03*
X0018865Y0019705D03*
X0018865Y0019720D03*
X0018865Y0019735D03*
X0018865Y0019765D03*
X0018865Y0019780D03*
X0018865Y0019795D03*
X0018865Y0019810D03*
X0018865Y0019840D03*
X0018865Y0019855D03*
X0018865Y0019870D03*
X0018865Y0019885D03*
X0018865Y0019915D03*
X0018865Y0019930D03*
X0018865Y0019945D03*
X0018865Y0019960D03*
X0018865Y0019990D03*
X0018865Y0020005D03*
X0018865Y0020020D03*
X0018865Y0020035D03*
X0018865Y0020065D03*
X0018865Y0020080D03*
X0018865Y0020095D03*
X0018865Y0020110D03*
X0018865Y0020140D03*
X0018865Y0020155D03*
X0018865Y0020170D03*
X0018865Y0020185D03*
X0018865Y0020215D03*
X0018865Y0020230D03*
X0018865Y0020245D03*
X0018865Y0020260D03*
X0018865Y0020290D03*
X0018865Y0020305D03*
X0018865Y0020320D03*
X0018865Y0020335D03*
X0018865Y0020365D03*
X0018865Y0020380D03*
X0018865Y0020395D03*
X0018865Y0020410D03*
X0018865Y0020440D03*
X0018865Y0020455D03*
X0018865Y0020470D03*
X0018865Y0020485D03*
X0018865Y0020515D03*
X0018865Y0020530D03*
X0018865Y0020545D03*
X0018865Y0020560D03*
X0018865Y0020590D03*
X0018865Y0020605D03*
X0018865Y0020620D03*
X0018865Y0020635D03*
X0018865Y0020665D03*
X0018865Y0020680D03*
X0018865Y0020695D03*
X0018865Y0020710D03*
X0018865Y0020740D03*
X0018865Y0020755D03*
X0018865Y0020770D03*
X0018865Y0020785D03*
X0018865Y0020815D03*
X0018865Y0020830D03*
X0018865Y0020845D03*
X0018865Y0020860D03*
X0018865Y0020890D03*
X0018865Y0020905D03*
X0018865Y0020920D03*
X0018865Y0020935D03*
X0018865Y0020965D03*
X0018865Y0020980D03*
X0018865Y0020995D03*
X0018865Y0021010D03*
X0018865Y0021040D03*
X0018865Y0021055D03*
X0018865Y0021070D03*
X0018865Y0021085D03*
X0018865Y0019330D03*
X0018865Y0019315D03*
X0018865Y0019285D03*
X0018865Y0019270D03*
X0018865Y0019255D03*
X0018865Y0019240D03*
X0018865Y0019210D03*
X0018865Y0019195D03*
X0018865Y0019180D03*
X0018865Y0019165D03*
X0018865Y0019135D03*
X0018865Y0019120D03*
X0018865Y0019105D03*
X0018865Y0019090D03*
X0018865Y0019060D03*
X0018865Y0019045D03*
X0018865Y0019030D03*
X0018865Y0019015D03*
X0018865Y0018985D03*
X0018865Y0018970D03*
X0018865Y0018955D03*
X0018865Y0018940D03*
X0018865Y0018910D03*
X0018865Y0018895D03*
X0018865Y0017815D03*
X0018865Y0017785D03*
X0018865Y0017770D03*
X0018865Y0017755D03*
X0018865Y0017740D03*
X0018865Y0017710D03*
X0018865Y0017695D03*
X0018865Y0017680D03*
X0018865Y0017665D03*
X0018865Y0017635D03*
X0018865Y0017620D03*
X0018865Y0017605D03*
X0018865Y0017590D03*
X0018865Y0017560D03*
X0018865Y0017545D03*
X0018865Y0017530D03*
X0018865Y0017515D03*
X0018865Y0017485D03*
X0018865Y0017470D03*
X0018865Y0017455D03*
X0018865Y0017440D03*
X0018865Y0017410D03*
X0018865Y0017395D03*
X0018865Y0017380D03*
X0018865Y0017365D03*
X0018865Y0017335D03*
X0018865Y0017320D03*
X0018865Y0017305D03*
X0018865Y0017290D03*
X0018865Y0017260D03*
X0018865Y0017245D03*
X0018865Y0017230D03*
X0018865Y0017215D03*
X0018865Y0017185D03*
X0018865Y0017170D03*
X0018865Y0017155D03*
X0018865Y0017140D03*
X0018865Y0017110D03*
X0018865Y0017095D03*
X0018865Y0017080D03*
X0018865Y0017065D03*
X0018865Y0017035D03*
X0018865Y0017020D03*
X0018865Y0017005D03*
X0018865Y0016990D03*
X0018865Y0016960D03*
X0018865Y0016945D03*
X0018865Y0016930D03*
X0018865Y0016915D03*
X0018865Y0016885D03*
X0018865Y0016870D03*
X0018865Y0016855D03*
X0018865Y0016840D03*
X0018865Y0016810D03*
X0018865Y0016795D03*
X0018865Y0016780D03*
X0018865Y0016765D03*
X0018865Y0016735D03*
X0018865Y0016720D03*
X0018865Y0016705D03*
X0018865Y0016690D03*
X0018865Y0016660D03*
X0018865Y0016645D03*
X0018865Y0016630D03*
X0018865Y0016615D03*
X0018865Y0016585D03*
X0018865Y0016570D03*
X0018865Y0016555D03*
X0018865Y0016540D03*
X0018865Y0016510D03*
X0018865Y0016495D03*
X0018865Y0016480D03*
X0018865Y0016465D03*
X0018865Y0016435D03*
X0018865Y0016420D03*
X0018865Y0016405D03*
X0018865Y0016390D03*
X0018865Y0016360D03*
X0018865Y0016345D03*
X0018865Y0016330D03*
X0018865Y0016315D03*
X0018865Y0016285D03*
X0018865Y0016270D03*
X0018865Y0016255D03*
X0018865Y0016240D03*
X0018865Y0016210D03*
X0018865Y0016195D03*
X0018865Y0016180D03*
X0018865Y0016165D03*
X0018865Y0016135D03*
X0018865Y0016120D03*
X0018865Y0016105D03*
X0018865Y0016090D03*
X0018865Y0016060D03*
X0018865Y0016045D03*
X0018865Y0016030D03*
X0018865Y0016015D03*
X0018865Y0015985D03*
X0018865Y0015970D03*
X0018865Y0015955D03*
X0018865Y0015940D03*
X0018865Y0015910D03*
X0018865Y0015895D03*
X0018865Y0015880D03*
X0018865Y0015865D03*
X0018865Y0015835D03*
X0018865Y0015820D03*
X0018865Y0015805D03*
X0018865Y0015790D03*
X0018865Y0015760D03*
X0018865Y0015745D03*
X0018865Y0015730D03*
X0018865Y0015715D03*
X0018865Y0015685D03*
X0018865Y0015670D03*
X0018865Y0015655D03*
X0018865Y0015640D03*
X0018865Y0015610D03*
X0018865Y0015595D03*
X0018865Y0015580D03*
X0018865Y0015565D03*
X0018865Y0015535D03*
X0018865Y0015520D03*
X0018865Y0015505D03*
X0018865Y0015490D03*
X0018865Y0015460D03*
X0018865Y0015445D03*
X0018865Y0015430D03*
X0018865Y0015415D03*
D25*
X0021445Y0015415D03*
X0021445Y0015430D03*
X0021445Y0015445D03*
X0021445Y0015460D03*
X0021445Y0015490D03*
X0021445Y0015505D03*
X0021445Y0015520D03*
X0021445Y0015535D03*
X0021445Y0015565D03*
X0021445Y0015580D03*
X0021445Y0015595D03*
X0021445Y0015610D03*
X0021445Y0015640D03*
X0021445Y0015655D03*
X0021445Y0015670D03*
X0021445Y0015685D03*
X0021445Y0015715D03*
X0021445Y0015730D03*
X0021445Y0015745D03*
X0021445Y0015760D03*
X0021445Y0015790D03*
X0021445Y0015805D03*
X0021445Y0015820D03*
X0021445Y0015835D03*
X0021445Y0015865D03*
X0021445Y0015880D03*
X0021445Y0015895D03*
X0021445Y0015910D03*
X0021445Y0015940D03*
X0021445Y0015955D03*
X0021445Y0015970D03*
X0021445Y0015985D03*
X0021445Y0016015D03*
X0021445Y0016030D03*
X0021445Y0016045D03*
X0021445Y0016060D03*
X0021445Y0016090D03*
X0021445Y0016105D03*
X0021445Y0016120D03*
X0021445Y0016135D03*
X0021445Y0016165D03*
X0021445Y0016180D03*
X0021445Y0016195D03*
X0021445Y0016210D03*
X0021445Y0016240D03*
X0021445Y0016255D03*
X0021445Y0016270D03*
X0021445Y0016285D03*
X0021445Y0016315D03*
X0021445Y0016330D03*
X0021445Y0016345D03*
X0021445Y0016360D03*
X0021445Y0016390D03*
X0021445Y0016405D03*
X0021445Y0016420D03*
X0021445Y0016435D03*
X0021445Y0016465D03*
X0021445Y0016480D03*
X0021445Y0016495D03*
X0021445Y0016510D03*
X0021445Y0016540D03*
X0021445Y0016555D03*
X0021445Y0016570D03*
X0021445Y0016585D03*
X0021445Y0016615D03*
X0021445Y0016630D03*
X0021445Y0016645D03*
X0021445Y0016660D03*
X0021445Y0016690D03*
X0021445Y0016705D03*
X0021445Y0016720D03*
X0021445Y0016735D03*
X0021445Y0016765D03*
X0021445Y0016780D03*
X0021445Y0016795D03*
X0021445Y0016810D03*
X0021445Y0016840D03*
X0021445Y0016855D03*
X0021445Y0016870D03*
X0021445Y0016885D03*
X0021445Y0016915D03*
X0021445Y0016930D03*
X0021445Y0016945D03*
X0021445Y0016960D03*
X0021445Y0016990D03*
X0021445Y0017005D03*
X0021445Y0017020D03*
X0021445Y0017035D03*
X0021445Y0017065D03*
X0021445Y0017080D03*
X0021445Y0017095D03*
X0021445Y0017110D03*
X0021445Y0017140D03*
X0021445Y0017155D03*
X0021445Y0017170D03*
X0021445Y0017185D03*
X0021445Y0017215D03*
X0021445Y0017230D03*
X0021445Y0017245D03*
X0021445Y0017260D03*
X0021445Y0017290D03*
X0021445Y0017305D03*
X0021445Y0017320D03*
X0021445Y0017335D03*
X0021445Y0017365D03*
X0021445Y0017380D03*
X0021445Y0017395D03*
X0021445Y0017410D03*
X0021445Y0017440D03*
X0021445Y0017455D03*
X0021445Y0017470D03*
X0021445Y0017485D03*
X0021445Y0017515D03*
X0021445Y0017530D03*
X0021445Y0017545D03*
X0021445Y0017560D03*
X0021445Y0017590D03*
X0021445Y0017605D03*
X0021445Y0017620D03*
X0021445Y0017635D03*
X0021445Y0017665D03*
X0021445Y0017680D03*
X0021445Y0017695D03*
X0021445Y0017710D03*
X0021445Y0017740D03*
X0021445Y0017755D03*
X0021445Y0017770D03*
X0021445Y0017785D03*
X0021445Y0017815D03*
X0021445Y0017830D03*
X0023755Y0019015D03*
X0024955Y0020230D03*
X0024295Y0023590D03*
X0024295Y0023605D03*
X0024295Y0023620D03*
X0024295Y0023635D03*
X0024295Y0023665D03*
X0024295Y0023680D03*
X0024295Y0023695D03*
X0024295Y0023710D03*
X0024295Y0023740D03*
X0024295Y0023755D03*
X0024295Y0023770D03*
X0024295Y0023785D03*
X0024295Y0023815D03*
X0024295Y0023830D03*
X0024295Y0023845D03*
X0024295Y0023860D03*
X0024295Y0023890D03*
X0024295Y0023905D03*
X0024295Y0023920D03*
X0024295Y0023935D03*
X0024295Y0023965D03*
X0024295Y0023980D03*
X0024295Y0023995D03*
X0024295Y0024010D03*
X0024295Y0024040D03*
X0024295Y0024055D03*
X0024295Y0024070D03*
X0024295Y0024085D03*
X0024295Y0024115D03*
X0024295Y0024130D03*
X0024295Y0024145D03*
X0024295Y0024160D03*
X0024295Y0024190D03*
X0024295Y0024205D03*
X0024295Y0024220D03*
X0024295Y0024235D03*
X0024295Y0024265D03*
X0024295Y0024280D03*
X0024295Y0024295D03*
X0024295Y0024310D03*
X0024295Y0024340D03*
X0024295Y0024355D03*
X0024295Y0024370D03*
X0024295Y0024385D03*
X0024295Y0024415D03*
X0024295Y0024430D03*
X0024295Y0024445D03*
X0024295Y0024460D03*
X0024295Y0024490D03*
X0024295Y0024505D03*
X0024295Y0024520D03*
X0024295Y0024535D03*
X0024295Y0024565D03*
X0024295Y0024580D03*
X0024295Y0024595D03*
X0024295Y0024610D03*
X0024295Y0024640D03*
X0024295Y0024655D03*
X0024295Y0024670D03*
X0024295Y0024685D03*
X0024295Y0024715D03*
X0024295Y0024730D03*
X0024295Y0024745D03*
X0024295Y0024760D03*
X0024295Y0024790D03*
X0024295Y0024805D03*
X0024295Y0024820D03*
X0024295Y0024835D03*
X0024295Y0024865D03*
X0024295Y0024880D03*
X0024295Y0024895D03*
X0024295Y0024910D03*
X0024295Y0024940D03*
X0024295Y0024955D03*
X0024295Y0024970D03*
X0024295Y0024985D03*
X0024295Y0025015D03*
X0024295Y0025030D03*
X0024295Y0025045D03*
X0024295Y0025060D03*
X0024295Y0025090D03*
X0024295Y0025105D03*
X0024295Y0025120D03*
X0024295Y0025135D03*
X0024295Y0025165D03*
X0024295Y0025180D03*
X0024295Y0025195D03*
X0024295Y0025210D03*
X0024295Y0025240D03*
X0024295Y0025255D03*
X0024295Y0025270D03*
X0024295Y0025285D03*
X0024295Y0025315D03*
X0024295Y0025330D03*
X0024295Y0025345D03*
X0024295Y0025360D03*
X0021445Y0025420D03*
X0021430Y0023545D03*
X0018805Y0023635D03*
X0031945Y0024280D03*
X0032005Y0024220D03*
X0032020Y0024205D03*
D26*
X0029125Y0025585D03*
X0022870Y0026320D03*
X0020245Y0023035D03*
X0013075Y0025360D03*
X0024895Y0015415D03*
D27*
X0028202Y0015415D03*
X0028202Y0015430D03*
X0028202Y0015445D03*
X0028202Y0015460D03*
X0028202Y0015490D03*
X0028202Y0015505D03*
X0028202Y0015520D03*
X0028202Y0015535D03*
X0028202Y0015565D03*
X0028202Y0015580D03*
X0028202Y0015595D03*
X0028202Y0015610D03*
X0028202Y0015640D03*
X0028202Y0015655D03*
X0028202Y0015670D03*
X0028202Y0015685D03*
X0028202Y0015715D03*
X0028202Y0015730D03*
X0028202Y0015745D03*
X0028202Y0015760D03*
X0028202Y0015790D03*
X0028202Y0015805D03*
X0028202Y0015820D03*
X0028202Y0015835D03*
X0028202Y0015865D03*
X0028202Y0015880D03*
X0028202Y0015895D03*
X0028202Y0015910D03*
X0028202Y0015940D03*
X0028202Y0015955D03*
X0028202Y0015970D03*
X0028202Y0015985D03*
X0028202Y0016015D03*
X0028202Y0016030D03*
X0028202Y0016045D03*
X0028202Y0016060D03*
X0028202Y0016090D03*
X0028202Y0016105D03*
X0028202Y0016120D03*
X0028202Y0016135D03*
X0028202Y0016165D03*
X0028202Y0016180D03*
X0028202Y0016195D03*
X0028202Y0016210D03*
X0028202Y0016240D03*
X0028202Y0016255D03*
X0028202Y0016270D03*
X0028202Y0016285D03*
X0028202Y0016315D03*
X0028202Y0016330D03*
X0028202Y0016345D03*
X0028202Y0016360D03*
X0028202Y0016390D03*
X0028202Y0016405D03*
X0028202Y0016420D03*
X0028202Y0016435D03*
X0028202Y0016465D03*
X0028202Y0016480D03*
X0028202Y0016495D03*
X0028202Y0016510D03*
X0028202Y0016540D03*
X0028202Y0016555D03*
X0028202Y0016570D03*
X0028202Y0016585D03*
X0028202Y0016615D03*
X0028202Y0016630D03*
X0028202Y0016645D03*
X0028202Y0016660D03*
X0028202Y0016690D03*
X0028202Y0016705D03*
X0028202Y0016720D03*
X0028202Y0016735D03*
X0028202Y0016765D03*
X0028202Y0016780D03*
X0028202Y0016795D03*
X0028202Y0016810D03*
X0028202Y0016840D03*
X0028202Y0016855D03*
X0028202Y0016870D03*
X0028202Y0016885D03*
X0028202Y0016915D03*
X0028202Y0016930D03*
X0028202Y0016945D03*
X0028202Y0016960D03*
X0028202Y0016990D03*
X0028202Y0017005D03*
X0028202Y0017020D03*
X0028202Y0017035D03*
X0028202Y0017065D03*
X0028202Y0017080D03*
X0028202Y0017095D03*
X0028202Y0017110D03*
X0028202Y0017140D03*
X0028202Y0017155D03*
X0028202Y0017170D03*
X0028202Y0017185D03*
X0028202Y0017215D03*
X0028202Y0017230D03*
X0028202Y0017245D03*
X0028202Y0017260D03*
X0028202Y0017290D03*
X0028202Y0017305D03*
X0028202Y0017320D03*
X0028202Y0017335D03*
X0028202Y0017365D03*
X0028202Y0017380D03*
X0028202Y0017395D03*
X0028202Y0017410D03*
X0028202Y0017440D03*
X0028202Y0017455D03*
X0028202Y0017470D03*
X0028202Y0017485D03*
X0028202Y0017515D03*
X0028202Y0017530D03*
X0028202Y0017545D03*
X0028202Y0017560D03*
X0028202Y0017590D03*
X0028202Y0017605D03*
X0028202Y0017620D03*
X0028202Y0017635D03*
X0028202Y0017665D03*
X0028202Y0017680D03*
X0028202Y0017695D03*
X0028202Y0017710D03*
X0028202Y0017740D03*
X0028202Y0017755D03*
X0028202Y0017770D03*
X0028202Y0017785D03*
X0028202Y0017815D03*
X0028202Y0017830D03*
X0028202Y0017845D03*
X0028202Y0017860D03*
X0028202Y0017890D03*
X0028202Y0017905D03*
X0028202Y0017920D03*
X0028202Y0017935D03*
X0028202Y0017965D03*
X0028202Y0017980D03*
X0028202Y0017995D03*
X0028202Y0018010D03*
X0028202Y0018040D03*
X0028202Y0018055D03*
X0028202Y0018070D03*
X0028202Y0018085D03*
X0028202Y0018115D03*
X0028202Y0018130D03*
X0028202Y0018145D03*
X0028202Y0018160D03*
X0028202Y0018190D03*
X0028202Y0018205D03*
X0028202Y0018220D03*
X0028202Y0018235D03*
X0028202Y0018265D03*
X0028202Y0018280D03*
X0028202Y0018295D03*
X0028202Y0018310D03*
X0028202Y0018340D03*
X0028202Y0018355D03*
X0028202Y0018370D03*
X0028202Y0018385D03*
X0028202Y0018415D03*
X0028202Y0018430D03*
X0028202Y0018445D03*
X0028202Y0018460D03*
X0028202Y0018490D03*
X0028202Y0018505D03*
X0028202Y0018520D03*
X0028202Y0018535D03*
X0028202Y0018565D03*
X0028202Y0018580D03*
X0028202Y0018595D03*
X0028202Y0018610D03*
X0028202Y0018640D03*
X0028202Y0018655D03*
X0028202Y0018670D03*
X0028202Y0018685D03*
X0028202Y0018715D03*
X0028202Y0018730D03*
X0028202Y0018745D03*
X0028202Y0018760D03*
X0028202Y0018790D03*
X0028202Y0018805D03*
X0028202Y0018820D03*
X0028202Y0018835D03*
X0028202Y0018865D03*
X0028202Y0018880D03*
X0028202Y0018895D03*
X0028202Y0018910D03*
X0028202Y0018940D03*
X0028202Y0018955D03*
X0028202Y0018970D03*
X0028202Y0018985D03*
X0028202Y0019015D03*
X0028202Y0019030D03*
X0028202Y0019045D03*
X0028202Y0019060D03*
X0028202Y0019090D03*
X0028202Y0019105D03*
X0028202Y0019120D03*
X0028202Y0019135D03*
X0028202Y0019165D03*
X0028202Y0019180D03*
X0028202Y0019195D03*
X0028202Y0019210D03*
X0028202Y0019240D03*
X0028202Y0019255D03*
X0028202Y0019270D03*
X0028202Y0019285D03*
X0028202Y0019315D03*
X0028202Y0019330D03*
X0028202Y0019345D03*
X0028202Y0019360D03*
X0028202Y0019390D03*
X0028202Y0019405D03*
X0028202Y0019420D03*
X0028202Y0019435D03*
X0028202Y0019465D03*
X0028202Y0019480D03*
X0028202Y0019495D03*
X0028202Y0020335D03*
X0028202Y0020920D03*
X0025982Y0018955D03*
X0025982Y0018940D03*
X0025982Y0018685D03*
X0025982Y0018670D03*
X0024302Y0023515D03*
X0024302Y0023530D03*
X0024302Y0023545D03*
X0024302Y0023560D03*
X0021422Y0023530D03*
X0021422Y0023515D03*
X0018797Y0023665D03*
X0018782Y0023680D03*
X0021452Y0025435D03*
X0021452Y0025465D03*
X0030572Y0023065D03*
X0018872Y0017920D03*
X0018872Y0017905D03*
X0018872Y0017890D03*
X0018872Y0017860D03*
X0018872Y0017845D03*
X0018872Y0017830D03*
X0021407Y0035530D03*
D28*
X0030617Y0023020D03*
X0030632Y0023005D03*
X0029267Y0021910D03*
X0016082Y0015430D03*
D29*
X0024887Y0015430D03*
X0024887Y0015445D03*
X0024887Y0015460D03*
X0024812Y0019405D03*
X0015212Y0027535D03*
D30*
X0018708Y0023860D03*
X0018708Y0023845D03*
X0021348Y0023320D03*
X0021363Y0023335D03*
X0021513Y0025630D03*
X0021527Y0025645D03*
X0024212Y0025645D03*
X0024377Y0023320D03*
X0028202Y0020815D03*
X0028202Y0020455D03*
X0028202Y0020440D03*
X0025923Y0019120D03*
X0025892Y0018445D03*
X0021392Y0018130D03*
X0021392Y0018115D03*
X0018917Y0018115D03*
X0018917Y0018130D03*
X0016083Y0015445D03*
X0014867Y0016555D03*
X0014852Y0018235D03*
X0014867Y0018265D03*
X0031698Y0024505D03*
X0031712Y0024490D03*
X0021408Y0035515D03*
D31*
X0014710Y0030415D03*
X0014710Y0030385D03*
X0010240Y0029020D03*
X0018610Y0024055D03*
X0018610Y0024040D03*
X0021325Y0018280D03*
X0016075Y0015460D03*
X0015010Y0016360D03*
X0025825Y0019255D03*
X0025840Y0019240D03*
X0030235Y0023320D03*
D32*
X0016075Y0015475D03*
D33*
X0024880Y0015475D03*
D34*
X0016075Y0015490D03*
X0031150Y0024880D03*
X0014800Y0030790D03*
D35*
X0022870Y0026305D03*
X0020245Y0023065D03*
X0024805Y0019390D03*
X0024880Y0015505D03*
X0024880Y0015490D03*
D36*
X0024632Y0017065D03*
X0024647Y0017080D03*
X0024677Y0017110D03*
X0024707Y0017140D03*
X0024722Y0017155D03*
X0024752Y0017185D03*
X0024782Y0017215D03*
X0024797Y0017230D03*
X0024827Y0017260D03*
X0024857Y0017290D03*
X0027977Y0023545D03*
X0027977Y0030895D03*
X0018377Y0024460D03*
X0016097Y0019360D03*
X0015182Y0016255D03*
X0016082Y0015505D03*
X0011042Y0027730D03*
X0014852Y0030910D03*
D37*
X0014912Y0031015D03*
X0012002Y0025840D03*
X0016098Y0019345D03*
X0016083Y0015520D03*
X0024948Y0020110D03*
X0027902Y0023455D03*
X0027902Y0031030D03*
D38*
X0022862Y0026290D03*
X0029148Y0025570D03*
X0024873Y0015565D03*
X0024873Y0015535D03*
X0024873Y0015520D03*
D39*
X0023957Y0019315D03*
X0018197Y0024730D03*
X0014957Y0031090D03*
X0027857Y0031090D03*
X0016082Y0015535D03*
D40*
X0016082Y0015550D03*
D41*
X0024873Y0015550D03*
D42*
X0020560Y0019135D03*
X0016090Y0015565D03*
X0029710Y0023545D03*
X0017065Y0026560D03*
X0017035Y0026590D03*
X0016990Y0026635D03*
X0012025Y0025990D03*
D43*
X0012040Y0026005D03*
X0010585Y0028945D03*
X0020560Y0019105D03*
X0024940Y0020035D03*
X0016090Y0015580D03*
D44*
X0017035Y0022135D03*
X0020245Y0023080D03*
X0020245Y0023095D03*
X0013120Y0025330D03*
X0024865Y0015610D03*
X0024865Y0015595D03*
X0024865Y0015580D03*
D45*
X0020020Y0022195D03*
X0017935Y0025090D03*
X0017920Y0025105D03*
X0016765Y0026815D03*
X0027715Y0023305D03*
X0030610Y0025105D03*
X0016090Y0015595D03*
D46*
X0016090Y0015610D03*
X0017215Y0022045D03*
X0017875Y0025165D03*
X0017860Y0025180D03*
X0016630Y0026905D03*
X0015190Y0031330D03*
X0015205Y0031345D03*
X0011425Y0027430D03*
X0027610Y0031345D03*
X0028495Y0024160D03*
D47*
X0016090Y0015625D03*
D48*
X0024858Y0015625D03*
X0022862Y0026275D03*
X0015167Y0027550D03*
D49*
X0016495Y0026995D03*
X0017770Y0025285D03*
X0022870Y0026740D03*
X0012115Y0026080D03*
X0011515Y0027355D03*
X0016090Y0015640D03*
D50*
X0024858Y0015640D03*
X0024858Y0015655D03*
X0024798Y0019360D03*
X0020238Y0023110D03*
X0028908Y0023605D03*
X0029162Y0025555D03*
X0021408Y0034930D03*
D51*
X0015340Y0031465D03*
X0010735Y0028915D03*
X0016405Y0027040D03*
X0024925Y0019945D03*
X0020575Y0018970D03*
X0016090Y0015655D03*
X0028600Y0025885D03*
X0027475Y0031465D03*
D52*
X0027430Y0031510D03*
X0017635Y0025435D03*
X0017020Y0026380D03*
X0016330Y0027085D03*
X0011620Y0027265D03*
X0015385Y0031510D03*
X0016090Y0015670D03*
D53*
X0024850Y0015670D03*
X0024850Y0015685D03*
X0013150Y0025315D03*
D54*
X0016277Y0027115D03*
X0017013Y0026365D03*
X0027377Y0031555D03*
X0016098Y0015685D03*
D55*
X0016090Y0015700D03*
X0012445Y0025675D03*
X0010810Y0028900D03*
X0016990Y0026350D03*
D56*
X0024850Y0015700D03*
D57*
X0016098Y0015715D03*
X0028637Y0024040D03*
X0027287Y0031630D03*
X0012198Y0026170D03*
D58*
X0024842Y0015760D03*
X0024842Y0015745D03*
X0024842Y0015730D03*
X0024842Y0015715D03*
X0028907Y0023590D03*
D59*
X0022862Y0026665D03*
X0017448Y0025630D03*
X0016127Y0027190D03*
X0011762Y0027130D03*
X0015573Y0031660D03*
X0020148Y0022390D03*
X0016098Y0015730D03*
X0027242Y0031660D03*
D60*
X0027167Y0031720D03*
X0027152Y0031735D03*
X0021407Y0035170D03*
X0015647Y0031720D03*
X0016052Y0027220D03*
X0011822Y0027070D03*
X0016097Y0015745D03*
X0028682Y0023995D03*
D61*
X0024902Y0019810D03*
X0016097Y0015760D03*
X0011852Y0027040D03*
X0016022Y0027235D03*
X0015707Y0031765D03*
D62*
X0016105Y0015775D03*
D63*
X0024835Y0015775D03*
D64*
X0024895Y0019780D03*
X0027385Y0023215D03*
X0028795Y0025810D03*
X0026995Y0031855D03*
X0015820Y0031855D03*
X0015805Y0031840D03*
X0016120Y0019090D03*
X0016105Y0015790D03*
D65*
X0024835Y0015790D03*
X0024835Y0015805D03*
X0024790Y0019330D03*
X0015115Y0027565D03*
D66*
X0015850Y0027310D03*
X0017185Y0025870D03*
X0017200Y0025855D03*
X0012640Y0025585D03*
X0012280Y0026260D03*
X0015955Y0031945D03*
X0015970Y0031960D03*
X0026845Y0031960D03*
X0026860Y0031945D03*
X0026890Y0031930D03*
X0028825Y0025795D03*
X0016120Y0019060D03*
X0016105Y0015805D03*
D67*
X0016105Y0015820D03*
X0016105Y0019045D03*
X0017170Y0025885D03*
X0012670Y0025570D03*
X0011995Y0026890D03*
X0016045Y0032005D03*
X0026755Y0032020D03*
D68*
X0021407Y0034915D03*
X0011402Y0028765D03*
X0024827Y0015835D03*
X0024827Y0015820D03*
D69*
X0020215Y0022570D03*
X0016105Y0015835D03*
X0012040Y0026845D03*
X0016315Y0032170D03*
X0016420Y0032230D03*
X0016705Y0032395D03*
X0016810Y0032455D03*
X0016915Y0032515D03*
X0016990Y0032560D03*
X0017095Y0032620D03*
X0017380Y0032785D03*
X0017485Y0032845D03*
X0017590Y0032905D03*
X0017770Y0033010D03*
X0017980Y0033130D03*
X0018160Y0033235D03*
X0018265Y0033295D03*
X0018370Y0033355D03*
X0018655Y0033520D03*
X0018940Y0033685D03*
X0019045Y0033745D03*
X0019120Y0033790D03*
X0019330Y0033910D03*
X0019435Y0033970D03*
X0019465Y0033985D03*
X0023410Y0033955D03*
X0023515Y0033895D03*
X0023695Y0033790D03*
X0023905Y0033670D03*
X0024085Y0033565D03*
X0024190Y0033505D03*
X0024295Y0033445D03*
X0024580Y0033280D03*
X0024685Y0033220D03*
X0024865Y0033115D03*
X0024970Y0033055D03*
X0025255Y0032890D03*
X0025360Y0032830D03*
X0025435Y0032785D03*
X0025645Y0032665D03*
X0026035Y0032440D03*
X0026140Y0032380D03*
X0026215Y0032335D03*
X0026605Y0032110D03*
D70*
X0028773Y0023875D03*
X0020223Y0022600D03*
X0016023Y0018925D03*
X0016112Y0015850D03*
D71*
X0024827Y0015850D03*
X0028907Y0023575D03*
X0029192Y0025525D03*
D72*
X0028877Y0025765D03*
X0022862Y0026560D03*
X0017073Y0025960D03*
X0015737Y0027355D03*
X0019623Y0034060D03*
X0024887Y0019705D03*
X0016098Y0015865D03*
D73*
X0020230Y0023185D03*
X0024820Y0015895D03*
X0024820Y0015880D03*
X0024820Y0015865D03*
D74*
X0016090Y0015880D03*
X0016000Y0018895D03*
X0016015Y0018910D03*
X0016885Y0026215D03*
X0012100Y0026785D03*
X0023200Y0034060D03*
D75*
X0012317Y0026305D03*
X0020222Y0022615D03*
X0015992Y0018880D03*
X0016067Y0015910D03*
X0016082Y0015895D03*
D76*
X0024812Y0015910D03*
X0024812Y0015940D03*
X0022862Y0026215D03*
D77*
X0028900Y0025750D03*
X0024880Y0019675D03*
X0015970Y0018850D03*
X0016060Y0015925D03*
D78*
X0024812Y0015925D03*
D79*
X0020222Y0022645D03*
X0015947Y0018805D03*
X0016052Y0015940D03*
X0012332Y0026320D03*
X0019697Y0034090D03*
X0021407Y0035080D03*
X0023117Y0034090D03*
D80*
X0015655Y0027385D03*
X0017005Y0026020D03*
X0020230Y0022660D03*
X0024880Y0019660D03*
X0028795Y0023845D03*
X0016045Y0015955D03*
X0016030Y0015970D03*
D81*
X0024805Y0015970D03*
X0024805Y0015985D03*
X0024805Y0015955D03*
X0015070Y0027580D03*
D82*
X0023073Y0034105D03*
X0015902Y0018730D03*
X0016023Y0015985D03*
D83*
X0016015Y0016000D03*
X0016960Y0026050D03*
D84*
X0022870Y0026200D03*
X0024805Y0016000D03*
D85*
X0016000Y0016015D03*
X0019750Y0034105D03*
D86*
X0020027Y0018880D03*
X0024798Y0016360D03*
X0024798Y0016045D03*
X0024798Y0016030D03*
X0024798Y0016015D03*
D87*
X0024873Y0019645D03*
X0020238Y0022690D03*
X0015858Y0018640D03*
X0015842Y0018610D03*
X0015977Y0016060D03*
X0015992Y0016030D03*
X0012198Y0026680D03*
X0012183Y0026695D03*
D88*
X0012205Y0026665D03*
X0016945Y0026065D03*
X0020245Y0022705D03*
X0024865Y0019630D03*
X0028810Y0023815D03*
X0015985Y0016045D03*
D89*
X0020035Y0018865D03*
X0024790Y0016345D03*
X0024790Y0016090D03*
X0024790Y0016060D03*
X0029230Y0025495D03*
X0022870Y0026185D03*
D90*
X0015970Y0016075D03*
D91*
X0020035Y0018850D03*
X0024790Y0016075D03*
D92*
X0020238Y0022720D03*
X0016923Y0026080D03*
X0015573Y0027415D03*
X0012827Y0025495D03*
X0015962Y0016090D03*
X0028952Y0025720D03*
D93*
X0020245Y0022735D03*
X0016855Y0026170D03*
X0015955Y0016105D03*
D94*
X0020042Y0018835D03*
X0024783Y0016330D03*
X0024783Y0016135D03*
X0024783Y0016120D03*
X0024783Y0016105D03*
X0013248Y0025255D03*
X0022862Y0026170D03*
X0021408Y0034885D03*
D95*
X0016900Y0026095D03*
X0012235Y0026635D03*
X0015940Y0016135D03*
X0015940Y0016120D03*
X0024865Y0019615D03*
D96*
X0015932Y0016150D03*
D97*
X0024775Y0016150D03*
D98*
X0015917Y0016165D03*
X0015917Y0016180D03*
X0012242Y0026620D03*
X0019817Y0034120D03*
D99*
X0020050Y0018820D03*
X0020050Y0018805D03*
X0024775Y0016315D03*
X0024775Y0016195D03*
X0024775Y0016180D03*
X0024775Y0016165D03*
D100*
X0015910Y0016195D03*
X0012850Y0025480D03*
X0012370Y0026365D03*
X0012265Y0026605D03*
X0015535Y0027430D03*
X0016840Y0026155D03*
X0016885Y0026110D03*
X0028975Y0025705D03*
X0028825Y0023785D03*
D101*
X0024857Y0019585D03*
X0020252Y0022765D03*
X0015902Y0016210D03*
X0012272Y0026590D03*
X0021407Y0035035D03*
D102*
X0020057Y0018790D03*
X0024767Y0016240D03*
X0024767Y0016210D03*
D103*
X0024865Y0019600D03*
X0020245Y0022750D03*
X0015895Y0016225D03*
D104*
X0024767Y0016225D03*
X0024767Y0016300D03*
D105*
X0015887Y0016240D03*
X0022862Y0026470D03*
D106*
X0028195Y0020980D03*
X0029335Y0021865D03*
X0030715Y0022930D03*
X0030730Y0022915D03*
X0030760Y0022885D03*
X0032155Y0024055D03*
X0032170Y0024040D03*
X0016090Y0019435D03*
X0016840Y0016255D03*
D107*
X0020065Y0018760D03*
X0024760Y0016285D03*
X0024760Y0016270D03*
X0024760Y0016255D03*
X0029260Y0025465D03*
D108*
X0028240Y0024280D03*
X0021220Y0018415D03*
X0020560Y0019255D03*
X0025495Y0017920D03*
X0025510Y0017935D03*
X0018445Y0024355D03*
X0018430Y0024370D03*
X0015130Y0018565D03*
X0015145Y0016270D03*
X0028015Y0030790D03*
X0028015Y0030805D03*
D109*
X0032455Y0023680D03*
X0032470Y0023665D03*
X0030970Y0022645D03*
X0030970Y0022630D03*
X0030955Y0022660D03*
X0029470Y0021760D03*
X0028195Y0021040D03*
X0016870Y0016270D03*
D110*
X0015107Y0016285D03*
X0017192Y0022030D03*
X0018482Y0024280D03*
X0023777Y0019165D03*
X0031232Y0024835D03*
X0028052Y0030685D03*
X0014777Y0030715D03*
X0014777Y0030730D03*
D111*
X0029575Y0021655D03*
X0031150Y0022390D03*
X0032725Y0023245D03*
X0016900Y0016285D03*
D112*
X0015092Y0016300D03*
X0025652Y0018100D03*
X0028067Y0030625D03*
D113*
X0021415Y0035575D03*
X0032950Y0022750D03*
X0032980Y0022675D03*
X0032995Y0022600D03*
X0033025Y0022525D03*
X0031360Y0022000D03*
X0029665Y0021550D03*
X0028195Y0021100D03*
X0016930Y0016300D03*
D114*
X0015062Y0016315D03*
X0015048Y0018505D03*
X0016098Y0019390D03*
X0021273Y0018355D03*
X0021288Y0018340D03*
X0025698Y0018160D03*
X0028998Y0022045D03*
X0021648Y0025765D03*
X0014748Y0030595D03*
X0014748Y0030610D03*
D115*
X0028202Y0021115D03*
X0028202Y0020140D03*
X0029777Y0021385D03*
X0029762Y0021415D03*
X0031473Y0021685D03*
X0031487Y0021640D03*
X0031502Y0021595D03*
X0031502Y0021580D03*
X0031502Y0021565D03*
X0031548Y0021385D03*
X0033138Y0021160D03*
X0033138Y0021145D03*
X0033152Y0021235D03*
X0033152Y0021265D03*
X0033152Y0021280D03*
X0033152Y0021295D03*
X0033152Y0021310D03*
X0033152Y0021835D03*
X0033152Y0021865D03*
X0033152Y0021880D03*
X0033152Y0021895D03*
X0033152Y0021910D03*
X0033138Y0021985D03*
X0033138Y0022015D03*
X0033123Y0022105D03*
X0016938Y0016315D03*
D116*
X0015048Y0016330D03*
X0015033Y0018490D03*
X0018992Y0018295D03*
X0021258Y0023215D03*
X0018573Y0024115D03*
X0024948Y0020185D03*
X0025742Y0018220D03*
X0025727Y0018205D03*
X0030152Y0023365D03*
X0031367Y0024745D03*
X0028187Y0025120D03*
X0028098Y0030490D03*
X0028098Y0030505D03*
X0028098Y0030520D03*
X0021408Y0035485D03*
X0014733Y0030535D03*
X0014733Y0030520D03*
D117*
X0029890Y0021205D03*
X0029890Y0021190D03*
X0029905Y0021160D03*
X0029920Y0021145D03*
X0029920Y0021130D03*
X0031570Y0020590D03*
X0031570Y0020560D03*
X0033145Y0021040D03*
X0033145Y0021055D03*
X0016960Y0016330D03*
D118*
X0015025Y0016345D03*
X0024475Y0023215D03*
X0025750Y0018235D03*
X0014725Y0030490D03*
X0014725Y0030505D03*
D119*
X0029950Y0021070D03*
X0029965Y0021040D03*
X0030010Y0020905D03*
X0016975Y0016345D03*
D120*
X0016990Y0016360D03*
X0030025Y0020845D03*
X0030040Y0020785D03*
X0030040Y0020770D03*
X0030055Y0020740D03*
X0030055Y0020710D03*
X0030055Y0020695D03*
X0030070Y0020665D03*
X0030070Y0020635D03*
X0030070Y0020620D03*
X0030085Y0020455D03*
X0030085Y0020440D03*
X0030085Y0020410D03*
X0030085Y0020395D03*
X0031570Y0020485D03*
X0033145Y0020980D03*
X0033145Y0020995D03*
D121*
X0028120Y0030325D03*
X0018970Y0018250D03*
X0014995Y0016375D03*
D122*
X0017005Y0016375D03*
D123*
X0023905Y0016375D03*
X0024145Y0016600D03*
D124*
X0025810Y0018310D03*
X0029080Y0022015D03*
X0030280Y0023290D03*
X0031525Y0024640D03*
X0028135Y0024445D03*
X0028135Y0024430D03*
X0028135Y0024415D03*
X0028135Y0024385D03*
X0028135Y0024370D03*
X0028135Y0024355D03*
X0028135Y0024340D03*
X0028135Y0024310D03*
X0021580Y0025720D03*
X0021295Y0023245D03*
X0018640Y0023980D03*
X0018640Y0023995D03*
X0018955Y0018220D03*
X0021355Y0018220D03*
X0021355Y0018235D03*
X0014980Y0016390D03*
X0014965Y0016405D03*
X0014695Y0030235D03*
X0014695Y0030265D03*
X0014695Y0030280D03*
X0014695Y0030295D03*
X0014695Y0030310D03*
X0028135Y0030235D03*
X0028135Y0030220D03*
X0028135Y0030205D03*
X0028135Y0030190D03*
X0028135Y0030160D03*
X0028135Y0030145D03*
X0028135Y0030130D03*
X0028135Y0030115D03*
D125*
X0033145Y0020920D03*
X0030070Y0020080D03*
X0030070Y0020065D03*
X0024970Y0020290D03*
X0017020Y0016390D03*
D126*
X0019870Y0022105D03*
X0024130Y0016585D03*
X0023920Y0016390D03*
D127*
X0017027Y0016405D03*
X0031562Y0020410D03*
D128*
X0023875Y0019270D03*
X0024160Y0016615D03*
X0023965Y0016435D03*
X0023950Y0016420D03*
X0023935Y0016405D03*
X0018310Y0024565D03*
X0014875Y0030955D03*
X0027940Y0030970D03*
D129*
X0028142Y0030085D03*
X0028142Y0030070D03*
X0028142Y0030055D03*
X0028142Y0030040D03*
X0028142Y0030010D03*
X0028142Y0029995D03*
X0028142Y0029980D03*
X0028142Y0029965D03*
X0028142Y0029935D03*
X0028142Y0029920D03*
X0028142Y0029905D03*
X0028142Y0029890D03*
X0028142Y0029860D03*
X0028142Y0029845D03*
X0028142Y0029830D03*
X0028142Y0029815D03*
X0028142Y0029785D03*
X0028142Y0029770D03*
X0028142Y0029755D03*
X0028142Y0029740D03*
X0028142Y0029710D03*
X0028142Y0029695D03*
X0028142Y0029680D03*
X0028142Y0029665D03*
X0028142Y0029635D03*
X0028142Y0029620D03*
X0028142Y0029605D03*
X0028142Y0029590D03*
X0028142Y0029560D03*
X0028142Y0029545D03*
X0028142Y0029530D03*
X0028142Y0029515D03*
X0028142Y0029485D03*
X0028142Y0029470D03*
X0028142Y0029455D03*
X0028142Y0029440D03*
X0028142Y0029410D03*
X0028142Y0029395D03*
X0028142Y0029380D03*
X0028142Y0029365D03*
X0028142Y0029335D03*
X0028142Y0029320D03*
X0028142Y0029305D03*
X0028142Y0029290D03*
X0028142Y0029260D03*
X0028142Y0029245D03*
X0028142Y0029230D03*
X0028142Y0029215D03*
X0028142Y0029185D03*
X0028142Y0029170D03*
X0028142Y0029155D03*
X0028142Y0029140D03*
X0028142Y0029110D03*
X0028142Y0029095D03*
X0028142Y0029080D03*
X0028142Y0029065D03*
X0028142Y0029035D03*
X0028142Y0029020D03*
X0028142Y0029005D03*
X0028142Y0028990D03*
X0028142Y0028960D03*
X0028142Y0028945D03*
X0028142Y0028930D03*
X0028142Y0028915D03*
X0028142Y0028885D03*
X0028142Y0028870D03*
X0028142Y0028855D03*
X0028142Y0028840D03*
X0028142Y0028810D03*
X0028142Y0028795D03*
X0028142Y0028780D03*
X0028142Y0028765D03*
X0028142Y0028735D03*
X0028142Y0028720D03*
X0028142Y0028705D03*
X0028142Y0028690D03*
X0028142Y0028660D03*
X0028142Y0028645D03*
X0028142Y0028630D03*
X0028142Y0028615D03*
X0028142Y0028585D03*
X0028142Y0028570D03*
X0028142Y0028555D03*
X0028142Y0028540D03*
X0028142Y0028510D03*
X0028142Y0028495D03*
X0028142Y0028480D03*
X0028142Y0028465D03*
X0028142Y0028435D03*
X0028142Y0028420D03*
X0028142Y0028405D03*
X0028142Y0028390D03*
X0028142Y0028360D03*
X0028142Y0028345D03*
X0028142Y0028330D03*
X0028142Y0028315D03*
X0028142Y0028285D03*
X0028142Y0028270D03*
X0028142Y0028255D03*
X0028142Y0028240D03*
X0028142Y0028210D03*
X0028142Y0028195D03*
X0028142Y0028180D03*
X0028142Y0028165D03*
X0028142Y0028135D03*
X0028142Y0028120D03*
X0028142Y0028105D03*
X0028142Y0028090D03*
X0028142Y0028060D03*
X0028142Y0028045D03*
X0028142Y0028030D03*
X0028142Y0028015D03*
X0028142Y0027985D03*
X0028142Y0027970D03*
X0028142Y0027955D03*
X0028142Y0027940D03*
X0028142Y0027910D03*
X0028142Y0027895D03*
X0028142Y0027880D03*
X0028142Y0027865D03*
X0028142Y0027835D03*
X0028142Y0027820D03*
X0028142Y0027805D03*
X0028142Y0027790D03*
X0028142Y0027760D03*
X0028142Y0027745D03*
X0028142Y0027730D03*
X0028142Y0027715D03*
X0028142Y0027685D03*
X0028142Y0027670D03*
X0028142Y0027655D03*
X0028142Y0027640D03*
X0028142Y0027610D03*
X0028142Y0027595D03*
X0028142Y0027580D03*
X0028142Y0027565D03*
X0028142Y0027535D03*
X0028142Y0027520D03*
X0028142Y0027505D03*
X0028142Y0027490D03*
X0028142Y0027460D03*
X0028142Y0027445D03*
X0028142Y0027430D03*
X0028142Y0027415D03*
X0028142Y0027385D03*
X0028142Y0027370D03*
X0028142Y0027355D03*
X0028142Y0027340D03*
X0028142Y0027310D03*
X0028142Y0027295D03*
X0028142Y0027280D03*
X0028142Y0027265D03*
X0028142Y0027235D03*
X0028142Y0027220D03*
X0028142Y0027205D03*
X0028142Y0027190D03*
X0028142Y0027160D03*
X0028142Y0027145D03*
X0028142Y0027130D03*
X0028142Y0027115D03*
X0028142Y0027085D03*
X0028142Y0027070D03*
X0028142Y0027055D03*
X0028142Y0027040D03*
X0028142Y0027010D03*
X0028142Y0026995D03*
X0028142Y0026980D03*
X0028142Y0026965D03*
X0028142Y0026935D03*
X0028142Y0026920D03*
X0028142Y0026905D03*
X0028142Y0026890D03*
X0028142Y0026860D03*
X0028142Y0026845D03*
X0028142Y0026830D03*
X0028142Y0026815D03*
X0028142Y0026785D03*
X0028142Y0026770D03*
X0028142Y0026755D03*
X0028142Y0026740D03*
X0028142Y0026710D03*
X0028142Y0026695D03*
X0028142Y0026680D03*
X0028142Y0026665D03*
X0028142Y0026635D03*
X0028142Y0026620D03*
X0028142Y0026605D03*
X0028142Y0026590D03*
X0028142Y0026560D03*
X0028142Y0026545D03*
X0028142Y0026530D03*
X0028142Y0026515D03*
X0028142Y0026485D03*
X0028142Y0026470D03*
X0028142Y0026455D03*
X0028142Y0026440D03*
X0028142Y0026410D03*
X0028142Y0026395D03*
X0028142Y0026380D03*
X0028142Y0026365D03*
X0028142Y0026335D03*
X0028142Y0026320D03*
X0028142Y0026305D03*
X0028142Y0026290D03*
X0028142Y0026260D03*
X0028142Y0026245D03*
X0028142Y0026230D03*
X0028142Y0026215D03*
X0028142Y0026185D03*
X0028142Y0026170D03*
X0028142Y0026155D03*
X0028142Y0026140D03*
X0028142Y0026110D03*
X0028142Y0026095D03*
X0028142Y0026080D03*
X0028142Y0026065D03*
X0028142Y0026035D03*
X0028142Y0026020D03*
X0028142Y0026005D03*
X0028142Y0025990D03*
X0028142Y0025960D03*
X0028142Y0025945D03*
X0028142Y0025930D03*
X0028142Y0025915D03*
X0028142Y0025105D03*
X0028142Y0025090D03*
X0028142Y0025060D03*
X0028142Y0025045D03*
X0028142Y0025030D03*
X0028142Y0025015D03*
X0028142Y0024985D03*
X0028142Y0024970D03*
X0028142Y0024955D03*
X0028142Y0024940D03*
X0028142Y0024910D03*
X0028142Y0024895D03*
X0028142Y0024880D03*
X0028142Y0024865D03*
X0028142Y0024835D03*
X0028142Y0024820D03*
X0028142Y0024805D03*
X0028142Y0024790D03*
X0028142Y0024760D03*
X0028142Y0024745D03*
X0028142Y0024730D03*
X0028142Y0024715D03*
X0028142Y0024685D03*
X0028142Y0024670D03*
X0028142Y0024655D03*
X0028142Y0024640D03*
X0028142Y0024610D03*
X0028142Y0024595D03*
X0028142Y0024580D03*
X0028142Y0024565D03*
X0028142Y0024535D03*
X0028142Y0024520D03*
X0028142Y0024505D03*
X0028142Y0024490D03*
X0028142Y0024460D03*
X0024422Y0023260D03*
X0024167Y0025705D03*
X0021572Y0025705D03*
X0021302Y0023260D03*
X0018647Y0023965D03*
X0018947Y0018205D03*
X0014942Y0018385D03*
X0014927Y0018370D03*
X0014957Y0016420D03*
X0025832Y0018340D03*
X0025877Y0019195D03*
X0028202Y0020590D03*
X0028202Y0020605D03*
X0028202Y0020620D03*
X0028202Y0020635D03*
X0028202Y0020665D03*
X0028202Y0020680D03*
D130*
X0030070Y0020020D03*
X0033145Y0020890D03*
X0023725Y0018745D03*
X0016945Y0018460D03*
X0017035Y0016420D03*
D131*
X0014935Y0016435D03*
X0018940Y0018190D03*
X0020560Y0019315D03*
X0025885Y0019180D03*
X0025840Y0018355D03*
X0030325Y0023260D03*
X0031600Y0024580D03*
X0031585Y0024595D03*
X0024175Y0025690D03*
X0021550Y0025690D03*
D132*
X0023725Y0018730D03*
X0016960Y0018445D03*
X0017050Y0016435D03*
D133*
X0014927Y0016450D03*
X0014898Y0018325D03*
X0021377Y0018175D03*
X0023762Y0019075D03*
X0025862Y0018400D03*
X0028202Y0020500D03*
X0028202Y0020725D03*
X0031637Y0024550D03*
D134*
X0017065Y0016450D03*
D135*
X0023987Y0016450D03*
X0024062Y0016525D03*
D136*
X0025885Y0018430D03*
X0025915Y0019135D03*
X0028195Y0020470D03*
X0028195Y0020785D03*
X0029140Y0021985D03*
X0030385Y0023215D03*
X0031660Y0024535D03*
X0024385Y0023305D03*
X0024205Y0025660D03*
X0021535Y0025660D03*
X0021340Y0023305D03*
X0021385Y0018145D03*
X0014920Y0016465D03*
X0014905Y0016480D03*
X0014905Y0016495D03*
X0014890Y0016510D03*
X0010180Y0029035D03*
D137*
X0017080Y0016465D03*
X0033145Y0020860D03*
D138*
X0031007Y0024955D03*
X0028292Y0024265D03*
X0023852Y0019255D03*
X0021152Y0018460D03*
X0024002Y0016465D03*
X0024017Y0016480D03*
X0024032Y0016495D03*
X0024047Y0016510D03*
X0024077Y0016540D03*
X0024092Y0016555D03*
X0024107Y0016570D03*
X0024182Y0016630D03*
X0024197Y0016645D03*
X0024242Y0016690D03*
X0024257Y0016705D03*
X0024272Y0016720D03*
X0024317Y0016765D03*
X0024332Y0016780D03*
X0024347Y0016795D03*
X0015197Y0018595D03*
X0018332Y0024535D03*
X0011072Y0027715D03*
X0014867Y0030940D03*
X0027947Y0030955D03*
X0027947Y0030940D03*
D139*
X0028195Y0020035D03*
X0030070Y0019960D03*
X0017080Y0016480D03*
D140*
X0017095Y0016495D03*
X0023725Y0018670D03*
D141*
X0016997Y0018385D03*
X0017102Y0016510D03*
D142*
X0014883Y0016525D03*
X0025908Y0018475D03*
X0028202Y0020800D03*
X0030408Y0023200D03*
D143*
X0017110Y0016525D03*
D144*
X0014875Y0016540D03*
X0021400Y0018085D03*
X0025900Y0018460D03*
X0031750Y0024460D03*
D145*
X0028202Y0021235D03*
X0028202Y0020020D03*
X0030077Y0019930D03*
X0017117Y0016540D03*
X0009588Y0029305D03*
D146*
X0017125Y0016555D03*
D147*
X0014860Y0016570D03*
X0014830Y0018190D03*
X0014845Y0018205D03*
X0014845Y0018220D03*
X0018910Y0018085D03*
X0023755Y0019060D03*
X0024955Y0020215D03*
X0025930Y0019105D03*
X0025915Y0018490D03*
X0028195Y0020830D03*
X0029170Y0021970D03*
X0030430Y0023185D03*
X0031765Y0024445D03*
X0024370Y0023335D03*
X0024220Y0025615D03*
X0024220Y0025630D03*
X0021505Y0025615D03*
X0018730Y0023815D03*
X0018715Y0023830D03*
D148*
X0017132Y0016570D03*
D149*
X0014852Y0016585D03*
X0014837Y0016615D03*
X0014837Y0016630D03*
X0014823Y0016645D03*
X0014823Y0016660D03*
X0014823Y0018145D03*
X0014823Y0018160D03*
X0016098Y0019420D03*
X0018902Y0018070D03*
X0018902Y0018055D03*
X0021377Y0023365D03*
X0018738Y0023785D03*
X0024348Y0023380D03*
X0024348Y0023365D03*
X0028202Y0020860D03*
X0028202Y0020845D03*
X0028202Y0020410D03*
X0028202Y0020395D03*
X0025937Y0019090D03*
X0025923Y0018505D03*
X0030437Y0023170D03*
X0031787Y0024430D03*
D150*
X0030070Y0019915D03*
X0023725Y0018595D03*
X0017140Y0016585D03*
D151*
X0014845Y0016600D03*
X0014830Y0018175D03*
X0018910Y0018100D03*
X0021370Y0023350D03*
X0018730Y0023800D03*
X0028195Y0020425D03*
X0031735Y0024475D03*
D152*
X0017147Y0016600D03*
D153*
X0017163Y0016615D03*
X0031562Y0020290D03*
D154*
X0028195Y0020005D03*
X0017170Y0016645D03*
X0009430Y0029440D03*
D155*
X0017073Y0018265D03*
X0017177Y0016660D03*
D156*
X0019113Y0018445D03*
X0024212Y0016660D03*
X0024287Y0016735D03*
X0022862Y0026830D03*
D157*
X0031810Y0024400D03*
X0021415Y0018025D03*
X0014800Y0018100D03*
X0014785Y0018025D03*
X0014815Y0016675D03*
D158*
X0017177Y0016675D03*
X0017072Y0018250D03*
D159*
X0024227Y0016675D03*
X0024302Y0016750D03*
X0024947Y0020125D03*
X0011942Y0025900D03*
X0021407Y0035425D03*
D160*
X0021490Y0025585D03*
X0021490Y0025570D03*
X0021475Y0025555D03*
X0024250Y0025555D03*
X0024250Y0025570D03*
X0024340Y0023395D03*
X0021400Y0023410D03*
X0021385Y0023395D03*
X0021385Y0023380D03*
X0018760Y0023740D03*
X0014800Y0018085D03*
X0014800Y0018070D03*
X0014785Y0018055D03*
X0014785Y0018040D03*
X0014785Y0016780D03*
X0014800Y0016735D03*
X0014800Y0016720D03*
X0014800Y0016705D03*
X0014815Y0016690D03*
X0021415Y0018040D03*
X0025960Y0019030D03*
X0025960Y0019045D03*
X0029200Y0021955D03*
X0030460Y0023155D03*
X0030475Y0023140D03*
D161*
X0023725Y0018520D03*
X0017185Y0016690D03*
X0017080Y0018235D03*
X0009355Y0029515D03*
D162*
X0009347Y0029530D03*
X0009332Y0029545D03*
X0017192Y0016705D03*
D163*
X0017200Y0016720D03*
X0023725Y0018505D03*
D164*
X0023725Y0018490D03*
X0017200Y0016735D03*
D165*
X0014792Y0016750D03*
X0014777Y0016825D03*
X0014747Y0017050D03*
X0014747Y0017800D03*
X0018767Y0023725D03*
X0021407Y0023425D03*
X0021467Y0025525D03*
X0024257Y0025525D03*
X0024332Y0023425D03*
X0028202Y0020875D03*
X0025967Y0019000D03*
X0030497Y0023125D03*
D166*
X0031832Y0024385D03*
X0031847Y0024370D03*
X0028202Y0020890D03*
X0028202Y0020380D03*
X0028202Y0020365D03*
X0025967Y0019015D03*
X0025952Y0018595D03*
X0025952Y0018580D03*
X0021422Y0018010D03*
X0021422Y0017995D03*
X0021422Y0017980D03*
X0014777Y0017980D03*
X0014777Y0017995D03*
X0014777Y0018010D03*
X0014747Y0017815D03*
X0014747Y0017785D03*
X0014747Y0017770D03*
X0014747Y0017755D03*
X0014747Y0017035D03*
X0014747Y0017020D03*
X0014777Y0016810D03*
X0014777Y0016795D03*
X0014792Y0016765D03*
X0021407Y0023440D03*
X0018752Y0023755D03*
X0021467Y0025540D03*
X0024257Y0025540D03*
X0024317Y0023455D03*
X0024332Y0023410D03*
D167*
X0027955Y0023515D03*
X0029905Y0023485D03*
X0023830Y0019240D03*
X0024595Y0017035D03*
X0024580Y0017020D03*
X0024565Y0017005D03*
X0024550Y0016990D03*
X0024520Y0016960D03*
X0024505Y0016945D03*
X0024490Y0016930D03*
X0024475Y0016915D03*
X0024445Y0016885D03*
X0024430Y0016870D03*
X0024415Y0016855D03*
X0024400Y0016840D03*
X0024370Y0016810D03*
X0018355Y0024505D03*
X0018340Y0024520D03*
X0011965Y0025855D03*
X0027970Y0030910D03*
D168*
X0027955Y0030925D03*
X0014860Y0030925D03*
X0020560Y0019225D03*
X0024385Y0016825D03*
X0024460Y0016900D03*
X0024535Y0016975D03*
D169*
X0025960Y0018610D03*
X0025975Y0018640D03*
X0025975Y0018655D03*
X0025975Y0018970D03*
X0025975Y0018985D03*
X0023755Y0019030D03*
X0021430Y0017965D03*
X0021430Y0017935D03*
X0018880Y0017935D03*
X0018880Y0017965D03*
X0014755Y0017860D03*
X0014755Y0017845D03*
X0014755Y0017830D03*
X0014740Y0017740D03*
X0014740Y0017710D03*
X0014740Y0017695D03*
X0014740Y0017680D03*
X0014740Y0017665D03*
X0014740Y0017635D03*
X0014740Y0017620D03*
X0014740Y0017605D03*
X0014740Y0017590D03*
X0014740Y0017560D03*
X0014740Y0017545D03*
X0014740Y0017530D03*
X0014740Y0017515D03*
X0014740Y0017485D03*
X0014740Y0017470D03*
X0014740Y0017455D03*
X0014740Y0017440D03*
X0014740Y0017410D03*
X0014740Y0017395D03*
X0014740Y0017380D03*
X0014740Y0017365D03*
X0014740Y0017335D03*
X0014740Y0017320D03*
X0014740Y0017305D03*
X0014740Y0017290D03*
X0014740Y0017260D03*
X0014740Y0017245D03*
X0014740Y0017230D03*
X0014740Y0017215D03*
X0014740Y0017185D03*
X0014740Y0017170D03*
X0014740Y0017155D03*
X0014740Y0017140D03*
X0014740Y0017110D03*
X0014740Y0017095D03*
X0014740Y0017080D03*
X0014740Y0017065D03*
X0014755Y0017005D03*
X0014755Y0016990D03*
X0014755Y0016960D03*
X0014755Y0016945D03*
X0014755Y0016930D03*
X0014770Y0016855D03*
X0014770Y0016840D03*
X0018775Y0023695D03*
X0018775Y0023710D03*
X0021415Y0023485D03*
X0021415Y0023470D03*
X0021415Y0023455D03*
X0021460Y0025480D03*
X0021460Y0025495D03*
X0021460Y0025510D03*
X0024265Y0025510D03*
X0024265Y0025495D03*
X0024280Y0025480D03*
X0024280Y0025465D03*
X0024310Y0023485D03*
X0024310Y0023470D03*
X0024325Y0023440D03*
X0028195Y0020905D03*
X0029230Y0021940D03*
X0030535Y0023095D03*
X0030550Y0023080D03*
X0031885Y0024340D03*
X0031915Y0024310D03*
X0031930Y0024295D03*
D170*
X0031862Y0024355D03*
X0030512Y0023110D03*
X0018888Y0018010D03*
X0018888Y0017995D03*
X0018888Y0017980D03*
X0014762Y0017935D03*
X0014762Y0017920D03*
X0014762Y0017905D03*
X0014762Y0017890D03*
X0014762Y0016915D03*
X0014762Y0016885D03*
X0014762Y0016870D03*
D171*
X0014762Y0016900D03*
X0014762Y0017950D03*
D172*
X0014755Y0017875D03*
X0014740Y0017725D03*
X0014740Y0017650D03*
X0014740Y0017575D03*
X0014740Y0017500D03*
X0014740Y0017425D03*
X0014740Y0017350D03*
X0014740Y0017275D03*
X0014740Y0017200D03*
X0014740Y0017125D03*
X0014755Y0016975D03*
X0018880Y0017950D03*
X0021430Y0017950D03*
X0025960Y0018625D03*
X0028195Y0020350D03*
X0024310Y0023500D03*
X0024280Y0025450D03*
X0031900Y0024325D03*
X0010135Y0029050D03*
D173*
X0023807Y0019225D03*
X0024842Y0017275D03*
X0024767Y0017200D03*
X0024692Y0017125D03*
X0024617Y0017050D03*
X0028877Y0022075D03*
D174*
X0027962Y0023530D03*
X0031037Y0024940D03*
X0024812Y0017245D03*
X0024737Y0017170D03*
X0024662Y0017095D03*
X0018363Y0024490D03*
D175*
X0014830Y0030865D03*
X0014830Y0030880D03*
X0014845Y0030895D03*
X0025120Y0017545D03*
X0025105Y0017530D03*
X0025045Y0017470D03*
X0025030Y0017455D03*
X0024970Y0017395D03*
X0024955Y0017380D03*
X0024895Y0017320D03*
X0024880Y0017305D03*
D176*
X0024910Y0017335D03*
X0024940Y0017365D03*
X0024985Y0017410D03*
X0025015Y0017440D03*
X0025060Y0017485D03*
X0025090Y0017515D03*
X0023785Y0019210D03*
X0021175Y0018445D03*
X0020560Y0019240D03*
X0019090Y0018430D03*
X0018385Y0024445D03*
X0011935Y0025885D03*
X0027985Y0030880D03*
X0029950Y0023470D03*
D177*
X0025075Y0017500D03*
X0025000Y0017425D03*
X0024925Y0017350D03*
D178*
X0025142Y0017560D03*
X0025217Y0017635D03*
X0025292Y0017710D03*
X0025367Y0017785D03*
X0018392Y0024430D03*
X0010367Y0028990D03*
X0021407Y0035440D03*
X0027992Y0030865D03*
D179*
X0027992Y0030850D03*
X0031067Y0024925D03*
X0025307Y0017725D03*
X0025232Y0017650D03*
X0025157Y0017575D03*
D180*
X0025173Y0017590D03*
X0025187Y0017605D03*
X0025202Y0017620D03*
X0025248Y0017665D03*
X0025262Y0017680D03*
X0025277Y0017695D03*
X0025323Y0017740D03*
X0025337Y0017755D03*
X0025352Y0017770D03*
X0024948Y0020140D03*
X0031098Y0024910D03*
X0011927Y0025870D03*
X0011027Y0027745D03*
D181*
X0018415Y0024400D03*
X0025390Y0017800D03*
D182*
X0025405Y0017815D03*
X0025420Y0017830D03*
X0023785Y0019195D03*
X0029980Y0023455D03*
X0015160Y0018580D03*
X0011005Y0027760D03*
X0014815Y0030835D03*
D183*
X0021438Y0025405D03*
X0021438Y0025390D03*
X0021438Y0025360D03*
X0021438Y0025345D03*
X0021438Y0025330D03*
X0021438Y0025315D03*
X0021438Y0025285D03*
X0021438Y0025270D03*
X0021438Y0025255D03*
X0021438Y0025240D03*
X0021438Y0025210D03*
X0021438Y0025195D03*
X0021438Y0025180D03*
X0021438Y0025165D03*
X0021438Y0025135D03*
X0021438Y0025120D03*
X0021438Y0025105D03*
X0021438Y0025090D03*
X0021438Y0025060D03*
X0021438Y0025045D03*
X0021438Y0025030D03*
X0021438Y0025015D03*
X0021438Y0024985D03*
X0021438Y0024970D03*
X0021438Y0024955D03*
X0021438Y0024940D03*
X0021438Y0024910D03*
X0021438Y0024895D03*
X0021438Y0024880D03*
X0021438Y0024865D03*
X0021438Y0024835D03*
X0021438Y0024820D03*
X0021438Y0024805D03*
X0021438Y0024790D03*
X0021438Y0024760D03*
X0021438Y0024745D03*
X0021438Y0024730D03*
X0021438Y0024715D03*
X0021438Y0024685D03*
X0021438Y0024670D03*
X0021438Y0024655D03*
X0021438Y0024640D03*
X0021438Y0024610D03*
X0021438Y0024595D03*
X0021438Y0024580D03*
X0021438Y0024565D03*
X0021438Y0024535D03*
X0021438Y0024520D03*
X0021438Y0024505D03*
X0021438Y0024490D03*
X0021438Y0024460D03*
X0021438Y0024445D03*
X0021438Y0024430D03*
X0021438Y0024415D03*
X0021438Y0024385D03*
X0021438Y0024370D03*
X0021438Y0024355D03*
X0021438Y0024340D03*
X0021438Y0024310D03*
X0021438Y0024295D03*
X0021438Y0024280D03*
X0021438Y0024265D03*
X0021438Y0024235D03*
X0021438Y0024220D03*
X0021438Y0024205D03*
X0021438Y0024190D03*
X0021438Y0024160D03*
X0021438Y0024145D03*
X0021438Y0024130D03*
X0021438Y0024115D03*
X0021438Y0024085D03*
X0021438Y0024070D03*
X0021438Y0024055D03*
X0021438Y0024040D03*
X0021438Y0024010D03*
X0021438Y0023995D03*
X0021438Y0023980D03*
X0021438Y0023965D03*
X0021438Y0023935D03*
X0021438Y0023920D03*
X0021438Y0023905D03*
X0021438Y0023890D03*
X0021438Y0023860D03*
X0021438Y0023845D03*
X0021438Y0023830D03*
X0021438Y0023815D03*
X0021438Y0023785D03*
X0021438Y0023770D03*
X0021438Y0023755D03*
X0021438Y0023740D03*
X0021438Y0023710D03*
X0021438Y0023695D03*
X0021438Y0023680D03*
X0021438Y0023665D03*
X0021438Y0023635D03*
X0021438Y0023620D03*
X0021438Y0023605D03*
X0021438Y0023590D03*
X0021438Y0023560D03*
X0024287Y0025390D03*
X0024287Y0025405D03*
X0024287Y0025420D03*
X0024287Y0025435D03*
X0021438Y0017920D03*
X0021438Y0017905D03*
X0021438Y0017890D03*
X0021438Y0017860D03*
X0021438Y0017845D03*
D184*
X0021198Y0018430D03*
X0025427Y0017845D03*
X0025442Y0017860D03*
X0025473Y0017890D03*
X0025487Y0017905D03*
X0018423Y0024385D03*
X0014808Y0030805D03*
X0014808Y0030820D03*
X0028008Y0030820D03*
X0028262Y0025135D03*
X0031127Y0024895D03*
D185*
X0030587Y0023050D03*
X0024287Y0025375D03*
X0021438Y0025375D03*
X0021438Y0025300D03*
X0021438Y0025225D03*
X0021438Y0025150D03*
X0021438Y0025075D03*
X0021438Y0025000D03*
X0021438Y0024925D03*
X0021438Y0024850D03*
X0021438Y0024775D03*
X0021438Y0024700D03*
X0021438Y0024625D03*
X0021438Y0024550D03*
X0021438Y0024475D03*
X0021438Y0024400D03*
X0021438Y0024325D03*
X0021438Y0024250D03*
X0021438Y0024175D03*
X0021438Y0024100D03*
X0021438Y0024025D03*
X0021438Y0023950D03*
X0021438Y0023875D03*
X0021438Y0023800D03*
X0021438Y0023725D03*
X0021438Y0023650D03*
X0021438Y0023575D03*
X0021438Y0017875D03*
D186*
X0025458Y0017875D03*
D187*
X0025525Y0017950D03*
D188*
X0025930Y0018520D03*
X0025930Y0018535D03*
X0025945Y0018565D03*
X0025945Y0019060D03*
X0023755Y0019045D03*
X0018895Y0018040D03*
X0014770Y0017965D03*
X0018745Y0023770D03*
X0031795Y0024415D03*
D189*
X0030017Y0023440D03*
X0025532Y0017965D03*
X0018467Y0024310D03*
X0014792Y0030760D03*
X0021407Y0035455D03*
D190*
X0028023Y0030760D03*
X0022862Y0026845D03*
X0018452Y0024340D03*
X0019802Y0022090D03*
X0019052Y0018385D03*
X0023777Y0019180D03*
X0024948Y0020155D03*
X0025562Y0017995D03*
X0025548Y0017980D03*
X0031173Y0024865D03*
D191*
X0028945Y0022060D03*
X0025570Y0018010D03*
X0028045Y0030715D03*
X0028030Y0030745D03*
D192*
X0025945Y0018550D03*
X0018895Y0018025D03*
D193*
X0021235Y0018400D03*
X0025585Y0018025D03*
D194*
X0025600Y0018040D03*
X0018475Y0024295D03*
X0010960Y0027790D03*
X0014785Y0030745D03*
D195*
X0024242Y0025585D03*
X0020567Y0019330D03*
X0021407Y0018070D03*
X0021407Y0018055D03*
X0014807Y0018115D03*
X0014807Y0018130D03*
D196*
X0015085Y0018535D03*
X0020560Y0019270D03*
X0021250Y0018385D03*
X0025615Y0018055D03*
X0025630Y0018070D03*
X0025750Y0019315D03*
X0030070Y0023410D03*
X0031255Y0024820D03*
X0028060Y0030670D03*
X0018490Y0024265D03*
X0010930Y0027805D03*
X0014770Y0030685D03*
D197*
X0014762Y0030670D03*
X0014762Y0030655D03*
X0018513Y0024235D03*
X0018513Y0024220D03*
X0025637Y0018085D03*
D198*
X0021400Y0018100D03*
D199*
X0019015Y0018340D03*
X0025660Y0018115D03*
X0025675Y0018130D03*
X0030100Y0023395D03*
X0031300Y0024790D03*
X0024085Y0025765D03*
X0018535Y0024190D03*
X0028075Y0030595D03*
X0028075Y0030610D03*
D200*
X0031675Y0024520D03*
X0018925Y0018145D03*
X0014875Y0018280D03*
D201*
X0025682Y0018145D03*
X0028082Y0030565D03*
X0028082Y0030580D03*
D202*
X0018692Y0023890D03*
X0021332Y0023290D03*
X0024392Y0023290D03*
X0025892Y0019165D03*
X0018932Y0018160D03*
X0014882Y0018295D03*
D203*
X0014898Y0018310D03*
X0021377Y0018160D03*
X0025877Y0018415D03*
X0028202Y0020485D03*
X0028202Y0020515D03*
X0028202Y0020530D03*
X0028202Y0020545D03*
X0028202Y0020710D03*
X0028202Y0020740D03*
X0028202Y0020755D03*
X0028202Y0020770D03*
X0030362Y0023230D03*
X0030348Y0023245D03*
X0031623Y0024565D03*
X0018677Y0023920D03*
X0018677Y0023905D03*
D204*
X0021542Y0025675D03*
X0024182Y0025675D03*
X0018932Y0018175D03*
D205*
X0021295Y0018325D03*
X0025705Y0018175D03*
X0028090Y0030550D03*
D206*
X0018670Y0023935D03*
X0021370Y0018190D03*
X0025855Y0018370D03*
X0025855Y0018385D03*
X0028195Y0020560D03*
X0028195Y0020695D03*
X0014920Y0018355D03*
X0014905Y0018340D03*
D207*
X0020560Y0019285D03*
X0023770Y0019135D03*
X0025720Y0018190D03*
X0025795Y0019285D03*
X0030130Y0023380D03*
X0031345Y0024760D03*
X0028180Y0024295D03*
X0028090Y0030535D03*
X0018565Y0024145D03*
X0018565Y0024130D03*
X0014740Y0030565D03*
X0014740Y0030580D03*
D208*
X0009280Y0029605D03*
X0009265Y0029620D03*
X0017095Y0018205D03*
D209*
X0021363Y0018205D03*
X0023762Y0019090D03*
X0025862Y0019210D03*
X0031562Y0024610D03*
X0014687Y0028615D03*
X0014687Y0028630D03*
X0014687Y0028645D03*
X0014687Y0028660D03*
X0014687Y0028690D03*
X0014687Y0028705D03*
X0014687Y0028720D03*
X0014687Y0028735D03*
X0014687Y0028765D03*
X0014687Y0028780D03*
X0014687Y0028795D03*
X0014687Y0028810D03*
X0014687Y0028840D03*
X0014687Y0028855D03*
X0014687Y0028870D03*
X0014687Y0028885D03*
X0014687Y0028915D03*
X0014687Y0028930D03*
X0014687Y0028945D03*
X0014687Y0028960D03*
X0014687Y0028990D03*
X0014687Y0029005D03*
X0014687Y0029020D03*
X0014687Y0029035D03*
X0014687Y0029065D03*
X0014687Y0029080D03*
X0014687Y0029095D03*
X0014687Y0029110D03*
X0014687Y0029140D03*
X0014687Y0029155D03*
X0014687Y0029170D03*
X0014687Y0029185D03*
X0014687Y0029215D03*
X0014687Y0029230D03*
X0014687Y0029245D03*
X0014687Y0029260D03*
X0014687Y0029290D03*
X0014687Y0029305D03*
X0014687Y0029320D03*
X0014687Y0029335D03*
X0014687Y0029365D03*
X0014687Y0029380D03*
X0014687Y0029395D03*
X0014687Y0029410D03*
X0014687Y0029440D03*
X0014687Y0029455D03*
X0014687Y0029470D03*
X0014687Y0029485D03*
X0014687Y0029515D03*
X0014687Y0029530D03*
X0014687Y0029545D03*
X0014687Y0029560D03*
X0014687Y0029590D03*
X0014687Y0029605D03*
X0014687Y0029620D03*
X0014687Y0029635D03*
X0014687Y0029665D03*
X0014687Y0029680D03*
X0014687Y0029695D03*
X0014687Y0029710D03*
X0014687Y0029740D03*
X0014687Y0029755D03*
X0014687Y0029770D03*
X0014687Y0029785D03*
X0014687Y0029815D03*
X0014687Y0029830D03*
X0014687Y0029845D03*
X0014687Y0029860D03*
X0014687Y0029890D03*
X0014687Y0029905D03*
X0014687Y0029920D03*
X0014687Y0029935D03*
X0014687Y0029965D03*
X0014687Y0029980D03*
X0014687Y0029995D03*
X0014687Y0030010D03*
X0014687Y0030040D03*
X0014687Y0030055D03*
X0014687Y0030070D03*
X0014687Y0030085D03*
X0014687Y0030115D03*
X0014687Y0030130D03*
X0014687Y0030145D03*
X0014687Y0030160D03*
X0014687Y0030190D03*
X0014687Y0030205D03*
X0014687Y0030220D03*
D210*
X0017095Y0018220D03*
D211*
X0018963Y0018235D03*
X0023762Y0019105D03*
X0024437Y0023245D03*
X0022862Y0026860D03*
D212*
X0014860Y0018250D03*
D213*
X0021347Y0018250D03*
X0014702Y0030325D03*
X0028127Y0030250D03*
D214*
X0028112Y0030400D03*
X0025773Y0018250D03*
D215*
X0025780Y0018265D03*
X0025795Y0018280D03*
X0021280Y0023230D03*
X0021595Y0025735D03*
X0024130Y0025735D03*
X0028120Y0030340D03*
X0028120Y0030355D03*
X0028120Y0030370D03*
X0031480Y0024670D03*
X0018970Y0018265D03*
D216*
X0021332Y0018265D03*
X0016097Y0019405D03*
X0014972Y0018430D03*
X0014957Y0018415D03*
X0018632Y0024010D03*
X0024152Y0025720D03*
X0028127Y0030265D03*
X0028127Y0030280D03*
X0028127Y0030295D03*
X0028127Y0030310D03*
X0031502Y0024655D03*
X0030257Y0023305D03*
X0025802Y0018295D03*
X0014702Y0030340D03*
X0014702Y0030355D03*
X0014702Y0030370D03*
D217*
X0018595Y0024085D03*
X0018985Y0018280D03*
X0021310Y0018310D03*
X0023770Y0019120D03*
X0025810Y0019270D03*
X0031390Y0024730D03*
X0031420Y0024715D03*
X0028105Y0030445D03*
X0028105Y0030460D03*
D218*
X0017057Y0018295D03*
X0009482Y0029395D03*
D219*
X0014717Y0030430D03*
X0014717Y0030445D03*
X0014717Y0030460D03*
X0021317Y0018295D03*
X0029042Y0022030D03*
X0031457Y0024685D03*
D220*
X0017042Y0018310D03*
D221*
X0019000Y0018310D03*
X0018550Y0024160D03*
D222*
X0017035Y0018325D03*
D223*
X0019007Y0018325D03*
X0018542Y0024175D03*
D224*
X0014950Y0018400D03*
X0025825Y0018325D03*
X0025855Y0019225D03*
X0028135Y0024325D03*
X0028135Y0024400D03*
X0031540Y0024625D03*
X0028135Y0030100D03*
X0028135Y0030175D03*
X0014695Y0030250D03*
D225*
X0017027Y0018340D03*
X0031562Y0020305D03*
D226*
X0017020Y0018355D03*
X0009565Y0029320D03*
D227*
X0010307Y0029005D03*
X0010922Y0027820D03*
X0021407Y0035470D03*
X0028067Y0030655D03*
X0028067Y0030640D03*
X0031277Y0024805D03*
X0024947Y0020170D03*
X0021257Y0018370D03*
X0019022Y0018355D03*
D228*
X0017013Y0018370D03*
X0024977Y0020305D03*
X0033138Y0020830D03*
X0009602Y0029290D03*
D229*
X0019038Y0018370D03*
X0028037Y0030730D03*
D230*
X0016990Y0018400D03*
D231*
X0019060Y0018400D03*
D232*
X0016982Y0018415D03*
D233*
X0019075Y0018415D03*
X0018400Y0024415D03*
X0028000Y0030835D03*
D234*
X0020583Y0019420D03*
X0016967Y0018430D03*
D235*
X0015002Y0018460D03*
X0014987Y0018445D03*
X0018602Y0024070D03*
X0024452Y0023230D03*
X0030212Y0023335D03*
X0028112Y0030385D03*
X0028112Y0030415D03*
X0028112Y0030430D03*
D236*
X0027910Y0031015D03*
X0030940Y0024985D03*
X0023890Y0019285D03*
X0020560Y0019210D03*
X0019135Y0018460D03*
X0018295Y0024595D03*
X0018280Y0024610D03*
X0011965Y0025915D03*
X0011110Y0027685D03*
X0014890Y0030985D03*
X0021415Y0035410D03*
D237*
X0028105Y0030475D03*
X0018580Y0024100D03*
X0015010Y0018475D03*
D238*
X0016930Y0018475D03*
X0030070Y0020050D03*
D239*
X0019165Y0018475D03*
X0014950Y0031075D03*
X0027865Y0031075D03*
D240*
X0018273Y0024625D03*
X0021123Y0018475D03*
D241*
X0016923Y0018490D03*
X0028202Y0020080D03*
X0033138Y0020935D03*
X0009813Y0029170D03*
D242*
X0020125Y0018520D03*
X0020125Y0018505D03*
X0020125Y0018490D03*
D243*
X0016907Y0018505D03*
D244*
X0015070Y0018520D03*
X0018520Y0024205D03*
X0014755Y0030640D03*
D245*
X0021407Y0035590D03*
X0030002Y0020935D03*
X0030002Y0020920D03*
X0030017Y0020890D03*
X0030017Y0020860D03*
X0030032Y0020830D03*
X0030032Y0020815D03*
X0030047Y0020755D03*
X0023732Y0018820D03*
X0016892Y0018520D03*
X0016082Y0019465D03*
D246*
X0016877Y0018535D03*
X0029927Y0021115D03*
X0029973Y0021010D03*
X0031562Y0020545D03*
D247*
X0029312Y0025405D03*
X0022862Y0026035D03*
X0020117Y0018565D03*
X0020117Y0018535D03*
X0021408Y0034840D03*
D248*
X0009400Y0029470D03*
X0009385Y0029485D03*
X0023725Y0018535D03*
D249*
X0030047Y0023425D03*
X0031202Y0024850D03*
X0028052Y0030700D03*
X0015107Y0018550D03*
D250*
X0016855Y0018550D03*
X0009910Y0029125D03*
X0029815Y0021325D03*
X0031510Y0021550D03*
X0031540Y0021400D03*
X0031555Y0021325D03*
X0031570Y0021250D03*
X0031585Y0021025D03*
X0031585Y0020875D03*
X0031570Y0020650D03*
X0033145Y0021100D03*
D251*
X0022862Y0026050D03*
X0020117Y0018550D03*
D252*
X0023725Y0018550D03*
D253*
X0023740Y0018895D03*
X0029680Y0021535D03*
X0029695Y0021505D03*
X0029710Y0021490D03*
X0031330Y0022045D03*
X0031345Y0022030D03*
X0031345Y0022015D03*
X0031360Y0021985D03*
X0031375Y0021955D03*
X0033010Y0022570D03*
X0032995Y0022615D03*
X0032995Y0022630D03*
X0032980Y0022645D03*
X0032980Y0022660D03*
X0032965Y0022690D03*
X0032965Y0022705D03*
X0032950Y0022735D03*
X0032935Y0022780D03*
X0016840Y0018565D03*
X0009955Y0029110D03*
D254*
X0023725Y0018565D03*
D255*
X0024955Y0020260D03*
X0028195Y0020185D03*
X0028195Y0021070D03*
X0029545Y0021685D03*
X0029560Y0021670D03*
X0031135Y0022405D03*
X0031165Y0022360D03*
X0031180Y0022330D03*
X0032710Y0023260D03*
X0032695Y0023290D03*
X0032680Y0023320D03*
X0032740Y0023215D03*
X0032755Y0023185D03*
X0032770Y0023155D03*
X0018970Y0023215D03*
X0018970Y0023230D03*
X0016810Y0018580D03*
D256*
X0020110Y0018580D03*
X0020110Y0018595D03*
X0016870Y0022195D03*
D257*
X0023725Y0018580D03*
X0009490Y0029380D03*
D258*
X0018917Y0023365D03*
X0016772Y0018595D03*
X0023747Y0018955D03*
X0028202Y0020230D03*
X0029432Y0021790D03*
X0030902Y0022720D03*
X0030917Y0022705D03*
X0030932Y0022690D03*
X0032432Y0023710D03*
X0032447Y0023695D03*
X0032417Y0023740D03*
X0032402Y0023755D03*
D259*
X0029298Y0025420D03*
X0022862Y0026065D03*
X0020102Y0018610D03*
D260*
X0023725Y0018610D03*
X0009550Y0029335D03*
D261*
X0015850Y0018625D03*
D262*
X0020102Y0018625D03*
D263*
X0023725Y0018625D03*
D264*
X0020095Y0018640D03*
X0020095Y0018655D03*
X0013345Y0025195D03*
X0022870Y0026080D03*
D265*
X0023725Y0018640D03*
D266*
X0028810Y0023830D03*
X0028930Y0025735D03*
X0022870Y0026515D03*
X0016870Y0026185D03*
X0012790Y0025510D03*
X0012340Y0026335D03*
X0011095Y0028840D03*
X0015895Y0018715D03*
X0015880Y0018685D03*
X0015865Y0018670D03*
X0015865Y0018655D03*
D267*
X0023725Y0018655D03*
D268*
X0020088Y0018670D03*
X0020088Y0018685D03*
X0022862Y0026095D03*
D269*
X0023725Y0018685D03*
D270*
X0020238Y0022675D03*
X0015887Y0018700D03*
X0012152Y0026725D03*
D271*
X0020080Y0018700D03*
X0029275Y0025450D03*
D272*
X0023725Y0018700D03*
D273*
X0020080Y0018715D03*
X0016900Y0022180D03*
X0022870Y0026110D03*
D274*
X0023725Y0018715D03*
X0009700Y0029230D03*
D275*
X0014957Y0027610D03*
X0021407Y0034870D03*
X0020072Y0018745D03*
X0020072Y0018730D03*
D276*
X0015940Y0018790D03*
X0015925Y0018760D03*
X0015910Y0018745D03*
D277*
X0023725Y0018760D03*
D278*
X0017260Y0022075D03*
X0015925Y0018775D03*
X0012760Y0025525D03*
D279*
X0013300Y0025225D03*
X0020065Y0018775D03*
D280*
X0023725Y0018775D03*
D281*
X0023725Y0018790D03*
D282*
X0023725Y0018805D03*
X0020575Y0019405D03*
D283*
X0020230Y0022630D03*
X0017035Y0025990D03*
X0017020Y0026005D03*
X0015700Y0027370D03*
X0012130Y0026755D03*
X0012115Y0026770D03*
X0015985Y0018865D03*
X0015970Y0018835D03*
X0015955Y0018820D03*
D284*
X0023732Y0018835D03*
X0029942Y0021085D03*
X0029957Y0021055D03*
D285*
X0029905Y0021175D03*
X0031570Y0020575D03*
X0023740Y0018850D03*
D286*
X0023740Y0018865D03*
X0029815Y0021340D03*
X0029830Y0021310D03*
X0029845Y0021280D03*
X0031540Y0021415D03*
X0031540Y0021430D03*
X0031555Y0021370D03*
X0031555Y0021355D03*
X0031555Y0021340D03*
X0031555Y0021310D03*
X0031570Y0021265D03*
X0031570Y0021235D03*
X0031570Y0021220D03*
X0031570Y0021205D03*
X0031585Y0021085D03*
X0031585Y0021070D03*
X0031585Y0021055D03*
X0031585Y0021040D03*
X0031585Y0020860D03*
X0031585Y0020845D03*
X0031585Y0020830D03*
X0031570Y0020695D03*
X0031570Y0020680D03*
X0031570Y0020665D03*
X0033145Y0021085D03*
X0033145Y0021115D03*
X0033145Y0021130D03*
D287*
X0033160Y0021340D03*
X0033160Y0021355D03*
X0033160Y0021370D03*
X0033160Y0021790D03*
X0033160Y0021805D03*
X0033160Y0021820D03*
X0033115Y0022120D03*
X0033115Y0022135D03*
X0033115Y0022165D03*
X0033115Y0022180D03*
X0033100Y0022195D03*
X0033100Y0022210D03*
X0033100Y0022240D03*
X0033085Y0022270D03*
X0033085Y0022285D03*
X0031465Y0021730D03*
X0031465Y0021715D03*
X0031450Y0021745D03*
X0031450Y0021760D03*
X0031435Y0021790D03*
X0031435Y0021805D03*
X0029740Y0021445D03*
X0023740Y0018880D03*
X0020575Y0019390D03*
D288*
X0020575Y0018895D03*
X0020125Y0022330D03*
X0017560Y0025510D03*
X0016240Y0027130D03*
X0015460Y0031570D03*
X0011665Y0027220D03*
D289*
X0011650Y0027235D03*
X0012400Y0025690D03*
X0020575Y0018910D03*
D290*
X0023740Y0018910D03*
X0031225Y0022255D03*
X0032860Y0022960D03*
X0032875Y0022930D03*
X0032815Y0023065D03*
X0032800Y0023095D03*
D291*
X0027408Y0031525D03*
X0015408Y0031525D03*
X0011627Y0027250D03*
X0012152Y0026125D03*
X0020567Y0018925D03*
D292*
X0023740Y0018925D03*
X0016090Y0019450D03*
X0032665Y0023350D03*
X0032710Y0023275D03*
D293*
X0028765Y0023890D03*
X0020215Y0022585D03*
X0017095Y0025945D03*
X0012070Y0026815D03*
X0012055Y0026830D03*
X0011035Y0028855D03*
X0019585Y0034045D03*
X0023230Y0034045D03*
X0016045Y0018955D03*
X0016030Y0018940D03*
D294*
X0020575Y0018940D03*
D295*
X0023748Y0018940D03*
X0028202Y0020215D03*
X0029477Y0021745D03*
X0031023Y0022570D03*
X0031037Y0022555D03*
X0032552Y0023530D03*
X0032552Y0023545D03*
X0032537Y0023560D03*
X0018948Y0023305D03*
X0018948Y0023290D03*
D296*
X0017665Y0025405D03*
X0017650Y0025420D03*
X0016360Y0027070D03*
X0024925Y0019930D03*
X0020575Y0018955D03*
X0030460Y0025135D03*
X0027460Y0031480D03*
D297*
X0023298Y0034015D03*
X0023267Y0034030D03*
X0019548Y0034030D03*
X0019517Y0034015D03*
X0015767Y0027340D03*
X0016908Y0026230D03*
X0017117Y0025930D03*
X0012302Y0026290D03*
X0016067Y0018985D03*
X0016052Y0018970D03*
X0024887Y0019720D03*
D298*
X0023747Y0018970D03*
X0028202Y0020245D03*
X0028202Y0021010D03*
X0029402Y0021820D03*
X0030827Y0022810D03*
X0030842Y0022795D03*
X0030857Y0022780D03*
X0032327Y0023845D03*
X0032327Y0023860D03*
X0032342Y0023830D03*
X0032357Y0023815D03*
X0032297Y0023890D03*
X0018902Y0023410D03*
D299*
X0017717Y0025345D03*
X0017702Y0025360D03*
X0012332Y0025720D03*
X0012122Y0026095D03*
X0020567Y0018985D03*
X0027602Y0023260D03*
X0028547Y0024115D03*
X0021407Y0035260D03*
D300*
X0032223Y0023980D03*
X0032237Y0023965D03*
X0030798Y0022840D03*
X0028202Y0020995D03*
X0028202Y0020260D03*
X0023748Y0018985D03*
X0018873Y0023485D03*
D301*
X0016075Y0019000D03*
X0019225Y0033850D03*
X0025150Y0032950D03*
D302*
X0020567Y0019000D03*
D303*
X0023748Y0019000D03*
X0032117Y0024100D03*
D304*
X0028757Y0023905D03*
X0020207Y0022555D03*
X0016082Y0019015D03*
X0016142Y0032065D03*
X0016157Y0032080D03*
X0016217Y0032110D03*
X0016292Y0032155D03*
X0016442Y0032245D03*
X0016682Y0032380D03*
X0016832Y0032470D03*
X0016967Y0032545D03*
X0017042Y0032590D03*
X0017117Y0032635D03*
X0017357Y0032770D03*
X0017432Y0032815D03*
X0017507Y0032860D03*
X0017567Y0032890D03*
X0017642Y0032935D03*
X0017717Y0032980D03*
X0017957Y0033115D03*
X0018032Y0033160D03*
X0018107Y0033205D03*
X0018242Y0033280D03*
X0018392Y0033370D03*
X0018467Y0033415D03*
X0018632Y0033505D03*
X0018782Y0033595D03*
X0018857Y0033640D03*
X0018917Y0033670D03*
X0018992Y0033715D03*
X0019067Y0033760D03*
X0019142Y0033805D03*
X0019307Y0033895D03*
X0019382Y0033940D03*
X0021407Y0035110D03*
X0023357Y0033985D03*
X0023432Y0033940D03*
X0023492Y0033910D03*
X0023567Y0033865D03*
X0023642Y0033820D03*
X0023882Y0033685D03*
X0023957Y0033640D03*
X0024032Y0033595D03*
X0024167Y0033520D03*
X0024317Y0033430D03*
X0024392Y0033385D03*
X0024557Y0033295D03*
X0024707Y0033205D03*
X0024782Y0033160D03*
X0024842Y0033130D03*
X0024917Y0033085D03*
X0024992Y0033040D03*
X0025067Y0032995D03*
X0025232Y0032905D03*
X0025307Y0032860D03*
X0025382Y0032815D03*
X0025457Y0032770D03*
X0025517Y0032740D03*
X0025592Y0032695D03*
X0025907Y0032515D03*
X0025982Y0032470D03*
X0026117Y0032395D03*
X0026267Y0032305D03*
X0026342Y0032260D03*
X0026507Y0032170D03*
X0026657Y0032080D03*
X0026732Y0032035D03*
D305*
X0027542Y0031405D03*
X0017777Y0025270D03*
X0016517Y0026980D03*
X0012287Y0025735D03*
X0015258Y0031390D03*
X0015273Y0031405D03*
X0020058Y0022240D03*
X0020567Y0019015D03*
X0016112Y0019240D03*
D306*
X0016098Y0019030D03*
X0024887Y0019735D03*
X0028848Y0025780D03*
X0026687Y0032065D03*
X0026627Y0032095D03*
X0026552Y0032140D03*
X0026523Y0032155D03*
X0026477Y0032185D03*
X0026402Y0032230D03*
X0026373Y0032245D03*
X0026298Y0032290D03*
X0026237Y0032320D03*
X0026162Y0032365D03*
X0026087Y0032410D03*
X0026012Y0032455D03*
X0025952Y0032485D03*
X0025877Y0032530D03*
X0025848Y0032545D03*
X0025773Y0032590D03*
X0025727Y0032620D03*
X0025698Y0032635D03*
X0025623Y0032680D03*
X0025562Y0032710D03*
X0025487Y0032755D03*
X0025337Y0032845D03*
X0025202Y0032920D03*
X0025173Y0032935D03*
X0025127Y0032965D03*
X0025098Y0032980D03*
X0025052Y0033010D03*
X0024948Y0033070D03*
X0024812Y0033145D03*
X0024737Y0033190D03*
X0024662Y0033235D03*
X0024602Y0033265D03*
X0024527Y0033310D03*
X0024452Y0033355D03*
X0024423Y0033370D03*
X0024348Y0033415D03*
X0024273Y0033460D03*
X0024212Y0033490D03*
X0024137Y0033535D03*
X0024062Y0033580D03*
X0024002Y0033610D03*
X0023927Y0033655D03*
X0023823Y0033715D03*
X0023777Y0033745D03*
X0023748Y0033760D03*
X0023673Y0033805D03*
X0023612Y0033835D03*
X0023537Y0033880D03*
X0023387Y0033970D03*
X0019413Y0033955D03*
X0019277Y0033880D03*
X0019248Y0033865D03*
X0019202Y0033835D03*
X0019173Y0033820D03*
X0019023Y0033730D03*
X0018888Y0033655D03*
X0018813Y0033610D03*
X0018752Y0033580D03*
X0018738Y0033565D03*
X0018677Y0033535D03*
X0018602Y0033490D03*
X0018527Y0033445D03*
X0018498Y0033430D03*
X0018423Y0033385D03*
X0018348Y0033340D03*
X0018288Y0033310D03*
X0018213Y0033265D03*
X0018138Y0033220D03*
X0018077Y0033190D03*
X0018002Y0033145D03*
X0017898Y0033085D03*
X0017852Y0033055D03*
X0017823Y0033040D03*
X0017748Y0032995D03*
X0017688Y0032965D03*
X0017613Y0032920D03*
X0017463Y0032830D03*
X0017327Y0032755D03*
X0017298Y0032740D03*
X0017252Y0032710D03*
X0017223Y0032695D03*
X0017177Y0032665D03*
X0017073Y0032605D03*
X0016938Y0032530D03*
X0016863Y0032485D03*
X0016788Y0032440D03*
X0016727Y0032410D03*
X0016652Y0032365D03*
X0016577Y0032320D03*
X0016548Y0032305D03*
X0016473Y0032260D03*
X0016398Y0032215D03*
X0016337Y0032185D03*
X0016262Y0032140D03*
X0016187Y0032095D03*
D307*
X0012092Y0026065D03*
X0017807Y0025240D03*
X0020567Y0019030D03*
X0028517Y0024145D03*
D308*
X0024932Y0019990D03*
X0020567Y0019045D03*
X0017852Y0025195D03*
X0016607Y0026920D03*
X0011447Y0027415D03*
X0010652Y0028930D03*
X0021407Y0035290D03*
D309*
X0021407Y0035305D03*
X0027632Y0031330D03*
X0027677Y0023290D03*
X0020027Y0022210D03*
X0020567Y0019060D03*
X0017897Y0025135D03*
X0016652Y0026890D03*
D310*
X0015880Y0031900D03*
X0016120Y0019075D03*
D311*
X0020567Y0019075D03*
D312*
X0025937Y0019075D03*
X0024362Y0023350D03*
X0024227Y0025600D03*
X0021498Y0025600D03*
D313*
X0017958Y0025060D03*
X0017088Y0026470D03*
X0015137Y0031285D03*
X0011358Y0027490D03*
X0021408Y0035320D03*
X0027677Y0031285D03*
X0024933Y0020020D03*
X0020567Y0019090D03*
D314*
X0016112Y0019105D03*
X0012573Y0025615D03*
X0016952Y0026290D03*
X0015723Y0031780D03*
X0015737Y0031795D03*
X0027077Y0031795D03*
D315*
X0017365Y0025705D03*
X0017350Y0025720D03*
X0016960Y0026305D03*
X0012535Y0025630D03*
X0011830Y0027055D03*
X0020170Y0022435D03*
X0016120Y0019120D03*
D316*
X0020560Y0019120D03*
X0028420Y0024205D03*
X0018040Y0024955D03*
X0018025Y0024970D03*
X0016915Y0026695D03*
X0016900Y0026710D03*
X0011305Y0027535D03*
D317*
X0012512Y0025645D03*
X0016112Y0019135D03*
X0020163Y0022405D03*
X0024902Y0019840D03*
X0028727Y0025840D03*
X0027212Y0031690D03*
D318*
X0027227Y0031675D03*
X0028652Y0024025D03*
X0016112Y0019150D03*
D319*
X0020567Y0019150D03*
X0012017Y0025975D03*
X0022862Y0026800D03*
D320*
X0014755Y0030625D03*
X0025780Y0019300D03*
X0023770Y0019150D03*
D321*
X0025900Y0019150D03*
X0018700Y0023875D03*
D322*
X0016112Y0019165D03*
D323*
X0020560Y0019165D03*
X0024940Y0020080D03*
X0028360Y0024235D03*
X0027835Y0031120D03*
X0018160Y0024790D03*
D324*
X0017538Y0025540D03*
X0022862Y0026695D03*
X0016112Y0019180D03*
D325*
X0016105Y0019330D03*
X0020560Y0019180D03*
X0018190Y0024745D03*
X0011170Y0027640D03*
X0014965Y0031105D03*
X0027850Y0031105D03*
X0030835Y0025030D03*
X0027865Y0023410D03*
D326*
X0027542Y0023245D03*
X0028592Y0024085D03*
X0024917Y0019915D03*
X0017613Y0025465D03*
X0022862Y0026710D03*
X0016112Y0019195D03*
X0021408Y0035230D03*
D327*
X0014920Y0031030D03*
X0018265Y0024640D03*
X0020560Y0019195D03*
X0027895Y0023440D03*
X0029830Y0023515D03*
D328*
X0020095Y0022285D03*
X0016105Y0019210D03*
X0015355Y0031480D03*
D329*
X0016105Y0019225D03*
D330*
X0016112Y0019255D03*
X0022862Y0026755D03*
D331*
X0022862Y0026770D03*
X0017913Y0025120D03*
X0016727Y0026845D03*
X0012212Y0025765D03*
X0012062Y0026035D03*
X0016112Y0019270D03*
D332*
X0016098Y0019285D03*
X0019998Y0022180D03*
X0017988Y0025030D03*
X0016848Y0026755D03*
D333*
X0018055Y0024925D03*
X0016105Y0019300D03*
D334*
X0020560Y0019300D03*
X0018625Y0024025D03*
X0014710Y0030400D03*
D335*
X0023920Y0019300D03*
X0028330Y0024250D03*
X0030910Y0025000D03*
D336*
X0018130Y0024835D03*
X0016105Y0019315D03*
X0011230Y0027595D03*
D337*
X0024790Y0019345D03*
D338*
X0020560Y0019360D03*
X0032260Y0023935D03*
X0032275Y0023920D03*
X0032290Y0023905D03*
D339*
X0028023Y0030775D03*
X0018452Y0024325D03*
X0016098Y0019375D03*
D340*
X0020567Y0019375D03*
D341*
X0024805Y0019375D03*
D342*
X0024812Y0019420D03*
X0022862Y0026335D03*
X0017088Y0022120D03*
D343*
X0024820Y0019435D03*
D344*
X0024820Y0019450D03*
D345*
X0024827Y0019465D03*
X0020252Y0022945D03*
X0020252Y0022960D03*
X0022862Y0026365D03*
X0028877Y0023680D03*
X0015317Y0027505D03*
X0013023Y0025390D03*
D346*
X0009647Y0029260D03*
X0016082Y0019480D03*
X0029177Y0025915D03*
D347*
X0029073Y0025630D03*
X0022862Y0026380D03*
X0020252Y0022930D03*
X0020252Y0022915D03*
X0024827Y0019480D03*
D348*
X0024835Y0019495D03*
D349*
X0024842Y0019510D03*
X0020252Y0022870D03*
X0012407Y0026440D03*
X0012392Y0026455D03*
X0011222Y0028810D03*
D350*
X0024850Y0019525D03*
D351*
X0024850Y0019540D03*
X0012400Y0026395D03*
D352*
X0020252Y0022810D03*
X0022862Y0026440D03*
X0024858Y0019555D03*
D353*
X0024857Y0019570D03*
X0017207Y0022090D03*
X0016832Y0026140D03*
X0012317Y0026545D03*
D354*
X0012730Y0025540D03*
X0024880Y0019690D03*
D355*
X0024895Y0019750D03*
X0020200Y0022525D03*
X0021415Y0035125D03*
D356*
X0022870Y0026605D03*
X0024895Y0019765D03*
D357*
X0024895Y0019795D03*
X0020185Y0022465D03*
X0017305Y0025765D03*
X0017290Y0025780D03*
X0015955Y0027265D03*
X0015760Y0031810D03*
X0027055Y0031810D03*
X0028705Y0023965D03*
D358*
X0024902Y0019825D03*
D359*
X0024910Y0019855D03*
X0017455Y0025615D03*
X0011740Y0027145D03*
X0027265Y0031645D03*
D360*
X0028690Y0025855D03*
X0024910Y0019870D03*
X0020140Y0022360D03*
X0011725Y0027160D03*
X0015535Y0031630D03*
D361*
X0016210Y0027145D03*
X0012175Y0026155D03*
X0011695Y0027190D03*
X0024910Y0019885D03*
X0027340Y0031585D03*
D362*
X0024917Y0019900D03*
D363*
X0030070Y0019900D03*
X0033145Y0020800D03*
D364*
X0031570Y0020320D03*
X0030070Y0019945D03*
D365*
X0024925Y0019960D03*
X0011500Y0027370D03*
D366*
X0017050Y0026425D03*
X0024925Y0019975D03*
D367*
X0030070Y0019975D03*
X0031570Y0020350D03*
D368*
X0030070Y0019990D03*
D369*
X0024925Y0020005D03*
X0027640Y0031315D03*
X0015175Y0031315D03*
X0011410Y0027445D03*
D370*
X0009730Y0029215D03*
X0030070Y0020005D03*
D371*
X0030077Y0020035D03*
X0028202Y0020065D03*
X0021407Y0035605D03*
D372*
X0011282Y0027550D03*
X0016967Y0026650D03*
X0024932Y0020050D03*
D373*
X0028202Y0020050D03*
X0033138Y0020875D03*
D374*
X0030760Y0025060D03*
X0028390Y0024220D03*
X0024940Y0020065D03*
X0018085Y0024895D03*
X0017110Y0026515D03*
X0017095Y0026530D03*
X0015040Y0031180D03*
X0011245Y0027580D03*
D375*
X0019915Y0022120D03*
X0024940Y0020095D03*
D376*
X0028202Y0020095D03*
X0028202Y0021160D03*
X0030077Y0020605D03*
X0030077Y0020590D03*
X0030077Y0020560D03*
X0030077Y0020545D03*
X0030077Y0020530D03*
X0030077Y0020515D03*
X0030077Y0020485D03*
X0030077Y0020470D03*
X0030077Y0020380D03*
X0030077Y0020365D03*
X0030077Y0020335D03*
X0030077Y0020320D03*
X0030077Y0020305D03*
X0030077Y0020290D03*
X0030077Y0020260D03*
X0030077Y0020245D03*
X0030077Y0020230D03*
X0030077Y0020215D03*
X0009842Y0029155D03*
D377*
X0030070Y0020110D03*
X0030070Y0020095D03*
X0031570Y0020440D03*
D378*
X0031570Y0020515D03*
X0031570Y0020530D03*
X0033145Y0021010D03*
X0029980Y0020995D03*
X0029980Y0020980D03*
X0028195Y0021145D03*
X0028195Y0020110D03*
X0009880Y0029140D03*
D379*
X0024962Y0020275D03*
X0028202Y0020125D03*
X0029867Y0021250D03*
X0031577Y0021175D03*
X0031577Y0021100D03*
X0031592Y0020950D03*
X0031577Y0020800D03*
X0031577Y0020725D03*
X0029192Y0025900D03*
D380*
X0033138Y0020950D03*
X0030077Y0020125D03*
D381*
X0030070Y0020140D03*
X0030070Y0020155D03*
X0030070Y0020170D03*
X0030070Y0020185D03*
X0031570Y0020455D03*
X0033145Y0020965D03*
D382*
X0033092Y0022255D03*
X0033077Y0022315D03*
X0033077Y0022330D03*
X0033047Y0022420D03*
X0033047Y0022435D03*
X0033047Y0022465D03*
X0033032Y0022480D03*
X0033032Y0022495D03*
X0033032Y0022510D03*
X0033017Y0022540D03*
X0033017Y0022555D03*
X0033002Y0022585D03*
X0031397Y0021910D03*
X0031397Y0021895D03*
X0031397Y0021880D03*
X0031382Y0021940D03*
X0031367Y0021970D03*
X0031427Y0021820D03*
X0029732Y0021460D03*
X0028202Y0020155D03*
D383*
X0028195Y0020170D03*
X0028195Y0021085D03*
X0031255Y0022195D03*
X0031255Y0022210D03*
X0031270Y0022180D03*
X0031270Y0022165D03*
X0032845Y0022990D03*
X0032845Y0023005D03*
X0032830Y0023020D03*
X0032830Y0023035D03*
D384*
X0030302Y0023275D03*
X0028142Y0024475D03*
X0028142Y0024550D03*
X0028142Y0024625D03*
X0028142Y0024700D03*
X0028142Y0024775D03*
X0028142Y0024850D03*
X0028142Y0024925D03*
X0028142Y0025000D03*
X0028142Y0025075D03*
X0028142Y0025900D03*
X0028142Y0025975D03*
X0028142Y0026050D03*
X0028142Y0026125D03*
X0028142Y0026200D03*
X0028142Y0026275D03*
X0028142Y0026350D03*
X0028142Y0026425D03*
X0028142Y0026500D03*
X0028142Y0026575D03*
X0028142Y0026650D03*
X0028142Y0026725D03*
X0028142Y0026800D03*
X0028142Y0026875D03*
X0028142Y0026950D03*
X0028142Y0027025D03*
X0028142Y0027100D03*
X0028142Y0027175D03*
X0028142Y0027250D03*
X0028142Y0027325D03*
X0028142Y0027400D03*
X0028142Y0027475D03*
X0028142Y0027550D03*
X0028142Y0027625D03*
X0028142Y0027700D03*
X0028142Y0027775D03*
X0028142Y0027850D03*
X0028142Y0027925D03*
X0028142Y0028000D03*
X0028142Y0028075D03*
X0028142Y0028150D03*
X0028142Y0028225D03*
X0028142Y0028300D03*
X0028142Y0028375D03*
X0028142Y0028450D03*
X0028142Y0028525D03*
X0028142Y0028600D03*
X0028142Y0028675D03*
X0028142Y0028750D03*
X0028142Y0028825D03*
X0028142Y0028900D03*
X0028142Y0028975D03*
X0028142Y0029050D03*
X0028142Y0029125D03*
X0028142Y0029200D03*
X0028142Y0029275D03*
X0028142Y0029350D03*
X0028142Y0029425D03*
X0028142Y0029500D03*
X0028142Y0029575D03*
X0028142Y0029650D03*
X0028142Y0029725D03*
X0028142Y0029800D03*
X0028142Y0029875D03*
X0028142Y0029950D03*
X0028142Y0030025D03*
X0021407Y0035500D03*
X0028202Y0020650D03*
X0028202Y0020575D03*
X0024947Y0020200D03*
D385*
X0028195Y0020200D03*
X0029530Y0021700D03*
X0031105Y0022450D03*
X0032620Y0023425D03*
X0018955Y0023275D03*
D386*
X0030077Y0020575D03*
X0030077Y0020500D03*
X0030077Y0020350D03*
X0030077Y0020275D03*
X0030077Y0020200D03*
D387*
X0029380Y0021835D03*
X0024955Y0020245D03*
X0018880Y0023455D03*
X0018880Y0023470D03*
D388*
X0018865Y0023500D03*
X0028195Y0020275D03*
X0030745Y0022900D03*
X0032185Y0024025D03*
D389*
X0032148Y0024070D03*
X0032133Y0024085D03*
X0032102Y0024115D03*
X0030692Y0022945D03*
X0029312Y0021880D03*
X0028202Y0020965D03*
X0028202Y0020290D03*
X0018842Y0023545D03*
X0018842Y0023560D03*
X0010083Y0029065D03*
D390*
X0018813Y0023620D03*
X0018827Y0023590D03*
X0028202Y0020935D03*
X0028202Y0020320D03*
X0028202Y0020305D03*
X0030602Y0023035D03*
X0032027Y0024190D03*
D391*
X0033138Y0020845D03*
X0031562Y0020335D03*
D392*
X0031562Y0020365D03*
X0028202Y0021205D03*
D393*
X0031562Y0020380D03*
D394*
X0031562Y0020395D03*
D395*
X0030085Y0020425D03*
X0030070Y0020650D03*
X0030055Y0020725D03*
X0030040Y0020800D03*
D396*
X0031562Y0020425D03*
X0028202Y0021175D03*
D397*
X0030062Y0020680D03*
X0031562Y0020470D03*
D398*
X0031562Y0020500D03*
D399*
X0031562Y0020605D03*
X0031562Y0020620D03*
X0031562Y0020635D03*
X0031577Y0020710D03*
X0031577Y0020740D03*
X0031577Y0020755D03*
X0031577Y0020770D03*
X0031577Y0020785D03*
X0031577Y0020815D03*
X0031592Y0020890D03*
X0031592Y0020905D03*
X0031592Y0020920D03*
X0031592Y0020935D03*
X0031592Y0020965D03*
X0031592Y0020980D03*
X0031592Y0020995D03*
X0031592Y0021010D03*
X0031577Y0021115D03*
X0031577Y0021130D03*
X0031577Y0021145D03*
X0031577Y0021160D03*
X0031577Y0021190D03*
X0031562Y0021280D03*
X0031562Y0021295D03*
X0033138Y0021070D03*
X0029883Y0021220D03*
X0029867Y0021235D03*
X0029852Y0021265D03*
X0029837Y0021295D03*
X0028202Y0021130D03*
D400*
X0033145Y0020815D03*
D401*
X0030017Y0020875D03*
D402*
X0028195Y0021190D03*
X0033145Y0020905D03*
D403*
X0028202Y0020950D03*
D404*
X0029995Y0020950D03*
X0033145Y0021025D03*
D405*
X0029987Y0020965D03*
D406*
X0029447Y0021775D03*
X0028202Y0021025D03*
X0032417Y0023725D03*
D407*
X0029965Y0021025D03*
D408*
X0029515Y0021715D03*
X0028195Y0021055D03*
X0031060Y0022510D03*
X0031045Y0022540D03*
X0032590Y0023470D03*
X0032590Y0023485D03*
X0032605Y0023455D03*
X0018955Y0023260D03*
D409*
X0029942Y0021100D03*
D410*
X0029770Y0021400D03*
X0033145Y0021175D03*
X0033130Y0022075D03*
D411*
X0033130Y0022090D03*
X0033130Y0022060D03*
X0033130Y0022045D03*
X0033130Y0022030D03*
X0033145Y0021970D03*
X0033145Y0021955D03*
X0033145Y0021940D03*
X0033070Y0022345D03*
X0033070Y0022360D03*
X0033145Y0021220D03*
X0033145Y0021205D03*
X0033145Y0021190D03*
X0031495Y0021610D03*
X0031480Y0021655D03*
X0031480Y0021670D03*
X0031420Y0021835D03*
X0029755Y0021430D03*
D412*
X0028202Y0021220D03*
X0009677Y0029245D03*
D413*
X0009438Y0029425D03*
X0028202Y0021250D03*
D414*
X0031487Y0021625D03*
X0033152Y0021850D03*
X0033152Y0021925D03*
X0033138Y0022000D03*
X0033152Y0021250D03*
D415*
X0031525Y0021490D03*
X0029800Y0021355D03*
D416*
X0029792Y0021370D03*
X0031517Y0021505D03*
X0031517Y0021520D03*
X0031517Y0021535D03*
X0031532Y0021460D03*
X0031532Y0021445D03*
X0033167Y0021445D03*
X0033167Y0021460D03*
X0033167Y0021490D03*
X0033167Y0021505D03*
X0033167Y0021520D03*
X0033167Y0021535D03*
X0033167Y0021565D03*
X0033167Y0021580D03*
X0033167Y0021595D03*
X0033167Y0021610D03*
X0033167Y0021640D03*
X0033167Y0021655D03*
X0033167Y0021670D03*
X0033167Y0021685D03*
X0033167Y0021715D03*
X0033167Y0021730D03*
X0033167Y0021745D03*
X0033167Y0021760D03*
X0033167Y0021430D03*
X0033167Y0021415D03*
X0033167Y0021385D03*
D417*
X0033167Y0021400D03*
X0033167Y0021475D03*
X0033167Y0021550D03*
X0033167Y0021625D03*
X0033167Y0021700D03*
X0033167Y0021775D03*
D418*
X0033047Y0022450D03*
X0031442Y0021775D03*
X0031382Y0021925D03*
X0029717Y0021475D03*
D419*
X0031525Y0021475D03*
D420*
X0031412Y0021865D03*
X0029687Y0021520D03*
X0033063Y0022390D03*
X0033063Y0022405D03*
D421*
X0032957Y0022720D03*
X0032942Y0022765D03*
X0032927Y0022795D03*
X0032927Y0022810D03*
X0032897Y0022870D03*
X0032897Y0022885D03*
X0032882Y0022915D03*
X0032867Y0022945D03*
X0031292Y0022135D03*
X0031292Y0022120D03*
X0031307Y0022105D03*
X0031307Y0022090D03*
X0031322Y0022060D03*
X0029657Y0021565D03*
X0029642Y0021580D03*
X0029627Y0021595D03*
D422*
X0029612Y0021610D03*
X0031173Y0022345D03*
X0031187Y0022315D03*
X0031202Y0022285D03*
X0032777Y0023140D03*
X0032762Y0023170D03*
D423*
X0032748Y0023200D03*
X0032823Y0023050D03*
X0031202Y0022300D03*
X0029598Y0021625D03*
X0018977Y0023200D03*
D424*
X0029582Y0021640D03*
X0031217Y0022270D03*
X0031232Y0022240D03*
X0032807Y0023080D03*
X0032792Y0023110D03*
X0032732Y0023230D03*
D425*
X0031075Y0022495D03*
X0029500Y0021730D03*
D426*
X0029410Y0021805D03*
X0030865Y0022765D03*
X0030895Y0022735D03*
X0032380Y0023785D03*
X0032395Y0023770D03*
X0018910Y0023395D03*
X0018910Y0023380D03*
D427*
X0029357Y0021850D03*
D428*
X0031412Y0021850D03*
X0033063Y0022375D03*
D429*
X0032095Y0024130D03*
X0032080Y0024145D03*
X0032065Y0024160D03*
X0030685Y0022960D03*
X0030655Y0022990D03*
X0029290Y0021895D03*
X0018820Y0023605D03*
D430*
X0021325Y0023275D03*
X0024415Y0023275D03*
X0029110Y0022000D03*
D431*
X0017170Y0022015D03*
X0021415Y0035620D03*
D432*
X0015662Y0031735D03*
X0017388Y0025690D03*
X0017238Y0022060D03*
X0020163Y0022420D03*
D433*
X0031322Y0022075D03*
D434*
X0027415Y0022090D03*
X0026215Y0022795D03*
D435*
X0029057Y0025645D03*
X0020252Y0022885D03*
X0017147Y0022105D03*
X0021407Y0034990D03*
D436*
X0014425Y0024385D03*
X0014440Y0024370D03*
X0016045Y0022810D03*
X0026380Y0022660D03*
X0027340Y0022105D03*
D437*
X0027295Y0022120D03*
X0026440Y0022630D03*
X0026230Y0022945D03*
X0015985Y0022870D03*
X0015970Y0022885D03*
X0014545Y0024280D03*
X0014530Y0024295D03*
X0014020Y0027820D03*
D438*
X0012002Y0025960D03*
X0010502Y0028960D03*
X0018138Y0024820D03*
X0018152Y0024805D03*
X0019938Y0022135D03*
X0027827Y0023380D03*
D439*
X0027250Y0022135D03*
X0015925Y0022930D03*
D440*
X0016990Y0022150D03*
D441*
X0019960Y0022150D03*
D442*
X0027212Y0022150D03*
D443*
X0031240Y0022225D03*
X0031285Y0022150D03*
X0032860Y0022975D03*
X0032890Y0022900D03*
D444*
X0029245Y0025480D03*
X0022870Y0026155D03*
X0016945Y0022165D03*
X0015010Y0027595D03*
D445*
X0018017Y0024985D03*
X0019982Y0022165D03*
X0015092Y0031240D03*
X0021407Y0035335D03*
X0027722Y0031240D03*
D446*
X0027182Y0022165D03*
X0015782Y0023065D03*
X0015767Y0023080D03*
X0014717Y0024115D03*
D447*
X0015737Y0023110D03*
X0027152Y0022180D03*
D448*
X0027123Y0022195D03*
X0015662Y0023185D03*
X0015633Y0023215D03*
X0015617Y0023230D03*
X0014927Y0023920D03*
X0014912Y0023935D03*
X0014883Y0023965D03*
X0014867Y0023980D03*
X0021408Y0034495D03*
D449*
X0011567Y0028720D03*
X0016832Y0022210D03*
D450*
X0014950Y0023905D03*
X0027100Y0022210D03*
D451*
X0016810Y0022225D03*
D452*
X0020050Y0022225D03*
D453*
X0027070Y0022225D03*
D454*
X0022862Y0025915D03*
X0016788Y0022240D03*
X0013487Y0025105D03*
X0011612Y0028705D03*
D455*
X0015040Y0023815D03*
X0015085Y0023770D03*
X0015100Y0023755D03*
X0015115Y0023740D03*
X0015460Y0023395D03*
X0015475Y0023380D03*
X0015490Y0023365D03*
X0026710Y0022465D03*
X0027040Y0022240D03*
D456*
X0016750Y0022255D03*
D457*
X0017748Y0025315D03*
X0020073Y0022255D03*
X0015287Y0031420D03*
X0027527Y0031420D03*
D458*
X0021407Y0034480D03*
X0015152Y0023695D03*
X0015167Y0023680D03*
X0015182Y0023665D03*
X0015227Y0023620D03*
X0015242Y0023605D03*
X0015302Y0023545D03*
X0015317Y0023530D03*
X0015332Y0023515D03*
X0015377Y0023470D03*
X0015392Y0023455D03*
X0015407Y0023440D03*
X0026747Y0022435D03*
X0026792Y0022405D03*
X0026972Y0022285D03*
X0027002Y0022270D03*
X0027017Y0022255D03*
D459*
X0029417Y0025285D03*
X0021407Y0034780D03*
X0013577Y0025045D03*
X0016727Y0022270D03*
D460*
X0020088Y0022270D03*
D461*
X0016697Y0022285D03*
X0014672Y0027685D03*
X0029432Y0025270D03*
D462*
X0016682Y0022300D03*
D463*
X0020102Y0022300D03*
D464*
X0015280Y0023575D03*
X0026950Y0022300D03*
D465*
X0016652Y0022315D03*
D466*
X0017590Y0025480D03*
X0020110Y0022315D03*
X0028645Y0025870D03*
X0015430Y0031540D03*
D467*
X0015265Y0023590D03*
X0026770Y0022420D03*
X0026815Y0022390D03*
X0026860Y0022360D03*
X0026905Y0022330D03*
X0026920Y0022315D03*
D468*
X0016630Y0022330D03*
D469*
X0016615Y0022345D03*
X0029500Y0025180D03*
X0021415Y0034735D03*
D470*
X0021407Y0035215D03*
X0015482Y0031585D03*
X0011672Y0027205D03*
X0020132Y0022345D03*
X0028622Y0024055D03*
D471*
X0026882Y0022345D03*
D472*
X0029515Y0025165D03*
X0016585Y0022360D03*
D473*
X0016570Y0022375D03*
D474*
X0017477Y0025600D03*
X0020148Y0022375D03*
D475*
X0026837Y0022375D03*
D476*
X0031150Y0022375D03*
D477*
X0016548Y0022390D03*
X0013787Y0024895D03*
D478*
X0016525Y0022405D03*
D479*
X0016502Y0022420D03*
D480*
X0018963Y0023245D03*
X0009992Y0029095D03*
X0031083Y0022480D03*
X0031098Y0022465D03*
X0031112Y0022435D03*
X0031127Y0022420D03*
X0032642Y0023380D03*
X0032642Y0023395D03*
X0032627Y0023410D03*
X0032612Y0023440D03*
X0032658Y0023365D03*
X0032673Y0023335D03*
X0032687Y0023305D03*
D481*
X0016488Y0022435D03*
D482*
X0016465Y0022450D03*
D483*
X0020177Y0022450D03*
D484*
X0026725Y0022450D03*
D485*
X0016450Y0022465D03*
D486*
X0016427Y0022480D03*
D487*
X0017267Y0025795D03*
X0020192Y0022480D03*
X0022862Y0026620D03*
X0027017Y0031840D03*
X0011912Y0026980D03*
X0011898Y0026995D03*
D488*
X0014987Y0023860D03*
X0015002Y0023845D03*
X0015512Y0023335D03*
X0015527Y0023320D03*
X0026237Y0023170D03*
X0026687Y0022480D03*
D489*
X0016413Y0022495D03*
D490*
X0020192Y0022495D03*
X0015917Y0027280D03*
X0012257Y0026245D03*
X0015842Y0031870D03*
X0021407Y0035140D03*
D491*
X0014957Y0023890D03*
X0015017Y0023830D03*
X0015542Y0023305D03*
X0015557Y0023290D03*
X0026657Y0022495D03*
D492*
X0016390Y0022510D03*
X0013990Y0024745D03*
X0014335Y0027760D03*
D493*
X0010960Y0028870D03*
X0015865Y0031885D03*
X0026950Y0031885D03*
X0020200Y0022510D03*
D494*
X0015610Y0023245D03*
X0015595Y0023260D03*
X0026230Y0023155D03*
X0026230Y0023140D03*
X0026635Y0022510D03*
D495*
X0016375Y0022525D03*
D496*
X0015648Y0023200D03*
X0014898Y0023950D03*
X0026612Y0022525D03*
D497*
X0031052Y0022525D03*
X0032523Y0023575D03*
D498*
X0021407Y0034645D03*
X0016352Y0022540D03*
D499*
X0020207Y0022540D03*
X0028742Y0023920D03*
X0026777Y0032005D03*
X0016022Y0031990D03*
D500*
X0014830Y0024010D03*
X0014845Y0023995D03*
X0015685Y0023170D03*
X0026230Y0023110D03*
X0026230Y0023095D03*
X0026590Y0022540D03*
D501*
X0016330Y0022555D03*
D502*
X0015760Y0023095D03*
X0014785Y0024055D03*
X0026560Y0022555D03*
X0021415Y0034510D03*
D503*
X0016315Y0022570D03*
D504*
X0026537Y0022570D03*
D505*
X0026223Y0022720D03*
X0016292Y0022585D03*
X0014117Y0024640D03*
X0021408Y0034630D03*
D506*
X0014695Y0024145D03*
X0014710Y0024130D03*
X0015820Y0023035D03*
X0026230Y0023035D03*
X0026515Y0022585D03*
D507*
X0031007Y0022585D03*
X0032507Y0023605D03*
X0032567Y0023515D03*
X0018932Y0023320D03*
X0021407Y0035560D03*
D508*
X0014140Y0024625D03*
X0016285Y0022600D03*
D509*
X0026485Y0022600D03*
D510*
X0030940Y0022675D03*
X0031000Y0022600D03*
X0018925Y0023350D03*
D511*
X0016262Y0022615D03*
X0014162Y0024610D03*
X0026223Y0022735D03*
D512*
X0026470Y0022615D03*
X0014590Y0024235D03*
X0014560Y0024265D03*
D513*
X0014192Y0024580D03*
X0016247Y0022630D03*
X0026222Y0022765D03*
D514*
X0026275Y0022705D03*
X0016225Y0022645D03*
X0016210Y0022660D03*
X0014215Y0024565D03*
X0014185Y0027790D03*
D515*
X0016000Y0022855D03*
X0016015Y0022840D03*
X0026410Y0022645D03*
D516*
X0016195Y0022675D03*
D517*
X0026342Y0022675D03*
D518*
X0026223Y0022810D03*
X0016173Y0022690D03*
D519*
X0016165Y0022705D03*
X0014305Y0024490D03*
X0026305Y0022690D03*
D520*
X0026223Y0022840D03*
X0016142Y0022720D03*
X0016127Y0022735D03*
X0021408Y0034585D03*
D521*
X0016112Y0022750D03*
D522*
X0026215Y0022750D03*
D523*
X0030880Y0022750D03*
X0032365Y0023800D03*
X0022870Y0026875D03*
X0018895Y0023425D03*
D524*
X0016098Y0022765D03*
X0014373Y0024430D03*
X0014102Y0027805D03*
X0026223Y0022855D03*
D525*
X0016075Y0022780D03*
X0021415Y0034570D03*
D526*
X0012880Y0025465D03*
X0020245Y0022780D03*
D527*
X0026222Y0022780D03*
D528*
X0026222Y0022870D03*
X0026222Y0022885D03*
X0016067Y0022795D03*
D529*
X0020252Y0022795D03*
X0022862Y0026455D03*
X0012302Y0026560D03*
D530*
X0016037Y0022825D03*
D531*
X0012902Y0025450D03*
X0020252Y0022825D03*
X0029012Y0025675D03*
D532*
X0026223Y0022825D03*
D533*
X0030820Y0022825D03*
X0032245Y0023950D03*
D534*
X0032913Y0022825D03*
D535*
X0020252Y0022840D03*
X0020252Y0022855D03*
X0012377Y0026470D03*
X0012362Y0026485D03*
D536*
X0032913Y0022855D03*
X0032913Y0022840D03*
D537*
X0032207Y0023995D03*
X0030782Y0022855D03*
X0030767Y0022870D03*
X0018857Y0023515D03*
X0021407Y0035545D03*
D538*
X0015955Y0022900D03*
D539*
X0020252Y0022900D03*
D540*
X0026222Y0022900D03*
D541*
X0026223Y0022960D03*
X0015933Y0022915D03*
X0021408Y0034540D03*
D542*
X0021407Y0034555D03*
X0026222Y0022915D03*
D543*
X0026223Y0022930D03*
D544*
X0026223Y0022990D03*
X0015902Y0022945D03*
X0015887Y0022960D03*
X0014627Y0024205D03*
X0014612Y0024220D03*
D545*
X0015880Y0022975D03*
D546*
X0020252Y0022975D03*
X0022862Y0026350D03*
D547*
X0026230Y0022975D03*
D548*
X0030670Y0022975D03*
X0018835Y0023575D03*
D549*
X0015857Y0022990D03*
X0015842Y0023005D03*
X0015827Y0023020D03*
X0014672Y0024160D03*
X0014642Y0024190D03*
X0026222Y0023020D03*
D550*
X0020252Y0022990D03*
D551*
X0020252Y0023005D03*
X0020252Y0023020D03*
D552*
X0026230Y0023005D03*
D553*
X0026222Y0023050D03*
X0015797Y0023050D03*
D554*
X0020252Y0023050D03*
D555*
X0014770Y0024070D03*
X0014755Y0024085D03*
X0026230Y0023080D03*
X0026230Y0023065D03*
D556*
X0015723Y0023125D03*
X0014823Y0024025D03*
D557*
X0020245Y0023125D03*
D558*
X0026230Y0023125D03*
D559*
X0032792Y0023125D03*
D560*
X0015707Y0023140D03*
X0014807Y0024040D03*
D561*
X0020238Y0023155D03*
X0020238Y0023140D03*
X0022862Y0026260D03*
X0029177Y0025540D03*
D562*
X0015700Y0023155D03*
D563*
X0020238Y0023170D03*
X0022862Y0026230D03*
D564*
X0026230Y0023185D03*
X0015445Y0023410D03*
X0015145Y0023710D03*
X0015070Y0023785D03*
D565*
X0021227Y0023200D03*
X0024498Y0023200D03*
X0031323Y0024775D03*
D566*
X0027175Y0023200D03*
D567*
X0027482Y0023230D03*
X0017492Y0025585D03*
X0016982Y0026335D03*
D568*
X0014973Y0023875D03*
X0015573Y0023275D03*
D569*
X0017823Y0025225D03*
X0016563Y0026950D03*
X0011462Y0027400D03*
X0027573Y0031375D03*
X0027648Y0023275D03*
D570*
X0027745Y0023320D03*
X0030670Y0025090D03*
X0017995Y0025015D03*
X0017095Y0026485D03*
X0016870Y0026740D03*
X0011320Y0027520D03*
D571*
X0016952Y0026665D03*
X0018047Y0024940D03*
X0027767Y0023335D03*
X0027752Y0031210D03*
D572*
X0015505Y0023350D03*
X0015430Y0023425D03*
X0015130Y0023725D03*
X0015055Y0023800D03*
D573*
X0017110Y0026500D03*
X0017050Y0026575D03*
X0021415Y0035350D03*
X0030715Y0025075D03*
X0027790Y0023350D03*
D574*
X0030183Y0023350D03*
X0024108Y0025750D03*
X0021617Y0025750D03*
X0014733Y0030550D03*
D575*
X0015017Y0031165D03*
X0021408Y0035365D03*
X0027783Y0031180D03*
X0027798Y0031165D03*
X0027812Y0023365D03*
X0018108Y0024865D03*
D576*
X0018182Y0024760D03*
X0027842Y0023395D03*
X0029777Y0023530D03*
X0021407Y0035380D03*
D577*
X0018220Y0024700D03*
X0027880Y0023425D03*
D578*
X0018888Y0023440D03*
D579*
X0027925Y0023470D03*
D580*
X0015362Y0023485D03*
X0015287Y0023560D03*
X0015212Y0023635D03*
D581*
X0014882Y0030970D03*
X0027932Y0030985D03*
X0027932Y0023485D03*
D582*
X0015347Y0023500D03*
X0015197Y0023650D03*
D583*
X0018325Y0024550D03*
X0027940Y0023500D03*
D584*
X0029867Y0023500D03*
X0027917Y0031000D03*
D585*
X0032575Y0023500D03*
D586*
X0032200Y0024010D03*
X0018850Y0023530D03*
D587*
X0013202Y0025285D03*
X0028907Y0023560D03*
X0029207Y0025510D03*
D588*
X0028900Y0023620D03*
X0011350Y0028780D03*
D589*
X0013097Y0025345D03*
X0021407Y0034945D03*
X0028892Y0023635D03*
D590*
X0028885Y0023650D03*
X0029110Y0025600D03*
D591*
X0032470Y0023650D03*
D592*
X0028885Y0023665D03*
X0029095Y0025615D03*
X0011290Y0028795D03*
D593*
X0015355Y0027490D03*
X0028870Y0023695D03*
D594*
X0028870Y0023710D03*
X0012970Y0025420D03*
D595*
X0028855Y0023725D03*
D596*
X0028855Y0023740D03*
X0015445Y0027460D03*
D597*
X0015490Y0027445D03*
X0012340Y0026515D03*
X0021415Y0035020D03*
X0028840Y0023755D03*
D598*
X0028840Y0023770D03*
X0028990Y0025690D03*
X0012385Y0026380D03*
D599*
X0028825Y0023800D03*
D600*
X0028787Y0023860D03*
X0022862Y0026545D03*
D601*
X0032312Y0023875D03*
D602*
X0028727Y0023935D03*
X0017222Y0025840D03*
X0016922Y0026260D03*
X0011972Y0026920D03*
X0011957Y0026935D03*
X0015902Y0031915D03*
X0015932Y0031930D03*
D603*
X0014687Y0030175D03*
X0014687Y0030100D03*
X0014687Y0030025D03*
X0014687Y0029950D03*
X0014687Y0029875D03*
X0014687Y0029800D03*
X0014687Y0029725D03*
X0014687Y0029650D03*
X0014687Y0029575D03*
X0014687Y0029500D03*
X0014687Y0029425D03*
X0014687Y0029350D03*
X0014687Y0029275D03*
X0014687Y0029200D03*
X0014687Y0029125D03*
X0014687Y0029050D03*
X0014687Y0028975D03*
X0014687Y0028900D03*
X0014687Y0028825D03*
X0014687Y0028750D03*
X0014687Y0028675D03*
X0014687Y0028600D03*
X0018663Y0023950D03*
D604*
X0012610Y0025600D03*
X0028720Y0023950D03*
D605*
X0028690Y0023980D03*
X0027115Y0031765D03*
X0027100Y0031780D03*
X0017335Y0025735D03*
X0012235Y0026215D03*
D606*
X0017417Y0025660D03*
X0028667Y0024010D03*
D607*
X0028607Y0024070D03*
X0027392Y0031540D03*
X0017582Y0025495D03*
X0012167Y0026140D03*
D608*
X0014740Y0024100D03*
D609*
X0028570Y0024100D03*
D610*
X0028532Y0024130D03*
X0017042Y0026410D03*
D611*
X0014657Y0024175D03*
X0021407Y0034525D03*
D612*
X0027662Y0031300D03*
X0028473Y0024175D03*
D613*
X0032050Y0024175D03*
D614*
X0028442Y0024190D03*
X0027707Y0031255D03*
X0016832Y0026770D03*
X0012182Y0025780D03*
X0011342Y0027505D03*
X0015107Y0031255D03*
D615*
X0014575Y0024250D03*
D616*
X0018505Y0024250D03*
X0014770Y0030700D03*
D617*
X0014507Y0024310D03*
D618*
X0014492Y0024325D03*
D619*
X0014470Y0024340D03*
D620*
X0014462Y0024355D03*
D621*
X0014402Y0024400D03*
D622*
X0014387Y0024415D03*
D623*
X0014357Y0024445D03*
D624*
X0014335Y0024460D03*
D625*
X0014320Y0024475D03*
D626*
X0018363Y0024475D03*
D627*
X0014282Y0024505D03*
X0014267Y0024520D03*
D628*
X0014245Y0024535D03*
D629*
X0014230Y0024550D03*
D630*
X0018302Y0024580D03*
X0030977Y0024970D03*
D631*
X0014170Y0024595D03*
D632*
X0014102Y0024655D03*
X0014087Y0024670D03*
D633*
X0018250Y0024655D03*
X0011125Y0027670D03*
D634*
X0014942Y0031060D03*
X0021407Y0035395D03*
X0018242Y0024670D03*
D635*
X0014065Y0024685D03*
D636*
X0011973Y0025930D03*
X0018227Y0024685D03*
X0014927Y0031045D03*
X0027887Y0031045D03*
D637*
X0014042Y0024700D03*
D638*
X0031442Y0024700D03*
D639*
X0014027Y0024715D03*
D640*
X0011987Y0025945D03*
X0018213Y0024715D03*
X0022862Y0026815D03*
D641*
X0014005Y0024730D03*
D642*
X0013967Y0024760D03*
X0021407Y0034660D03*
D643*
X0011912Y0028600D03*
X0013952Y0024775D03*
D644*
X0011192Y0027625D03*
X0018167Y0024775D03*
D645*
X0013930Y0024790D03*
D646*
X0013907Y0024805D03*
D647*
X0013892Y0024820D03*
X0021407Y0034690D03*
D648*
X0013870Y0024835D03*
D649*
X0013847Y0024850D03*
D650*
X0018115Y0024850D03*
X0015010Y0031150D03*
D651*
X0021407Y0034705D03*
X0013832Y0024865D03*
D652*
X0013810Y0024880D03*
D653*
X0018100Y0024880D03*
D654*
X0013773Y0024910D03*
D655*
X0017005Y0026620D03*
X0017020Y0026605D03*
X0018070Y0024910D03*
D656*
X0013750Y0024925D03*
D657*
X0013727Y0024940D03*
D658*
X0013712Y0024955D03*
D659*
X0013690Y0024970D03*
D660*
X0013660Y0024985D03*
D661*
X0013645Y0025000D03*
D662*
X0018002Y0025000D03*
D663*
X0013623Y0025015D03*
D664*
X0011155Y0027655D03*
X0027880Y0031060D03*
X0030880Y0025015D03*
D665*
X0029440Y0025255D03*
X0013600Y0025030D03*
D666*
X0012055Y0026020D03*
X0016810Y0026785D03*
X0017965Y0025045D03*
X0015130Y0031270D03*
X0027685Y0031270D03*
D667*
X0027820Y0031135D03*
X0030805Y0025045D03*
X0014995Y0031135D03*
D668*
X0013555Y0025060D03*
X0022870Y0025810D03*
D669*
X0013532Y0025075D03*
D670*
X0016788Y0026800D03*
X0017942Y0025075D03*
D671*
X0013517Y0025090D03*
X0022862Y0025870D03*
X0022862Y0025885D03*
D672*
X0029365Y0025345D03*
X0014785Y0027655D03*
X0013465Y0025120D03*
D673*
X0016585Y0026935D03*
X0017065Y0026440D03*
X0030550Y0025120D03*
D674*
X0013442Y0025135D03*
D675*
X0013420Y0025150D03*
D676*
X0017882Y0025150D03*
D677*
X0029523Y0025150D03*
D678*
X0013390Y0025165D03*
D679*
X0013375Y0025180D03*
D680*
X0029492Y0025195D03*
D681*
X0029282Y0025435D03*
X0013322Y0025210D03*
D682*
X0017830Y0025210D03*
X0015220Y0031360D03*
X0027595Y0031360D03*
D683*
X0029477Y0025210D03*
X0011748Y0028660D03*
D684*
X0014605Y0027700D03*
X0029470Y0025225D03*
D685*
X0022862Y0026140D03*
X0013277Y0025240D03*
D686*
X0029455Y0025240D03*
D687*
X0017800Y0025255D03*
D688*
X0013225Y0025270D03*
D689*
X0013180Y0025300D03*
D690*
X0017755Y0025300D03*
D691*
X0022862Y0025825D03*
X0029402Y0025300D03*
D692*
X0029395Y0025315D03*
X0022870Y0025855D03*
X0021415Y0034795D03*
D693*
X0015310Y0031435D03*
X0016465Y0027010D03*
X0017725Y0025330D03*
D694*
X0029380Y0025330D03*
D695*
X0029357Y0025360D03*
D696*
X0013045Y0025375D03*
D697*
X0017695Y0025375D03*
X0015325Y0031450D03*
D698*
X0021407Y0034825D03*
X0029342Y0025375D03*
D699*
X0017672Y0025390D03*
X0017027Y0026395D03*
X0016382Y0027055D03*
X0011582Y0027295D03*
X0011567Y0027310D03*
D700*
X0022862Y0026020D03*
X0022862Y0026005D03*
X0029327Y0025390D03*
D701*
X0012992Y0025405D03*
D702*
X0012932Y0025435D03*
X0021407Y0035005D03*
D703*
X0017620Y0025450D03*
D704*
X0017552Y0025525D03*
D705*
X0012700Y0025555D03*
D706*
X0017507Y0025570D03*
X0017522Y0025555D03*
X0027302Y0031615D03*
D707*
X0017425Y0025645D03*
X0016975Y0026320D03*
D708*
X0012475Y0025660D03*
X0015550Y0031645D03*
D709*
X0012415Y0026410D03*
X0029035Y0025660D03*
D710*
X0017395Y0025675D03*
X0012220Y0026200D03*
D711*
X0012362Y0025705D03*
X0011598Y0027280D03*
X0015377Y0031495D03*
X0027437Y0031495D03*
D712*
X0012257Y0025750D03*
D713*
X0017320Y0025750D03*
D714*
X0022862Y0025780D03*
X0022862Y0025795D03*
D715*
X0016938Y0026680D03*
X0012137Y0025795D03*
X0015062Y0031210D03*
D716*
X0012100Y0025810D03*
D717*
X0011927Y0026965D03*
X0017252Y0025810D03*
X0026973Y0031870D03*
D718*
X0012055Y0025825D03*
D719*
X0017238Y0025825D03*
D720*
X0028757Y0025825D03*
D721*
X0022862Y0025840D03*
D722*
X0017148Y0025900D03*
X0015812Y0027325D03*
X0012287Y0026275D03*
X0016112Y0032050D03*
X0016502Y0032275D03*
X0016623Y0032350D03*
X0017013Y0032575D03*
X0017148Y0032650D03*
X0017402Y0032800D03*
X0017538Y0032875D03*
X0017673Y0032950D03*
X0017927Y0033100D03*
X0018573Y0033475D03*
X0018963Y0033700D03*
X0019098Y0033775D03*
X0019352Y0033925D03*
X0023462Y0033925D03*
X0023598Y0033850D03*
X0023852Y0033700D03*
X0024498Y0033325D03*
X0024887Y0033100D03*
X0025023Y0033025D03*
X0025277Y0032875D03*
X0025412Y0032800D03*
X0025802Y0032575D03*
X0026448Y0032200D03*
X0026702Y0032050D03*
D723*
X0022870Y0025900D03*
D724*
X0017125Y0025915D03*
X0012025Y0026860D03*
X0016525Y0032290D03*
X0016600Y0032335D03*
X0017200Y0032680D03*
X0017875Y0033070D03*
X0018550Y0033460D03*
X0023800Y0033730D03*
X0024475Y0033340D03*
X0025750Y0032605D03*
X0025825Y0032560D03*
X0026425Y0032215D03*
D725*
X0022870Y0025930D03*
D726*
X0022862Y0025945D03*
X0022862Y0025960D03*
D727*
X0017057Y0025975D03*
X0019652Y0034075D03*
D728*
X0022862Y0025975D03*
D729*
X0022862Y0025990D03*
D730*
X0016982Y0026035D03*
X0012167Y0026710D03*
X0021407Y0035065D03*
D731*
X0012085Y0026050D03*
D732*
X0012137Y0026110D03*
D733*
X0016855Y0026125D03*
D734*
X0022862Y0026125D03*
D735*
X0016090Y0027205D03*
X0012205Y0026185D03*
X0011770Y0027115D03*
X0015610Y0031690D03*
X0021415Y0035185D03*
D736*
X0016877Y0026200D03*
D737*
X0012250Y0026230D03*
D738*
X0016915Y0026245D03*
X0016060Y0032020D03*
X0016090Y0032035D03*
X0026800Y0031990D03*
D739*
X0022870Y0026245D03*
D740*
X0016938Y0026275D03*
X0015783Y0031825D03*
X0027033Y0031825D03*
D741*
X0022862Y0026500D03*
X0012362Y0026350D03*
X0012227Y0026650D03*
D742*
X0022862Y0026395D03*
D743*
X0022862Y0026410D03*
D744*
X0012415Y0026425D03*
D745*
X0022862Y0026425D03*
D746*
X0017080Y0026455D03*
X0016705Y0026860D03*
X0011395Y0027460D03*
D747*
X0022862Y0026485D03*
X0023012Y0034120D03*
D748*
X0012355Y0026500D03*
D749*
X0012325Y0026530D03*
D750*
X0012137Y0026740D03*
X0022862Y0026530D03*
D751*
X0017088Y0026545D03*
X0015048Y0031195D03*
D752*
X0011162Y0028825D03*
X0012287Y0026575D03*
D753*
X0018055Y0033175D03*
X0018445Y0033400D03*
X0018835Y0033625D03*
X0019495Y0034000D03*
X0023320Y0034000D03*
X0023980Y0033625D03*
X0024370Y0033400D03*
X0024760Y0033175D03*
X0025540Y0032725D03*
X0025930Y0032500D03*
X0026320Y0032275D03*
X0022870Y0026575D03*
D754*
X0022862Y0026590D03*
X0011987Y0026905D03*
D755*
X0022870Y0026635D03*
D756*
X0022862Y0026650D03*
D757*
X0022870Y0026680D03*
X0016180Y0027160D03*
X0015520Y0031615D03*
D758*
X0016885Y0026725D03*
D759*
X0022862Y0026725D03*
D760*
X0022862Y0026785D03*
D761*
X0012085Y0026800D03*
D762*
X0016750Y0026830D03*
D763*
X0012017Y0026875D03*
X0016232Y0032125D03*
X0016367Y0032200D03*
X0016757Y0032425D03*
X0016892Y0032500D03*
X0017282Y0032725D03*
X0017792Y0033025D03*
X0018182Y0033250D03*
X0018317Y0033325D03*
X0018707Y0033550D03*
X0023717Y0033775D03*
X0024107Y0033550D03*
X0024242Y0033475D03*
X0024632Y0033250D03*
X0025667Y0032650D03*
X0026057Y0032425D03*
X0026192Y0032350D03*
X0026582Y0032125D03*
D764*
X0016675Y0026875D03*
D765*
X0011942Y0026950D03*
D766*
X0011485Y0027385D03*
X0016540Y0026965D03*
X0027565Y0031390D03*
D767*
X0021407Y0035155D03*
X0011882Y0027010D03*
D768*
X0011867Y0027025D03*
D769*
X0011552Y0027325D03*
X0016442Y0027025D03*
X0027497Y0031450D03*
D770*
X0027190Y0031705D03*
X0015625Y0031705D03*
X0010885Y0028885D03*
X0011800Y0027085D03*
D771*
X0011792Y0027100D03*
D772*
X0016300Y0027100D03*
D773*
X0011710Y0027175D03*
D774*
X0016150Y0027175D03*
D775*
X0015985Y0027250D03*
D776*
X0015887Y0027295D03*
X0026912Y0031915D03*
D777*
X0027505Y0031435D03*
X0011530Y0027340D03*
D778*
X0015617Y0027400D03*
D779*
X0015160Y0031300D03*
X0011380Y0027475D03*
D780*
X0015407Y0027475D03*
D781*
X0015265Y0027520D03*
X0021415Y0034960D03*
D782*
X0027767Y0031195D03*
X0011267Y0027565D03*
D783*
X0011207Y0027610D03*
D784*
X0014905Y0027625D03*
D785*
X0014845Y0027640D03*
D786*
X0014732Y0027670D03*
X0011657Y0028690D03*
D787*
X0011087Y0027700D03*
D788*
X0014537Y0027715D03*
D789*
X0014477Y0027730D03*
X0011837Y0028630D03*
D790*
X0011875Y0028615D03*
X0014410Y0027745D03*
D791*
X0014792Y0030775D03*
X0010982Y0027775D03*
D792*
X0014260Y0027775D03*
D793*
X0013255Y0027835D03*
D794*
X0013240Y0027850D03*
D795*
X0013217Y0027865D03*
X0021407Y0034135D03*
D796*
X0013202Y0027880D03*
D797*
X0013180Y0027895D03*
D798*
X0013165Y0027910D03*
D799*
X0013142Y0027925D03*
D800*
X0013127Y0027940D03*
X0021407Y0034165D03*
D801*
X0013105Y0027955D03*
D802*
X0013090Y0027970D03*
X0021415Y0034180D03*
D803*
X0013060Y0027985D03*
D804*
X0013045Y0028000D03*
D805*
X0013023Y0028015D03*
D806*
X0013000Y0028030D03*
D807*
X0012977Y0028045D03*
D808*
X0012955Y0028060D03*
D809*
X0012933Y0028075D03*
D810*
X0012910Y0028090D03*
D811*
X0012887Y0028105D03*
D812*
X0012865Y0028120D03*
D813*
X0012842Y0028135D03*
X0021407Y0034270D03*
D814*
X0012820Y0028150D03*
D815*
X0012790Y0028165D03*
X0012565Y0028585D03*
D816*
X0012767Y0028180D03*
D817*
X0012745Y0028195D03*
X0012595Y0028480D03*
X0012595Y0028495D03*
D818*
X0012617Y0028405D03*
X0012617Y0028390D03*
X0012723Y0028210D03*
D819*
X0012692Y0028225D03*
D820*
X0012670Y0028240D03*
X0012655Y0028255D03*
X0021415Y0034345D03*
D821*
X0012647Y0028285D03*
X0012647Y0028270D03*
D822*
X0012640Y0028300D03*
D823*
X0012640Y0028315D03*
D824*
X0012632Y0028330D03*
X0012632Y0028345D03*
X0021407Y0034330D03*
D825*
X0012625Y0028360D03*
D826*
X0012625Y0028375D03*
D827*
X0012610Y0028420D03*
X0012610Y0028435D03*
D828*
X0012602Y0028450D03*
D829*
X0012602Y0028465D03*
D830*
X0012587Y0028510D03*
D831*
X0012587Y0028525D03*
D832*
X0012580Y0028540D03*
X0012580Y0028555D03*
D833*
X0012572Y0028570D03*
D834*
X0011792Y0028645D03*
X0021407Y0034720D03*
D835*
X0011702Y0028675D03*
D836*
X0011515Y0028735D03*
D837*
X0011462Y0028750D03*
D838*
X0010435Y0028975D03*
X0014905Y0031000D03*
D839*
X0010038Y0029080D03*
D840*
X0009782Y0029185D03*
D841*
X0009760Y0029200D03*
D842*
X0009632Y0029275D03*
D843*
X0009527Y0029350D03*
D844*
X0009513Y0029365D03*
D845*
X0009460Y0029410D03*
D846*
X0009407Y0029455D03*
D847*
X0009370Y0029500D03*
D848*
X0009317Y0029560D03*
D849*
X0009302Y0029575D03*
D850*
X0009288Y0029590D03*
D851*
X0014725Y0030475D03*
D852*
X0014823Y0030850D03*
D853*
X0014987Y0031120D03*
D854*
X0027812Y0031150D03*
D855*
X0015085Y0031225D03*
D856*
X0027737Y0031225D03*
D857*
X0015242Y0031375D03*
D858*
X0015445Y0031555D03*
X0027355Y0031570D03*
D859*
X0027317Y0031600D03*
X0015497Y0031600D03*
D860*
X0015595Y0031675D03*
D861*
X0015685Y0031750D03*
X0027130Y0031750D03*
D862*
X0026935Y0031900D03*
D863*
X0026822Y0031975D03*
X0015992Y0031975D03*
D864*
X0023162Y0034075D03*
D865*
X0021408Y0034150D03*
D866*
X0021408Y0034195D03*
D867*
X0021407Y0034210D03*
D868*
X0021407Y0034225D03*
D869*
X0021408Y0034240D03*
D870*
X0021407Y0034255D03*
D871*
X0021415Y0034285D03*
D872*
X0021407Y0034300D03*
D873*
X0021407Y0034315D03*
D874*
X0021407Y0034360D03*
D875*
X0021407Y0034375D03*
D876*
X0021407Y0034390D03*
D877*
X0021415Y0034405D03*
D878*
X0021407Y0034420D03*
D879*
X0021407Y0034435D03*
D880*
X0021408Y0034450D03*
D881*
X0021407Y0034465D03*
D882*
X0021407Y0034600D03*
D883*
X0021407Y0034615D03*
D884*
X0021415Y0034675D03*
D885*
X0021407Y0034750D03*
D886*
X0021407Y0034765D03*
D887*
X0021407Y0034810D03*
D888*
X0021407Y0034855D03*
D889*
X0021415Y0034900D03*
D890*
X0021408Y0034975D03*
D891*
X0021407Y0035050D03*
D892*
X0021407Y0035095D03*
D893*
X0021407Y0035200D03*
D894*
X0021407Y0035245D03*
D895*
X0021408Y0035275D03*
D896*
X0125319Y0079675D02*
X0125319Y0081250D01*
X0127681Y0079675D01*
X0127681Y0082825D01*
X0126500Y0081250D01*
X0127287Y0080463D01*
X0126894Y0081644D01*
X0126106Y0081250D01*
X0125319Y0081250D02*
X0127681Y0082825D01*
X0125319Y0082825D02*
X0125319Y0081250D01*
D897*
X0111375Y0035563D03*
D898*
X0111375Y0036053D02*
X0112359Y0037037D01*
X0110391Y0037037D01*
X0111375Y0036053D01*
X0111350Y0036078D02*
X0111400Y0036078D01*
X0111599Y0036277D02*
X0111151Y0036277D01*
X0110953Y0036475D02*
X0111797Y0036475D01*
X0111996Y0036674D02*
X0110754Y0036674D01*
X0110556Y0036872D02*
X0112194Y0036872D01*
M02*
