G75*
%MOIN*%
%OFA0B0*%
%FSLAX25Y25*%
%IPPOS*%
%LPD*%
%AMOC8*
5,1,8,0,0,1.08239X$1,22.5*
%
%ADD10C,0.00100*%
%ADD11R,0.04000X0.03800*%
%ADD12R,0.03800X0.04000*%
%ADD13C,0.07400*%
%ADD14R,0.06425X0.06425*%
%ADD15C,0.06425*%
%ADD16R,0.06299X0.07874*%
%ADD17C,0.09500*%
%ADD18R,0.04500X0.04000*%
%ADD19C,0.00661*%
%ADD20R,0.02756X0.02756*%
%ADD21R,0.03150X0.03543*%
%ADD22R,0.05000X0.02600*%
%ADD23C,0.00050*%
%ADD24R,0.03150X0.02362*%
%ADD25C,0.01000*%
%ADD26C,0.02400*%
%ADD27C,0.02800*%
%ADD28C,0.01200*%
%ADD29C,0.01600*%
D10*
X0011500Y0013500D02*
X0031500Y0013500D01*
X0038750Y0006000D01*
X0131750Y0006000D01*
X0131895Y0006006D01*
X0132041Y0006015D01*
X0132186Y0006028D01*
X0132330Y0006045D01*
X0132474Y0006067D01*
X0132618Y0006091D01*
X0132761Y0006120D01*
X0132902Y0006153D01*
X0133043Y0006189D01*
X0133183Y0006230D01*
X0133322Y0006274D01*
X0133460Y0006322D01*
X0133596Y0006373D01*
X0133730Y0006428D01*
X0133864Y0006487D01*
X0133995Y0006550D01*
X0134125Y0006616D01*
X0134253Y0006685D01*
X0134379Y0006758D01*
X0134503Y0006834D01*
X0134625Y0006914D01*
X0134745Y0006997D01*
X0134862Y0007083D01*
X0134977Y0007172D01*
X0135090Y0007264D01*
X0135200Y0007360D01*
X0135307Y0007458D01*
X0135412Y0007559D01*
X0135514Y0007663D01*
X0135613Y0007770D01*
X0135709Y0007879D01*
X0135802Y0007991D01*
X0135892Y0008105D01*
X0135979Y0008222D01*
X0136063Y0008341D01*
X0136144Y0008462D01*
X0136221Y0008586D01*
X0136295Y0008711D01*
X0136365Y0008839D01*
X0136432Y0008968D01*
X0136495Y0009099D01*
X0136555Y0009232D01*
X0136612Y0009366D01*
X0136664Y0009502D01*
X0136713Y0009639D01*
X0136758Y0009777D01*
X0136799Y0009917D01*
X0136837Y0010058D01*
X0136871Y0010199D01*
X0136901Y0010342D01*
X0136927Y0010485D01*
X0136949Y0010629D01*
X0136967Y0010773D01*
X0136982Y0010918D01*
X0136992Y0011063D01*
X0136998Y0011209D01*
X0137001Y0011354D01*
X0137000Y0011500D01*
X0137000Y0101500D01*
X0137001Y0101500D02*
X0136997Y0101648D01*
X0136989Y0101795D01*
X0136978Y0101943D01*
X0136962Y0102090D01*
X0136943Y0102237D01*
X0136920Y0102384D01*
X0136893Y0102529D01*
X0136862Y0102674D01*
X0136827Y0102818D01*
X0136788Y0102961D01*
X0136746Y0103103D01*
X0136700Y0103243D01*
X0136650Y0103383D01*
X0136596Y0103521D01*
X0136539Y0103657D01*
X0136478Y0103792D01*
X0136413Y0103926D01*
X0136345Y0104057D01*
X0136274Y0104187D01*
X0136199Y0104315D01*
X0136120Y0104441D01*
X0136039Y0104564D01*
X0135954Y0104685D01*
X0135866Y0104805D01*
X0135775Y0104921D01*
X0135680Y0105035D01*
X0135583Y0105147D01*
X0135483Y0105256D01*
X0135380Y0105362D01*
X0135274Y0105466D01*
X0135165Y0105567D01*
X0135054Y0105664D01*
X0134940Y0105759D01*
X0134824Y0105851D01*
X0134705Y0105939D01*
X0134584Y0106025D01*
X0134461Y0106107D01*
X0134336Y0106186D01*
X0134208Y0106261D01*
X0134079Y0106333D01*
X0133947Y0106402D01*
X0133814Y0106467D01*
X0133680Y0106528D01*
X0133543Y0106586D01*
X0133405Y0106640D01*
X0133266Y0106691D01*
X0133126Y0106738D01*
X0132984Y0106781D01*
X0132841Y0106820D01*
X0132697Y0106856D01*
X0132553Y0106887D01*
X0132407Y0106915D01*
X0132261Y0106939D01*
X0132114Y0106959D01*
X0131967Y0106975D01*
X0131820Y0106987D01*
X0131672Y0106995D01*
X0131524Y0106999D01*
X0131375Y0107000D01*
X0011375Y0107000D01*
X0011229Y0106992D01*
X0011083Y0106979D01*
X0010937Y0106963D01*
X0010792Y0106943D01*
X0010647Y0106918D01*
X0010503Y0106891D01*
X0010360Y0106859D01*
X0010218Y0106823D01*
X0010077Y0106784D01*
X0009937Y0106741D01*
X0009798Y0106694D01*
X0009660Y0106643D01*
X0009524Y0106589D01*
X0009389Y0106532D01*
X0009256Y0106470D01*
X0009125Y0106405D01*
X0008995Y0106337D01*
X0008867Y0106265D01*
X0008741Y0106190D01*
X0008617Y0106112D01*
X0008496Y0106030D01*
X0008376Y0105945D01*
X0008259Y0105857D01*
X0008144Y0105766D01*
X0008032Y0105672D01*
X0007922Y0105575D01*
X0007815Y0105475D01*
X0007710Y0105372D01*
X0007609Y0105266D01*
X0007510Y0105158D01*
X0007414Y0105047D01*
X0007321Y0104934D01*
X0007231Y0104818D01*
X0007144Y0104700D01*
X0007061Y0104580D01*
X0006980Y0104457D01*
X0006903Y0104332D01*
X0006830Y0104206D01*
X0006759Y0104077D01*
X0006692Y0103946D01*
X0006629Y0103814D01*
X0006569Y0103680D01*
X0006513Y0103545D01*
X0006460Y0103408D01*
X0006411Y0103270D01*
X0006366Y0103131D01*
X0006324Y0102990D01*
X0006287Y0102849D01*
X0006253Y0102706D01*
X0006222Y0102563D01*
X0006196Y0102418D01*
X0006174Y0102273D01*
X0006155Y0102128D01*
X0006140Y0101982D01*
X0006129Y0101836D01*
X0006122Y0101690D01*
X0006119Y0101543D01*
X0006120Y0101396D01*
X0006125Y0101250D01*
X0006125Y0018750D01*
X0006124Y0018750D02*
X0006128Y0018607D01*
X0006136Y0018463D01*
X0006147Y0018320D01*
X0006162Y0018176D01*
X0006181Y0018034D01*
X0006204Y0017892D01*
X0006231Y0017750D01*
X0006262Y0017610D01*
X0006296Y0017470D01*
X0006335Y0017331D01*
X0006377Y0017194D01*
X0006422Y0017057D01*
X0006472Y0016922D01*
X0006525Y0016789D01*
X0006581Y0016656D01*
X0006642Y0016526D01*
X0006705Y0016397D01*
X0006773Y0016269D01*
X0006843Y0016144D01*
X0006917Y0016020D01*
X0006994Y0015899D01*
X0007075Y0015780D01*
X0007159Y0015663D01*
X0007245Y0015548D01*
X0007335Y0015436D01*
X0007428Y0015326D01*
X0007524Y0015219D01*
X0007623Y0015114D01*
X0007725Y0015012D01*
X0007829Y0014913D01*
X0007936Y0014817D01*
X0008045Y0014723D01*
X0008157Y0014633D01*
X0008272Y0014546D01*
X0008388Y0014462D01*
X0008507Y0014381D01*
X0008628Y0014303D01*
X0008752Y0014229D01*
X0008877Y0014158D01*
X0009004Y0014090D01*
X0009133Y0014026D01*
X0009263Y0013965D01*
X0009395Y0013908D01*
X0009529Y0013855D01*
X0009664Y0013805D01*
X0009800Y0013759D01*
X0009937Y0013716D01*
X0010076Y0013677D01*
X0010216Y0013642D01*
X0010356Y0013611D01*
X0010497Y0013584D01*
X0010639Y0013560D01*
X0010782Y0013541D01*
X0010925Y0013525D01*
X0011068Y0013513D01*
X0011212Y0013505D01*
X0011356Y0013501D01*
X0011500Y0013500D01*
D11*
X0065154Y0068500D03*
X0071846Y0068500D03*
X0105654Y0076500D03*
X0112346Y0076500D03*
X0022846Y0081500D03*
X0016154Y0081500D03*
D12*
X0028750Y0060096D03*
X0028750Y0053404D03*
X0064500Y0043096D03*
X0064500Y0036404D03*
X0075500Y0036404D03*
X0075500Y0043096D03*
D13*
X0071500Y0021500D03*
X0081500Y0021500D03*
X0091500Y0021500D03*
X0101500Y0021500D03*
X0111500Y0021500D03*
X0121500Y0016250D03*
X0131500Y0016250D03*
X0111500Y0011500D03*
X0101500Y0011500D03*
X0091500Y0011500D03*
X0081500Y0011500D03*
X0071500Y0011500D03*
X0061500Y0011500D03*
X0051500Y0011500D03*
X0041500Y0011500D03*
X0041500Y0021500D03*
X0051500Y0021500D03*
X0061500Y0021500D03*
X0061500Y0091500D03*
X0051500Y0091500D03*
X0041500Y0091500D03*
X0041500Y0101500D03*
X0051500Y0101500D03*
X0061500Y0101500D03*
X0071500Y0101500D03*
X0081500Y0101500D03*
X0091500Y0101500D03*
X0101500Y0101500D03*
X0111500Y0101500D03*
X0121500Y0096750D03*
X0131500Y0096750D03*
X0111500Y0091500D03*
X0101500Y0091500D03*
X0091500Y0091500D03*
X0081500Y0091500D03*
X0071500Y0091500D03*
D14*
X0019000Y0041500D03*
D15*
X0019000Y0051500D03*
X0019000Y0061500D03*
X0019000Y0071500D03*
D16*
X0041500Y0075280D03*
X0051500Y0075280D03*
X0051500Y0037720D03*
X0041500Y0037720D03*
D17*
X0109000Y0049807D03*
X0109000Y0063587D03*
D18*
X0072500Y0056500D03*
X0064500Y0053000D03*
X0064500Y0060000D03*
D19*
X0124913Y0026101D02*
X0126457Y0026101D01*
X0126457Y0024399D01*
X0124913Y0024399D01*
X0124913Y0026101D01*
X0124913Y0025059D02*
X0126457Y0025059D01*
X0126457Y0025719D02*
X0124913Y0025719D01*
X0129028Y0026101D02*
X0130572Y0026101D01*
X0130572Y0024399D01*
X0129028Y0024399D01*
X0129028Y0026101D01*
X0129028Y0025059D02*
X0130572Y0025059D01*
X0130572Y0025719D02*
X0129028Y0025719D01*
D20*
X0131352Y0031835D03*
X0131352Y0036165D03*
X0124148Y0036165D03*
X0124148Y0031835D03*
D21*
X0123154Y0081250D03*
X0129846Y0081250D03*
D22*
X0084000Y0060600D03*
X0084000Y0056500D03*
X0084000Y0052400D03*
D23*
X0083500Y0053725D02*
X0083500Y0057250D01*
X0084500Y0057250D01*
X0084500Y0053725D01*
X0083500Y0053725D01*
X0083500Y0053750D02*
X0084500Y0053750D01*
X0084500Y0053799D02*
X0083500Y0053799D01*
X0083500Y0053847D02*
X0084500Y0053847D01*
X0084500Y0053896D02*
X0083500Y0053896D01*
X0083500Y0053944D02*
X0084500Y0053944D01*
X0084500Y0053993D02*
X0083500Y0053993D01*
X0083500Y0054041D02*
X0084500Y0054041D01*
X0084500Y0054090D02*
X0083500Y0054090D01*
X0083500Y0054138D02*
X0084500Y0054138D01*
X0084500Y0054187D02*
X0083500Y0054187D01*
X0083500Y0054235D02*
X0084500Y0054235D01*
X0084500Y0054284D02*
X0083500Y0054284D01*
X0083500Y0054332D02*
X0084500Y0054332D01*
X0084500Y0054381D02*
X0083500Y0054381D01*
X0083500Y0054429D02*
X0084500Y0054429D01*
X0084500Y0054478D02*
X0083500Y0054478D01*
X0083500Y0054526D02*
X0084500Y0054526D01*
X0084500Y0054575D02*
X0083500Y0054575D01*
X0083500Y0054623D02*
X0084500Y0054623D01*
X0084500Y0054672D02*
X0083500Y0054672D01*
X0083500Y0054720D02*
X0084500Y0054720D01*
X0084500Y0054769D02*
X0083500Y0054769D01*
X0083500Y0054817D02*
X0084500Y0054817D01*
X0084500Y0054866D02*
X0083500Y0054866D01*
X0083500Y0054914D02*
X0084500Y0054914D01*
X0084500Y0054963D02*
X0083500Y0054963D01*
X0083500Y0055011D02*
X0084500Y0055011D01*
X0084500Y0055060D02*
X0083500Y0055060D01*
X0083500Y0055108D02*
X0084500Y0055108D01*
X0084500Y0055157D02*
X0083500Y0055157D01*
X0083500Y0055205D02*
X0084500Y0055205D01*
X0084500Y0055254D02*
X0083500Y0055254D01*
X0083500Y0055302D02*
X0084500Y0055302D01*
X0084500Y0055351D02*
X0083500Y0055351D01*
X0083500Y0055399D02*
X0084500Y0055399D01*
X0084500Y0055448D02*
X0083500Y0055448D01*
X0083500Y0055496D02*
X0084500Y0055496D01*
X0084500Y0055545D02*
X0083500Y0055545D01*
X0083500Y0055593D02*
X0084500Y0055593D01*
X0084500Y0055642D02*
X0083500Y0055642D01*
X0083500Y0055690D02*
X0084500Y0055690D01*
X0084500Y0055739D02*
X0083500Y0055739D01*
X0083500Y0055787D02*
X0084500Y0055787D01*
X0084500Y0055836D02*
X0083500Y0055836D01*
X0083500Y0055885D02*
X0084500Y0055885D01*
X0084500Y0055933D02*
X0083500Y0055933D01*
X0083500Y0055982D02*
X0084500Y0055982D01*
X0084500Y0056030D02*
X0083500Y0056030D01*
X0083500Y0056079D02*
X0084500Y0056079D01*
X0084500Y0056127D02*
X0083500Y0056127D01*
X0083500Y0056176D02*
X0084500Y0056176D01*
X0084500Y0056224D02*
X0083500Y0056224D01*
X0083500Y0056273D02*
X0084500Y0056273D01*
X0084500Y0056321D02*
X0083500Y0056321D01*
X0083500Y0056370D02*
X0084500Y0056370D01*
X0084500Y0056418D02*
X0083500Y0056418D01*
X0083500Y0056467D02*
X0084500Y0056467D01*
X0084500Y0056515D02*
X0083500Y0056515D01*
X0083500Y0056564D02*
X0084500Y0056564D01*
X0084500Y0056612D02*
X0083500Y0056612D01*
X0083500Y0056661D02*
X0084500Y0056661D01*
X0084500Y0056709D02*
X0083500Y0056709D01*
X0083500Y0056758D02*
X0084500Y0056758D01*
X0084500Y0056806D02*
X0083500Y0056806D01*
X0083500Y0056855D02*
X0084500Y0056855D01*
X0084500Y0056903D02*
X0083500Y0056903D01*
X0083500Y0056952D02*
X0084500Y0056952D01*
X0084500Y0057000D02*
X0083500Y0057000D01*
X0083500Y0057049D02*
X0084500Y0057049D01*
X0084500Y0057097D02*
X0083500Y0057097D01*
X0083500Y0057146D02*
X0084500Y0057146D01*
X0084500Y0057194D02*
X0083500Y0057194D01*
X0083500Y0057243D02*
X0084500Y0057243D01*
D24*
X0111375Y0039203D03*
X0111375Y0033297D03*
D25*
X0109997Y0030616D02*
X0116075Y0024321D01*
X0116075Y0024297D01*
X0116734Y0023638D01*
X0117382Y0022967D01*
X0117406Y0022967D01*
X0117422Y0022950D01*
X0118355Y0022950D01*
X0119287Y0022934D01*
X0119304Y0022950D01*
X0123774Y0022950D01*
X0124155Y0022569D01*
X0127215Y0022569D01*
X0127742Y0023097D01*
X0127904Y0022935D01*
X0128322Y0022694D01*
X0128787Y0022569D01*
X0129749Y0022569D01*
X0129749Y0025199D01*
X0129851Y0025199D01*
X0129851Y0022569D01*
X0130813Y0022569D01*
X0131278Y0022694D01*
X0131696Y0022935D01*
X0132037Y0023276D01*
X0132278Y0023693D01*
X0132402Y0024159D01*
X0132402Y0025199D01*
X0129851Y0025199D01*
X0129851Y0025301D01*
X0129749Y0025301D01*
X0129749Y0027931D01*
X0128787Y0027931D01*
X0128322Y0027806D01*
X0127904Y0027565D01*
X0127742Y0027403D01*
X0127215Y0027931D01*
X0126448Y0027931D01*
X0126448Y0029257D01*
X0127026Y0029835D01*
X0127026Y0033834D01*
X0126859Y0034000D01*
X0127026Y0034166D01*
X0127026Y0038165D01*
X0126147Y0039043D01*
X0122148Y0039043D01*
X0121370Y0038265D01*
X0117518Y0038265D01*
X0122203Y0042950D01*
X0123699Y0042950D01*
X0123857Y0042791D01*
X0124923Y0042350D01*
X0126077Y0042350D01*
X0127143Y0042791D01*
X0127958Y0043607D01*
X0128400Y0044673D01*
X0128400Y0045827D01*
X0127958Y0046893D01*
X0127143Y0047708D01*
X0126077Y0048150D01*
X0124923Y0048150D01*
X0123857Y0047708D01*
X0123699Y0047550D01*
X0120297Y0047550D01*
X0114250Y0041503D01*
X0113952Y0041503D01*
X0113571Y0041884D01*
X0109179Y0041884D01*
X0108300Y0041005D01*
X0108300Y0038265D01*
X0090295Y0038265D01*
X0087565Y0035535D01*
X0086900Y0034870D01*
X0079400Y0027370D01*
X0079400Y0026259D01*
X0078554Y0025908D01*
X0077092Y0024446D01*
X0076500Y0023017D01*
X0075908Y0024446D01*
X0074446Y0025908D01*
X0072534Y0026700D01*
X0070466Y0026700D01*
X0068554Y0025908D01*
X0067092Y0024446D01*
X0066500Y0023017D01*
X0065908Y0024446D01*
X0064446Y0025908D01*
X0063600Y0026259D01*
X0063600Y0028130D01*
X0064870Y0029400D01*
X0079870Y0029400D01*
X0084870Y0034400D01*
X0086100Y0035630D01*
X0086100Y0049600D01*
X0087121Y0049600D01*
X0088000Y0050479D01*
X0088000Y0054321D01*
X0087921Y0054400D01*
X0092370Y0054400D01*
X0094870Y0056900D01*
X0096100Y0058130D01*
X0096100Y0068130D01*
X0102154Y0074184D01*
X0102154Y0073979D01*
X0103032Y0073100D01*
X0108275Y0073100D01*
X0109000Y0073825D01*
X0109725Y0073100D01*
X0114968Y0073100D01*
X0115846Y0073979D01*
X0115846Y0074200D01*
X0117453Y0074200D01*
X0121231Y0077978D01*
X0125350Y0077978D01*
X0126228Y0078857D01*
X0126228Y0083643D01*
X0125350Y0084522D01*
X0120957Y0084522D01*
X0120079Y0083643D01*
X0120079Y0083331D01*
X0115808Y0079060D01*
X0114968Y0079900D01*
X0109725Y0079900D01*
X0109000Y0079175D01*
X0108275Y0079900D01*
X0103032Y0079900D01*
X0102154Y0079021D01*
X0102154Y0078600D01*
X0100630Y0078600D01*
X0099400Y0077370D01*
X0091900Y0069870D01*
X0091900Y0059870D01*
X0090630Y0058600D01*
X0087921Y0058600D01*
X0088000Y0058679D01*
X0088000Y0062521D01*
X0087121Y0063400D01*
X0086100Y0063400D01*
X0086100Y0065630D01*
X0102370Y0081900D01*
X0103600Y0083130D01*
X0103600Y0086741D01*
X0104446Y0087092D01*
X0105908Y0088554D01*
X0106500Y0089983D01*
X0107092Y0088554D01*
X0108554Y0087092D01*
X0110466Y0086300D01*
X0112534Y0086300D01*
X0114446Y0087092D01*
X0115908Y0088554D01*
X0116700Y0090466D01*
X0116700Y0092534D01*
X0115908Y0094446D01*
X0114446Y0095908D01*
X0114200Y0096010D01*
X0114200Y0096990D01*
X0114446Y0097092D01*
X0115908Y0098554D01*
X0116700Y0100466D01*
X0116700Y0102534D01*
X0115908Y0104446D01*
X0115404Y0104950D01*
X0130539Y0104950D01*
X0130549Y0104941D01*
X0131386Y0104950D01*
X0131400Y0104950D01*
X0132084Y0104890D01*
X0133356Y0104380D01*
X0134336Y0103422D01*
X0134875Y0102161D01*
X0134950Y0101478D01*
X0134950Y0100654D01*
X0134888Y0100716D01*
X0134225Y0101197D01*
X0133496Y0101569D01*
X0132718Y0101822D01*
X0132000Y0101936D01*
X0132000Y0097250D01*
X0131000Y0097250D01*
X0131000Y0101936D01*
X0130282Y0101822D01*
X0129504Y0101569D01*
X0128775Y0101197D01*
X0128112Y0100716D01*
X0127534Y0100138D01*
X0127053Y0099475D01*
X0126681Y0098746D01*
X0126500Y0098189D01*
X0126319Y0098746D01*
X0125947Y0099475D01*
X0125466Y0100138D01*
X0124888Y0100716D01*
X0124225Y0101197D01*
X0123496Y0101569D01*
X0122718Y0101822D01*
X0122000Y0101936D01*
X0122000Y0097250D01*
X0121000Y0097250D01*
X0121000Y0101936D01*
X0120282Y0101822D01*
X0119504Y0101569D01*
X0118775Y0101197D01*
X0118112Y0100716D01*
X0117534Y0100138D01*
X0117053Y0099475D01*
X0116681Y0098746D01*
X0116428Y0097968D01*
X0116314Y0097250D01*
X0121000Y0097250D01*
X0121000Y0096250D01*
X0122000Y0096250D01*
X0122000Y0097250D01*
X0126686Y0097250D01*
X0131000Y0097250D01*
X0131000Y0096250D01*
X0132000Y0096250D01*
X0132000Y0091564D01*
X0132718Y0091678D01*
X0133496Y0091931D01*
X0134225Y0092303D01*
X0134888Y0092784D01*
X0134950Y0092846D01*
X0134950Y0020154D01*
X0134446Y0020658D01*
X0132534Y0021450D01*
X0130466Y0021450D01*
X0128554Y0020658D01*
X0127092Y0019196D01*
X0126500Y0017767D01*
X0125908Y0019196D01*
X0124446Y0020658D01*
X0122534Y0021450D01*
X0120466Y0021450D01*
X0118554Y0020658D01*
X0117092Y0019196D01*
X0116300Y0017284D01*
X0116300Y0015216D01*
X0117092Y0013304D01*
X0118554Y0011842D01*
X0120466Y0011050D01*
X0122534Y0011050D01*
X0124446Y0011842D01*
X0125908Y0013304D01*
X0126500Y0014733D01*
X0127092Y0013304D01*
X0128554Y0011842D01*
X0130466Y0011050D01*
X0132534Y0011050D01*
X0134446Y0011842D01*
X0134950Y0012346D01*
X0134950Y0012321D01*
X0134931Y0012301D01*
X0134950Y0011476D01*
X0134950Y0011445D01*
X0134902Y0010802D01*
X0134433Y0009592D01*
X0133537Y0008653D01*
X0132350Y0008128D01*
X0131707Y0008050D01*
X0115404Y0008050D01*
X0115908Y0008554D01*
X0116700Y0010466D01*
X0116700Y0012534D01*
X0115908Y0014446D01*
X0114446Y0015908D01*
X0114200Y0016010D01*
X0114200Y0016990D01*
X0114446Y0017092D01*
X0115908Y0018554D01*
X0116700Y0020466D01*
X0116700Y0022534D01*
X0115908Y0024446D01*
X0114446Y0025908D01*
X0112534Y0026700D01*
X0110466Y0026700D01*
X0108554Y0025908D01*
X0107092Y0024446D01*
X0106500Y0023017D01*
X0105908Y0024446D01*
X0104446Y0025908D01*
X0102534Y0026700D01*
X0100466Y0026700D01*
X0098554Y0025908D01*
X0097092Y0024446D01*
X0096500Y0023017D01*
X0095908Y0024446D01*
X0094446Y0025908D01*
X0092534Y0026700D01*
X0090466Y0026700D01*
X0088554Y0025908D01*
X0087092Y0024446D01*
X0086500Y0023017D01*
X0085908Y0024446D01*
X0084446Y0025908D01*
X0084044Y0026075D01*
X0089870Y0031900D01*
X0090535Y0032565D01*
X0092035Y0034065D01*
X0108300Y0034065D01*
X0108300Y0031495D01*
X0109179Y0030616D01*
X0109997Y0030616D01*
X0110143Y0030464D02*
X0088434Y0030464D01*
X0087436Y0029466D02*
X0111107Y0029466D01*
X0112072Y0028467D02*
X0086437Y0028467D01*
X0085439Y0027469D02*
X0113036Y0027469D01*
X0113089Y0026470D02*
X0114000Y0026470D01*
X0114882Y0025472D02*
X0114964Y0025472D01*
X0115881Y0024473D02*
X0115928Y0024473D01*
X0116310Y0023475D02*
X0116892Y0023475D01*
X0116700Y0022476D02*
X0134950Y0022476D01*
X0134950Y0021478D02*
X0116700Y0021478D01*
X0116700Y0020479D02*
X0118375Y0020479D01*
X0117377Y0019481D02*
X0116292Y0019481D01*
X0115836Y0018482D02*
X0116796Y0018482D01*
X0116383Y0017484D02*
X0114838Y0017484D01*
X0114200Y0016485D02*
X0116300Y0016485D01*
X0116300Y0015487D02*
X0114867Y0015487D01*
X0115866Y0014488D02*
X0116601Y0014488D01*
X0116304Y0013490D02*
X0117015Y0013490D01*
X0116700Y0012491D02*
X0117905Y0012491D01*
X0116700Y0011493D02*
X0119397Y0011493D01*
X0116700Y0010494D02*
X0134782Y0010494D01*
X0134950Y0011493D02*
X0133603Y0011493D01*
X0134341Y0009496D02*
X0116298Y0009496D01*
X0115851Y0008497D02*
X0133184Y0008497D01*
X0129397Y0011493D02*
X0123603Y0011493D01*
X0125095Y0012491D02*
X0127905Y0012491D01*
X0127015Y0013490D02*
X0125985Y0013490D01*
X0126399Y0014488D02*
X0126601Y0014488D01*
X0126796Y0018482D02*
X0126204Y0018482D01*
X0125623Y0019481D02*
X0127377Y0019481D01*
X0128375Y0020479D02*
X0124625Y0020479D01*
X0129749Y0023475D02*
X0129851Y0023475D01*
X0129851Y0024473D02*
X0129749Y0024473D01*
X0129851Y0025301D02*
X0132402Y0025301D01*
X0132402Y0026341D01*
X0132278Y0026807D01*
X0132037Y0027224D01*
X0131696Y0027565D01*
X0131278Y0027806D01*
X0130813Y0027931D01*
X0129851Y0027931D01*
X0129851Y0025301D01*
X0129851Y0025472D02*
X0129749Y0025472D01*
X0129749Y0026470D02*
X0129851Y0026470D01*
X0129851Y0027469D02*
X0129749Y0027469D01*
X0129353Y0028957D02*
X0133352Y0028957D01*
X0134230Y0029835D01*
X0134230Y0033834D01*
X0134028Y0034036D01*
X0134128Y0034208D01*
X0134230Y0034590D01*
X0134230Y0035976D01*
X0131541Y0035976D01*
X0131541Y0036354D01*
X0134230Y0036354D01*
X0134230Y0037741D01*
X0134128Y0038122D01*
X0133931Y0038464D01*
X0133651Y0038744D01*
X0133309Y0038941D01*
X0132928Y0039043D01*
X0131541Y0039043D01*
X0131541Y0036354D01*
X0131163Y0036354D01*
X0131163Y0035976D01*
X0128474Y0035976D01*
X0128474Y0034590D01*
X0128577Y0034208D01*
X0128676Y0034036D01*
X0128474Y0033834D01*
X0128474Y0029835D01*
X0129353Y0028957D01*
X0128844Y0029466D02*
X0126656Y0029466D01*
X0126448Y0028467D02*
X0134950Y0028467D01*
X0134950Y0027469D02*
X0131792Y0027469D01*
X0132368Y0026470D02*
X0134950Y0026470D01*
X0134950Y0025472D02*
X0132402Y0025472D01*
X0132402Y0024473D02*
X0134950Y0024473D01*
X0134950Y0023475D02*
X0132152Y0023475D01*
X0134625Y0020479D02*
X0134950Y0020479D01*
X0127808Y0027469D02*
X0127677Y0027469D01*
X0127026Y0030464D02*
X0128474Y0030464D01*
X0128474Y0031463D02*
X0127026Y0031463D01*
X0127026Y0032461D02*
X0128474Y0032461D01*
X0128474Y0033460D02*
X0127026Y0033460D01*
X0127026Y0034458D02*
X0128510Y0034458D01*
X0128474Y0035457D02*
X0127026Y0035457D01*
X0127026Y0036455D02*
X0128474Y0036455D01*
X0128474Y0036354D02*
X0131163Y0036354D01*
X0131163Y0039043D01*
X0129777Y0039043D01*
X0129395Y0038941D01*
X0129053Y0038744D01*
X0128774Y0038464D01*
X0128577Y0038122D01*
X0128474Y0037741D01*
X0128474Y0036354D01*
X0128474Y0037454D02*
X0127026Y0037454D01*
X0126738Y0038452D02*
X0128767Y0038452D01*
X0131163Y0038452D02*
X0131541Y0038452D01*
X0131541Y0037454D02*
X0131163Y0037454D01*
X0131163Y0036455D02*
X0131541Y0036455D01*
X0134230Y0036455D02*
X0134950Y0036455D01*
X0134950Y0035457D02*
X0134230Y0035457D01*
X0134195Y0034458D02*
X0134950Y0034458D01*
X0134950Y0033460D02*
X0134230Y0033460D01*
X0134230Y0032461D02*
X0134950Y0032461D01*
X0134950Y0031463D02*
X0134230Y0031463D01*
X0134230Y0030464D02*
X0134950Y0030464D01*
X0134950Y0029466D02*
X0133861Y0029466D01*
X0134230Y0037454D02*
X0134950Y0037454D01*
X0134950Y0038452D02*
X0133938Y0038452D01*
X0134950Y0039451D02*
X0118704Y0039451D01*
X0119702Y0040449D02*
X0134950Y0040449D01*
X0134950Y0041448D02*
X0120701Y0041448D01*
X0121699Y0042446D02*
X0124690Y0042446D01*
X0126310Y0042446D02*
X0134950Y0042446D01*
X0134950Y0043445D02*
X0127796Y0043445D01*
X0128305Y0044443D02*
X0134950Y0044443D01*
X0134950Y0045442D02*
X0128400Y0045442D01*
X0128146Y0046440D02*
X0134950Y0046440D01*
X0134950Y0047439D02*
X0127412Y0047439D01*
X0120186Y0047439D02*
X0114784Y0047439D01*
X0115198Y0048437D02*
X0134950Y0048437D01*
X0134950Y0049436D02*
X0115250Y0049436D01*
X0115250Y0048564D02*
X0114298Y0046267D01*
X0112540Y0044509D01*
X0110243Y0043557D01*
X0107757Y0043557D01*
X0105460Y0044509D01*
X0103702Y0046267D01*
X0102750Y0048564D01*
X0102750Y0051050D01*
X0103702Y0053347D01*
X0105460Y0055106D01*
X0107757Y0056057D01*
X0110243Y0056057D01*
X0112540Y0055106D01*
X0114298Y0053347D01*
X0115250Y0051050D01*
X0115250Y0048564D01*
X0114370Y0046440D02*
X0119188Y0046440D01*
X0118189Y0045442D02*
X0113474Y0045442D01*
X0112383Y0044443D02*
X0117191Y0044443D01*
X0116192Y0043445D02*
X0086100Y0043445D01*
X0086100Y0044443D02*
X0105617Y0044443D01*
X0104526Y0045442D02*
X0086100Y0045442D01*
X0086100Y0046440D02*
X0103630Y0046440D01*
X0103216Y0047439D02*
X0086100Y0047439D01*
X0086100Y0048437D02*
X0102802Y0048437D01*
X0102750Y0049436D02*
X0086100Y0049436D01*
X0087956Y0050434D02*
X0102750Y0050434D01*
X0102909Y0051433D02*
X0088000Y0051433D01*
X0088000Y0052432D02*
X0103322Y0052432D01*
X0103784Y0053430D02*
X0088000Y0053430D01*
X0092398Y0054429D02*
X0104783Y0054429D01*
X0106236Y0055427D02*
X0093397Y0055427D01*
X0094395Y0056426D02*
X0134950Y0056426D01*
X0134950Y0057424D02*
X0110454Y0057424D01*
X0110243Y0057337D02*
X0112540Y0058288D01*
X0114298Y0060046D01*
X0115250Y0062343D01*
X0115250Y0064830D01*
X0114298Y0067127D01*
X0112540Y0068885D01*
X0110243Y0069837D01*
X0107757Y0069837D01*
X0105460Y0068885D01*
X0103702Y0067127D01*
X0102750Y0064830D01*
X0102750Y0062343D01*
X0103702Y0060046D01*
X0105460Y0058288D01*
X0107757Y0057337D01*
X0110243Y0057337D01*
X0111764Y0055427D02*
X0134950Y0055427D01*
X0134950Y0054429D02*
X0113217Y0054429D01*
X0114216Y0053430D02*
X0134950Y0053430D01*
X0134950Y0052432D02*
X0114678Y0052432D01*
X0115091Y0051433D02*
X0134950Y0051433D01*
X0134950Y0050434D02*
X0115250Y0050434D01*
X0107546Y0057424D02*
X0095394Y0057424D01*
X0096100Y0058423D02*
X0105325Y0058423D01*
X0104327Y0059421D02*
X0096100Y0059421D01*
X0096100Y0060420D02*
X0103547Y0060420D01*
X0103133Y0061418D02*
X0096100Y0061418D01*
X0096100Y0062417D02*
X0102750Y0062417D01*
X0102750Y0063415D02*
X0096100Y0063415D01*
X0096100Y0064414D02*
X0102750Y0064414D01*
X0102991Y0065412D02*
X0096100Y0065412D01*
X0096100Y0066411D02*
X0103405Y0066411D01*
X0103984Y0067409D02*
X0096100Y0067409D01*
X0096378Y0068408D02*
X0104982Y0068408D01*
X0106718Y0069406D02*
X0097376Y0069406D01*
X0098375Y0070405D02*
X0122152Y0070405D01*
X0121700Y0069953D02*
X0121700Y0068551D01*
X0121291Y0068143D01*
X0120850Y0067077D01*
X0120850Y0065923D01*
X0121291Y0064857D01*
X0122107Y0064041D01*
X0123173Y0063600D01*
X0124327Y0063600D01*
X0125393Y0064041D01*
X0126208Y0064857D01*
X0126650Y0065923D01*
X0126650Y0067077D01*
X0126300Y0067922D01*
X0126300Y0068047D01*
X0132146Y0073894D01*
X0132146Y0078082D01*
X0132921Y0078857D01*
X0132921Y0083643D01*
X0132043Y0084522D01*
X0127650Y0084522D01*
X0126772Y0083643D01*
X0126772Y0078857D01*
X0127546Y0078082D01*
X0127546Y0075799D01*
X0123047Y0071300D01*
X0121700Y0069953D01*
X0121700Y0069406D02*
X0111282Y0069406D01*
X0113018Y0068408D02*
X0121556Y0068408D01*
X0120988Y0067409D02*
X0114016Y0067409D01*
X0114595Y0066411D02*
X0120850Y0066411D01*
X0121062Y0065412D02*
X0115009Y0065412D01*
X0115250Y0064414D02*
X0121735Y0064414D01*
X0125765Y0064414D02*
X0134950Y0064414D01*
X0134950Y0065412D02*
X0126438Y0065412D01*
X0126650Y0066411D02*
X0134950Y0066411D01*
X0134950Y0067409D02*
X0126512Y0067409D01*
X0126660Y0068408D02*
X0134950Y0068408D01*
X0134950Y0069406D02*
X0127659Y0069406D01*
X0128657Y0070405D02*
X0134950Y0070405D01*
X0134950Y0071403D02*
X0129656Y0071403D01*
X0130654Y0072402D02*
X0134950Y0072402D01*
X0134950Y0073400D02*
X0131653Y0073400D01*
X0132146Y0074399D02*
X0134950Y0074399D01*
X0134950Y0075397D02*
X0132146Y0075397D01*
X0132146Y0076396D02*
X0134950Y0076396D01*
X0134950Y0077394D02*
X0132146Y0077394D01*
X0132457Y0078393D02*
X0134950Y0078393D01*
X0134950Y0079391D02*
X0132921Y0079391D01*
X0132921Y0080390D02*
X0134950Y0080390D01*
X0134950Y0081388D02*
X0132921Y0081388D01*
X0132921Y0082387D02*
X0134950Y0082387D01*
X0134950Y0083385D02*
X0132921Y0083385D01*
X0132180Y0084384D02*
X0134950Y0084384D01*
X0134950Y0085382D02*
X0103600Y0085382D01*
X0103600Y0084384D02*
X0120820Y0084384D01*
X0120079Y0083385D02*
X0103600Y0083385D01*
X0102857Y0082387D02*
X0119134Y0082387D01*
X0118136Y0081388D02*
X0101858Y0081388D01*
X0100860Y0080390D02*
X0117137Y0080390D01*
X0116139Y0079391D02*
X0115476Y0079391D01*
X0119648Y0076396D02*
X0127546Y0076396D01*
X0127546Y0077394D02*
X0120647Y0077394D01*
X0118650Y0075397D02*
X0127145Y0075397D01*
X0126146Y0074399D02*
X0117651Y0074399D01*
X0115268Y0073400D02*
X0125148Y0073400D01*
X0124149Y0072402D02*
X0100372Y0072402D01*
X0101370Y0073400D02*
X0102732Y0073400D01*
X0099373Y0071403D02*
X0123151Y0071403D01*
X0125764Y0078393D02*
X0127236Y0078393D01*
X0126772Y0079391D02*
X0126228Y0079391D01*
X0126228Y0080390D02*
X0126772Y0080390D01*
X0126772Y0081388D02*
X0126228Y0081388D01*
X0126228Y0082387D02*
X0126772Y0082387D01*
X0126772Y0083385D02*
X0126228Y0083385D01*
X0125487Y0084384D02*
X0127513Y0084384D01*
X0134950Y0086381D02*
X0112730Y0086381D01*
X0110270Y0086381D02*
X0103600Y0086381D01*
X0104733Y0087379D02*
X0108267Y0087379D01*
X0107268Y0088378D02*
X0105732Y0088378D01*
X0106249Y0089376D02*
X0106751Y0089376D01*
X0099400Y0086741D02*
X0099400Y0084870D01*
X0081900Y0067370D01*
X0081900Y0063400D01*
X0080879Y0063400D01*
X0080000Y0062521D01*
X0080000Y0058679D01*
X0080079Y0058600D01*
X0076250Y0058600D01*
X0076250Y0059121D01*
X0075371Y0060000D01*
X0069629Y0060000D01*
X0068750Y0059121D01*
X0068750Y0053879D01*
X0069629Y0053000D01*
X0073030Y0053000D01*
X0073400Y0052630D01*
X0073400Y0046596D01*
X0072979Y0046596D01*
X0072100Y0045718D01*
X0072100Y0041620D01*
X0071870Y0041850D01*
X0067900Y0041850D01*
X0067900Y0045718D01*
X0067021Y0046596D01*
X0063970Y0046596D01*
X0061966Y0048600D01*
X0061100Y0048600D01*
X0061100Y0050029D01*
X0061329Y0049800D01*
X0061671Y0049602D01*
X0062053Y0049500D01*
X0064000Y0049500D01*
X0064000Y0052500D01*
X0065000Y0052500D01*
X0065000Y0053500D01*
X0064000Y0053500D01*
X0064000Y0056500D01*
X0062053Y0056500D01*
X0061671Y0056398D01*
X0061329Y0056200D01*
X0061100Y0055971D01*
X0061100Y0057029D01*
X0061629Y0056500D01*
X0067371Y0056500D01*
X0068250Y0057379D01*
X0068250Y0062621D01*
X0067371Y0063500D01*
X0061629Y0063500D01*
X0060750Y0062621D01*
X0060750Y0062100D01*
X0059130Y0062100D01*
X0058130Y0061100D01*
X0056900Y0059870D01*
X0056900Y0049870D01*
X0055630Y0048600D01*
X0043130Y0048600D01*
X0041900Y0047370D01*
X0039400Y0044870D01*
X0039400Y0043157D01*
X0037729Y0043157D01*
X0036850Y0042279D01*
X0036850Y0033162D01*
X0037729Y0032283D01*
X0045271Y0032283D01*
X0046150Y0033162D01*
X0046150Y0042279D01*
X0045271Y0043157D01*
X0043627Y0043157D01*
X0044870Y0044400D01*
X0060227Y0044400D01*
X0061100Y0043527D01*
X0061100Y0041850D01*
X0056150Y0041850D01*
X0056150Y0042279D01*
X0055271Y0043157D01*
X0047729Y0043157D01*
X0046850Y0042279D01*
X0046850Y0033162D01*
X0047130Y0032883D01*
X0040947Y0026700D01*
X0040466Y0026700D01*
X0039629Y0026353D01*
X0031300Y0034682D01*
X0031300Y0047453D01*
X0029953Y0048800D01*
X0029953Y0048800D01*
X0029611Y0049141D01*
X0030373Y0049904D01*
X0031271Y0049904D01*
X0032150Y0050782D01*
X0032150Y0056025D01*
X0031425Y0056750D01*
X0032150Y0057475D01*
X0032150Y0062718D01*
X0031271Y0063596D01*
X0030850Y0063596D01*
X0030850Y0073880D01*
X0037870Y0080900D01*
X0056070Y0080900D01*
X0055607Y0080708D01*
X0055443Y0080544D01*
X0055271Y0080717D01*
X0047729Y0080717D01*
X0046850Y0079838D01*
X0046850Y0070721D01*
X0046972Y0070600D01*
X0046028Y0070600D01*
X0046150Y0070721D01*
X0046150Y0079838D01*
X0045271Y0080717D01*
X0037729Y0080717D01*
X0036850Y0079838D01*
X0036850Y0070721D01*
X0037729Y0069843D01*
X0040188Y0069843D01*
X0043630Y0066400D01*
X0061654Y0066400D01*
X0061654Y0065979D01*
X0062532Y0065100D01*
X0067775Y0065100D01*
X0068500Y0065825D01*
X0069225Y0065100D01*
X0074468Y0065100D01*
X0075346Y0065979D01*
X0075346Y0070377D01*
X0076320Y0071350D01*
X0076827Y0071350D01*
X0077893Y0071791D01*
X0078708Y0072607D01*
X0079150Y0073673D01*
X0079150Y0074827D01*
X0078708Y0075893D01*
X0077893Y0076708D01*
X0076827Y0077150D01*
X0075673Y0077150D01*
X0074607Y0076708D01*
X0073791Y0075893D01*
X0073350Y0074827D01*
X0073350Y0074320D01*
X0070930Y0071900D01*
X0069225Y0071900D01*
X0068500Y0071175D01*
X0067775Y0071900D01*
X0062532Y0071900D01*
X0061654Y0071021D01*
X0061654Y0070600D01*
X0056028Y0070600D01*
X0056150Y0070721D01*
X0056150Y0075567D01*
X0056673Y0075350D01*
X0057827Y0075350D01*
X0058893Y0075791D01*
X0059708Y0076607D01*
X0060150Y0077673D01*
X0060150Y0078827D01*
X0059708Y0079893D01*
X0058893Y0080708D01*
X0058430Y0080900D01*
X0086370Y0080900D01*
X0091770Y0086300D01*
X0092534Y0086300D01*
X0094446Y0087092D01*
X0095908Y0088554D01*
X0096500Y0089983D01*
X0097092Y0088554D01*
X0098554Y0087092D01*
X0099400Y0086741D01*
X0099400Y0086381D02*
X0092730Y0086381D01*
X0090852Y0085382D02*
X0099400Y0085382D01*
X0098914Y0084384D02*
X0089854Y0084384D01*
X0088855Y0083385D02*
X0097916Y0083385D01*
X0096917Y0082387D02*
X0087857Y0082387D01*
X0086858Y0081388D02*
X0095919Y0081388D01*
X0094920Y0080390D02*
X0059211Y0080390D01*
X0059916Y0079391D02*
X0093921Y0079391D01*
X0092923Y0078393D02*
X0060150Y0078393D01*
X0060034Y0077394D02*
X0091924Y0077394D01*
X0090926Y0076396D02*
X0078205Y0076396D01*
X0078914Y0075397D02*
X0089927Y0075397D01*
X0088929Y0074399D02*
X0079150Y0074399D01*
X0079037Y0073400D02*
X0087930Y0073400D01*
X0086932Y0072402D02*
X0078503Y0072402D01*
X0076955Y0071403D02*
X0085933Y0071403D01*
X0084935Y0070405D02*
X0075375Y0070405D01*
X0075346Y0069406D02*
X0083936Y0069406D01*
X0082938Y0068408D02*
X0075346Y0068408D01*
X0075346Y0067409D02*
X0081939Y0067409D01*
X0081900Y0066411D02*
X0075346Y0066411D01*
X0074780Y0065412D02*
X0081900Y0065412D01*
X0081900Y0064414D02*
X0030850Y0064414D01*
X0030850Y0065412D02*
X0062220Y0065412D01*
X0061544Y0063415D02*
X0031453Y0063415D01*
X0032150Y0062417D02*
X0060750Y0062417D01*
X0058448Y0061418D02*
X0032150Y0061418D01*
X0032150Y0060420D02*
X0057450Y0060420D01*
X0056900Y0059421D02*
X0032150Y0059421D01*
X0032150Y0058423D02*
X0056900Y0058423D01*
X0056900Y0057424D02*
X0032099Y0057424D01*
X0031749Y0056426D02*
X0056900Y0056426D01*
X0056900Y0055427D02*
X0032150Y0055427D01*
X0032150Y0054429D02*
X0056900Y0054429D01*
X0056900Y0053430D02*
X0032150Y0053430D01*
X0032150Y0052432D02*
X0056900Y0052432D01*
X0056900Y0051433D02*
X0032150Y0051433D01*
X0031802Y0050434D02*
X0056900Y0050434D01*
X0056466Y0049436D02*
X0029906Y0049436D01*
X0030315Y0048437D02*
X0042968Y0048437D01*
X0041969Y0047439D02*
X0031300Y0047439D01*
X0031300Y0046440D02*
X0040971Y0046440D01*
X0039972Y0045442D02*
X0031300Y0045442D01*
X0031300Y0044443D02*
X0039400Y0044443D01*
X0039400Y0043445D02*
X0031300Y0043445D01*
X0031300Y0042446D02*
X0037018Y0042446D01*
X0036850Y0041448D02*
X0031300Y0041448D01*
X0031300Y0040449D02*
X0036850Y0040449D01*
X0036850Y0039451D02*
X0031300Y0039451D01*
X0031300Y0038452D02*
X0036850Y0038452D01*
X0036850Y0037454D02*
X0031300Y0037454D01*
X0031300Y0036455D02*
X0036850Y0036455D01*
X0036850Y0035457D02*
X0031300Y0035457D01*
X0031523Y0034458D02*
X0036850Y0034458D01*
X0036850Y0033460D02*
X0032522Y0033460D01*
X0033520Y0032461D02*
X0037551Y0032461D01*
X0035518Y0030464D02*
X0044712Y0030464D01*
X0045710Y0031463D02*
X0034519Y0031463D01*
X0036516Y0029466D02*
X0043713Y0029466D01*
X0042715Y0028467D02*
X0037515Y0028467D01*
X0038513Y0027469D02*
X0041716Y0027469D01*
X0039911Y0026470D02*
X0039512Y0026470D01*
X0036488Y0022988D02*
X0036300Y0022534D01*
X0036300Y0020466D01*
X0037092Y0018554D01*
X0038554Y0017092D01*
X0038800Y0016990D01*
X0038800Y0016010D01*
X0038554Y0015908D01*
X0037092Y0014446D01*
X0036300Y0012534D01*
X0036300Y0011484D01*
X0033550Y0014329D01*
X0033550Y0014349D01*
X0032961Y0014938D01*
X0032384Y0015535D01*
X0032363Y0015536D01*
X0032349Y0015550D01*
X0031517Y0015550D01*
X0030686Y0015564D01*
X0030671Y0015550D01*
X0012335Y0015550D01*
X0012325Y0015560D01*
X0011488Y0015550D01*
X0011474Y0015550D01*
X0010839Y0015605D01*
X0009657Y0016078D01*
X0008746Y0016968D01*
X0008245Y0018138D01*
X0008175Y0018773D01*
X0008175Y0100455D01*
X0008211Y0100495D01*
X0008175Y0101297D01*
X0008175Y0101383D01*
X0008209Y0102020D01*
X0008667Y0103287D01*
X0009577Y0104283D01*
X0010798Y0104855D01*
X0011453Y0104950D01*
X0037596Y0104950D01*
X0037092Y0104446D01*
X0036300Y0102534D01*
X0036300Y0100466D01*
X0037092Y0098554D01*
X0038554Y0097092D01*
X0038800Y0096990D01*
X0038800Y0096010D01*
X0038554Y0095908D01*
X0037092Y0094446D01*
X0036300Y0092534D01*
X0036300Y0090466D01*
X0037092Y0088554D01*
X0038496Y0087150D01*
X0028130Y0087150D01*
X0025674Y0084694D01*
X0025468Y0084900D01*
X0020225Y0084900D01*
X0019500Y0084175D01*
X0018775Y0084900D01*
X0013532Y0084900D01*
X0012654Y0084021D01*
X0012654Y0083123D01*
X0010630Y0081100D01*
X0009400Y0079870D01*
X0009400Y0053130D01*
X0010630Y0051900D01*
X0010630Y0051900D01*
X0011900Y0050630D01*
X0013130Y0049400D01*
X0014769Y0049400D01*
X0015005Y0048831D01*
X0016331Y0047505D01*
X0018063Y0046787D01*
X0019937Y0046787D01*
X0021669Y0047505D01*
X0022995Y0048831D01*
X0023119Y0049129D01*
X0024200Y0048047D01*
X0026700Y0045547D01*
X0026700Y0032776D01*
X0036488Y0022988D01*
X0036300Y0022476D02*
X0008175Y0022476D01*
X0008175Y0021478D02*
X0036300Y0021478D01*
X0036300Y0020479D02*
X0008175Y0020479D01*
X0008175Y0019481D02*
X0036708Y0019481D01*
X0037164Y0018482D02*
X0008207Y0018482D01*
X0008525Y0017484D02*
X0038162Y0017484D01*
X0038800Y0016485D02*
X0009240Y0016485D01*
X0008175Y0023475D02*
X0036002Y0023475D01*
X0035003Y0024473D02*
X0008175Y0024473D01*
X0008175Y0025472D02*
X0034005Y0025472D01*
X0033006Y0026470D02*
X0008175Y0026470D01*
X0008175Y0027469D02*
X0032008Y0027469D01*
X0031009Y0028467D02*
X0008175Y0028467D01*
X0008175Y0029466D02*
X0030011Y0029466D01*
X0029012Y0030464D02*
X0008175Y0030464D01*
X0008175Y0031463D02*
X0028014Y0031463D01*
X0027015Y0032461D02*
X0008175Y0032461D01*
X0008175Y0033460D02*
X0026700Y0033460D01*
X0026700Y0034458D02*
X0008175Y0034458D01*
X0008175Y0035457D02*
X0026700Y0035457D01*
X0026700Y0036455D02*
X0008175Y0036455D01*
X0008175Y0037454D02*
X0014537Y0037454D01*
X0014587Y0037366D02*
X0014866Y0037087D01*
X0015208Y0036890D01*
X0015590Y0036787D01*
X0018500Y0036787D01*
X0018500Y0041000D01*
X0019500Y0041000D01*
X0019500Y0042000D01*
X0018500Y0042000D01*
X0018500Y0046213D01*
X0015590Y0046213D01*
X0015208Y0046110D01*
X0014866Y0045913D01*
X0014587Y0045634D01*
X0014390Y0045292D01*
X0014287Y0044910D01*
X0014287Y0042000D01*
X0018500Y0042000D01*
X0018500Y0041000D01*
X0014287Y0041000D01*
X0014287Y0038090D01*
X0014390Y0037708D01*
X0014587Y0037366D01*
X0014287Y0038452D02*
X0008175Y0038452D01*
X0008175Y0039451D02*
X0014287Y0039451D01*
X0014287Y0040449D02*
X0008175Y0040449D01*
X0008175Y0041448D02*
X0018500Y0041448D01*
X0018500Y0042446D02*
X0019500Y0042446D01*
X0019500Y0042000D02*
X0019500Y0046213D01*
X0022410Y0046213D01*
X0022792Y0046110D01*
X0023134Y0045913D01*
X0023413Y0045634D01*
X0023610Y0045292D01*
X0023713Y0044910D01*
X0023713Y0042000D01*
X0019500Y0042000D01*
X0019500Y0041448D02*
X0026700Y0041448D01*
X0026700Y0042446D02*
X0023713Y0042446D01*
X0023713Y0043445D02*
X0026700Y0043445D01*
X0026700Y0044443D02*
X0023713Y0044443D01*
X0023524Y0045442D02*
X0026700Y0045442D01*
X0025807Y0046440D02*
X0008175Y0046440D01*
X0008175Y0045442D02*
X0014476Y0045442D01*
X0014287Y0044443D02*
X0008175Y0044443D01*
X0008175Y0043445D02*
X0014287Y0043445D01*
X0014287Y0042446D02*
X0008175Y0042446D01*
X0008175Y0047439D02*
X0016490Y0047439D01*
X0015398Y0048437D02*
X0008175Y0048437D01*
X0008175Y0049436D02*
X0013094Y0049436D01*
X0012096Y0050434D02*
X0008175Y0050434D01*
X0008175Y0051433D02*
X0011097Y0051433D01*
X0010099Y0052432D02*
X0008175Y0052432D01*
X0008175Y0053430D02*
X0009400Y0053430D01*
X0009400Y0054429D02*
X0008175Y0054429D01*
X0008175Y0055427D02*
X0009400Y0055427D01*
X0009400Y0056426D02*
X0008175Y0056426D01*
X0008175Y0057424D02*
X0009400Y0057424D01*
X0009400Y0058423D02*
X0008175Y0058423D01*
X0008175Y0059421D02*
X0009400Y0059421D01*
X0009400Y0060420D02*
X0008175Y0060420D01*
X0008175Y0061418D02*
X0009400Y0061418D01*
X0009400Y0062417D02*
X0008175Y0062417D01*
X0008175Y0063415D02*
X0009400Y0063415D01*
X0009400Y0064414D02*
X0008175Y0064414D01*
X0008175Y0065412D02*
X0009400Y0065412D01*
X0009400Y0066411D02*
X0008175Y0066411D01*
X0008175Y0067409D02*
X0009400Y0067409D01*
X0009400Y0068408D02*
X0008175Y0068408D01*
X0008175Y0069406D02*
X0009400Y0069406D01*
X0009400Y0070405D02*
X0008175Y0070405D01*
X0008175Y0071403D02*
X0009400Y0071403D01*
X0009400Y0072402D02*
X0008175Y0072402D01*
X0008175Y0073400D02*
X0009400Y0073400D01*
X0009400Y0074399D02*
X0008175Y0074399D01*
X0008175Y0075397D02*
X0009400Y0075397D01*
X0009400Y0076396D02*
X0008175Y0076396D01*
X0008175Y0077394D02*
X0009400Y0077394D01*
X0009400Y0078393D02*
X0008175Y0078393D01*
X0008175Y0079391D02*
X0009400Y0079391D01*
X0009920Y0080390D02*
X0008175Y0080390D01*
X0008175Y0081388D02*
X0010919Y0081388D01*
X0010630Y0081100D02*
X0010630Y0081100D01*
X0011917Y0082387D02*
X0008175Y0082387D01*
X0008175Y0083385D02*
X0012654Y0083385D01*
X0013016Y0084384D02*
X0008175Y0084384D01*
X0008175Y0085382D02*
X0026363Y0085382D01*
X0027361Y0086381D02*
X0008175Y0086381D01*
X0008175Y0087379D02*
X0038267Y0087379D01*
X0037268Y0088378D02*
X0008175Y0088378D01*
X0008175Y0089376D02*
X0036751Y0089376D01*
X0036338Y0090375D02*
X0008175Y0090375D01*
X0008175Y0091373D02*
X0036300Y0091373D01*
X0036300Y0092372D02*
X0008175Y0092372D01*
X0008175Y0093370D02*
X0036646Y0093370D01*
X0037060Y0094369D02*
X0008175Y0094369D01*
X0008175Y0095368D02*
X0038014Y0095368D01*
X0038800Y0096366D02*
X0008175Y0096366D01*
X0008175Y0097365D02*
X0038282Y0097365D01*
X0037283Y0098363D02*
X0008175Y0098363D01*
X0008175Y0099362D02*
X0036757Y0099362D01*
X0036344Y0100360D02*
X0008175Y0100360D01*
X0008175Y0101359D02*
X0036300Y0101359D01*
X0036300Y0102357D02*
X0008331Y0102357D01*
X0008730Y0103356D02*
X0036640Y0103356D01*
X0037054Y0104354D02*
X0009728Y0104354D01*
X0019291Y0084384D02*
X0019709Y0084384D01*
X0019500Y0078825D02*
X0020225Y0078100D01*
X0020746Y0078100D01*
X0020746Y0076216D01*
X0020507Y0075977D01*
X0019937Y0076213D01*
X0018063Y0076213D01*
X0016331Y0075495D01*
X0015005Y0074169D01*
X0014287Y0072437D01*
X0014287Y0070563D01*
X0015005Y0068831D01*
X0016331Y0067505D01*
X0018063Y0066787D01*
X0019937Y0066787D01*
X0021669Y0067505D01*
X0022995Y0068831D01*
X0023713Y0070563D01*
X0023713Y0072437D01*
X0023477Y0073007D01*
X0024946Y0074477D01*
X0024946Y0078100D01*
X0025468Y0078100D01*
X0026346Y0078979D01*
X0026346Y0079427D01*
X0029870Y0082950D01*
X0033980Y0082950D01*
X0026650Y0075620D01*
X0026650Y0063596D01*
X0026229Y0063596D01*
X0025350Y0062718D01*
X0025350Y0062196D01*
X0023713Y0062196D01*
X0023713Y0062437D01*
X0022995Y0064169D01*
X0021669Y0065495D01*
X0019937Y0066213D01*
X0018063Y0066213D01*
X0016331Y0065495D01*
X0015005Y0064169D01*
X0014287Y0062437D01*
X0014287Y0060563D01*
X0015005Y0058831D01*
X0016331Y0057505D01*
X0018063Y0056787D01*
X0019937Y0056787D01*
X0021669Y0057505D01*
X0022161Y0057996D01*
X0025350Y0057996D01*
X0025350Y0057475D01*
X0026075Y0056750D01*
X0025350Y0056025D01*
X0025350Y0053403D01*
X0024953Y0053800D01*
X0023148Y0053800D01*
X0022995Y0054169D01*
X0021669Y0055495D01*
X0019937Y0056213D01*
X0018063Y0056213D01*
X0016331Y0055495D01*
X0015005Y0054169D01*
X0014799Y0053671D01*
X0013600Y0054870D01*
X0013600Y0078100D01*
X0018775Y0078100D01*
X0019500Y0078825D01*
X0019068Y0078393D02*
X0019932Y0078393D01*
X0020746Y0077394D02*
X0013600Y0077394D01*
X0013600Y0076396D02*
X0020746Y0076396D01*
X0024946Y0076396D02*
X0027426Y0076396D01*
X0026650Y0075397D02*
X0024946Y0075397D01*
X0024869Y0074399D02*
X0026650Y0074399D01*
X0026650Y0073400D02*
X0023870Y0073400D01*
X0023713Y0072402D02*
X0026650Y0072402D01*
X0026650Y0071403D02*
X0023713Y0071403D01*
X0023647Y0070405D02*
X0026650Y0070405D01*
X0026650Y0069406D02*
X0023234Y0069406D01*
X0022572Y0068408D02*
X0026650Y0068408D01*
X0026650Y0067409D02*
X0021439Y0067409D01*
X0021752Y0065412D02*
X0026650Y0065412D01*
X0026650Y0064414D02*
X0022751Y0064414D01*
X0023308Y0063415D02*
X0026047Y0063415D01*
X0025350Y0062417D02*
X0023713Y0062417D01*
X0026650Y0066411D02*
X0013600Y0066411D01*
X0013600Y0067409D02*
X0016561Y0067409D01*
X0015428Y0068408D02*
X0013600Y0068408D01*
X0013600Y0069406D02*
X0014766Y0069406D01*
X0014353Y0070405D02*
X0013600Y0070405D01*
X0013600Y0071403D02*
X0014287Y0071403D01*
X0014287Y0072402D02*
X0013600Y0072402D01*
X0013600Y0073400D02*
X0014686Y0073400D01*
X0015234Y0074399D02*
X0013600Y0074399D01*
X0013600Y0075397D02*
X0016233Y0075397D01*
X0024946Y0077394D02*
X0028424Y0077394D01*
X0029423Y0078393D02*
X0025761Y0078393D01*
X0026346Y0079391D02*
X0030421Y0079391D01*
X0031420Y0080390D02*
X0027310Y0080390D01*
X0028308Y0081388D02*
X0032419Y0081388D01*
X0033417Y0082387D02*
X0029307Y0082387D01*
X0034364Y0077394D02*
X0036850Y0077394D01*
X0036850Y0076396D02*
X0033366Y0076396D01*
X0032367Y0075397D02*
X0036850Y0075397D01*
X0036850Y0074399D02*
X0031369Y0074399D01*
X0030850Y0073400D02*
X0036850Y0073400D01*
X0036850Y0072402D02*
X0030850Y0072402D01*
X0030850Y0071403D02*
X0036850Y0071403D01*
X0037167Y0070405D02*
X0030850Y0070405D01*
X0030850Y0069406D02*
X0040624Y0069406D01*
X0041622Y0068408D02*
X0030850Y0068408D01*
X0030850Y0067409D02*
X0042621Y0067409D01*
X0043619Y0066411D02*
X0030850Y0066411D01*
X0025401Y0057424D02*
X0021474Y0057424D01*
X0021738Y0055427D02*
X0025350Y0055427D01*
X0025350Y0054429D02*
X0022736Y0054429D01*
X0025323Y0053430D02*
X0025350Y0053430D01*
X0025751Y0056426D02*
X0013600Y0056426D01*
X0013600Y0057424D02*
X0016526Y0057424D01*
X0015413Y0058423D02*
X0013600Y0058423D01*
X0013600Y0059421D02*
X0014760Y0059421D01*
X0014347Y0060420D02*
X0013600Y0060420D01*
X0013600Y0061418D02*
X0014287Y0061418D01*
X0014287Y0062417D02*
X0013600Y0062417D01*
X0013600Y0063415D02*
X0014692Y0063415D01*
X0015249Y0064414D02*
X0013600Y0064414D01*
X0013600Y0065412D02*
X0016248Y0065412D01*
X0016262Y0055427D02*
X0013600Y0055427D01*
X0014041Y0054429D02*
X0015264Y0054429D01*
X0022602Y0048437D02*
X0023810Y0048437D01*
X0024200Y0048047D02*
X0024200Y0048047D01*
X0024808Y0047439D02*
X0021510Y0047439D01*
X0019500Y0045442D02*
X0018500Y0045442D01*
X0018500Y0044443D02*
X0019500Y0044443D01*
X0019500Y0043445D02*
X0018500Y0043445D01*
X0019500Y0041000D02*
X0023713Y0041000D01*
X0023713Y0038090D01*
X0023610Y0037708D01*
X0023413Y0037366D01*
X0023134Y0037087D01*
X0022792Y0036890D01*
X0022410Y0036787D01*
X0019500Y0036787D01*
X0019500Y0041000D01*
X0019500Y0040449D02*
X0018500Y0040449D01*
X0018500Y0039451D02*
X0019500Y0039451D01*
X0019500Y0038452D02*
X0018500Y0038452D01*
X0018500Y0037454D02*
X0019500Y0037454D01*
X0023463Y0037454D02*
X0026700Y0037454D01*
X0026700Y0038452D02*
X0023713Y0038452D01*
X0023713Y0039451D02*
X0026700Y0039451D01*
X0026700Y0040449D02*
X0023713Y0040449D01*
X0043915Y0043445D02*
X0061100Y0043445D01*
X0061100Y0042446D02*
X0055982Y0042446D01*
X0056150Y0037650D02*
X0061100Y0037650D01*
X0061100Y0036854D01*
X0064050Y0036854D01*
X0064050Y0035954D01*
X0061100Y0035954D01*
X0061100Y0034206D01*
X0061202Y0033825D01*
X0061400Y0033483D01*
X0061679Y0033203D01*
X0062021Y0033006D01*
X0062403Y0032904D01*
X0062434Y0032904D01*
X0061900Y0032370D01*
X0061900Y0032370D01*
X0060630Y0031100D01*
X0060630Y0031100D01*
X0059400Y0029870D01*
X0059400Y0026259D01*
X0058554Y0025908D01*
X0057092Y0024446D01*
X0056500Y0023017D01*
X0055908Y0024446D01*
X0054446Y0025908D01*
X0052534Y0026700D01*
X0050466Y0026700D01*
X0048554Y0025908D01*
X0047092Y0024446D01*
X0046500Y0023017D01*
X0045908Y0024446D01*
X0045553Y0024801D01*
X0052453Y0031700D01*
X0053036Y0032283D01*
X0055271Y0032283D01*
X0056150Y0033162D01*
X0056150Y0037650D01*
X0056150Y0037454D02*
X0061100Y0037454D01*
X0061100Y0035457D02*
X0056150Y0035457D01*
X0056150Y0036455D02*
X0064050Y0036455D01*
X0064950Y0036455D02*
X0071325Y0036455D01*
X0072100Y0035680D02*
X0070130Y0037650D01*
X0067900Y0037650D01*
X0067900Y0036854D01*
X0064950Y0036854D01*
X0064950Y0035954D01*
X0067900Y0035954D01*
X0067900Y0034206D01*
X0067798Y0033825D01*
X0067668Y0033600D01*
X0072282Y0033600D01*
X0072100Y0033782D01*
X0072100Y0035680D01*
X0072100Y0035457D02*
X0067900Y0035457D01*
X0067900Y0034458D02*
X0072100Y0034458D01*
X0070326Y0037454D02*
X0067900Y0037454D01*
X0067900Y0042446D02*
X0072100Y0042446D01*
X0072100Y0043445D02*
X0067900Y0043445D01*
X0067900Y0044443D02*
X0072100Y0044443D01*
X0072100Y0045442D02*
X0067900Y0045442D01*
X0067177Y0046440D02*
X0072823Y0046440D01*
X0073400Y0047439D02*
X0063127Y0047439D01*
X0062129Y0048437D02*
X0073400Y0048437D01*
X0073400Y0049436D02*
X0061100Y0049436D01*
X0064000Y0050434D02*
X0065000Y0050434D01*
X0065000Y0049500D02*
X0066947Y0049500D01*
X0067329Y0049602D01*
X0067671Y0049800D01*
X0067950Y0050079D01*
X0068148Y0050421D01*
X0068250Y0050803D01*
X0068250Y0052500D01*
X0065000Y0052500D01*
X0065000Y0049500D01*
X0065000Y0051433D02*
X0064000Y0051433D01*
X0064000Y0052432D02*
X0065000Y0052432D01*
X0065000Y0053430D02*
X0069199Y0053430D01*
X0068250Y0053500D02*
X0068250Y0055197D01*
X0068148Y0055579D01*
X0067950Y0055921D01*
X0067671Y0056200D01*
X0067329Y0056398D01*
X0066947Y0056500D01*
X0065000Y0056500D01*
X0065000Y0053500D01*
X0068250Y0053500D01*
X0068250Y0054429D02*
X0068750Y0054429D01*
X0068750Y0055427D02*
X0068188Y0055427D01*
X0068750Y0056426D02*
X0067225Y0056426D01*
X0068250Y0057424D02*
X0068750Y0057424D01*
X0068750Y0058423D02*
X0068250Y0058423D01*
X0068250Y0059421D02*
X0069050Y0059421D01*
X0068250Y0060420D02*
X0080000Y0060420D01*
X0080000Y0061418D02*
X0068250Y0061418D01*
X0068250Y0062417D02*
X0080000Y0062417D01*
X0081900Y0063415D02*
X0067456Y0063415D01*
X0068087Y0065412D02*
X0068913Y0065412D01*
X0075950Y0059421D02*
X0080000Y0059421D01*
X0080079Y0054400D02*
X0077570Y0054400D01*
X0077600Y0054370D01*
X0077600Y0046596D01*
X0078021Y0046596D01*
X0078900Y0045718D01*
X0078900Y0040475D01*
X0078175Y0039750D01*
X0078900Y0039025D01*
X0078900Y0034370D01*
X0081900Y0037370D01*
X0081900Y0049600D01*
X0080879Y0049600D01*
X0080000Y0050479D01*
X0080000Y0054321D01*
X0080079Y0054400D01*
X0080000Y0053430D02*
X0077600Y0053430D01*
X0077600Y0052432D02*
X0080000Y0052432D01*
X0080000Y0051433D02*
X0077600Y0051433D01*
X0077600Y0050434D02*
X0080044Y0050434D01*
X0081900Y0049436D02*
X0077600Y0049436D01*
X0077600Y0048437D02*
X0081900Y0048437D01*
X0081900Y0047439D02*
X0077600Y0047439D01*
X0078177Y0046440D02*
X0081900Y0046440D01*
X0081900Y0045442D02*
X0078900Y0045442D01*
X0078900Y0044443D02*
X0081900Y0044443D01*
X0081900Y0043445D02*
X0078900Y0043445D01*
X0078900Y0042446D02*
X0081900Y0042446D01*
X0081900Y0041448D02*
X0078900Y0041448D01*
X0078874Y0040449D02*
X0081900Y0040449D01*
X0081900Y0039451D02*
X0078474Y0039451D01*
X0078900Y0038452D02*
X0081900Y0038452D01*
X0081900Y0037454D02*
X0078900Y0037454D01*
X0078900Y0036455D02*
X0080986Y0036455D01*
X0079987Y0035457D02*
X0078900Y0035457D01*
X0078900Y0034458D02*
X0078988Y0034458D01*
X0082931Y0032461D02*
X0084491Y0032461D01*
X0083930Y0033460D02*
X0085490Y0033460D01*
X0084928Y0034458D02*
X0086488Y0034458D01*
X0085927Y0035457D02*
X0087487Y0035457D01*
X0088485Y0036455D02*
X0086100Y0036455D01*
X0086100Y0037454D02*
X0089484Y0037454D01*
X0086100Y0038452D02*
X0108300Y0038452D01*
X0108300Y0039451D02*
X0086100Y0039451D01*
X0086100Y0040449D02*
X0108300Y0040449D01*
X0108743Y0041448D02*
X0086100Y0041448D01*
X0086100Y0042446D02*
X0115194Y0042446D01*
X0117705Y0038452D02*
X0121557Y0038452D01*
X0121370Y0034065D02*
X0121436Y0034000D01*
X0121270Y0033834D01*
X0121270Y0029835D01*
X0121848Y0029257D01*
X0121848Y0027550D01*
X0119351Y0027550D01*
X0114450Y0032627D01*
X0114450Y0034065D01*
X0121370Y0034065D01*
X0121270Y0033460D02*
X0114450Y0033460D01*
X0114609Y0032461D02*
X0121270Y0032461D01*
X0121270Y0031463D02*
X0115574Y0031463D01*
X0116538Y0030464D02*
X0121270Y0030464D01*
X0121639Y0029466D02*
X0117502Y0029466D01*
X0118466Y0028467D02*
X0121848Y0028467D01*
X0109911Y0026470D02*
X0103089Y0026470D01*
X0104882Y0025472D02*
X0108118Y0025472D01*
X0107119Y0024473D02*
X0105881Y0024473D01*
X0106310Y0023475D02*
X0106690Y0023475D01*
X0099911Y0026470D02*
X0093089Y0026470D01*
X0094882Y0025472D02*
X0098118Y0025472D01*
X0097119Y0024473D02*
X0095881Y0024473D01*
X0096310Y0023475D02*
X0096690Y0023475D01*
X0089911Y0026470D02*
X0084440Y0026470D01*
X0084882Y0025472D02*
X0088118Y0025472D01*
X0087119Y0024473D02*
X0085881Y0024473D01*
X0086310Y0023475D02*
X0086690Y0023475D01*
X0079400Y0026470D02*
X0073089Y0026470D01*
X0074882Y0025472D02*
X0078118Y0025472D01*
X0077119Y0024473D02*
X0075881Y0024473D01*
X0076310Y0023475D02*
X0076690Y0023475D01*
X0079499Y0027469D02*
X0063600Y0027469D01*
X0063600Y0026470D02*
X0069911Y0026470D01*
X0068118Y0025472D02*
X0064882Y0025472D01*
X0065881Y0024473D02*
X0067119Y0024473D01*
X0066690Y0023475D02*
X0066310Y0023475D01*
X0063937Y0028467D02*
X0080497Y0028467D01*
X0079936Y0029466D02*
X0081496Y0029466D01*
X0080934Y0030464D02*
X0082494Y0030464D01*
X0081933Y0031463D02*
X0083493Y0031463D01*
X0089433Y0031463D02*
X0108332Y0031463D01*
X0108300Y0032461D02*
X0090431Y0032461D01*
X0091430Y0033460D02*
X0108300Y0033460D01*
X0112675Y0058423D02*
X0134950Y0058423D01*
X0134950Y0059421D02*
X0113673Y0059421D01*
X0114453Y0060420D02*
X0134950Y0060420D01*
X0134950Y0061418D02*
X0114867Y0061418D01*
X0115250Y0062417D02*
X0134950Y0062417D01*
X0134950Y0063415D02*
X0115250Y0063415D01*
X0109425Y0073400D02*
X0108575Y0073400D01*
X0100423Y0078393D02*
X0098863Y0078393D01*
X0099424Y0077394D02*
X0097864Y0077394D01*
X0098426Y0076396D02*
X0096866Y0076396D01*
X0097427Y0075397D02*
X0095867Y0075397D01*
X0096429Y0074399D02*
X0094869Y0074399D01*
X0095430Y0073400D02*
X0093870Y0073400D01*
X0094432Y0072402D02*
X0092872Y0072402D01*
X0093433Y0071403D02*
X0091873Y0071403D01*
X0092435Y0070405D02*
X0090875Y0070405D01*
X0089876Y0069406D02*
X0091900Y0069406D01*
X0091900Y0068408D02*
X0088878Y0068408D01*
X0087879Y0067409D02*
X0091900Y0067409D01*
X0091900Y0066411D02*
X0086881Y0066411D01*
X0086100Y0065412D02*
X0091900Y0065412D01*
X0091900Y0064414D02*
X0086100Y0064414D01*
X0086100Y0063415D02*
X0091900Y0063415D01*
X0091900Y0062417D02*
X0088000Y0062417D01*
X0088000Y0061418D02*
X0091900Y0061418D01*
X0091900Y0060420D02*
X0088000Y0060420D01*
X0088000Y0059421D02*
X0091451Y0059421D01*
X0073400Y0052432D02*
X0068250Y0052432D01*
X0068250Y0051433D02*
X0073400Y0051433D01*
X0073400Y0050434D02*
X0068151Y0050434D01*
X0065000Y0054429D02*
X0064000Y0054429D01*
X0064000Y0055427D02*
X0065000Y0055427D01*
X0065000Y0056426D02*
X0064000Y0056426D01*
X0061775Y0056426D02*
X0061100Y0056426D01*
X0047018Y0042446D02*
X0045982Y0042446D01*
X0046150Y0041448D02*
X0046850Y0041448D01*
X0046850Y0040449D02*
X0046150Y0040449D01*
X0046150Y0039451D02*
X0046850Y0039451D01*
X0046850Y0038452D02*
X0046150Y0038452D01*
X0046150Y0037454D02*
X0046850Y0037454D01*
X0046850Y0036455D02*
X0046150Y0036455D01*
X0046150Y0035457D02*
X0046850Y0035457D01*
X0046850Y0034458D02*
X0046150Y0034458D01*
X0046150Y0033460D02*
X0046850Y0033460D01*
X0046709Y0032461D02*
X0045449Y0032461D01*
X0049220Y0028467D02*
X0059400Y0028467D01*
X0059400Y0027469D02*
X0048221Y0027469D01*
X0047223Y0026470D02*
X0049911Y0026470D01*
X0048118Y0025472D02*
X0046224Y0025472D01*
X0045881Y0024473D02*
X0047119Y0024473D01*
X0046690Y0023475D02*
X0046310Y0023475D01*
X0053089Y0026470D02*
X0059400Y0026470D01*
X0058118Y0025472D02*
X0054882Y0025472D01*
X0055881Y0024473D02*
X0057119Y0024473D01*
X0056690Y0023475D02*
X0056310Y0023475D01*
X0059400Y0029466D02*
X0050218Y0029466D01*
X0051217Y0030464D02*
X0059994Y0030464D01*
X0060993Y0031463D02*
X0052215Y0031463D01*
X0055449Y0032461D02*
X0061991Y0032461D01*
X0061422Y0033460D02*
X0056150Y0033460D01*
X0056150Y0034458D02*
X0061100Y0034458D01*
X0038133Y0015487D02*
X0032431Y0015487D01*
X0033411Y0014488D02*
X0037134Y0014488D01*
X0036696Y0013490D02*
X0034361Y0013490D01*
X0035327Y0012491D02*
X0036300Y0012491D01*
X0036292Y0011493D02*
X0036300Y0011493D01*
X0046150Y0071403D02*
X0046850Y0071403D01*
X0046850Y0072402D02*
X0046150Y0072402D01*
X0046150Y0073400D02*
X0046850Y0073400D01*
X0046850Y0074399D02*
X0046150Y0074399D01*
X0046150Y0075397D02*
X0046850Y0075397D01*
X0046850Y0076396D02*
X0046150Y0076396D01*
X0046150Y0077394D02*
X0046850Y0077394D01*
X0046850Y0078393D02*
X0046150Y0078393D01*
X0046150Y0079391D02*
X0046850Y0079391D01*
X0047402Y0080390D02*
X0045598Y0080390D01*
X0037402Y0080390D02*
X0037360Y0080390D01*
X0036850Y0079391D02*
X0036361Y0079391D01*
X0036850Y0078393D02*
X0035363Y0078393D01*
X0051000Y0092000D02*
X0051000Y0096314D01*
X0051000Y0101000D01*
X0052000Y0101000D01*
X0052000Y0092000D01*
X0051000Y0092000D01*
X0051000Y0092372D02*
X0052000Y0092372D01*
X0052000Y0093370D02*
X0051000Y0093370D01*
X0051000Y0094369D02*
X0052000Y0094369D01*
X0052000Y0095368D02*
X0051000Y0095368D01*
X0051000Y0096366D02*
X0052000Y0096366D01*
X0052000Y0097365D02*
X0051000Y0097365D01*
X0051000Y0098363D02*
X0052000Y0098363D01*
X0052000Y0099362D02*
X0051000Y0099362D01*
X0051000Y0100360D02*
X0052000Y0100360D01*
X0059497Y0076396D02*
X0074295Y0076396D01*
X0073586Y0075397D02*
X0057941Y0075397D01*
X0056559Y0075397D02*
X0056150Y0075397D01*
X0056150Y0074399D02*
X0073350Y0074399D01*
X0072430Y0073400D02*
X0056150Y0073400D01*
X0056150Y0072402D02*
X0071432Y0072402D01*
X0068728Y0071403D02*
X0068272Y0071403D01*
X0062035Y0071403D02*
X0056150Y0071403D01*
X0091500Y0094000D02*
X0092000Y0093500D01*
X0096249Y0089376D02*
X0096751Y0089376D01*
X0097268Y0088378D02*
X0095732Y0088378D01*
X0094733Y0087379D02*
X0098267Y0087379D01*
X0099861Y0079391D02*
X0102524Y0079391D01*
X0108784Y0079391D02*
X0109216Y0079391D01*
X0114733Y0087379D02*
X0134950Y0087379D01*
X0134950Y0088378D02*
X0115732Y0088378D01*
X0116249Y0089376D02*
X0134950Y0089376D01*
X0134950Y0090375D02*
X0116662Y0090375D01*
X0116700Y0091373D02*
X0134950Y0091373D01*
X0134950Y0092372D02*
X0134321Y0092372D01*
X0132000Y0092372D02*
X0131000Y0092372D01*
X0131000Y0091564D02*
X0131000Y0096250D01*
X0122000Y0096250D01*
X0122000Y0091564D01*
X0122718Y0091678D01*
X0123496Y0091931D01*
X0124225Y0092303D01*
X0124888Y0092784D01*
X0125466Y0093362D01*
X0125947Y0094025D01*
X0126319Y0094754D01*
X0126500Y0095311D01*
X0126681Y0094754D01*
X0127053Y0094025D01*
X0127534Y0093362D01*
X0128112Y0092784D01*
X0128775Y0092303D01*
X0129504Y0091931D01*
X0130282Y0091678D01*
X0131000Y0091564D01*
X0131000Y0093370D02*
X0132000Y0093370D01*
X0132000Y0094369D02*
X0131000Y0094369D01*
X0131000Y0095368D02*
X0132000Y0095368D01*
X0131000Y0096366D02*
X0122000Y0096366D01*
X0122000Y0095368D02*
X0121000Y0095368D01*
X0121000Y0096250D02*
X0121000Y0091564D01*
X0120282Y0091678D01*
X0119504Y0091931D01*
X0118775Y0092303D01*
X0118112Y0092784D01*
X0117534Y0093362D01*
X0117053Y0094025D01*
X0116681Y0094754D01*
X0116428Y0095532D01*
X0116314Y0096250D01*
X0121000Y0096250D01*
X0121000Y0096366D02*
X0114200Y0096366D01*
X0114718Y0097365D02*
X0116333Y0097365D01*
X0116557Y0098363D02*
X0115717Y0098363D01*
X0116243Y0099362D02*
X0116995Y0099362D01*
X0116656Y0100360D02*
X0117756Y0100360D01*
X0116700Y0101359D02*
X0119091Y0101359D01*
X0121000Y0101359D02*
X0122000Y0101359D01*
X0122000Y0100360D02*
X0121000Y0100360D01*
X0121000Y0099362D02*
X0122000Y0099362D01*
X0122000Y0098363D02*
X0121000Y0098363D01*
X0121000Y0097365D02*
X0122000Y0097365D01*
X0125244Y0100360D02*
X0127756Y0100360D01*
X0126995Y0099362D02*
X0126005Y0099362D01*
X0126443Y0098363D02*
X0126557Y0098363D01*
X0129091Y0101359D02*
X0123909Y0101359D01*
X0131000Y0101359D02*
X0132000Y0101359D01*
X0132000Y0100360D02*
X0131000Y0100360D01*
X0131000Y0099362D02*
X0132000Y0099362D01*
X0132000Y0098363D02*
X0131000Y0098363D01*
X0131000Y0097365D02*
X0132000Y0097365D01*
X0133909Y0101359D02*
X0134950Y0101359D01*
X0134791Y0102357D02*
X0116700Y0102357D01*
X0116360Y0103356D02*
X0134365Y0103356D01*
X0133383Y0104354D02*
X0115946Y0104354D01*
X0116482Y0095368D02*
X0114986Y0095368D01*
X0115940Y0094369D02*
X0116877Y0094369D01*
X0116354Y0093370D02*
X0117528Y0093370D01*
X0116700Y0092372D02*
X0118679Y0092372D01*
X0121000Y0092372D02*
X0122000Y0092372D01*
X0122000Y0093370D02*
X0121000Y0093370D01*
X0121000Y0094369D02*
X0122000Y0094369D01*
X0124321Y0092372D02*
X0128679Y0092372D01*
X0127528Y0093370D02*
X0125472Y0093370D01*
X0126123Y0094369D02*
X0126877Y0094369D01*
D26*
X0111500Y0091500D02*
X0111500Y0101500D01*
X0101500Y0101500D02*
X0101500Y0091500D01*
X0091500Y0091500D02*
X0091500Y0094000D01*
X0091500Y0101500D01*
X0081500Y0101500D02*
X0081500Y0091500D01*
X0071500Y0091500D02*
X0071500Y0101500D01*
X0061500Y0101500D02*
X0061500Y0091500D01*
X0051500Y0091500D02*
X0051500Y0101500D01*
X0041500Y0101500D02*
X0041500Y0091500D01*
X0041500Y0021500D02*
X0041500Y0021229D01*
X0041500Y0011500D01*
X0051500Y0011500D02*
X0051500Y0021500D01*
X0061500Y0021500D02*
X0061500Y0011500D01*
X0071500Y0011500D02*
X0071500Y0021500D01*
X0081500Y0021500D02*
X0081500Y0011500D01*
X0091500Y0011500D02*
X0091500Y0021500D01*
X0101500Y0021500D02*
X0101500Y0011500D01*
X0111500Y0011500D02*
X0111500Y0021500D01*
D27*
X0118625Y0032375D03*
X0125500Y0045250D03*
X0123750Y0066500D03*
X0091500Y0046500D03*
X0080000Y0048000D03*
X0069750Y0047500D03*
X0058000Y0034000D03*
X0046000Y0052500D03*
X0025000Y0067625D03*
X0012000Y0089500D03*
X0057250Y0078250D03*
X0076250Y0074250D03*
X0078500Y0067500D03*
X0090000Y0065000D03*
X0096000Y0032500D03*
X0032750Y0017500D03*
D28*
X0041500Y0037720D02*
X0041500Y0044000D01*
X0044000Y0046500D01*
X0056500Y0046500D01*
X0059000Y0049000D01*
X0059000Y0059000D01*
X0060000Y0060000D01*
X0064500Y0060000D01*
X0072500Y0056500D02*
X0075500Y0053500D01*
X0075500Y0043096D01*
X0071000Y0039750D02*
X0053530Y0039750D01*
X0051500Y0037720D01*
X0056500Y0046500D02*
X0061096Y0046500D01*
X0064500Y0043096D01*
X0071000Y0039750D02*
X0074346Y0036404D01*
X0075500Y0036404D01*
X0079000Y0031500D02*
X0084000Y0036500D01*
X0084000Y0052400D01*
X0084000Y0056500D02*
X0091500Y0056500D01*
X0094000Y0059000D01*
X0094000Y0069000D01*
X0101500Y0076500D01*
X0105654Y0076500D01*
X0101500Y0084000D02*
X0101500Y0091500D01*
X0101500Y0084000D02*
X0084000Y0066500D01*
X0084000Y0060600D01*
X0084000Y0056500D02*
X0072500Y0056500D01*
X0071846Y0068500D02*
X0071846Y0069846D01*
X0076250Y0074250D01*
X0065154Y0068500D02*
X0044500Y0068500D01*
X0039000Y0074000D01*
X0040220Y0074000D01*
X0041500Y0075280D01*
X0037000Y0083000D02*
X0028750Y0074750D01*
X0028750Y0060096D01*
X0020404Y0060096D01*
X0019000Y0061500D01*
X0011500Y0054000D02*
X0014000Y0051500D01*
X0019000Y0051500D01*
X0026500Y0049000D02*
X0028750Y0051250D01*
X0028750Y0053404D01*
X0011500Y0054000D02*
X0011500Y0079000D01*
X0014000Y0081500D01*
X0016154Y0081500D01*
X0022846Y0081500D02*
X0022846Y0075346D01*
X0019000Y0071500D01*
X0021154Y0073654D01*
X0022846Y0081500D02*
X0025450Y0081500D01*
X0029000Y0085050D01*
X0080050Y0085050D01*
X0081500Y0086500D01*
X0081500Y0091500D01*
X0085500Y0083000D02*
X0091500Y0089000D01*
X0091500Y0091500D01*
X0085500Y0083000D02*
X0037000Y0083000D01*
X0051500Y0075280D02*
X0054470Y0078250D01*
X0057250Y0078250D01*
X0091165Y0036165D02*
X0089665Y0034665D01*
X0089000Y0034000D01*
X0081500Y0026500D01*
X0081500Y0021500D01*
X0079000Y0031500D02*
X0064000Y0031500D01*
X0061500Y0029000D01*
X0061500Y0021500D01*
X0091165Y0036165D02*
X0124148Y0036165D01*
D29*
X0124148Y0031835D02*
X0124148Y0026006D01*
X0125685Y0025250D01*
X0118375Y0025250D01*
X0111375Y0032500D01*
X0111375Y0033297D01*
X0111375Y0039203D02*
X0115203Y0039203D01*
X0121250Y0045250D01*
X0125500Y0045250D01*
X0123750Y0066500D02*
X0124000Y0066750D01*
X0124000Y0069000D01*
X0129846Y0074846D01*
X0129846Y0081250D01*
X0123154Y0081250D02*
X0121250Y0081250D01*
X0116500Y0076500D01*
X0112346Y0076500D01*
X0051500Y0037720D02*
X0051500Y0034000D01*
X0041500Y0024000D01*
X0041500Y0021500D01*
X0041500Y0021229D02*
X0029000Y0033729D01*
X0029000Y0046500D01*
X0026500Y0049000D01*
X0024000Y0051500D01*
X0019000Y0051500D01*
M02*
