G75*
%MOIN*%
%OFA0B0*%
%FSLAX25Y25*%
%IPPOS*%
%LPD*%
%AMOC8*
5,1,8,0,0,1.08239X$1,22.5*
%
%ADD10C,0.00100*%
%ADD11R,0.04000X0.03800*%
%ADD12R,0.03800X0.04000*%
%ADD13R,0.06299X0.07874*%
%ADD14R,0.04500X0.04000*%
%ADD15C,0.00661*%
%ADD16R,0.02756X0.02756*%
%ADD17R,0.03150X0.03543*%
%ADD18R,0.03150X0.02362*%
D10*
X0011500Y0013500D02*
X0031500Y0013500D01*
X0038750Y0006000D01*
X0131750Y0006000D01*
X0131895Y0006006D01*
X0132041Y0006015D01*
X0132186Y0006028D01*
X0132330Y0006045D01*
X0132474Y0006067D01*
X0132618Y0006091D01*
X0132761Y0006120D01*
X0132902Y0006153D01*
X0133043Y0006189D01*
X0133183Y0006230D01*
X0133322Y0006274D01*
X0133460Y0006322D01*
X0133596Y0006373D01*
X0133730Y0006428D01*
X0133864Y0006487D01*
X0133995Y0006550D01*
X0134125Y0006616D01*
X0134253Y0006685D01*
X0134379Y0006758D01*
X0134503Y0006834D01*
X0134625Y0006914D01*
X0134745Y0006997D01*
X0134862Y0007083D01*
X0134977Y0007172D01*
X0135090Y0007264D01*
X0135200Y0007360D01*
X0135307Y0007458D01*
X0135412Y0007559D01*
X0135514Y0007663D01*
X0135613Y0007770D01*
X0135709Y0007879D01*
X0135802Y0007991D01*
X0135892Y0008105D01*
X0135979Y0008222D01*
X0136063Y0008341D01*
X0136144Y0008462D01*
X0136221Y0008586D01*
X0136295Y0008711D01*
X0136365Y0008839D01*
X0136432Y0008968D01*
X0136495Y0009099D01*
X0136555Y0009232D01*
X0136612Y0009366D01*
X0136664Y0009502D01*
X0136713Y0009639D01*
X0136758Y0009777D01*
X0136799Y0009917D01*
X0136837Y0010058D01*
X0136871Y0010199D01*
X0136901Y0010342D01*
X0136927Y0010485D01*
X0136949Y0010629D01*
X0136967Y0010773D01*
X0136982Y0010918D01*
X0136992Y0011063D01*
X0136998Y0011209D01*
X0137001Y0011354D01*
X0137000Y0011500D01*
X0137000Y0101500D01*
X0137001Y0101500D02*
X0136997Y0101648D01*
X0136989Y0101795D01*
X0136978Y0101943D01*
X0136962Y0102090D01*
X0136943Y0102237D01*
X0136920Y0102384D01*
X0136893Y0102529D01*
X0136862Y0102674D01*
X0136827Y0102818D01*
X0136788Y0102961D01*
X0136746Y0103103D01*
X0136700Y0103243D01*
X0136650Y0103383D01*
X0136596Y0103521D01*
X0136539Y0103657D01*
X0136478Y0103792D01*
X0136413Y0103926D01*
X0136345Y0104057D01*
X0136274Y0104187D01*
X0136199Y0104315D01*
X0136120Y0104441D01*
X0136039Y0104564D01*
X0135954Y0104685D01*
X0135866Y0104805D01*
X0135775Y0104921D01*
X0135680Y0105035D01*
X0135583Y0105147D01*
X0135483Y0105256D01*
X0135380Y0105362D01*
X0135274Y0105466D01*
X0135165Y0105567D01*
X0135054Y0105664D01*
X0134940Y0105759D01*
X0134824Y0105851D01*
X0134705Y0105939D01*
X0134584Y0106025D01*
X0134461Y0106107D01*
X0134336Y0106186D01*
X0134208Y0106261D01*
X0134079Y0106333D01*
X0133947Y0106402D01*
X0133814Y0106467D01*
X0133680Y0106528D01*
X0133543Y0106586D01*
X0133405Y0106640D01*
X0133266Y0106691D01*
X0133126Y0106738D01*
X0132984Y0106781D01*
X0132841Y0106820D01*
X0132697Y0106856D01*
X0132553Y0106887D01*
X0132407Y0106915D01*
X0132261Y0106939D01*
X0132114Y0106959D01*
X0131967Y0106975D01*
X0131820Y0106987D01*
X0131672Y0106995D01*
X0131524Y0106999D01*
X0131375Y0107000D01*
X0011375Y0107000D01*
X0011229Y0106992D01*
X0011083Y0106979D01*
X0010937Y0106963D01*
X0010792Y0106943D01*
X0010647Y0106918D01*
X0010503Y0106891D01*
X0010360Y0106859D01*
X0010218Y0106823D01*
X0010077Y0106784D01*
X0009937Y0106741D01*
X0009798Y0106694D01*
X0009660Y0106643D01*
X0009524Y0106589D01*
X0009389Y0106532D01*
X0009256Y0106470D01*
X0009125Y0106405D01*
X0008995Y0106337D01*
X0008867Y0106265D01*
X0008741Y0106190D01*
X0008617Y0106112D01*
X0008496Y0106030D01*
X0008376Y0105945D01*
X0008259Y0105857D01*
X0008144Y0105766D01*
X0008032Y0105672D01*
X0007922Y0105575D01*
X0007815Y0105475D01*
X0007710Y0105372D01*
X0007609Y0105266D01*
X0007510Y0105158D01*
X0007414Y0105047D01*
X0007321Y0104934D01*
X0007231Y0104818D01*
X0007144Y0104700D01*
X0007061Y0104580D01*
X0006980Y0104457D01*
X0006903Y0104332D01*
X0006830Y0104206D01*
X0006759Y0104077D01*
X0006692Y0103946D01*
X0006629Y0103814D01*
X0006569Y0103680D01*
X0006513Y0103545D01*
X0006460Y0103408D01*
X0006411Y0103270D01*
X0006366Y0103131D01*
X0006324Y0102990D01*
X0006287Y0102849D01*
X0006253Y0102706D01*
X0006222Y0102563D01*
X0006196Y0102418D01*
X0006174Y0102273D01*
X0006155Y0102128D01*
X0006140Y0101982D01*
X0006129Y0101836D01*
X0006122Y0101690D01*
X0006119Y0101543D01*
X0006120Y0101396D01*
X0006125Y0101250D01*
X0006125Y0018750D01*
X0006124Y0018750D02*
X0006128Y0018607D01*
X0006136Y0018463D01*
X0006147Y0018320D01*
X0006162Y0018176D01*
X0006181Y0018034D01*
X0006204Y0017892D01*
X0006231Y0017750D01*
X0006262Y0017610D01*
X0006296Y0017470D01*
X0006335Y0017331D01*
X0006377Y0017194D01*
X0006422Y0017057D01*
X0006472Y0016922D01*
X0006525Y0016789D01*
X0006581Y0016656D01*
X0006642Y0016526D01*
X0006705Y0016397D01*
X0006773Y0016269D01*
X0006843Y0016144D01*
X0006917Y0016020D01*
X0006994Y0015899D01*
X0007075Y0015780D01*
X0007159Y0015663D01*
X0007245Y0015548D01*
X0007335Y0015436D01*
X0007428Y0015326D01*
X0007524Y0015219D01*
X0007623Y0015114D01*
X0007725Y0015012D01*
X0007829Y0014913D01*
X0007936Y0014817D01*
X0008045Y0014723D01*
X0008157Y0014633D01*
X0008272Y0014546D01*
X0008388Y0014462D01*
X0008507Y0014381D01*
X0008628Y0014303D01*
X0008752Y0014229D01*
X0008877Y0014158D01*
X0009004Y0014090D01*
X0009133Y0014026D01*
X0009263Y0013965D01*
X0009395Y0013908D01*
X0009529Y0013855D01*
X0009664Y0013805D01*
X0009800Y0013759D01*
X0009937Y0013716D01*
X0010076Y0013677D01*
X0010216Y0013642D01*
X0010356Y0013611D01*
X0010497Y0013584D01*
X0010639Y0013560D01*
X0010782Y0013541D01*
X0010925Y0013525D01*
X0011068Y0013513D01*
X0011212Y0013505D01*
X0011356Y0013501D01*
X0011500Y0013500D01*
D11*
X0065154Y0068500D03*
X0071846Y0068500D03*
X0105654Y0076500D03*
X0112346Y0076500D03*
X0022846Y0081500D03*
X0016154Y0081500D03*
D12*
X0028750Y0060096D03*
X0028750Y0053404D03*
X0064500Y0043096D03*
X0064500Y0036404D03*
X0075500Y0036404D03*
X0075500Y0043096D03*
D13*
X0051500Y0037720D03*
X0041500Y0037720D03*
X0041500Y0075280D03*
X0051500Y0075280D03*
D14*
X0064500Y0060000D03*
X0072500Y0056500D03*
X0064500Y0053000D03*
D15*
X0124913Y0026101D02*
X0126457Y0026101D01*
X0126457Y0024399D01*
X0124913Y0024399D01*
X0124913Y0026101D01*
X0124913Y0025059D02*
X0126457Y0025059D01*
X0126457Y0025719D02*
X0124913Y0025719D01*
X0129028Y0026101D02*
X0130572Y0026101D01*
X0130572Y0024399D01*
X0129028Y0024399D01*
X0129028Y0026101D01*
X0129028Y0025059D02*
X0130572Y0025059D01*
X0130572Y0025719D02*
X0129028Y0025719D01*
D16*
X0131352Y0031835D03*
X0131352Y0036165D03*
X0124148Y0036165D03*
X0124148Y0031835D03*
D17*
X0123154Y0081250D03*
X0129846Y0081250D03*
D18*
X0111375Y0039203D03*
X0111375Y0033297D03*
M02*
