G75*
%MOIN*%
%OFA0B0*%
%FSLAX25Y25*%
%IPPOS*%
%LPD*%
%AMOC8*
5,1,8,0,0,1.08239X$1,22.5*
%
%ADD10C,0.00100*%
%ADD11C,0.07400*%
%ADD12R,0.06425X0.06425*%
%ADD13C,0.06425*%
%ADD14C,0.09500*%
%ADD15C,0.01000*%
%ADD16C,0.02800*%
%ADD17C,0.01600*%
%ADD18C,0.01200*%
D10*
X0011500Y0013500D02*
X0031500Y0013500D01*
X0038750Y0006000D01*
X0131750Y0006000D01*
X0131895Y0006006D01*
X0132041Y0006015D01*
X0132186Y0006028D01*
X0132330Y0006045D01*
X0132474Y0006067D01*
X0132618Y0006091D01*
X0132761Y0006120D01*
X0132902Y0006153D01*
X0133043Y0006189D01*
X0133183Y0006230D01*
X0133322Y0006274D01*
X0133460Y0006322D01*
X0133596Y0006373D01*
X0133730Y0006428D01*
X0133864Y0006487D01*
X0133995Y0006550D01*
X0134125Y0006616D01*
X0134253Y0006685D01*
X0134379Y0006758D01*
X0134503Y0006834D01*
X0134625Y0006914D01*
X0134745Y0006997D01*
X0134862Y0007083D01*
X0134977Y0007172D01*
X0135090Y0007264D01*
X0135200Y0007360D01*
X0135307Y0007458D01*
X0135412Y0007559D01*
X0135514Y0007663D01*
X0135613Y0007770D01*
X0135709Y0007879D01*
X0135802Y0007991D01*
X0135892Y0008105D01*
X0135979Y0008222D01*
X0136063Y0008341D01*
X0136144Y0008462D01*
X0136221Y0008586D01*
X0136295Y0008711D01*
X0136365Y0008839D01*
X0136432Y0008968D01*
X0136495Y0009099D01*
X0136555Y0009232D01*
X0136612Y0009366D01*
X0136664Y0009502D01*
X0136713Y0009639D01*
X0136758Y0009777D01*
X0136799Y0009917D01*
X0136837Y0010058D01*
X0136871Y0010199D01*
X0136901Y0010342D01*
X0136927Y0010485D01*
X0136949Y0010629D01*
X0136967Y0010773D01*
X0136982Y0010918D01*
X0136992Y0011063D01*
X0136998Y0011209D01*
X0137001Y0011354D01*
X0137000Y0011500D01*
X0137000Y0101500D01*
X0137001Y0101500D02*
X0136997Y0101648D01*
X0136989Y0101795D01*
X0136978Y0101943D01*
X0136962Y0102090D01*
X0136943Y0102237D01*
X0136920Y0102384D01*
X0136893Y0102529D01*
X0136862Y0102674D01*
X0136827Y0102818D01*
X0136788Y0102961D01*
X0136746Y0103103D01*
X0136700Y0103243D01*
X0136650Y0103383D01*
X0136596Y0103521D01*
X0136539Y0103657D01*
X0136478Y0103792D01*
X0136413Y0103926D01*
X0136345Y0104057D01*
X0136274Y0104187D01*
X0136199Y0104315D01*
X0136120Y0104441D01*
X0136039Y0104564D01*
X0135954Y0104685D01*
X0135866Y0104805D01*
X0135775Y0104921D01*
X0135680Y0105035D01*
X0135583Y0105147D01*
X0135483Y0105256D01*
X0135380Y0105362D01*
X0135274Y0105466D01*
X0135165Y0105567D01*
X0135054Y0105664D01*
X0134940Y0105759D01*
X0134824Y0105851D01*
X0134705Y0105939D01*
X0134584Y0106025D01*
X0134461Y0106107D01*
X0134336Y0106186D01*
X0134208Y0106261D01*
X0134079Y0106333D01*
X0133947Y0106402D01*
X0133814Y0106467D01*
X0133680Y0106528D01*
X0133543Y0106586D01*
X0133405Y0106640D01*
X0133266Y0106691D01*
X0133126Y0106738D01*
X0132984Y0106781D01*
X0132841Y0106820D01*
X0132697Y0106856D01*
X0132553Y0106887D01*
X0132407Y0106915D01*
X0132261Y0106939D01*
X0132114Y0106959D01*
X0131967Y0106975D01*
X0131820Y0106987D01*
X0131672Y0106995D01*
X0131524Y0106999D01*
X0131375Y0107000D01*
X0011375Y0107000D01*
X0011229Y0106992D01*
X0011083Y0106979D01*
X0010937Y0106963D01*
X0010792Y0106943D01*
X0010647Y0106918D01*
X0010503Y0106891D01*
X0010360Y0106859D01*
X0010218Y0106823D01*
X0010077Y0106784D01*
X0009937Y0106741D01*
X0009798Y0106694D01*
X0009660Y0106643D01*
X0009524Y0106589D01*
X0009389Y0106532D01*
X0009256Y0106470D01*
X0009125Y0106405D01*
X0008995Y0106337D01*
X0008867Y0106265D01*
X0008741Y0106190D01*
X0008617Y0106112D01*
X0008496Y0106030D01*
X0008376Y0105945D01*
X0008259Y0105857D01*
X0008144Y0105766D01*
X0008032Y0105672D01*
X0007922Y0105575D01*
X0007815Y0105475D01*
X0007710Y0105372D01*
X0007609Y0105266D01*
X0007510Y0105158D01*
X0007414Y0105047D01*
X0007321Y0104934D01*
X0007231Y0104818D01*
X0007144Y0104700D01*
X0007061Y0104580D01*
X0006980Y0104457D01*
X0006903Y0104332D01*
X0006830Y0104206D01*
X0006759Y0104077D01*
X0006692Y0103946D01*
X0006629Y0103814D01*
X0006569Y0103680D01*
X0006513Y0103545D01*
X0006460Y0103408D01*
X0006411Y0103270D01*
X0006366Y0103131D01*
X0006324Y0102990D01*
X0006287Y0102849D01*
X0006253Y0102706D01*
X0006222Y0102563D01*
X0006196Y0102418D01*
X0006174Y0102273D01*
X0006155Y0102128D01*
X0006140Y0101982D01*
X0006129Y0101836D01*
X0006122Y0101690D01*
X0006119Y0101543D01*
X0006120Y0101396D01*
X0006125Y0101250D01*
X0006125Y0018750D01*
X0006124Y0018750D02*
X0006128Y0018607D01*
X0006136Y0018463D01*
X0006147Y0018320D01*
X0006162Y0018176D01*
X0006181Y0018034D01*
X0006204Y0017892D01*
X0006231Y0017750D01*
X0006262Y0017610D01*
X0006296Y0017470D01*
X0006335Y0017331D01*
X0006377Y0017194D01*
X0006422Y0017057D01*
X0006472Y0016922D01*
X0006525Y0016789D01*
X0006581Y0016656D01*
X0006642Y0016526D01*
X0006705Y0016397D01*
X0006773Y0016269D01*
X0006843Y0016144D01*
X0006917Y0016020D01*
X0006994Y0015899D01*
X0007075Y0015780D01*
X0007159Y0015663D01*
X0007245Y0015548D01*
X0007335Y0015436D01*
X0007428Y0015326D01*
X0007524Y0015219D01*
X0007623Y0015114D01*
X0007725Y0015012D01*
X0007829Y0014913D01*
X0007936Y0014817D01*
X0008045Y0014723D01*
X0008157Y0014633D01*
X0008272Y0014546D01*
X0008388Y0014462D01*
X0008507Y0014381D01*
X0008628Y0014303D01*
X0008752Y0014229D01*
X0008877Y0014158D01*
X0009004Y0014090D01*
X0009133Y0014026D01*
X0009263Y0013965D01*
X0009395Y0013908D01*
X0009529Y0013855D01*
X0009664Y0013805D01*
X0009800Y0013759D01*
X0009937Y0013716D01*
X0010076Y0013677D01*
X0010216Y0013642D01*
X0010356Y0013611D01*
X0010497Y0013584D01*
X0010639Y0013560D01*
X0010782Y0013541D01*
X0010925Y0013525D01*
X0011068Y0013513D01*
X0011212Y0013505D01*
X0011356Y0013501D01*
X0011500Y0013500D01*
D11*
X0041500Y0011500D03*
X0051500Y0011500D03*
X0061500Y0011500D03*
X0071500Y0011500D03*
X0081500Y0011500D03*
X0091500Y0011500D03*
X0101500Y0011500D03*
X0111500Y0011500D03*
X0121500Y0016250D03*
X0131500Y0016250D03*
X0111500Y0021500D03*
X0101500Y0021500D03*
X0091500Y0021500D03*
X0081500Y0021500D03*
X0071500Y0021500D03*
X0061500Y0021500D03*
X0051500Y0021500D03*
X0041500Y0021500D03*
X0041500Y0091500D03*
X0051500Y0091500D03*
X0061500Y0091500D03*
X0071500Y0091500D03*
X0081500Y0091500D03*
X0091500Y0091500D03*
X0101500Y0091500D03*
X0111500Y0091500D03*
X0121500Y0096750D03*
X0131500Y0096750D03*
X0111500Y0101500D03*
X0101500Y0101500D03*
X0091500Y0101500D03*
X0081500Y0101500D03*
X0071500Y0101500D03*
X0061500Y0101500D03*
X0051500Y0101500D03*
X0041500Y0101500D03*
D12*
X0019000Y0041500D03*
D13*
X0019000Y0051500D03*
X0019000Y0061500D03*
X0019000Y0071500D03*
D14*
X0109000Y0063587D03*
X0109000Y0049807D03*
D15*
X0114370Y0046440D02*
X0115688Y0046440D01*
X0114784Y0047439D02*
X0116686Y0047439D01*
X0117685Y0048437D02*
X0115198Y0048437D01*
X0115250Y0048564D02*
X0115250Y0051050D01*
X0114298Y0053347D01*
X0112540Y0055106D01*
X0110243Y0056057D01*
X0107757Y0056057D01*
X0105460Y0055106D01*
X0103702Y0053347D01*
X0103105Y0051907D01*
X0099063Y0051907D01*
X0098600Y0052370D01*
X0098600Y0072370D01*
X0097370Y0073600D01*
X0094820Y0076150D01*
X0101380Y0076150D01*
X0106900Y0070630D01*
X0106900Y0069482D01*
X0105460Y0068885D01*
X0103702Y0067127D01*
X0102750Y0064830D01*
X0102750Y0062343D01*
X0103702Y0060046D01*
X0105460Y0058288D01*
X0107757Y0057337D01*
X0110243Y0057337D01*
X0112540Y0058288D01*
X0114298Y0060046D01*
X0115250Y0062343D01*
X0115250Y0064830D01*
X0114298Y0067127D01*
X0112540Y0068885D01*
X0111100Y0069482D01*
X0111100Y0072370D01*
X0109870Y0073600D01*
X0103120Y0080350D01*
X0059251Y0080350D01*
X0058893Y0080708D01*
X0057827Y0081150D01*
X0056673Y0081150D01*
X0055607Y0080708D01*
X0054791Y0079893D01*
X0054350Y0078827D01*
X0054350Y0077673D01*
X0054791Y0076607D01*
X0055607Y0075791D01*
X0056673Y0075350D01*
X0057827Y0075350D01*
X0058893Y0075791D01*
X0059251Y0076150D01*
X0074049Y0076150D01*
X0073791Y0075893D01*
X0073350Y0074827D01*
X0073350Y0073673D01*
X0073791Y0072607D01*
X0074607Y0071791D01*
X0075673Y0071350D01*
X0076827Y0071350D01*
X0077893Y0071791D01*
X0078251Y0072150D01*
X0092880Y0072150D01*
X0094400Y0070630D01*
X0094400Y0050630D01*
X0096093Y0048937D01*
X0097323Y0047707D01*
X0103105Y0047707D01*
X0103702Y0046267D01*
X0105460Y0044509D01*
X0107757Y0043557D01*
X0110243Y0043557D01*
X0112540Y0044509D01*
X0114298Y0046267D01*
X0115250Y0048564D01*
X0115250Y0049436D02*
X0118683Y0049436D01*
X0119682Y0050434D02*
X0115250Y0050434D01*
X0115091Y0051433D02*
X0120680Y0051433D01*
X0121450Y0052203D02*
X0100547Y0031300D01*
X0044953Y0031300D01*
X0043047Y0031300D01*
X0040547Y0028800D01*
X0039200Y0027453D01*
X0039200Y0026176D01*
X0038554Y0025908D01*
X0037092Y0024446D01*
X0036300Y0022534D01*
X0036300Y0020466D01*
X0037092Y0018554D01*
X0038554Y0017092D01*
X0039983Y0016500D01*
X0038554Y0015908D01*
X0037092Y0014446D01*
X0036300Y0012534D01*
X0036300Y0011484D01*
X0033550Y0014329D01*
X0033550Y0014349D01*
X0032961Y0014938D01*
X0032384Y0015535D01*
X0032363Y0015536D01*
X0032349Y0015550D01*
X0031517Y0015550D01*
X0030686Y0015564D01*
X0030671Y0015550D01*
X0012335Y0015550D01*
X0012325Y0015560D01*
X0011488Y0015550D01*
X0011474Y0015550D01*
X0010839Y0015605D01*
X0009657Y0016078D01*
X0008746Y0016968D01*
X0008245Y0018138D01*
X0008175Y0018773D01*
X0008175Y0100455D01*
X0008211Y0100495D01*
X0008175Y0101297D01*
X0008175Y0101383D01*
X0008209Y0102020D01*
X0008667Y0103287D01*
X0009577Y0104283D01*
X0010798Y0104855D01*
X0011453Y0104950D01*
X0037596Y0104950D01*
X0037092Y0104446D01*
X0036300Y0102534D01*
X0036300Y0100466D01*
X0037092Y0098554D01*
X0038554Y0097092D01*
X0039983Y0096500D01*
X0038554Y0095908D01*
X0037092Y0094446D01*
X0036300Y0092534D01*
X0036300Y0090466D01*
X0037092Y0088554D01*
X0038554Y0087092D01*
X0040466Y0086300D01*
X0040947Y0086300D01*
X0044200Y0083047D01*
X0045547Y0081700D01*
X0115547Y0081700D01*
X0126700Y0070547D01*
X0126700Y0049953D01*
X0124879Y0048132D01*
X0123857Y0047708D01*
X0123041Y0046893D01*
X0122600Y0045827D01*
X0122600Y0044673D01*
X0123041Y0043607D01*
X0123857Y0042791D01*
X0124923Y0042350D01*
X0126077Y0042350D01*
X0126700Y0042608D01*
X0126700Y0018250D01*
X0126500Y0017767D01*
X0125908Y0019196D01*
X0124446Y0020658D01*
X0123800Y0020926D01*
X0123800Y0022453D01*
X0116300Y0029953D01*
X0114953Y0031300D01*
X0107053Y0031300D01*
X0126050Y0050297D01*
X0126050Y0064699D01*
X0126208Y0064857D01*
X0126650Y0065923D01*
X0126650Y0067077D01*
X0126208Y0068143D01*
X0125393Y0068958D01*
X0124327Y0069400D01*
X0123173Y0069400D01*
X0122107Y0068958D01*
X0121291Y0068143D01*
X0120850Y0067077D01*
X0120850Y0065923D01*
X0121291Y0064857D01*
X0121450Y0064699D01*
X0121450Y0052203D01*
X0121450Y0052432D02*
X0114678Y0052432D01*
X0114216Y0053430D02*
X0121450Y0053430D01*
X0121450Y0054429D02*
X0113217Y0054429D01*
X0111764Y0055427D02*
X0121450Y0055427D01*
X0121450Y0056426D02*
X0098600Y0056426D01*
X0098600Y0057424D02*
X0107546Y0057424D01*
X0106236Y0055427D02*
X0098600Y0055427D01*
X0098600Y0054429D02*
X0104783Y0054429D01*
X0103784Y0053430D02*
X0098600Y0053430D01*
X0098600Y0052432D02*
X0103322Y0052432D01*
X0103216Y0047439D02*
X0021510Y0047439D01*
X0021669Y0047505D02*
X0022995Y0048831D01*
X0023713Y0050563D01*
X0023713Y0052437D01*
X0022995Y0054169D01*
X0021669Y0055495D01*
X0019937Y0056213D01*
X0018063Y0056213D01*
X0016331Y0055495D01*
X0015005Y0054169D01*
X0014287Y0052437D01*
X0014287Y0050563D01*
X0015005Y0048831D01*
X0016331Y0047505D01*
X0018063Y0046787D01*
X0019937Y0046787D01*
X0021669Y0047505D01*
X0022602Y0048437D02*
X0096593Y0048437D01*
X0095594Y0049436D02*
X0023246Y0049436D01*
X0023660Y0050434D02*
X0094596Y0050434D01*
X0094400Y0051433D02*
X0023713Y0051433D01*
X0023713Y0052432D02*
X0094400Y0052432D01*
X0094400Y0053430D02*
X0023301Y0053430D01*
X0022736Y0054429D02*
X0094400Y0054429D01*
X0094400Y0055427D02*
X0021738Y0055427D01*
X0021474Y0057424D02*
X0094400Y0057424D01*
X0094400Y0056426D02*
X0008175Y0056426D01*
X0008175Y0057424D02*
X0016526Y0057424D01*
X0016331Y0057505D02*
X0018063Y0056787D01*
X0019937Y0056787D01*
X0021669Y0057505D01*
X0022995Y0058831D01*
X0023713Y0060563D01*
X0023713Y0062437D01*
X0022995Y0064169D01*
X0021669Y0065495D01*
X0019937Y0066213D01*
X0018063Y0066213D01*
X0016331Y0065495D01*
X0015005Y0064169D01*
X0014287Y0062437D01*
X0014287Y0060563D01*
X0015005Y0058831D01*
X0016331Y0057505D01*
X0015413Y0058423D02*
X0008175Y0058423D01*
X0008175Y0059421D02*
X0014760Y0059421D01*
X0014347Y0060420D02*
X0008175Y0060420D01*
X0008175Y0061418D02*
X0014287Y0061418D01*
X0014287Y0062417D02*
X0008175Y0062417D01*
X0008175Y0063415D02*
X0014692Y0063415D01*
X0015249Y0064414D02*
X0008175Y0064414D01*
X0008175Y0065412D02*
X0016248Y0065412D01*
X0016561Y0067409D02*
X0008175Y0067409D01*
X0008175Y0066411D02*
X0094400Y0066411D01*
X0094400Y0067409D02*
X0021439Y0067409D01*
X0021669Y0067505D02*
X0019937Y0066787D01*
X0018063Y0066787D01*
X0016331Y0067505D01*
X0015005Y0068831D01*
X0014287Y0070563D01*
X0014287Y0072437D01*
X0015005Y0074169D01*
X0016331Y0075495D01*
X0018063Y0076213D01*
X0019937Y0076213D01*
X0021669Y0075495D01*
X0022995Y0074169D01*
X0023713Y0072437D01*
X0023713Y0070563D01*
X0022995Y0068831D01*
X0021669Y0067505D01*
X0022572Y0068408D02*
X0094400Y0068408D01*
X0094400Y0069406D02*
X0023234Y0069406D01*
X0023647Y0070405D02*
X0094400Y0070405D01*
X0093627Y0071403D02*
X0076955Y0071403D01*
X0075545Y0071403D02*
X0023713Y0071403D01*
X0023713Y0072402D02*
X0073997Y0072402D01*
X0073463Y0073400D02*
X0023314Y0073400D01*
X0022766Y0074399D02*
X0073350Y0074399D01*
X0073586Y0075397D02*
X0057941Y0075397D01*
X0056559Y0075397D02*
X0021767Y0075397D01*
X0016233Y0075397D02*
X0008175Y0075397D01*
X0008175Y0074399D02*
X0015234Y0074399D01*
X0014686Y0073400D02*
X0008175Y0073400D01*
X0008175Y0072402D02*
X0014287Y0072402D01*
X0014287Y0071403D02*
X0008175Y0071403D01*
X0008175Y0070405D02*
X0014353Y0070405D01*
X0014766Y0069406D02*
X0008175Y0069406D01*
X0008175Y0068408D02*
X0015428Y0068408D01*
X0021752Y0065412D02*
X0094400Y0065412D01*
X0094400Y0064414D02*
X0022751Y0064414D01*
X0023308Y0063415D02*
X0094400Y0063415D01*
X0094400Y0062417D02*
X0023713Y0062417D01*
X0023713Y0061418D02*
X0094400Y0061418D01*
X0094400Y0060420D02*
X0023653Y0060420D01*
X0023240Y0059421D02*
X0094400Y0059421D01*
X0094400Y0058423D02*
X0022587Y0058423D01*
X0016262Y0055427D02*
X0008175Y0055427D01*
X0008175Y0054429D02*
X0015264Y0054429D01*
X0014699Y0053430D02*
X0008175Y0053430D01*
X0008175Y0052432D02*
X0014287Y0052432D01*
X0014287Y0051433D02*
X0008175Y0051433D01*
X0008175Y0050434D02*
X0014340Y0050434D01*
X0014754Y0049436D02*
X0008175Y0049436D01*
X0008175Y0048437D02*
X0015398Y0048437D01*
X0016490Y0047439D02*
X0008175Y0047439D01*
X0008175Y0046440D02*
X0103630Y0046440D01*
X0104526Y0045442D02*
X0023524Y0045442D01*
X0023610Y0045292D02*
X0023413Y0045634D01*
X0023134Y0045913D01*
X0022792Y0046110D01*
X0022410Y0046213D01*
X0019500Y0046213D01*
X0019500Y0042000D01*
X0018500Y0042000D01*
X0018500Y0046213D01*
X0015590Y0046213D01*
X0015208Y0046110D01*
X0014866Y0045913D01*
X0014587Y0045634D01*
X0014390Y0045292D01*
X0014287Y0044910D01*
X0014287Y0042000D01*
X0018500Y0042000D01*
X0018500Y0041000D01*
X0019500Y0041000D01*
X0019500Y0042000D01*
X0023713Y0042000D01*
X0023713Y0044910D01*
X0023610Y0045292D01*
X0023713Y0044443D02*
X0105617Y0044443D01*
X0109697Y0040449D02*
X0023713Y0040449D01*
X0023713Y0041000D02*
X0019500Y0041000D01*
X0019500Y0036787D01*
X0022410Y0036787D01*
X0022792Y0036890D01*
X0023134Y0037087D01*
X0023413Y0037366D01*
X0023610Y0037708D01*
X0023713Y0038090D01*
X0023713Y0041000D01*
X0023713Y0042446D02*
X0111694Y0042446D01*
X0110695Y0041448D02*
X0019500Y0041448D01*
X0019500Y0042446D02*
X0018500Y0042446D01*
X0018500Y0041448D02*
X0008175Y0041448D01*
X0008175Y0042446D02*
X0014287Y0042446D01*
X0014287Y0043445D02*
X0008175Y0043445D01*
X0008175Y0044443D02*
X0014287Y0044443D01*
X0014476Y0045442D02*
X0008175Y0045442D01*
X0014287Y0041000D02*
X0014287Y0038090D01*
X0014390Y0037708D01*
X0014587Y0037366D01*
X0014866Y0037087D01*
X0015208Y0036890D01*
X0015590Y0036787D01*
X0018500Y0036787D01*
X0018500Y0041000D01*
X0014287Y0041000D01*
X0014287Y0040449D02*
X0008175Y0040449D01*
X0008175Y0039451D02*
X0014287Y0039451D01*
X0014287Y0038452D02*
X0008175Y0038452D01*
X0008175Y0037454D02*
X0014537Y0037454D01*
X0018500Y0037454D02*
X0019500Y0037454D01*
X0019500Y0038452D02*
X0018500Y0038452D01*
X0018500Y0039451D02*
X0019500Y0039451D01*
X0019500Y0040449D02*
X0018500Y0040449D01*
X0018500Y0043445D02*
X0019500Y0043445D01*
X0019500Y0044443D02*
X0018500Y0044443D01*
X0018500Y0045442D02*
X0019500Y0045442D01*
X0023713Y0043445D02*
X0112692Y0043445D01*
X0112383Y0044443D02*
X0113691Y0044443D01*
X0113474Y0045442D02*
X0114689Y0045442D01*
X0118199Y0042446D02*
X0124690Y0042446D01*
X0126310Y0042446D02*
X0126700Y0042446D01*
X0126700Y0041448D02*
X0117201Y0041448D01*
X0116202Y0040449D02*
X0126700Y0040449D01*
X0126700Y0039451D02*
X0115204Y0039451D01*
X0114205Y0038452D02*
X0126700Y0038452D01*
X0126700Y0037454D02*
X0113207Y0037454D01*
X0112208Y0036455D02*
X0126700Y0036455D01*
X0126700Y0035457D02*
X0111209Y0035457D01*
X0110211Y0034458D02*
X0126700Y0034458D01*
X0126700Y0033460D02*
X0109212Y0033460D01*
X0108214Y0032461D02*
X0126700Y0032461D01*
X0126700Y0031463D02*
X0107215Y0031463D01*
X0103706Y0034458D02*
X0008175Y0034458D01*
X0008175Y0033460D02*
X0102707Y0033460D01*
X0101709Y0032461D02*
X0008175Y0032461D01*
X0008175Y0031463D02*
X0100710Y0031463D01*
X0104704Y0035457D02*
X0008175Y0035457D01*
X0008175Y0036455D02*
X0105703Y0036455D01*
X0106701Y0037454D02*
X0023463Y0037454D01*
X0023713Y0038452D02*
X0107700Y0038452D01*
X0108698Y0039451D02*
X0023713Y0039451D01*
X0008175Y0030464D02*
X0042212Y0030464D01*
X0041213Y0029466D02*
X0008175Y0029466D01*
X0008175Y0028467D02*
X0040215Y0028467D01*
X0039216Y0027469D02*
X0008175Y0027469D01*
X0008175Y0026470D02*
X0039200Y0026470D01*
X0038118Y0025472D02*
X0008175Y0025472D01*
X0008175Y0024473D02*
X0037119Y0024473D01*
X0036690Y0023475D02*
X0008175Y0023475D01*
X0008175Y0022476D02*
X0036300Y0022476D01*
X0036300Y0021478D02*
X0008175Y0021478D01*
X0008175Y0020479D02*
X0036300Y0020479D01*
X0036708Y0019481D02*
X0008175Y0019481D01*
X0008207Y0018482D02*
X0037164Y0018482D01*
X0038162Y0017484D02*
X0008525Y0017484D01*
X0009240Y0016485D02*
X0039947Y0016485D01*
X0038133Y0015487D02*
X0032431Y0015487D01*
X0033411Y0014488D02*
X0037134Y0014488D01*
X0036696Y0013490D02*
X0034361Y0013490D01*
X0035327Y0012491D02*
X0036300Y0012491D01*
X0036292Y0011493D02*
X0036300Y0011493D01*
X0098600Y0058423D02*
X0105325Y0058423D01*
X0104327Y0059421D02*
X0098600Y0059421D01*
X0098600Y0060420D02*
X0103547Y0060420D01*
X0103133Y0061418D02*
X0098600Y0061418D01*
X0098600Y0062417D02*
X0102750Y0062417D01*
X0102750Y0063415D02*
X0098600Y0063415D01*
X0098600Y0064414D02*
X0102750Y0064414D01*
X0102991Y0065412D02*
X0098600Y0065412D01*
X0098600Y0066411D02*
X0103405Y0066411D01*
X0103984Y0067409D02*
X0098600Y0067409D01*
X0098600Y0068408D02*
X0104982Y0068408D01*
X0106718Y0069406D02*
X0098600Y0069406D01*
X0098600Y0070405D02*
X0106900Y0070405D01*
X0106127Y0071403D02*
X0098600Y0071403D01*
X0098568Y0072402D02*
X0105128Y0072402D01*
X0104130Y0073400D02*
X0097570Y0073400D01*
X0096571Y0074399D02*
X0103131Y0074399D01*
X0102133Y0075397D02*
X0095573Y0075397D01*
X0104079Y0079391D02*
X0117856Y0079391D01*
X0118855Y0078393D02*
X0105077Y0078393D01*
X0106076Y0077394D02*
X0119853Y0077394D01*
X0120852Y0076396D02*
X0107074Y0076396D01*
X0108073Y0075397D02*
X0121850Y0075397D01*
X0122849Y0074399D02*
X0109071Y0074399D01*
X0110070Y0073400D02*
X0123847Y0073400D01*
X0124846Y0072402D02*
X0111068Y0072402D01*
X0111100Y0071403D02*
X0125844Y0071403D01*
X0126700Y0070405D02*
X0111100Y0070405D01*
X0111282Y0069406D02*
X0126700Y0069406D01*
X0126700Y0068408D02*
X0125944Y0068408D01*
X0126512Y0067409D02*
X0126700Y0067409D01*
X0126700Y0066411D02*
X0126650Y0066411D01*
X0126700Y0065412D02*
X0126438Y0065412D01*
X0126700Y0064414D02*
X0126050Y0064414D01*
X0126050Y0063415D02*
X0126700Y0063415D01*
X0126700Y0062417D02*
X0126050Y0062417D01*
X0126050Y0061418D02*
X0126700Y0061418D01*
X0126700Y0060420D02*
X0126050Y0060420D01*
X0126050Y0059421D02*
X0126700Y0059421D01*
X0126700Y0058423D02*
X0126050Y0058423D01*
X0126050Y0057424D02*
X0126700Y0057424D01*
X0126700Y0056426D02*
X0126050Y0056426D01*
X0126050Y0055427D02*
X0126700Y0055427D01*
X0126700Y0054429D02*
X0126050Y0054429D01*
X0126050Y0053430D02*
X0126700Y0053430D01*
X0126700Y0052432D02*
X0126050Y0052432D01*
X0126050Y0051433D02*
X0126700Y0051433D01*
X0126700Y0050434D02*
X0126050Y0050434D01*
X0126183Y0049436D02*
X0125189Y0049436D01*
X0125185Y0048437D02*
X0124190Y0048437D01*
X0123588Y0047439D02*
X0123192Y0047439D01*
X0122854Y0046440D02*
X0122193Y0046440D01*
X0122600Y0045442D02*
X0121195Y0045442D01*
X0120196Y0044443D02*
X0122695Y0044443D01*
X0123204Y0043445D02*
X0119198Y0043445D01*
X0131300Y0043445D02*
X0134950Y0043445D01*
X0134950Y0044443D02*
X0131300Y0044443D01*
X0131300Y0045442D02*
X0134950Y0045442D01*
X0134950Y0046440D02*
X0131300Y0046440D01*
X0131300Y0047439D02*
X0134950Y0047439D01*
X0134950Y0048437D02*
X0131300Y0048437D01*
X0131300Y0049436D02*
X0134950Y0049436D01*
X0134950Y0050434D02*
X0131300Y0050434D01*
X0131300Y0049953D02*
X0131300Y0072453D01*
X0129953Y0073800D01*
X0129953Y0073800D01*
X0118800Y0084953D01*
X0117453Y0086300D01*
X0047453Y0086300D01*
X0045553Y0088199D01*
X0045908Y0088554D01*
X0046514Y0090017D01*
X0046681Y0089504D01*
X0047053Y0088775D01*
X0047534Y0088112D01*
X0048112Y0087534D01*
X0048775Y0087053D01*
X0049504Y0086681D01*
X0050282Y0086428D01*
X0051000Y0086314D01*
X0051000Y0091000D01*
X0052000Y0091000D01*
X0052000Y0086314D01*
X0052718Y0086428D01*
X0053496Y0086681D01*
X0054225Y0087053D01*
X0054888Y0087534D01*
X0055466Y0088112D01*
X0055947Y0088775D01*
X0056319Y0089504D01*
X0056486Y0090017D01*
X0057092Y0088554D01*
X0058554Y0087092D01*
X0060466Y0086300D01*
X0062534Y0086300D01*
X0064446Y0087092D01*
X0065908Y0088554D01*
X0066500Y0089983D01*
X0067092Y0088554D01*
X0068554Y0087092D01*
X0070466Y0086300D01*
X0072534Y0086300D01*
X0074446Y0087092D01*
X0075908Y0088554D01*
X0076500Y0089983D01*
X0077092Y0088554D01*
X0078554Y0087092D01*
X0080466Y0086300D01*
X0082534Y0086300D01*
X0084446Y0087092D01*
X0085908Y0088554D01*
X0086500Y0089983D01*
X0087092Y0088554D01*
X0088554Y0087092D01*
X0090466Y0086300D01*
X0092534Y0086300D01*
X0094446Y0087092D01*
X0095908Y0088554D01*
X0096500Y0089983D01*
X0097092Y0088554D01*
X0098554Y0087092D01*
X0100466Y0086300D01*
X0102534Y0086300D01*
X0104446Y0087092D01*
X0105908Y0088554D01*
X0106500Y0089983D01*
X0107092Y0088554D01*
X0108554Y0087092D01*
X0110466Y0086300D01*
X0112534Y0086300D01*
X0114446Y0087092D01*
X0115908Y0088554D01*
X0116700Y0090466D01*
X0116700Y0092534D01*
X0115908Y0094446D01*
X0114446Y0095908D01*
X0113017Y0096500D01*
X0114446Y0097092D01*
X0115908Y0098554D01*
X0116700Y0100466D01*
X0116700Y0102534D01*
X0115908Y0104446D01*
X0115404Y0104950D01*
X0130539Y0104950D01*
X0130549Y0104941D01*
X0131386Y0104950D01*
X0131400Y0104950D01*
X0132084Y0104890D01*
X0133356Y0104380D01*
X0134336Y0103422D01*
X0134875Y0102161D01*
X0134950Y0101478D01*
X0134950Y0100654D01*
X0134888Y0100716D01*
X0134225Y0101197D01*
X0133496Y0101569D01*
X0132718Y0101822D01*
X0132000Y0101936D01*
X0132000Y0097250D01*
X0131000Y0097250D01*
X0131000Y0101936D01*
X0130282Y0101822D01*
X0129504Y0101569D01*
X0128775Y0101197D01*
X0128112Y0100716D01*
X0127534Y0100138D01*
X0127053Y0099475D01*
X0126681Y0098746D01*
X0126500Y0098189D01*
X0126319Y0098746D01*
X0125947Y0099475D01*
X0125466Y0100138D01*
X0124888Y0100716D01*
X0124225Y0101197D01*
X0123496Y0101569D01*
X0122718Y0101822D01*
X0122000Y0101936D01*
X0122000Y0097250D01*
X0126686Y0097250D01*
X0131000Y0097250D01*
X0131000Y0096250D01*
X0122000Y0096250D01*
X0122000Y0097250D01*
X0121000Y0097250D01*
X0121000Y0101936D01*
X0120282Y0101822D01*
X0119504Y0101569D01*
X0118775Y0101197D01*
X0118112Y0100716D01*
X0117534Y0100138D01*
X0117053Y0099475D01*
X0116681Y0098746D01*
X0116428Y0097968D01*
X0116314Y0097250D01*
X0121000Y0097250D01*
X0121000Y0096250D01*
X0122000Y0096250D01*
X0122000Y0091564D01*
X0122718Y0091678D01*
X0123496Y0091931D01*
X0124225Y0092303D01*
X0124888Y0092784D01*
X0125466Y0093362D01*
X0125947Y0094025D01*
X0126319Y0094754D01*
X0126500Y0095311D01*
X0126681Y0094754D01*
X0127053Y0094025D01*
X0127534Y0093362D01*
X0128112Y0092784D01*
X0128775Y0092303D01*
X0129504Y0091931D01*
X0130282Y0091678D01*
X0131000Y0091564D01*
X0131000Y0096250D01*
X0132000Y0096250D01*
X0132000Y0091564D01*
X0132718Y0091678D01*
X0133496Y0091931D01*
X0134225Y0092303D01*
X0134888Y0092784D01*
X0134950Y0092846D01*
X0134950Y0020154D01*
X0134446Y0020658D01*
X0132534Y0021450D01*
X0131300Y0021450D01*
X0131300Y0049953D01*
X0131300Y0051433D02*
X0134950Y0051433D01*
X0134950Y0052432D02*
X0131300Y0052432D01*
X0131300Y0053430D02*
X0134950Y0053430D01*
X0134950Y0054429D02*
X0131300Y0054429D01*
X0131300Y0055427D02*
X0134950Y0055427D01*
X0134950Y0056426D02*
X0131300Y0056426D01*
X0131300Y0057424D02*
X0134950Y0057424D01*
X0134950Y0058423D02*
X0131300Y0058423D01*
X0131300Y0059421D02*
X0134950Y0059421D01*
X0134950Y0060420D02*
X0131300Y0060420D01*
X0131300Y0061418D02*
X0134950Y0061418D01*
X0134950Y0062417D02*
X0131300Y0062417D01*
X0131300Y0063415D02*
X0134950Y0063415D01*
X0134950Y0064414D02*
X0131300Y0064414D01*
X0131300Y0065412D02*
X0134950Y0065412D01*
X0134950Y0066411D02*
X0131300Y0066411D01*
X0131300Y0067409D02*
X0134950Y0067409D01*
X0134950Y0068408D02*
X0131300Y0068408D01*
X0131300Y0069406D02*
X0134950Y0069406D01*
X0134950Y0070405D02*
X0131300Y0070405D01*
X0131300Y0071403D02*
X0134950Y0071403D01*
X0134950Y0072402D02*
X0131300Y0072402D01*
X0130352Y0073400D02*
X0134950Y0073400D01*
X0134950Y0074399D02*
X0129354Y0074399D01*
X0128355Y0075397D02*
X0134950Y0075397D01*
X0134950Y0076396D02*
X0127357Y0076396D01*
X0126358Y0077394D02*
X0134950Y0077394D01*
X0134950Y0078393D02*
X0125360Y0078393D01*
X0124361Y0079391D02*
X0134950Y0079391D01*
X0134950Y0080390D02*
X0123363Y0080390D01*
X0122364Y0081388D02*
X0134950Y0081388D01*
X0134950Y0082387D02*
X0121366Y0082387D01*
X0120367Y0083385D02*
X0134950Y0083385D01*
X0134950Y0084384D02*
X0119369Y0084384D01*
X0118800Y0084953D02*
X0118800Y0084953D01*
X0118370Y0085382D02*
X0134950Y0085382D01*
X0134950Y0086381D02*
X0112730Y0086381D01*
X0110270Y0086381D02*
X0102730Y0086381D01*
X0100270Y0086381D02*
X0092730Y0086381D01*
X0090270Y0086381D02*
X0082730Y0086381D01*
X0080270Y0086381D02*
X0072730Y0086381D01*
X0070270Y0086381D02*
X0062730Y0086381D01*
X0060270Y0086381D02*
X0052420Y0086381D01*
X0052000Y0086381D02*
X0051000Y0086381D01*
X0050580Y0086381D02*
X0047372Y0086381D01*
X0048325Y0087379D02*
X0046373Y0087379D01*
X0045732Y0088378D02*
X0047341Y0088378D01*
X0046746Y0089376D02*
X0046249Y0089376D01*
X0051000Y0089376D02*
X0052000Y0089376D01*
X0052000Y0088378D02*
X0051000Y0088378D01*
X0051000Y0087379D02*
X0052000Y0087379D01*
X0054675Y0087379D02*
X0058267Y0087379D01*
X0057268Y0088378D02*
X0055659Y0088378D01*
X0056254Y0089376D02*
X0056751Y0089376D01*
X0052000Y0090375D02*
X0051000Y0090375D01*
X0051000Y0092000D02*
X0051000Y0096314D01*
X0051000Y0101000D01*
X0052000Y0101000D01*
X0052000Y0092000D01*
X0051000Y0092000D01*
X0051000Y0092372D02*
X0052000Y0092372D01*
X0052000Y0093370D02*
X0051000Y0093370D01*
X0051000Y0094369D02*
X0052000Y0094369D01*
X0052000Y0095368D02*
X0051000Y0095368D01*
X0051000Y0096366D02*
X0052000Y0096366D01*
X0052000Y0097365D02*
X0051000Y0097365D01*
X0051000Y0098363D02*
X0052000Y0098363D01*
X0052000Y0099362D02*
X0051000Y0099362D01*
X0051000Y0100360D02*
X0052000Y0100360D01*
X0039659Y0096366D02*
X0008175Y0096366D01*
X0008175Y0095368D02*
X0038014Y0095368D01*
X0037060Y0094369D02*
X0008175Y0094369D01*
X0008175Y0093370D02*
X0036646Y0093370D01*
X0036300Y0092372D02*
X0008175Y0092372D01*
X0008175Y0091373D02*
X0036300Y0091373D01*
X0036338Y0090375D02*
X0008175Y0090375D01*
X0008175Y0089376D02*
X0036751Y0089376D01*
X0037268Y0088378D02*
X0008175Y0088378D01*
X0008175Y0087379D02*
X0038267Y0087379D01*
X0040270Y0086381D02*
X0008175Y0086381D01*
X0008175Y0085382D02*
X0041865Y0085382D01*
X0042863Y0084384D02*
X0008175Y0084384D01*
X0008175Y0083385D02*
X0043862Y0083385D01*
X0044860Y0082387D02*
X0008175Y0082387D01*
X0008175Y0081388D02*
X0115859Y0081388D01*
X0116857Y0080390D02*
X0059211Y0080390D01*
X0055289Y0080390D02*
X0008175Y0080390D01*
X0008175Y0079391D02*
X0054584Y0079391D01*
X0054350Y0078393D02*
X0008175Y0078393D01*
X0008175Y0077394D02*
X0054465Y0077394D01*
X0055003Y0076396D02*
X0008175Y0076396D01*
X0008175Y0097365D02*
X0038282Y0097365D01*
X0037283Y0098363D02*
X0008175Y0098363D01*
X0008175Y0099362D02*
X0036757Y0099362D01*
X0036344Y0100360D02*
X0008175Y0100360D01*
X0008175Y0101359D02*
X0036300Y0101359D01*
X0036300Y0102357D02*
X0008331Y0102357D01*
X0008730Y0103356D02*
X0036640Y0103356D01*
X0037054Y0104354D02*
X0009728Y0104354D01*
X0064733Y0087379D02*
X0068267Y0087379D01*
X0067268Y0088378D02*
X0065732Y0088378D01*
X0066249Y0089376D02*
X0066751Y0089376D01*
X0074733Y0087379D02*
X0078267Y0087379D01*
X0077268Y0088378D02*
X0075732Y0088378D01*
X0076249Y0089376D02*
X0076751Y0089376D01*
X0084733Y0087379D02*
X0088267Y0087379D01*
X0087268Y0088378D02*
X0085732Y0088378D01*
X0086249Y0089376D02*
X0086751Y0089376D01*
X0094733Y0087379D02*
X0098267Y0087379D01*
X0097268Y0088378D02*
X0095732Y0088378D01*
X0096249Y0089376D02*
X0096751Y0089376D01*
X0104733Y0087379D02*
X0108267Y0087379D01*
X0107268Y0088378D02*
X0105732Y0088378D01*
X0106249Y0089376D02*
X0106751Y0089376D01*
X0114733Y0087379D02*
X0134950Y0087379D01*
X0134950Y0088378D02*
X0115732Y0088378D01*
X0116249Y0089376D02*
X0134950Y0089376D01*
X0134950Y0090375D02*
X0116662Y0090375D01*
X0116700Y0091373D02*
X0134950Y0091373D01*
X0134950Y0092372D02*
X0134321Y0092372D01*
X0132000Y0092372D02*
X0131000Y0092372D01*
X0131000Y0093370D02*
X0132000Y0093370D01*
X0132000Y0094369D02*
X0131000Y0094369D01*
X0131000Y0095368D02*
X0132000Y0095368D01*
X0131000Y0096366D02*
X0122000Y0096366D01*
X0122000Y0095368D02*
X0121000Y0095368D01*
X0121000Y0096250D02*
X0121000Y0091564D01*
X0120282Y0091678D01*
X0119504Y0091931D01*
X0118775Y0092303D01*
X0118112Y0092784D01*
X0117534Y0093362D01*
X0117053Y0094025D01*
X0116681Y0094754D01*
X0116428Y0095532D01*
X0116314Y0096250D01*
X0121000Y0096250D01*
X0121000Y0096366D02*
X0113341Y0096366D01*
X0114718Y0097365D02*
X0116333Y0097365D01*
X0116557Y0098363D02*
X0115717Y0098363D01*
X0116243Y0099362D02*
X0116995Y0099362D01*
X0116656Y0100360D02*
X0117756Y0100360D01*
X0116700Y0101359D02*
X0119091Y0101359D01*
X0121000Y0101359D02*
X0122000Y0101359D01*
X0122000Y0100360D02*
X0121000Y0100360D01*
X0121000Y0099362D02*
X0122000Y0099362D01*
X0122000Y0098363D02*
X0121000Y0098363D01*
X0121000Y0097365D02*
X0122000Y0097365D01*
X0125244Y0100360D02*
X0127756Y0100360D01*
X0126995Y0099362D02*
X0126005Y0099362D01*
X0126443Y0098363D02*
X0126557Y0098363D01*
X0129091Y0101359D02*
X0123909Y0101359D01*
X0131000Y0101359D02*
X0132000Y0101359D01*
X0132000Y0100360D02*
X0131000Y0100360D01*
X0131000Y0099362D02*
X0132000Y0099362D01*
X0132000Y0098363D02*
X0131000Y0098363D01*
X0131000Y0097365D02*
X0132000Y0097365D01*
X0133909Y0101359D02*
X0134950Y0101359D01*
X0134791Y0102357D02*
X0116700Y0102357D01*
X0116360Y0103356D02*
X0134365Y0103356D01*
X0133383Y0104354D02*
X0115946Y0104354D01*
X0116482Y0095368D02*
X0114986Y0095368D01*
X0115940Y0094369D02*
X0116877Y0094369D01*
X0116354Y0093370D02*
X0117528Y0093370D01*
X0116700Y0092372D02*
X0118679Y0092372D01*
X0121000Y0092372D02*
X0122000Y0092372D01*
X0122000Y0093370D02*
X0121000Y0093370D01*
X0121000Y0094369D02*
X0122000Y0094369D01*
X0124321Y0092372D02*
X0128679Y0092372D01*
X0127528Y0093370D02*
X0125472Y0093370D01*
X0126123Y0094369D02*
X0126877Y0094369D01*
X0121556Y0068408D02*
X0113018Y0068408D01*
X0114016Y0067409D02*
X0120988Y0067409D01*
X0120850Y0066411D02*
X0114595Y0066411D01*
X0115009Y0065412D02*
X0121062Y0065412D01*
X0121450Y0064414D02*
X0115250Y0064414D01*
X0115250Y0063415D02*
X0121450Y0063415D01*
X0121450Y0062417D02*
X0115250Y0062417D01*
X0114867Y0061418D02*
X0121450Y0061418D01*
X0121450Y0060420D02*
X0114453Y0060420D01*
X0113673Y0059421D02*
X0121450Y0059421D01*
X0121450Y0058423D02*
X0112675Y0058423D01*
X0110454Y0057424D02*
X0121450Y0057424D01*
X0131300Y0042446D02*
X0134950Y0042446D01*
X0134950Y0041448D02*
X0131300Y0041448D01*
X0131300Y0040449D02*
X0134950Y0040449D01*
X0134950Y0039451D02*
X0131300Y0039451D01*
X0131300Y0038452D02*
X0134950Y0038452D01*
X0134950Y0037454D02*
X0131300Y0037454D01*
X0131300Y0036455D02*
X0134950Y0036455D01*
X0134950Y0035457D02*
X0131300Y0035457D01*
X0131300Y0034458D02*
X0134950Y0034458D01*
X0134950Y0033460D02*
X0131300Y0033460D01*
X0131300Y0032461D02*
X0134950Y0032461D01*
X0134950Y0031463D02*
X0131300Y0031463D01*
X0131300Y0030464D02*
X0134950Y0030464D01*
X0134950Y0029466D02*
X0131300Y0029466D01*
X0131300Y0028467D02*
X0134950Y0028467D01*
X0134950Y0027469D02*
X0131300Y0027469D01*
X0131300Y0026470D02*
X0134950Y0026470D01*
X0134950Y0025472D02*
X0131300Y0025472D01*
X0131300Y0024473D02*
X0134950Y0024473D01*
X0134950Y0023475D02*
X0131300Y0023475D01*
X0131300Y0022476D02*
X0134950Y0022476D01*
X0134950Y0021478D02*
X0131300Y0021478D01*
X0134625Y0020479D02*
X0134950Y0020479D01*
X0126700Y0020479D02*
X0124625Y0020479D01*
X0123800Y0021478D02*
X0126700Y0021478D01*
X0126700Y0022476D02*
X0123776Y0022476D01*
X0122778Y0023475D02*
X0126700Y0023475D01*
X0126700Y0024473D02*
X0121779Y0024473D01*
X0120781Y0025472D02*
X0126700Y0025472D01*
X0126700Y0026470D02*
X0119782Y0026470D01*
X0118784Y0027469D02*
X0126700Y0027469D01*
X0126700Y0028467D02*
X0117785Y0028467D01*
X0116787Y0029466D02*
X0126700Y0029466D01*
X0126700Y0030464D02*
X0115788Y0030464D01*
X0125623Y0019481D02*
X0126700Y0019481D01*
X0126700Y0018482D02*
X0126204Y0018482D01*
D16*
X0118625Y0032375D03*
X0125500Y0045250D03*
X0123750Y0066500D03*
X0091500Y0046500D03*
X0080000Y0048000D03*
X0069750Y0047500D03*
X0058000Y0034000D03*
X0046000Y0052500D03*
X0025000Y0067625D03*
X0012000Y0089500D03*
X0057250Y0078250D03*
X0076250Y0074250D03*
X0078500Y0067500D03*
X0090000Y0065000D03*
X0096000Y0032500D03*
X0032750Y0017500D03*
D17*
X0041500Y0021500D02*
X0041500Y0026500D01*
X0044000Y0029000D01*
X0101500Y0029000D01*
X0114000Y0029000D01*
X0121500Y0021500D01*
X0121500Y0016250D01*
X0129000Y0018750D02*
X0131500Y0016250D01*
X0129000Y0018750D02*
X0129000Y0049000D01*
X0125500Y0045500D01*
X0125500Y0045250D01*
X0129000Y0049000D02*
X0129000Y0071500D01*
X0116500Y0084000D01*
X0046500Y0084000D01*
X0041500Y0089000D01*
X0041500Y0091500D01*
X0101500Y0029000D02*
X0123750Y0051250D01*
X0123750Y0066500D01*
D18*
X0109000Y0063587D02*
X0109000Y0071500D01*
X0102250Y0078250D01*
X0057250Y0078250D01*
X0076250Y0074250D02*
X0093750Y0074250D01*
X0096500Y0071500D01*
X0096500Y0051500D01*
X0098193Y0049807D01*
X0109000Y0049807D01*
M02*
