G75*
%MOIN*%
%OFA0B0*%
%FSLAX25Y25*%
%IPPOS*%
%LPD*%
%AMOC8*
5,1,8,0,0,1.08239X$1,22.5*
%
%ADD10C,0.00500*%
%ADD11C,0.00100*%
%ADD12C,0.00600*%
D10*
X0037644Y0027021D02*
X0038144Y0026521D01*
X0039145Y0026521D01*
X0039646Y0027021D01*
X0040867Y0027522D02*
X0040867Y0029523D01*
X0039646Y0029023D02*
X0039145Y0029523D01*
X0038144Y0029523D01*
X0037644Y0029023D01*
X0037644Y0028522D01*
X0038144Y0028022D01*
X0037644Y0027522D01*
X0037644Y0027021D01*
X0038144Y0028022D02*
X0038645Y0028022D01*
X0040867Y0027522D02*
X0041867Y0026521D01*
X0042868Y0027522D01*
X0042868Y0029523D01*
X0044089Y0029023D02*
X0044089Y0028522D01*
X0044590Y0028022D01*
X0044089Y0027522D01*
X0044089Y0027021D01*
X0044590Y0026521D01*
X0045591Y0026521D01*
X0046091Y0027021D01*
X0045090Y0028022D02*
X0044590Y0028022D01*
X0044089Y0029023D02*
X0044590Y0029523D01*
X0045591Y0029523D01*
X0046091Y0029023D01*
X0012482Y0037798D02*
X0011981Y0037298D01*
X0009980Y0037298D01*
X0009479Y0037798D01*
X0009479Y0038799D01*
X0009980Y0039299D01*
X0010981Y0039299D01*
X0010981Y0038299D01*
X0011981Y0039299D02*
X0012482Y0038799D01*
X0012482Y0037798D01*
X0012482Y0040521D02*
X0009479Y0040521D01*
X0009479Y0042522D02*
X0012482Y0042522D01*
X0012482Y0043743D02*
X0012482Y0045245D01*
X0011981Y0045745D01*
X0009980Y0045745D01*
X0009479Y0045245D01*
X0009479Y0043743D01*
X0012482Y0043743D01*
X0012482Y0040521D02*
X0009479Y0042522D01*
X0009980Y0047298D02*
X0009479Y0047798D01*
X0009479Y0048799D01*
X0009980Y0049299D01*
X0010480Y0049299D01*
X0010981Y0048799D01*
X0010981Y0048299D01*
X0010981Y0048799D02*
X0011481Y0049299D01*
X0011981Y0049299D01*
X0012482Y0048799D01*
X0012482Y0047798D01*
X0011981Y0047298D01*
X0012482Y0050521D02*
X0010480Y0050521D01*
X0009479Y0051521D01*
X0010480Y0052522D01*
X0012482Y0052522D01*
X0011981Y0053743D02*
X0012482Y0054244D01*
X0012482Y0055245D01*
X0011981Y0055745D01*
X0011481Y0055745D01*
X0010981Y0055245D01*
X0010480Y0055745D01*
X0009980Y0055745D01*
X0009479Y0055245D01*
X0009479Y0054244D01*
X0009980Y0053743D01*
X0010981Y0054744D02*
X0010981Y0055245D01*
X0011481Y0057298D02*
X0010981Y0057798D01*
X0010981Y0058799D01*
X0010480Y0059299D01*
X0009980Y0059299D01*
X0009479Y0058799D01*
X0009479Y0057798D01*
X0009980Y0057298D01*
X0011481Y0057298D02*
X0011981Y0057298D01*
X0012482Y0057798D01*
X0012482Y0058799D01*
X0011981Y0059299D01*
X0011981Y0060521D02*
X0009980Y0060521D01*
X0009479Y0061021D01*
X0009479Y0062022D01*
X0009980Y0062522D01*
X0009479Y0063743D02*
X0009479Y0065745D01*
X0009980Y0067298D02*
X0009479Y0067798D01*
X0009479Y0068799D01*
X0009980Y0069299D01*
X0010480Y0069299D01*
X0010981Y0068799D01*
X0010981Y0067798D01*
X0011481Y0067298D01*
X0011981Y0067298D01*
X0012482Y0067798D01*
X0012482Y0068799D01*
X0011981Y0069299D01*
X0012482Y0070521D02*
X0012482Y0072022D01*
X0011981Y0072522D01*
X0009980Y0072522D01*
X0009479Y0072022D01*
X0009479Y0070521D01*
X0012482Y0070521D01*
X0011481Y0073743D02*
X0009479Y0073743D01*
X0010981Y0073743D02*
X0010981Y0075745D01*
X0011481Y0075745D02*
X0012482Y0074744D01*
X0011481Y0073743D01*
X0011481Y0075745D02*
X0009479Y0075745D01*
X0009479Y0063743D02*
X0012482Y0063743D01*
X0011981Y0062522D02*
X0012482Y0062022D01*
X0012482Y0061021D01*
X0011981Y0060521D01*
X0038755Y0084522D02*
X0039756Y0083521D01*
X0040757Y0084522D01*
X0040757Y0086523D01*
X0041978Y0086523D02*
X0043980Y0086523D01*
X0043980Y0085022D01*
X0042979Y0085522D01*
X0042478Y0085522D01*
X0041978Y0085022D01*
X0041978Y0084021D01*
X0042478Y0083521D01*
X0043479Y0083521D01*
X0043980Y0084021D01*
X0038755Y0084522D02*
X0038755Y0086523D01*
X0107394Y0029273D02*
X0109396Y0029273D01*
X0108395Y0029273D02*
X0108395Y0026271D01*
X0110617Y0026771D02*
X0111117Y0026271D01*
X0112118Y0026271D01*
X0112618Y0026771D01*
X0112118Y0027772D02*
X0111117Y0027772D01*
X0110617Y0027272D01*
X0110617Y0026771D01*
X0112118Y0027772D02*
X0112618Y0028272D01*
X0112618Y0028773D01*
X0112118Y0029273D01*
X0111117Y0029273D01*
X0110617Y0028773D01*
X0113839Y0028773D02*
X0113839Y0027772D01*
X0114340Y0027272D01*
X0115841Y0027272D01*
X0114840Y0027272D02*
X0113839Y0026271D01*
X0115841Y0026271D02*
X0115841Y0029273D01*
X0114340Y0029273D01*
X0113839Y0028773D01*
X0118144Y0011273D02*
X0117644Y0010773D01*
X0117644Y0010272D01*
X0118144Y0009772D01*
X0117644Y0009272D01*
X0117644Y0008771D01*
X0118144Y0008271D01*
X0119145Y0008271D01*
X0119646Y0008771D01*
X0120867Y0009272D02*
X0120867Y0011273D01*
X0119646Y0010773D02*
X0119145Y0011273D01*
X0118144Y0011273D01*
X0118144Y0009772D02*
X0118645Y0009772D01*
X0120867Y0009272D02*
X0121867Y0008271D01*
X0122868Y0009272D01*
X0122868Y0011273D01*
X0124089Y0010773D02*
X0124089Y0010272D01*
X0124590Y0009772D01*
X0124089Y0009272D01*
X0124089Y0008771D01*
X0124590Y0008271D01*
X0125591Y0008271D01*
X0126091Y0008771D01*
X0125090Y0009772D02*
X0124590Y0009772D01*
X0124089Y0010773D02*
X0124590Y0011273D01*
X0125591Y0011273D01*
X0126091Y0010773D01*
X0129255Y0011273D02*
X0129255Y0009272D01*
X0130256Y0008271D01*
X0131257Y0009272D01*
X0131257Y0011273D01*
X0132478Y0011273D02*
X0134480Y0011273D01*
X0134480Y0009772D01*
X0133479Y0010272D01*
X0132978Y0010272D01*
X0132478Y0009772D01*
X0132478Y0008771D01*
X0132978Y0008271D01*
X0133979Y0008271D01*
X0134480Y0008771D01*
X0131091Y0101521D02*
X0130090Y0101521D01*
X0129589Y0102021D01*
X0129589Y0103022D01*
X0130590Y0103022D01*
X0129589Y0104023D02*
X0130090Y0104523D01*
X0131091Y0104523D01*
X0131591Y0104023D01*
X0131591Y0102021D01*
X0131091Y0101521D01*
X0128368Y0101521D02*
X0128368Y0104523D01*
X0126367Y0101521D01*
X0126367Y0104523D01*
X0125146Y0104523D02*
X0123644Y0104523D01*
X0123144Y0104023D01*
X0123144Y0102021D01*
X0123644Y0101521D01*
X0125146Y0101521D01*
X0125146Y0104523D01*
D11*
X0031500Y0013500D02*
X0011500Y0013500D01*
X0011356Y0013501D01*
X0011212Y0013505D01*
X0011068Y0013513D01*
X0010925Y0013525D01*
X0010782Y0013541D01*
X0010639Y0013560D01*
X0010497Y0013584D01*
X0010356Y0013611D01*
X0010216Y0013642D01*
X0010076Y0013677D01*
X0009937Y0013716D01*
X0009800Y0013759D01*
X0009664Y0013805D01*
X0009529Y0013855D01*
X0009395Y0013908D01*
X0009263Y0013965D01*
X0009133Y0014026D01*
X0009004Y0014090D01*
X0008877Y0014158D01*
X0008752Y0014229D01*
X0008628Y0014303D01*
X0008507Y0014381D01*
X0008388Y0014462D01*
X0008272Y0014546D01*
X0008157Y0014633D01*
X0008045Y0014723D01*
X0007936Y0014817D01*
X0007829Y0014913D01*
X0007725Y0015012D01*
X0007623Y0015114D01*
X0007524Y0015219D01*
X0007428Y0015326D01*
X0007335Y0015436D01*
X0007245Y0015548D01*
X0007159Y0015663D01*
X0007075Y0015780D01*
X0006994Y0015899D01*
X0006917Y0016020D01*
X0006843Y0016144D01*
X0006773Y0016269D01*
X0006705Y0016397D01*
X0006642Y0016526D01*
X0006581Y0016656D01*
X0006525Y0016789D01*
X0006472Y0016922D01*
X0006422Y0017057D01*
X0006377Y0017194D01*
X0006335Y0017331D01*
X0006296Y0017470D01*
X0006262Y0017610D01*
X0006231Y0017750D01*
X0006204Y0017892D01*
X0006181Y0018034D01*
X0006162Y0018176D01*
X0006147Y0018320D01*
X0006136Y0018463D01*
X0006128Y0018607D01*
X0006124Y0018750D01*
X0006125Y0018750D02*
X0006125Y0101250D01*
X0006120Y0101396D01*
X0006119Y0101543D01*
X0006122Y0101690D01*
X0006129Y0101836D01*
X0006140Y0101982D01*
X0006155Y0102128D01*
X0006174Y0102273D01*
X0006196Y0102418D01*
X0006222Y0102563D01*
X0006253Y0102706D01*
X0006287Y0102849D01*
X0006324Y0102990D01*
X0006366Y0103131D01*
X0006411Y0103270D01*
X0006460Y0103408D01*
X0006513Y0103545D01*
X0006569Y0103680D01*
X0006629Y0103814D01*
X0006692Y0103946D01*
X0006759Y0104077D01*
X0006830Y0104206D01*
X0006903Y0104332D01*
X0006980Y0104457D01*
X0007061Y0104580D01*
X0007144Y0104700D01*
X0007231Y0104818D01*
X0007321Y0104934D01*
X0007414Y0105047D01*
X0007510Y0105158D01*
X0007609Y0105266D01*
X0007710Y0105372D01*
X0007815Y0105475D01*
X0007922Y0105575D01*
X0008032Y0105672D01*
X0008144Y0105766D01*
X0008259Y0105857D01*
X0008376Y0105945D01*
X0008496Y0106030D01*
X0008617Y0106112D01*
X0008741Y0106190D01*
X0008867Y0106265D01*
X0008995Y0106337D01*
X0009125Y0106405D01*
X0009256Y0106470D01*
X0009389Y0106532D01*
X0009524Y0106589D01*
X0009660Y0106643D01*
X0009798Y0106694D01*
X0009937Y0106741D01*
X0010077Y0106784D01*
X0010218Y0106823D01*
X0010360Y0106859D01*
X0010503Y0106891D01*
X0010647Y0106918D01*
X0010792Y0106943D01*
X0010937Y0106963D01*
X0011083Y0106979D01*
X0011229Y0106992D01*
X0011375Y0107000D01*
X0131375Y0107000D01*
X0131524Y0106999D01*
X0131672Y0106995D01*
X0131820Y0106987D01*
X0131967Y0106975D01*
X0132114Y0106959D01*
X0132261Y0106939D01*
X0132407Y0106915D01*
X0132553Y0106887D01*
X0132697Y0106856D01*
X0132841Y0106820D01*
X0132984Y0106781D01*
X0133126Y0106738D01*
X0133266Y0106691D01*
X0133405Y0106640D01*
X0133543Y0106586D01*
X0133680Y0106528D01*
X0133814Y0106467D01*
X0133947Y0106402D01*
X0134079Y0106333D01*
X0134208Y0106261D01*
X0134336Y0106186D01*
X0134461Y0106107D01*
X0134584Y0106025D01*
X0134705Y0105939D01*
X0134824Y0105851D01*
X0134940Y0105759D01*
X0135054Y0105664D01*
X0135165Y0105567D01*
X0135274Y0105466D01*
X0135380Y0105362D01*
X0135483Y0105256D01*
X0135583Y0105147D01*
X0135680Y0105035D01*
X0135775Y0104921D01*
X0135866Y0104805D01*
X0135954Y0104685D01*
X0136039Y0104564D01*
X0136120Y0104441D01*
X0136199Y0104315D01*
X0136274Y0104187D01*
X0136345Y0104057D01*
X0136413Y0103926D01*
X0136478Y0103792D01*
X0136539Y0103657D01*
X0136596Y0103521D01*
X0136650Y0103383D01*
X0136700Y0103243D01*
X0136746Y0103103D01*
X0136788Y0102961D01*
X0136827Y0102818D01*
X0136862Y0102674D01*
X0136893Y0102529D01*
X0136920Y0102384D01*
X0136943Y0102237D01*
X0136962Y0102090D01*
X0136978Y0101943D01*
X0136989Y0101795D01*
X0136997Y0101648D01*
X0137001Y0101500D01*
X0137000Y0101500D02*
X0137000Y0011500D01*
X0137001Y0011354D01*
X0136998Y0011209D01*
X0136992Y0011063D01*
X0136982Y0010918D01*
X0136967Y0010773D01*
X0136949Y0010629D01*
X0136927Y0010485D01*
X0136901Y0010342D01*
X0136871Y0010199D01*
X0136837Y0010058D01*
X0136799Y0009917D01*
X0136758Y0009777D01*
X0136713Y0009639D01*
X0136664Y0009502D01*
X0136612Y0009366D01*
X0136555Y0009232D01*
X0136495Y0009099D01*
X0136432Y0008968D01*
X0136365Y0008839D01*
X0136295Y0008711D01*
X0136221Y0008586D01*
X0136144Y0008462D01*
X0136063Y0008341D01*
X0135979Y0008222D01*
X0135892Y0008105D01*
X0135802Y0007991D01*
X0135709Y0007879D01*
X0135613Y0007770D01*
X0135514Y0007663D01*
X0135412Y0007559D01*
X0135307Y0007458D01*
X0135200Y0007360D01*
X0135090Y0007264D01*
X0134977Y0007172D01*
X0134862Y0007083D01*
X0134745Y0006997D01*
X0134625Y0006914D01*
X0134503Y0006834D01*
X0134379Y0006758D01*
X0134253Y0006685D01*
X0134125Y0006616D01*
X0133995Y0006550D01*
X0133864Y0006487D01*
X0133730Y0006428D01*
X0133596Y0006373D01*
X0133460Y0006322D01*
X0133322Y0006274D01*
X0133183Y0006230D01*
X0133043Y0006189D01*
X0132902Y0006153D01*
X0132761Y0006120D01*
X0132618Y0006091D01*
X0132474Y0006067D01*
X0132330Y0006045D01*
X0132186Y0006028D01*
X0132041Y0006015D01*
X0131895Y0006006D01*
X0131750Y0006000D01*
X0038750Y0006000D01*
X0031500Y0013500D01*
D12*
X0037721Y0056779D02*
X0037154Y0057346D01*
X0037154Y0058481D01*
X0037721Y0059048D01*
X0038855Y0059048D01*
X0039422Y0058481D01*
X0039422Y0057346D01*
X0038855Y0056779D01*
X0037721Y0056779D01*
X0040743Y0058481D02*
X0041878Y0058481D01*
X0041311Y0059615D02*
X0041311Y0056779D01*
X0043292Y0056779D02*
X0043292Y0058481D01*
X0043859Y0059048D01*
X0045561Y0059048D01*
X0045561Y0056779D01*
X0046882Y0056779D02*
X0048016Y0056779D01*
X0047449Y0056779D02*
X0047449Y0059048D01*
X0048016Y0059048D01*
X0047449Y0060182D02*
X0047449Y0060749D01*
X0049431Y0058481D02*
X0049998Y0059048D01*
X0051132Y0059048D01*
X0051699Y0058481D01*
X0051699Y0057346D01*
X0051132Y0056779D01*
X0049998Y0056779D01*
X0049431Y0057914D02*
X0051699Y0057914D01*
X0053021Y0056779D02*
X0054155Y0056779D01*
X0053588Y0056779D02*
X0053588Y0060182D01*
X0054155Y0060182D01*
X0055569Y0058481D02*
X0055569Y0057914D01*
X0057838Y0057914D01*
X0057838Y0058481D02*
X0057271Y0059048D01*
X0056137Y0059048D01*
X0055569Y0058481D01*
X0056137Y0056779D02*
X0057271Y0056779D01*
X0057838Y0057346D01*
X0057838Y0058481D01*
X0059159Y0059048D02*
X0060293Y0059048D01*
X0059726Y0059615D02*
X0059726Y0057346D01*
X0059159Y0056779D01*
X0061708Y0060182D02*
X0063977Y0056779D01*
X0065391Y0057914D02*
X0067660Y0057914D01*
X0067660Y0058481D02*
X0067093Y0059048D01*
X0065958Y0059048D01*
X0065391Y0058481D01*
X0065391Y0057914D01*
X0065958Y0056779D02*
X0067093Y0056779D01*
X0067660Y0057346D01*
X0067660Y0058481D01*
X0069074Y0058481D02*
X0069074Y0056779D01*
X0070209Y0056779D02*
X0070209Y0058481D01*
X0069641Y0059048D01*
X0069074Y0058481D01*
X0070209Y0058481D02*
X0070776Y0059048D01*
X0071343Y0059048D01*
X0071343Y0056779D01*
X0072617Y0056779D02*
X0073184Y0056779D01*
X0073184Y0057346D01*
X0072617Y0057346D01*
X0072617Y0056779D01*
X0074599Y0056779D02*
X0076300Y0056779D01*
X0076868Y0057346D01*
X0076868Y0058481D01*
X0076300Y0059048D01*
X0074599Y0059048D01*
X0074599Y0060182D02*
X0074599Y0056779D01*
X0078235Y0059048D02*
X0078803Y0059048D01*
X0079937Y0057914D01*
X0079937Y0059048D02*
X0079937Y0056779D01*
X0081351Y0056779D02*
X0081351Y0058481D01*
X0081919Y0059048D01*
X0083053Y0059048D01*
X0083053Y0057914D02*
X0081351Y0057914D01*
X0081351Y0056779D02*
X0083053Y0056779D01*
X0083620Y0057346D01*
X0083053Y0057914D01*
X0084941Y0056779D02*
X0086075Y0056779D01*
X0085508Y0056779D02*
X0085508Y0060182D01*
X0086075Y0060182D01*
X0087964Y0060182D02*
X0087964Y0056779D01*
X0088531Y0056779D02*
X0087397Y0056779D01*
X0089945Y0056779D02*
X0089945Y0058481D01*
X0090513Y0059048D01*
X0091647Y0059048D01*
X0091647Y0057914D02*
X0089945Y0057914D01*
X0089945Y0056779D02*
X0091647Y0056779D01*
X0092214Y0057346D01*
X0091647Y0057914D01*
X0093629Y0058481D02*
X0093629Y0056779D01*
X0093629Y0058481D02*
X0094196Y0059048D01*
X0095330Y0059048D01*
X0095897Y0058481D01*
X0095897Y0060182D02*
X0095897Y0056779D01*
X0088531Y0060182D02*
X0087964Y0060182D01*
X0049431Y0058481D02*
X0049431Y0057914D01*
X0041311Y0059615D02*
X0040743Y0060182D01*
M02*
