%
M48
M72
T01C0.01400
T02C0.04000
T03C0.04016
T04C0.04331
%
T01
X32750Y17500
X118625Y32375
X125500Y45250
X123750Y66500
X91500Y46500
X80000Y48000
X69750Y47500
X58000Y34000
X46000Y52500
X25000Y67625
X12000Y89500
X57250Y78250
X76250Y74250
X78500Y67500
X90000Y65000
X96000Y32500
T02
X41500Y11500
X51500Y11500
X61500Y11500
X71500Y11500
X81500Y11500
X91500Y11500
X101500Y11500
X111500Y11500
X121500Y16250
X131500Y16250
X111500Y21500
X101500Y21500
X91500Y21500
X81500Y21500
X71500Y21500
X61500Y21500
X51500Y21500
X41500Y21500
X131500Y96750
X121500Y96750
X111500Y101500
X101500Y101500
X91500Y101500
X81500Y101500
X71500Y101500
X61500Y101500
X51500Y101500
X41500Y101500
X41500Y91500
X51500Y91500
X61500Y91500
X71500Y91500
X81500Y91500
X91500Y91500
X101500Y91500
X111500Y91500
T03
X19000Y41500
X19000Y51500
X19000Y61500
X19000Y71500
T04
X109000Y49807
X109000Y63587
M30
